<?xml version="1.0" encoding="UTF-8" standalone="no"?>
<svg
   version="1.1"
   width="306.24026"
   height="8.5234051"
   viewBox="0 0 306.24026 8.523405"
   xml:space="preserve"
   id="svg7"
   sodipodi:docname="combined.svg"
   xmlns:inkscape="http://www.inkscape.org/namespaces/inkscape"
   xmlns:sodipodi="http://sodipodi.sourceforge.net/DTD/sodipodi-0.dtd"
   xmlns:xlink="http://www.w3.org/1999/xlink"
   xmlns="http://www.w3.org/2000/svg"
   xmlns:svg="http://www.w3.org/2000/svg"><sodipodi:namedview
   id="namedview1"
   pagecolor="#ffffff"
   bordercolor="#000000"
   borderopacity="0.25"
   inkscape:showpageshadow="2"
   inkscape:pageopacity="0.0"
   inkscape:pagecheckerboard="0"
   inkscape:deskcolor="#d1d1d1" />

<defs
   id="defs1"><rect
     id="SVGID_1_"
     x="68.050003"
     y="238.52"
     width="117.78"
     height="117.78" /></defs>
<g
   style="opacity:1;fill:none;fill-rule:nonzero;stroke:none;stroke-width:0;stroke-linecap:butt;stroke-linejoin:miter;stroke-miterlimit:10;stroke-dasharray:none"
   transform="matrix(0.50998599,0,0,0.46635895,0,-16.724683)"
   id="g7">
	<path
   d="m 2.949,47.892 c 0,1.042 0.229,1.843 0.528,2.327 0.392,0.634 0.977,0.903 1.573,0.903 0.769,0 1.472,-0.191 2.828,-2.066 1.086,-1.503 2.366,-3.612 3.227,-4.935 l 1.458,-2.241 c 1.013,-1.556 2.185,-3.286 3.53,-4.458 1.097,-0.957 2.281,-1.489 3.473,-1.489 2,0 3.906,1.159 5.364,3.333 1.596,2.381 2.371,5.38 2.371,8.475 0,1.84 -0.363,3.192 -0.98,4.26 -0.596,1.033 -1.758,2.065 -3.713,2.065 v -2.945 c 1.674,0 2.091,-1.538 2.091,-3.298 0,-2.508 -0.585,-5.292 -1.873,-7.281 -0.914,-1.411 -2.099,-2.273 -3.403,-2.273 -1.41,0 -2.544,1.063 -3.819,2.959 -0.678,1.007 -1.374,2.235 -2.155,3.62 l -0.86,1.524 c -1.728,3.064 -2.166,3.761 -3.029,4.913 -1.514,2.016 -2.807,2.781 -4.509,2.781 -2.019,0 -3.296,-0.874 -4.087,-2.192 C 0.317,50.801 0,49.392 0,47.786 Z"
   style="opacity:1;fill:#0081fb;fill-rule:nonzero;stroke:none;stroke-width:1;stroke-linecap:butt;stroke-linejoin:miter;stroke-miterlimit:10;stroke-dasharray:none"
   stroke-linecap="round"
   id="path1" />
	<linearGradient
   id="SVGID_2"
   gradientUnits="userSpaceOnUse"
   gradientTransform="matrix(1,0,0,-1,0,92)"
   x1="5.9180002"
   y1="47.469898"
   x2="24.715401"
   y2="46.5205">
<stop
   offset="0%"
   style="stop-color:rgb(0,100,225);stop-opacity: 1"
   id="stop1" />
<stop
   offset="40%"
   style="stop-color:rgb(0,100,225);stop-opacity: 1"
   id="stop2" />
<stop
   offset="83%"
   style="stop-color:rgb(0,115,238);stop-opacity: 1"
   id="stop3" />
<stop
   offset="100%"
   style="stop-color:rgb(0,130,251);stop-opacity: 1"
   id="stop4" />
</linearGradient>
<path
   d="m 2.325,39.475 c 1.352,-2.084 3.303,-3.541 5.541,-3.541 1.296,0 2.584,0.384 3.929,1.482 1.472,1.201 3.04,3.178 4.997,6.438 l 0.702,1.17 c 1.694,2.822 2.657,4.273 3.221,4.958 0.725,0.879 1.233,1.141 1.893,1.141 1.674,0 2.091,-1.538 2.091,-3.298 L 27.3,47.743 c 0,1.84 -0.363,3.192 -0.98,4.26 -0.596,1.033 -1.758,2.065 -3.713,2.065 -1.215,0 -2.292,-0.264 -3.482,-1.387 -0.915,-0.862 -1.985,-2.393 -2.808,-3.77 l -2.448,-4.09 C 12.641,42.768 11.514,41.238 10.861,40.545 10.159,39.8 9.258,38.9 7.818,38.9 c -1.165,0 -2.154,0.817 -2.982,2.068 z"
   style="opacity:1;fill:url(#SVGID_2);fill-rule:nonzero;stroke:none;stroke-width:1;stroke-linecap:butt;stroke-linejoin:miter;stroke-miterlimit:10;stroke-dasharray:none"
   stroke-linecap="round"
   id="path4" />
	<linearGradient
   id="SVGID_3"
   gradientUnits="userSpaceOnUse"
   gradientTransform="matrix(1,0,0,-1,0,92)"
   x1="3.9328001"
   y1="42.8703"
   x2="3.9328001"
   y2="49.800598">
<stop
   offset="0%"
   style="stop-color:rgb(0,130,251);stop-opacity: 1"
   id="stop5" />
<stop
   offset="100%"
   style="stop-color:rgb(0,100,224);stop-opacity: 1"
   id="stop6" />
</linearGradient>
<path
   d="m 7.818,38.898 c -1.165,0 -2.154,0.817 -2.982,2.068 -1.171,1.767 -1.887,4.398 -1.887,6.926 0,1.042 0.229,1.843 0.528,2.327 L 0.963,51.875 C 0.317,50.801 0,49.392 0,47.786 0,44.867 0.801,41.824 2.325,39.474 3.677,37.39 5.628,35.933 7.866,35.933 Z"
   style="opacity:1;fill:url(#SVGID_3);fill-rule:nonzero;stroke:none;stroke-width:1;stroke-linecap:butt;stroke-linejoin:miter;stroke-miterlimit:10;stroke-dasharray:none"
   stroke-linecap="round"
   id="path6" />
	<path
   d="m 33.032,36.507 h 3.411 l 5.8,10.492 5.801,-10.492 h 3.337 V 53.748 H 48.598 V 40.534 l -5.087,9.15 H 40.9 l -5.086,-9.15 V 53.747 H 33.031 V 36.507 Z M 60.1,42.935 c -1.996,0 -3.197,1.502 -3.485,3.362 h 6.773 C 63.248,44.381 62.143,42.935 60.1,42.935 Z m -6.244,4.421 c 0,-3.913 2.529,-6.761 6.292,-6.761 3.702,0 5.912,2.812 5.912,6.97 v 0.764 h -9.445 c 0.335,2.023 1.678,3.386 3.842,3.386 1.727,0 2.806,-0.527 3.83,-1.491 l 1.478,1.81 c -1.393,1.281 -3.164,2.019 -5.407,2.019 -4.074,0.002 -6.502,-2.969 -6.502,-6.697 z m 15.578,-4.174 h -2.561 v -2.278 h 2.561 v -3.768 h 2.685 v 3.768 h 3.891 v 2.278 h -3.891 v 5.775 c 0,1.972 0.63,2.672 2.18,2.672 0.707,0 1.113,-0.061 1.712,-0.16 v 2.254 c -0.746,0.211 -1.458,0.308 -2.229,0.308 -2.898,0 -4.347,-1.584 -4.347,-4.753 z m 17.881,2.216 c -0.539,-1.361 -1.742,-2.364 -3.51,-2.364 -2.297,0 -3.768,1.63 -3.768,4.285 0,2.589 1.354,4.298 3.658,4.298 1.811,0 3.104,-1.054 3.62,-2.365 z M 90,53.747 h -2.635 v -1.798 c -0.737,1.059 -2.077,2.106 -4.248,2.106 -3.492,0 -5.825,-2.923 -5.825,-6.736 0,-3.849 2.39,-6.724 5.973,-6.724 1.772,0 3.161,0.708 4.1,1.959 v -1.65 H 90 Z"
   style="opacity:1;fill:#192830;fill-rule:nonzero;stroke:none;stroke-width:1;stroke-linecap:butt;stroke-linejoin:miter;stroke-miterlimit:10;stroke-dasharray:none"
   stroke-linecap="round"
   id="path7" />
</g>
<g
   id="layer1"
   transform="matrix(0.08032095,0,0,0.06384856,64.21389,-5.192825)"><path
     style="fill:#171d27;fill-opacity:1;fill-rule:nonzero;stroke:none;stroke-width:5.11043"
     d="m -108.757,152.11534 c -3.86001,0 -7.25789,-0.84271 -10.19368,-2.52813 -2.93579,-1.73959 -5.21918,-4.13178 -6.85016,-7.17658 -1.63099,-3.09845 -2.44648,-6.6594 -2.44648,-10.68285 0,-4.83855 1.19606,-9.07919 3.58819,-12.7214 2.44646,-3.64271 5.89871,-6.44272 10.35675,-8.40001 4.51241,-1.95679 9.78596,-2.93543 15.820617,-2.93543 2.772665,0 5.02887,0.1901 6.768614,0.57083 v -1.7125 c 0,-4.13199 -0.761148,-7.20372 -2.283392,-9.215238 -1.522244,-2.065943 -3.832824,-3.098914 -6.931739,-3.098914 -5.00168,0 -8.2093,2.636778 -9.62279,7.910282 -0.43495,1.5223 -1.33198,2.1747 -2.69115,1.9572 l -11.09071,-1.9572 c -0.81553,-0.16307 -1.38636,-0.51646 -1.71256,-1.06011 -0.27182,-0.54369 -0.29901,-1.277604 -0.0815,-2.201826 1.41352,-5.54538 4.40369,-9.840341 8.97042,-12.884829 4.62116,-3.098864 10.41118,-4.648296 17.370052,-4.648296 8.26367,0 14.54296,2.229017 18.837921,6.687051 4.349386,4.458034 6.523875,10.954773 6.523875,19.49052 v 41.0194 c 0,0.59792 -0.217194,1.11407 -0.652091,1.54897 -0.380728,0.38072 -0.870307,0.57083 -1.468227,0.57083 h -10.601336 c -1.304795,0 -2.120267,-0.70677 -2.446466,-2.1198 l -1.630994,-7.66565 h -0.652398 c -1.467869,3.58803 -3.669699,6.36044 -6.605489,8.31774 -2.881417,1.95729 -6.306477,2.93594 -10.275237,2.93594 z m -1.71256,-22.34485 c 0,2.88177 0.73396,5.1922 2.20183,6.93179 1.5223,1.68542 3.561,2.52813 6.11622,2.52813 3.370736,0 5.953139,-1.49531 7.747208,-4.48543 1.794068,-3.04428 2.691153,-7.39377 2.691153,-13.04744 v -4.3224 c -1.522295,-0.27188 -2.962977,-0.40782 -4.322148,-0.40782 -4.458033,0 -7.991843,1.16876 -10.601433,3.50678 -2.55522,2.28334 -3.83283,5.38231 -3.83283,9.29639 z m 46.156809,-44.852015 c 0,-0.598022 0.190619,-1.087295 0.570836,-1.467869 0.434897,-0.434949 0.951562,-0.652398 1.549483,-0.652398 h 10.764613 c 0.597921,0 1.0875,0.190262 1.467716,0.570836 0.435409,0.380573 0.706773,0.897034 0.815625,1.549431 l 1.63125,7.991847 h 0.652091 c 1.468227,-3.751261 3.560949,-6.605489 6.279699,-8.562682 2.772409,-2.011568 6.034398,-3.017301 9.785455,-3.017301 4.023443,0 7.47554,1.060108 10.356801,3.180426 2.935943,2.120267 5.192199,5.13762 6.768767,9.051955 h 0.652602 c 2.392194,-4.131835 5.083347,-7.203512 8.0734608,-9.21508 2.9901137,-2.011568 6.3333582,-3.017301 10.0302446,-3.017301 4.0234431,0 7.5026256,1.087295 10.4385686,3.261938 2.990113,2.174693 5.273454,5.273556 6.850023,9.296642 1.576568,4.023136 2.365107,8.780181 2.365107,14.271081 v 40.36731 c 0,0.59792 -0.217704,1.11407 -0.652602,1.54897 -0.380727,0.38072 -0.869795,0.57083 -1.467716,0.57083 H 9.5713185 c -0.5979205,0 -1.1145852,-0.19011 -1.5494829,-0.57083 -0.3807272,-0.4349 -0.5708353,-0.95105 -0.5708353,-1.54897 V 109.4647 c 0,-3.96876 -0.7609433,-7.0131 -2.2833409,-9.13337 -1.5223977,-2.120263 -3.7239718,-3.180423 -6.6057443,-3.180423 -3.1531365,0 -5.572415,1.250421 -7.2578354,3.751263 -1.6307387,2.50084 -2.4463637,6.11616 -2.4463637,10.84587 v 36.77927 c 0,0.59792 -0.217704,1.11407 -0.652602,1.54897 -0.380216,0.38072 -0.869796,0.57083 -1.467716,0.57083 h -13.047955 c -0.597921,0 -1.114585,-0.19011 -1.549483,-0.57083 -0.380727,-0.4349 -0.570835,-0.95105 -0.570835,-1.54897 V 109.4647 c 0,-3.96876 -0.760943,-7.0131 -2.283341,-9.13337 -1.522398,-2.120263 -3.723972,-3.180423 -6.605233,-3.180423 -3.153648,0 -5.572926,1.250421 -7.258347,3.751263 -1.630739,2.50084 -2.446364,6.11616 -2.446364,10.84587 v 36.77927 c 0,0.59792 -0.217193,1.11407 -0.652091,1.54897 -0.380727,0.38072 -0.870306,0.57083 -1.468227,0.57083 h -13.047954 c -0.597921,0 -1.114586,-0.19011 -1.549483,-0.57083 -0.380217,-0.4349 -0.570836,-0.95105 -0.570836,-1.54897 z m 97.533104,46.809305 c 0,-4.83855 1.196352,-9.07919 3.588545,-12.7214 2.446364,-3.64271 5.898461,-6.44272 10.356802,-8.40001 4.512,-1.95679 9.785966,-2.93543 15.820364,-2.93543 2.77292,0 5.029176,0.1901 6.768767,0.57083 v -1.7125 c 0,-4.13199 -0.761455,-7.20372 -2.283341,-9.215238 -1.522398,-2.065943 -3.832824,-3.098914 -6.93179,-3.098914 -5.00158,0 -8.209398,2.636778 -9.622943,7.910282 -0.434898,1.5223 -1.331779,2.1747 -2.691154,1.9572 l -11.090659,-1.9572 c -0.815625,-0.16307 -1.38646,-0.51646 -1.712506,-1.06011 -0.271875,-0.54369 -0.29896,-1.277604 -0.08177,-2.201826 1.413546,-5.54538 4.40366,-9.840341 8.970853,-12.884829 4.620852,-3.098864 10.410971,-4.648296 17.369847,-4.648296 8.263568,0 14.542756,2.229017 18.838074,6.687051 4.348977,4.458034 6.523977,10.954773 6.523977,19.49052 v 41.0194 c 0,0.59792 -0.217704,1.11407 -0.652602,1.54897 -0.380727,0.38072 -0.869796,0.57083 -1.467716,0.57083 H 74.321513 c -1.304693,0 -2.120318,-0.70677 -2.446364,-2.1198 l -1.63125,-7.66565 h -0.652091 c -1.468227,3.58803 -3.669801,6.36044 -6.605744,8.31774 -2.881262,1.95729 -6.306273,2.93594 -10.275035,2.93594 -3.968761,0 -7.257835,-0.84271 -10.193778,-2.52813 -2.935943,-1.73959 -5.219284,-4.13178 -6.850023,-7.17658 -1.63125,-3.09845 -2.446875,-6.6594 -2.446875,-10.68285 z m 17.778171,-1.95729 c 0,2.88177 0.733858,5.1922 2.201574,6.93179 1.522397,1.68542 3.560949,2.52813 6.116165,2.52813 3.370841,0 5.953142,-1.49531 7.747414,-4.48543 1.793762,-3.04428 2.691154,-7.39377 2.691154,-13.04744 v -4.3224 c -1.522398,-0.27188 -2.963029,-0.40782 -4.322403,-0.40782 -4.45783,0 -7.991694,1.16876 -10.60108,3.50678 -2.555216,2.28334 -3.832824,5.38231 -3.832824,9.29639 z m 44.852216,8.88908 c 0,-1.19584 0.326046,-2.22917 0.978648,-3.09896 L 124.71906,96.49851 H 98.62315 c -0.597921,0 -1.114586,-0.190262 -1.549483,-0.570836 -0.380216,-0.434948 -0.570836,-0.951409 -0.570836,-1.549431 v -9.459768 c 0,-0.598022 0.19062,-1.087295 0.570836,-1.467869 0.434897,-0.434949 0.951562,-0.652398 1.549483,-0.652398 h 42.89492 c 0.59843,0 1.0875,0.217449 1.46823,0.652398 0.4349,0.380574 0.65209,0.869847 0.65209,1.467869 v 9.867478 c 0,1.196096 -0.32605,2.229017 -0.97865,3.098915 l -25.28028,34.739792 c 1.52239,-0.27136 3.07188,-0.4073 4.64845,-0.4073 3.91459,0 7.50262,0.35313 10.76461,1.05991 3.31616,0.6526 6.74117,1.73959 10.27503,3.26198 1.25053,0.54375 1.87553,1.46772 1.87553,2.77293 v 9.37815 c 0,0.86979 -0.27136,1.46771 -0.81511,1.79376 -0.54375,0.27188 -1.22344,0.24479 -2.03906,-0.0813 -4.07711,-1.52239 -7.69274,-2.5823 -10.84587,-3.18073 -3.09897,-0.65209 -6.4969,-0.97865 -10.19378,-0.97865 -3.69689,0 -7.23075,0.32656 -10.76462,0.97865 -3.47918,0.6526 -7.33909,1.71251 -11.579723,3.18073 -0.815625,0.27188 -1.495313,0.27188 -2.039063,0 -0.543239,-0.32655 -0.815114,-0.89739 -0.815114,-1.7125 z m 52.68089,-21.93704 c 0,-6.63232 1.27761,-12.63993 3.83282,-18.022191 2.55522,-5.43663 6.06148,-9.677216 10.51983,-12.721704 4.51251,-3.098864 9.51409,-4.648296 15.00473,-4.648296 5.49116,0 10.54743,1.549432 15.00525,4.648296 4.51252,3.044488 8.04638,7.285074 10.6016,12.721704 2.60938,5.382261 3.91459,11.389871 3.91459,18.022191 0,6.63283 -1.30521,12.66774 -3.91459,18.10422 -2.55522,5.38231 -6.08908,9.62294 -10.6016,12.72191 -4.45782,3.04428 -9.4594,4.56668 -15.00525,4.56668 -5.54533,0 -10.49222,-1.5224 -15.00473,-4.56668 -4.45835,-3.09897 -7.96461,-7.3396 -10.51983,-12.72191 -2.55521,-5.43648 -3.83282,-11.47139 -3.83282,-18.10422 z m 17.94068,0 c 0,6.90471 0.97865,12.23284 2.93594,15.9839 1.9573,3.69689 4.78388,5.54533 8.48076,5.54533 3.6974,0 6.55158,-1.84844 8.56304,-5.54533 2.01147,-3.75106 3.0172,-9.07919 3.0172,-15.9839 0,-6.90419 -1.00573,-12.20499 -3.0172,-15.90187 -2.01146,-3.751315 -4.86564,-5.626946 -8.56304,-5.626946 -3.69688,0 -6.52346,1.875631 -8.48076,5.626946 -1.95729,3.69688 -2.93594,8.99768 -2.93594,15.90187 z m 49.74494,-31.804055 c 0,-0.598022 0.19062,-1.087295 0.57135,-1.467869 0.4349,-0.434949 0.95105,-0.652398 1.54897,-0.652398 h 10.76462 c 0.59792,0 1.0875,0.190262 1.46822,0.570836 0.4349,0.380573 0.70678,0.897034 0.81512,1.549431 l 1.63125,7.991847 h 0.65209 c 1.46822,-3.696886 3.61563,-6.551114 6.44272,-8.562682 2.88126,-2.011568 6.2521,-3.017301 10.11201,-3.017301 4.13179,0 7.69273,1.087295 10.68285,3.261938 3.04479,2.174693 5.3823,5.273556 7.01355,9.296642 1.63074,4.023136 2.44637,8.780181 2.44637,14.271081 v 40.36731 c 0,0.59792 -0.21771,1.11407 -0.6526,1.54897 -0.38022,0.38072 -0.8698,0.57083 -1.46772,0.57083 H 255.1981 c -0.59793,0 -1.11459,-0.19011 -1.54949,-0.57083 -0.38021,-0.4349 -0.57083,-0.95105 -0.57083,-1.54897 V 109.4647 c 0,-3.96876 -0.81563,-7.0131 -2.44637,-9.13337 -1.63125,-2.120263 -3.94167,-3.180423 -6.93179,-3.180423 -3.31616,0 -5.84429,1.250421 -7.58388,3.751263 -1.7401,2.50084 -2.6099,6.11616 -2.6099,10.84587 v 36.77927 c 0,0.59792 -0.21719,1.11407 -0.65209,1.54897 -0.38072,0.38072 -0.86979,0.57083 -1.46822,0.57083 h -13.04796 c -0.59792,0 -1.11407,-0.19011 -1.54897,-0.57083 -0.38073,-0.4349 -0.57135,-0.95105 -0.57135,-1.54897 z"
     id="Shape" /><path
     style="fill:#ff6201;fill-opacity:1;fill-rule:nonzero;stroke:none;stroke-width:5.11043"
     d="m -82.904042,160.02322 c -1.032972,0.81563 -1.250472,2.17449 -0.652398,4.07762 0.543648,1.68542 1.821256,3.77814 3.832824,6.27918 8.100392,10.00367 17.750421,18.32141 28.949933,24.95424 11.199511,6.63283 23.187562,11.52556 35.963642,14.6787 12.8302503,3.20781 25.932376,4.81147 39.306376,4.81147 17.125568,0 33.435512,-2.50054 48.92983,-7.50263 15.494319,-4.94741 28.433425,-11.90628 38.817815,-20.87662 3.64221,-3.20731 5.46357,-5.76253 5.46357,-7.66565 0,-0.70677 -0.29896,-1.41355 -0.89688,-2.12032 -0.81563,-0.81511 -1.79428,-1.08699 -2.93595,-0.81511 -1.14167,0.27136 -2.74532,0.95105 -4.81147,2.03855 -9.948988,5.21928 -22.072465,9.37815 -36.370943,12.47712 -14.243796,3.15313 -29.113108,4.7297 -44.607427,4.7297 -19.1912047,0 -37.7303186,-2.60938 -55.61683,-7.82867 -17.886512,-5.21928 -33.734472,-13.374 -47.54337,-24.46466 -2.011466,-1.57657 -3.642716,-2.58281 -4.892983,-3.01771 -1.196046,-0.4349 -2.174642,-0.35313 -2.935739,0.24479 z"
     id="Path" /><path
     style="fill:#ff6201;fill-opacity:1;fill-rule:nonzero;stroke:none;stroke-width:5.11043"
     d="m 98.295571,164.10544 c -1.141671,1.0875 -1.440631,2.22917 -0.896881,3.42552 0.380727,0.86979 1.114585,1.35886 2.202085,1.46771 1.086985,0.16303 2.636475,0.0542 4.647935,-0.32604 3.26199,-0.70677 6.65992,-1.19635 10.19378,-1.46823 3.53387,-0.21719 6.60575,-0.16302 9.21513,0.16302 2.6099,0.38073 4.24064,1.03333 4.89324,1.9573 0.97865,1.46823 0.62501,4.56668 -1.06041,9.2969 -1.63074,4.7297 -3.85991,9.32347 -6.687,13.78181 -1.0875,1.79376 -1.73959,3.20731 -1.9573,4.24064 -0.21719,1.03281 0.0547,1.90261 0.81563,2.60938 0.48906,0.48907 1.03281,0.73386 1.63073,0.73386 1.57708,0 3.86042,-1.38646 6.85054,-4.15887 5.38231,-4.67553 9.16045,-10.22086 11.33545,-16.63599 1.19584,-3.31667 1.9297,-6.79585 2.20157,-10.43857 0.27188,-3.6422 -0.13594,-6.2521 -1.22344,-7.82867 -1.03281,-1.52239 -3.31616,-2.77292 -6.85002,-3.75105 -3.47918,-0.97865 -6.98596,-1.46823 -10.51982,-1.46823 -6.90471,0 -13.45577,1.63125 -19.65319,4.89324 -2.28334,1.25052 -3.995848,2.41928 -5.138029,3.50627 z"
     id="path6-5" /></g><style
   type="text/css"
   id="style1">
	.st0{fill:#3A594D;}
	.st1{clip-path:url(#SVGID_00000054235013404132769400000006162829445624733592_);}
	.st2{fill-rule:evenodd;clip-rule:evenodd;fill:#3A594D;}
	.st3{fill-rule:evenodd;clip-rule:evenodd;fill:#BD8FC0;}
	.st4{fill:#EE765C;}
</style><g
   id="g8"
   transform="matrix(0.06391172,0,0,0.07141121,89.594984,-16.977062)"><path
     class="st0"
     d="m 266.94,356.28 c 17.5,0 32.81,-8.75 38.86,-26.41 1.18,-3.54 -0.51,-5.89 -3.87,-5.89 h -6.56 c -3.03,0 -5.04,1.34 -6.4,4.2 -5.21,10.27 -12.45,13.96 -21.53,13.96 -16.15,0 -26.08,-11.28 -26.08,-30.11 0,-18.84 10.27,-30.11 25.73,-30.11 9.42,0 17.16,4.04 22.04,13.63 1.52,2.86 3.36,4.2 6.4,4.2 h 6.56 c 3.36,0 5.04,-2.18 3.87,-5.39 -7.06,-19.18 -22.88,-26.58 -39.03,-26.58 -24.39,0 -42.56,18.01 -42.56,44.25 0,26.24 17.33,44.25 42.57,44.25 z m 440.24,-51.99 c 2.18,-14.3 11.94,-23.22 25.23,-23.22 13.29,0 23.22,9.08 24.39,23.22 z m 25.92,51.99 c 15.48,0 30.96,-7.23 38.53,-23.55 1.85,-3.87 0.17,-6.56 -3.19,-6.56 h -6.22 c -3.02,0 -4.88,1.34 -6.4,4.04 -5.04,8.91 -13.79,12.62 -22.71,12.62 -15.31,0 -25.23,-10.43 -26.41,-27.42 h 61.75 c 3.36,0 5.56,-1.85 5.56,-5.39 -0.68,-26.41 -17.83,-42.22 -41.56,-42.22 -23.73,0 -42.56,17.16 -42.56,44.25 0,27.09 18.34,44.25 43.24,44.25 z m -97.92,-42.06 h 5.55 c 3.36,0 5.21,-1.85 5.72,-5.39 3.21,-22.73 16.51,-25.74 30.66,-25.07 3.03,0.14 5.51,-2.18 5.51,-5.22 v -5.21 c 0,-3.36 -1.69,-5.39 -5.04,-5.55 -12.52,-0.47 -23.69,3.82 -30.15,15.99 -0.36,0.66 -1.35,0.49 -1.44,-0.26 l -1.04,-9.18 c -0.33,-3.36 -2.18,-5.04 -5.55,-5.04 H 614 c -2.97,0 -5.39,2.41 -5.39,5.39 v 2.86 c 0,2.97 2.41,5.39 5.39,5.39 h 10.43 c 2.97,0 5.39,2.41 5.39,5.39 v 20.52 c 0,2.97 2.41,5.39 5.39,5.39 h -0.03 z m -22.7,40.38 h 52.65 c 3.36,0 5.39,-2.02 5.39,-5.39 v -2.86 c 0,-3.36 -2.02,-5.39 -5.39,-5.39 h -13.46 c -3.36,0 -5.39,-2.02 -5.39,-5.39 v -9.26 c 0,-3.36 -2.02,-5.39 -5.39,-5.39 h -5.72 c -3.36,0 -5.39,2.02 -5.39,5.39 v 9.26 c 0,3.36 -2.02,5.39 -5.39,5.39 h -11.94 c -3.36,0 -5.39,2.02 -5.39,5.39 v 2.86 c 0,3.36 2.02,5.39 5.39,5.39 z m -81.26,-50.3 c 2.18,-14.3 11.94,-23.22 25.23,-23.22 13.29,0 23.22,9.08 24.39,23.22 z m 25.91,51.99 c 15.48,0 30.96,-7.23 38.53,-23.55 1.85,-3.87 0.17,-6.56 -3.19,-6.56 h -6.22 c -3.03,0 -4.88,1.34 -6.4,4.04 -5.04,8.91 -13.79,12.62 -22.71,12.62 -15.31,0 -25.23,-10.43 -26.41,-27.42 h 61.74 c 3.36,0 5.56,-1.85 5.56,-5.39 -0.68,-26.41 -17.83,-42.22 -41.55,-42.22 -23.73,0 -42.56,17.16 -42.56,44.25 0,27.09 18.34,44.25 43.24,44.25 z m -194.63,0 c 25.23,0 43.24,-18.67 43.24,-44.25 0,-25.58 -18.01,-44.25 -43.24,-44.25 -25.23,0 -43.24,19.01 -43.24,44.25 0,5.89 1.01,12.45 4.03,19.68 1.52,3.54 4.38,4.04 7.41,1.85 l 4.88,-3.54 c 2.53,-1.85 3.19,-4.04 2.35,-7.23 -1.34,-4.2 -1.69,-7.91 -1.69,-11.1 0,-17.66 10.6,-29.78 26.24,-29.78 15.64,0 26.24,11.94 26.24,30.11 0,18.17 -10.43,30.11 -25.91,30.11 -5.39,0 -10.43,-1.01 -16.49,-5.56 -2.53,-2.02 -4.88,-2.35 -7.57,-0.33 l -3.7,2.69 c -3.03,2.18 -3.36,5.21 -0.51,7.57 8.75,7.06 18.84,9.76 27.93,9.76 h 0.03 z m 64.59,-1.69 h 5.56 c 2.97,0 5.39,-2.41 5.39,-5.39 v -40.2 c 0,-16.98 9.08,-27.09 23.22,-27.09 12.78,0 20.19,8.42 20.19,23.89 v 43.41 c 0,2.97 2.41,5.39 5.39,5.39 h 5.72 c 2.97,0 5.39,-2.41 5.39,-5.39 v -46.1 c 0,-22.71 -11.61,-35.32 -31.29,-35.32 -13.4,0 -21.32,5.48 -27.23,13.12 -0.45,0.58 -1.36,0.26 -1.36,-0.46 v -36.55 c -0.04,-2.98 -2.44,-5.39 -5.41,-5.39 h -5.56 c -2.97,0 -5.39,2.41 -5.39,5.39 v 105.31 c -0.01,2.96 2.4,5.38 5.38,5.38 z"
     id="path1-1" /><g
     id="g5">
	<defs
   id="defs1-0" />
	<clipPath
   id="SVGID_00000075852095293250014550000008258792261602485387_">
		<use
   xlink:href="#SVGID_1_"
   style="overflow:visible"
   id="use1" />
	</clipPath>
	<g
   clip-path="url(#SVGID_00000075852095293250014550000008258792261602485387_)"
   id="g4">
		<path
   class="st2"
   d="m 106.21,308.65 c 3.17,0 9.48,-0.17 18.19,-3.76 10.16,-4.18 30.37,-11.77 44.94,-19.57 10.2,-5.45 14.66,-12.67 14.66,-22.38 0,-13.48 -10.93,-24.41 -24.41,-24.41 H 103.1 c -19.37,0 -35.06,15.7 -35.06,35.06 0,19.36 14.71,35.06 38.17,35.06 z"
   id="path2" />
		<path
   class="st3"
   d="m 115.77,332.79 c 0,-9.49 5.71,-18.05 14.48,-21.69 l 17.79,-7.38 c 17.99,-7.47 37.8,5.76 37.8,25.24 0,15.09 -12.24,27.33 -27.33,27.32 h -19.26 c -12.97,-0.01 -23.48,-10.52 -23.48,-23.49 z"
   id="path3" />
		<path
   class="st4"
   d="m 88.27,313.27 v 0 c -11.16,0 -20.21,9.05 -20.21,20.21 v 2.62 c 0,11.16 9.05,20.21 20.21,20.21 v 0 c 11.16,0 20.21,-9.05 20.21,-20.21 v -2.62 c 0,-11.16 -9.05,-20.21 -20.21,-20.21 z"
   id="path4-3" />
	</g>
</g></g><g
   id="g9"
   transform="matrix(0.06435123,0,0,0.06573878,147.0775,0.02155143)"><path
     d="m 213.2,74.3 -3.6,10.2 h -0.3 c -0.6,-2.3 -1.7,-5.8 -3.5,-10 L 186.5,26 h -18.9 v 77.3 h 12.5 V 55.6 c 0,-3 0,-6.4 -0.1,-10.6 -0.1,-2.1 -0.3,-3.7 -0.4,-4.9 h 0.3 c 0.6,3 1.3,5.2 1.8,6.6 l 23.2,56.4 h 8.8 l 23,-56.9 c 0.5,-1.3 1,-3.9 1.5,-6.1 h 0.3 c -0.3,5.7 -0.5,10.8 -0.6,13.9 v 49 h 13.3 V 25.8 H 233 Z m 50.6,-26.7 h 13 V 103 h -13 z m 6.6,-23.4 c -2.2,0 -4,0.8 -5.5,2.2 -1.5,1.4 -2.3,3.2 -2.3,5.4 0,2.1 0.8,3.9 2.3,5.3 1.5,1.4 3.3,2.1 5.5,2.1 2.2,0 4.1,-0.8 5.5,-2.1 1.5,-1.4 2.3,-3.2 2.3,-5.3 0,-2.1 -0.8,-3.9 -2.3,-5.4 -1.3,-1.4 -3.2,-2.2 -5.5,-2.2 m 52.5,22.9 c -2.4,-0.5 -4.9,-0.8 -7.3,-0.8 -5.9,0 -11.3,1.3 -15.8,3.9 -4.5,2.6 -8.1,6.2 -10.4,10.7 -2.4,4.6 -3.6,9.9 -3.6,16 0,5.3 1.2,10 3.5,14.3 2.3,4.2 5.5,7.6 9.8,9.9 4.1,2.3 8.9,3.5 14.3,3.5 6.2,0 11.5,-1.3 15.7,-3.7 l 0.1,-0.1 v -12 l -0.5,0.4 c -1.9,1.4 -4.1,2.6 -6.3,3.3 -2.3,0.8 -4.4,1.2 -6.2,1.2 -5.2,0 -9.3,-1.5 -12.2,-4.8 -3,-3.2 -4.5,-7.6 -4.5,-13.1 0,-5.7 1.5,-10.2 4.6,-13.5 3.1,-3.3 7.2,-5 12.2,-5 4.2,0 8.5,1.4 12.4,4.2 l 0.5,0.4 V 49.2 l -0.1,-0.1 c -1.7,-0.7 -3.6,-1.5 -6.2,-2 m 42.9,-0.4 c -3.2,0 -6.2,1 -8.8,3.1 -2.2,1.8 -3.7,4.4 -5,7.5 h -0.1 v -9.7 h -13 V 103 h 13 V 74.7 c 0,-4.8 1,-8.8 3.2,-11.7 2.2,-3 5,-4.5 8.4,-4.5 1.2,0 2.4,0.3 3.9,0.5 1.4,0.4 2.4,0.8 3.1,1.3 l 0.5,0.4 v -13 l -0.3,-0.1 C 369.8,47 368,46.7 365.8,46.7 m 35.4,-0.3 c -9.1,0 -16.4,2.7 -21.5,8 -5.2,5.3 -7.7,12.6 -7.7,21.8 0,8.6 2.6,15.6 7.6,20.7 5,5 11.8,7.6 20.3,7.6 8.9,0 16,-2.7 21.1,-8.1 5.2,-5.4 7.7,-12.6 7.7,-21.5 0,-8.8 -2.4,-15.8 -7.3,-20.9 -4.7,-5.1 -11.6,-7.6 -20.2,-7.6 M 411.6,89 c -2.4,3.1 -6.2,4.6 -10.9,4.6 -4.7,0 -8.5,-1.5 -11.2,-4.8 -2.7,-3.1 -4,-7.6 -4,-13.3 0,-5.9 1.4,-10.4 4,-13.6 2.7,-3.2 6.4,-4.8 11.1,-4.8 4.6,0 8.2,1.5 10.8,4.6 2.6,3.1 4,7.6 4,13.5 -0.2,6 -1.3,10.7 -3.8,13.8 m 46.1,-18.4 c -4.1,-1.7 -6.7,-3 -7.9,-4.1 -1,-1 -1.5,-2.4 -1.5,-4.2 0,-1.5 0.6,-3 2.1,-4 1.5,-1 3.2,-1.5 5.7,-1.5 2.2,0 4.5,0.4 6.7,1 2.2,0.6 4.2,1.5 5.8,2.7 l 0.5,0.4 V 48.7 l -0.3,-0.1 c -1.5,-0.6 -3.5,-1.2 -5.9,-1.7 -2.4,-0.4 -4.6,-0.6 -6.4,-0.6 -6.2,0 -11.3,1.5 -15.3,4.8 -4,3.1 -5.9,7.3 -5.9,12.2 0,2.6 0.4,4.9 1.3,6.8 0.9,1.9 2.2,3.7 4,5.2 1.8,1.4 4.4,3 8,4.5 3,1.3 5.3,2.3 6.7,3.1 1.4,0.8 2.3,1.7 3,2.4 0.5,0.8 0.8,1.8 0.8,3.1 0,3.7 -2.8,5.5 -8.5,5.5 -2.2,0 -4.5,-0.4 -7.2,-1.3 -2.7,-0.9 -5.2,-2.2 -7.3,-3.7 l -0.5,-0.4 v 12.7 l 0.3,0.1 c 1.9,0.9 4.2,1.5 7,2.2 2.8,0.5 5.3,0.9 7.5,0.9 6.7,0 12.2,-1.5 16.1,-4.8 4,-3.2 6.1,-7.3 6.1,-12.6 0,-3.7 -1,-7 -3.2,-9.5 -2.9,-2.4 -6.5,-4.9 -11.7,-6.9 m 49.2,-24.2 c -9.1,0 -16.4,2.7 -21.5,8 -5.1,5.3 -7.7,12.6 -7.7,21.8 0,8.6 2.6,15.6 7.6,20.7 5,5 11.8,7.6 20.3,7.6 8.9,0 16,-2.7 21.1,-8.1 5.2,-5.4 7.7,-12.6 7.7,-21.5 0,-8.8 -2.4,-15.8 -7.3,-20.9 -4.7,-5.1 -11.6,-7.6 -20.2,-7.6 M 517.2,89 c -2.4,3.1 -6.2,4.6 -10.9,4.6 -4.8,0 -8.5,-1.5 -11.2,-4.8 -2.7,-3.1 -4,-7.6 -4,-13.3 0,-5.9 1.4,-10.4 4,-13.6 2.7,-3.2 6.4,-4.8 11.1,-4.8 4.5,0 8.2,1.5 10.8,4.6 2.6,3.1 4,7.6 4,13.5 0,6 -1.3,10.7 -3.8,13.8 M 603.9,58.3 V 47.6 H 590.8 V 31.2 l -0.4,0.1 -12.4,3.7 -0.3,0.1 v 12.5 h -19.6 v -7 c 0,-3.2 0.8,-5.7 2.2,-7.3 1.4,-1.6 3.5,-2.4 6.1,-2.4 1.8,0 3.7,0.4 5.8,1.3 l 0.5,0.3 V 21.2 l -0.3,-0.1 c -1.8,-0.6 -4.2,-1 -7.3,-1 -3.9,0 -7.3,0.9 -10.4,2.4 -3.1,1.7 -5.4,4 -7.1,7.1 -1.7,3 -2.6,6.4 -2.6,10.3 v 7.7 h -9.1 V 58.2 H 545 V 103 h 13.1 V 58.3 h 19.6 v 28.5 c 0,11.7 5.5,17.6 16.5,17.6 1.8,0 3.7,-0.3 5.5,-0.6 1.9,-0.4 3.3,-0.9 4.1,-1.3 l 0.1,-0.1 V 91.7 l -0.5,0.4 c -0.8,0.5 -1.5,0.9 -2.7,1.2 -1,0.3 -1.9,0.4 -2.6,0.4 -2.6,0 -4.4,-0.6 -5.7,-2.1 -1.2,-1.4 -1.8,-3.7 -1.8,-7.1 V 58.3 Z"
     fill="#737373"
     id="path1-8" /><path
     d="M 0,0 H 61.3 V 61.3 H 0 Z"
     fill="#f25022"
     id="path2-0" /><path
     d="M 67.7,0 H 129 V 61.3 H 67.7 Z"
     fill="#7fba00"
     id="path3-4" /><path
     d="M 0,67.7 H 61.3 V 129 H 0 Z"
     fill="#00a4ef"
     id="path4-2" /><path
     d="M 67.7,67.7 H 129 V 129 H 67.7 Z"
     fill="#ffb900"
     id="path5" /></g><g
   style="fill:none"
   id="g10"
   transform="matrix(0.04691578,0,0,0.04441798,191.93008,-1.3410098)"><path
     d="M 287.541,161 V 92.145 h 18.22 v 25.635 h 20.551 V 92.145 h 18.22 V 161 h -18.22 V 133.67 H 305.761 V 161 Z m 86.825,1.271 c -5.791,0 -9.993,-1.942 -12.606,-5.826 -2.613,-3.955 -3.919,-9.216 -3.919,-15.784 v -32.626 h 18.22 v 30.296 c 0,3.39 0.424,5.649 1.271,6.779 0.918,1.13 2.26,1.695 4.026,1.695 1.694,0 3.107,-0.353 4.237,-1.059 1.13,-0.706 2.26,-1.907 3.39,-3.602 v -34.109 h 18.22 V 161 h -14.831 l -1.271,-6.991 h -0.424 c -2.118,2.542 -4.484,4.555 -7.097,6.038 -2.542,1.483 -5.614,2.224 -9.216,2.224 z m 64.419,20.551 c -4.025,0 -7.733,-0.459 -11.123,-1.377 -3.389,-0.848 -6.108,-2.225 -8.156,-4.132 -1.978,-1.906 -2.966,-4.449 -2.966,-7.627 0,-4.166 2.471,-7.556 7.415,-10.169 v -0.424 a 15.423,15.423 0 0 1 -3.496,-3.601 c -0.918,-1.483 -1.377,-3.32 -1.377,-5.509 0,-1.836 0.53,-3.637 1.589,-5.402 1.13,-1.766 2.578,-3.284 4.343,-4.555 v -0.424 c -1.907,-1.271 -3.601,-3.072 -5.084,-5.403 -1.413,-2.401 -2.119,-5.12 -2.119,-8.156 0,-4.379 1.059,-7.98 3.178,-10.805 2.189,-2.896 5.014,-5.014 8.474,-6.356 3.461,-1.412 7.133,-2.119 11.017,-2.119 3.107,0 5.932,0.424 8.474,1.272 h 19.704 v 13.135 h -7.627 c 0.211,0.636 0.388,1.448 0.529,2.436 0.212,0.989 0.318,2.013 0.318,3.072 0,4.167 -0.953,7.557 -2.86,10.17 -1.907,2.542 -4.484,4.414 -7.733,5.614 -3.249,1.201 -6.85,1.801 -10.805,1.801 -1.765,0 -3.743,-0.247 -5.932,-0.742 -0.848,0.777 -1.271,1.801 -1.271,3.072 0,1.13 0.565,1.942 1.695,2.437 1.2,0.494 3.107,0.741 5.72,0.741 h 7.945 c 6.638,0 11.758,1.095 15.36,3.284 3.672,2.119 5.508,5.614 5.508,10.487 0,3.814 -1.271,7.168 -3.813,10.064 -2.472,2.895 -6.003,5.155 -10.594,6.779 -4.59,1.625 -10.028,2.437 -16.313,2.437 z m 1.695,-49.364 c 1.695,0 3.072,-0.6 4.131,-1.801 1.06,-1.2 1.589,-3.072 1.589,-5.614 0,-2.472 -0.529,-4.273 -1.589,-5.403 -1.059,-1.2 -2.436,-1.8 -4.131,-1.8 -1.695,0 -3.072,0.6 -4.131,1.8 -1.06,1.13 -1.589,2.931 -1.589,5.403 0,2.542 0.529,4.414 1.589,5.614 1.059,1.201 2.436,1.801 4.131,1.801 z m 1.271,38.135 c 2.966,0 5.438,-0.459 7.415,-1.377 1.978,-0.848 2.966,-2.013 2.966,-3.496 0,-1.412 -0.635,-2.295 -1.906,-2.648 -1.201,-0.353 -2.931,-0.53 -5.191,-0.53 h -4.131 c -2.119,0 -3.743,-0.07 -4.873,-0.212 -1.059,-0.07 -1.977,-0.211 -2.754,-0.423 -1.271,1.271 -1.907,2.542 -1.907,3.813 0,1.695 0.953,2.931 2.86,3.708 1.978,0.777 4.485,1.165 7.521,1.165 z m 54.862,11.229 c -4.026,0 -7.733,-0.459 -11.123,-1.377 -3.39,-0.848 -6.109,-2.225 -8.157,-4.132 -1.977,-1.906 -2.966,-4.449 -2.966,-7.627 0,-4.166 2.472,-7.556 7.415,-10.169 v -0.424 a 15.399,15.399 0 0 1 -3.495,-3.601 c -0.919,-1.483 -1.378,-3.32 -1.378,-5.509 0,-1.836 0.53,-3.637 1.589,-5.402 1.13,-1.766 2.578,-3.284 4.344,-4.555 v -0.424 c -1.907,-1.271 -3.602,-3.072 -5.085,-5.403 -1.413,-2.401 -2.119,-5.12 -2.119,-8.156 0,-4.379 1.06,-7.98 3.178,-10.805 2.189,-2.896 5.014,-5.014 8.475,-6.356 3.46,-1.412 7.132,-2.119 11.016,-2.119 3.108,0 5.933,0.424 8.475,1.272 h 19.703 v 13.135 h -7.627 c 0.212,0.636 0.388,1.448 0.53,2.436 0.211,0.989 0.317,2.013 0.317,3.072 0,4.167 -0.953,7.557 -2.86,10.17 -1.906,2.542 -4.484,4.414 -7.733,5.614 -3.248,1.201 -6.85,1.801 -10.805,1.801 -1.765,0 -3.742,-0.247 -5.932,-0.742 -0.847,0.777 -1.271,1.801 -1.271,3.072 0,1.13 0.565,1.942 1.695,2.437 1.201,0.494 3.107,0.741 5.72,0.741 h 7.945 c 6.638,0 11.758,1.095 15.36,3.284 3.672,2.119 5.508,5.614 5.508,10.487 0,3.814 -1.271,7.168 -3.813,10.064 -2.472,2.895 -6.003,5.155 -10.593,6.779 -4.59,1.625 -10.028,2.437 -16.313,2.437 z m 1.694,-49.364 c 1.695,0 3.072,-0.6 4.132,-1.801 1.059,-1.2 1.589,-3.072 1.589,-5.614 0,-2.472 -0.53,-4.273 -1.589,-5.403 -1.06,-1.2 -2.437,-1.8 -4.132,-1.8 -1.694,0 -3.072,0.6 -4.131,1.8 -1.059,1.13 -1.589,2.931 -1.589,5.403 0,2.542 0.53,4.414 1.589,5.614 1.059,1.201 2.437,1.801 4.131,1.801 z m 1.272,38.135 c 2.966,0 5.437,-0.459 7.415,-1.377 1.977,-0.848 2.966,-2.013 2.966,-3.496 0,-1.412 -0.636,-2.295 -1.907,-2.648 -1.2,-0.353 -2.931,-0.53 -5.191,-0.53 h -4.131 c -2.118,0 -3.743,-0.07 -4.873,-0.212 -1.059,-0.07 -1.977,-0.211 -2.754,-0.423 -1.271,1.271 -1.907,2.542 -1.907,3.813 0,1.695 0.954,2.931 2.861,3.708 1.977,0.777 4.484,1.165 7.521,1.165 z M 535.161,161 v -52.965 h 18.22 V 161 Z m 9.11,-59.533 c -2.966,0 -5.368,-0.812 -7.204,-2.436 -1.836,-1.695 -2.754,-3.92 -2.754,-6.674 0,-2.754 0.918,-4.944 2.754,-6.568 1.836,-1.695 4.238,-2.542 7.204,-2.542 2.966,0 5.367,0.847 7.203,2.542 1.836,1.624 2.754,3.814 2.754,6.568 0,2.754 -0.918,4.979 -2.754,6.674 -1.836,1.624 -4.237,2.436 -7.203,2.436 z M 565.678,161 v -52.965 h 14.83 l 1.271,6.355 h 0.424 c 2.118,-2.048 4.52,-3.813 7.203,-5.296 2.754,-1.554 5.932,-2.331 9.534,-2.331 5.861,0 10.063,1.978 12.606,5.933 2.613,3.884 3.919,9.11 3.919,15.677 V 161 h -18.22 v -30.296 c 0,-3.39 -0.424,-5.65 -1.271,-6.78 -0.848,-1.13 -2.189,-1.695 -4.026,-1.695 -1.694,0 -3.107,0.353 -4.237,1.06 -1.13,0.706 -2.401,1.695 -3.813,2.966 V 161 Z m 80.934,21.822 c -4.025,0 -7.733,-0.459 -11.123,-1.377 -3.389,-0.848 -6.108,-2.225 -8.156,-4.132 -1.978,-1.906 -2.966,-4.449 -2.966,-7.627 0,-4.166 2.471,-7.556 7.415,-10.169 v -0.424 a 15.423,15.423 0 0 1 -3.496,-3.601 c -0.918,-1.483 -1.377,-3.32 -1.377,-5.509 0,-1.836 0.53,-3.637 1.589,-5.402 1.13,-1.766 2.578,-3.284 4.343,-4.555 v -0.424 c -1.907,-1.271 -3.602,-3.072 -5.085,-5.403 -1.412,-2.401 -2.118,-5.12 -2.118,-8.156 0,-4.379 1.059,-7.98 3.178,-10.805 2.189,-2.896 5.014,-5.014 8.474,-6.356 3.461,-1.412 7.133,-2.119 11.017,-2.119 3.107,0 5.932,0.424 8.474,1.272 h 19.703 v 13.135 h -7.627 c 0.212,0.636 0.389,1.448 0.53,2.436 0.212,0.989 0.318,2.013 0.318,3.072 0,4.167 -0.953,7.557 -2.86,10.17 -1.907,2.542 -4.485,4.414 -7.733,5.614 -3.249,1.201 -6.85,1.801 -10.805,1.801 -1.766,0 -3.743,-0.247 -5.932,-0.742 -0.848,0.777 -1.271,1.801 -1.271,3.072 0,1.13 0.565,1.942 1.695,2.437 1.2,0.494 3.107,0.741 5.72,0.741 h 7.945 c 6.638,0 11.758,1.095 15.36,3.284 3.672,2.119 5.508,5.614 5.508,10.487 0,3.814 -1.271,7.168 -3.814,10.064 -2.471,2.895 -6.002,5.155 -10.593,6.779 -4.59,1.625 -10.028,2.437 -16.313,2.437 z m 1.695,-49.364 c 1.695,0 3.072,-0.6 4.131,-1.801 1.06,-1.2 1.589,-3.072 1.589,-5.614 0,-2.472 -0.529,-4.273 -1.589,-5.403 -1.059,-1.2 -2.436,-1.8 -4.131,-1.8 -1.695,0 -3.072,0.6 -4.131,1.8 -1.06,1.13 -1.589,2.931 -1.589,5.403 0,2.542 0.529,4.414 1.589,5.614 1.059,1.201 2.436,1.801 4.131,1.801 z m 1.271,38.135 c 2.966,0 5.438,-0.459 7.415,-1.377 1.978,-0.848 2.966,-2.013 2.966,-3.496 0,-1.412 -0.635,-2.295 -1.906,-2.648 -1.201,-0.353 -2.931,-0.53 -5.191,-0.53 h -4.131 c -2.119,0 -3.743,-0.07 -4.873,-0.212 -1.059,-0.07 -1.978,-0.211 -2.754,-0.423 -1.272,1.271 -1.907,2.542 -1.907,3.813 0,1.695 0.953,2.931 2.86,3.708 1.977,0.777 4.484,1.165 7.521,1.165 z M 707.85,161 V 92.145 h 44.914 v 15.254 H 726.07 v 13.135 h 22.881 v 15.254 H 726.07 V 161 Z m 64.839,1.271 c -3.319,0 -6.179,-0.741 -8.58,-2.224 a 15.882,15.882 0 0 1 -5.402,-6.038 c -1.272,-2.472 -1.907,-5.156 -1.907,-8.051 0,-5.509 2.26,-9.816 6.779,-12.924 4.52,-3.178 11.865,-5.296 22.034,-6.356 -0.424,-3.672 -2.896,-5.508 -7.415,-5.508 -1.907,0 -3.92,0.388 -6.038,1.165 -2.119,0.706 -4.555,1.801 -7.31,3.284 l -6.355,-11.864 c 3.743,-2.26 7.521,-3.99 11.334,-5.191 a 40.344,40.344 0 0 1 11.97,-1.801 c 6.921,0 12.324,1.978 16.208,5.933 3.884,3.884 5.826,10.169 5.826,18.855 V 161 h -14.83 l -1.271,-5.085 h -0.424 c -2.119,1.907 -4.379,3.461 -6.78,4.661 -2.33,1.13 -4.943,1.695 -7.839,1.695 z m 6.356,-13.983 c 1.483,0 2.719,-0.318 3.708,-0.953 0.988,-0.706 1.942,-1.589 2.86,-2.648 v -7.204 c -4.308,0.636 -7.309,1.589 -9.004,2.86 -1.624,1.272 -2.437,2.649 -2.437,4.132 0,2.542 1.625,3.813 4.873,3.813 z m 60.607,13.983 c -5.014,0 -9.534,-1.095 -13.559,-3.284 -4.026,-2.189 -7.239,-5.332 -9.64,-9.428 -2.331,-4.166 -3.496,-9.18 -3.496,-15.042 0,-5.861 1.307,-10.84 3.92,-14.936 2.683,-4.167 6.179,-7.344 10.487,-9.534 4.307,-2.189 8.968,-3.284 13.982,-3.284 3.178,0 6.039,0.495 8.581,1.483 2.613,0.989 4.908,2.331 6.885,4.026 l -8.474,11.652 c -1.13,-0.988 -2.154,-1.659 -3.072,-2.012 a 7.878,7.878 0 0 0 -2.86,-0.53 c -3.39,0 -6.038,1.2 -7.945,3.602 -1.907,2.33 -2.86,5.508 -2.86,9.533 0,4.026 0.989,7.239 2.966,9.64 1.977,2.33 4.378,3.496 7.203,3.496 1.483,0 2.931,-0.318 4.343,-0.954 a 26.498,26.498 0 0 0 4.132,-2.436 l 6.991,11.864 c -2.613,2.331 -5.508,3.955 -8.686,4.873 -3.178,0.847 -6.144,1.271 -8.898,1.271 z m 47.394,0 c -5.156,0 -9.817,-1.095 -13.983,-3.284 -4.096,-2.189 -7.345,-5.332 -9.746,-9.428 -2.401,-4.166 -3.601,-9.18 -3.601,-15.042 0,-5.72 1.2,-10.628 3.601,-14.724 2.472,-4.167 5.65,-7.38 9.534,-9.64 3.884,-2.26 7.98,-3.39 12.288,-3.39 5.226,0 9.534,1.166 12.923,3.496 3.461,2.26 6.003,5.332 7.627,9.216 1.695,3.884 2.543,8.192 2.543,12.924 0,1.553 -0.106,3.072 -0.318,4.555 -0.141,1.412 -0.283,2.436 -0.424,3.072 H 877.3 c 0.847,3.178 2.366,5.402 4.555,6.673 2.189,1.201 4.767,1.801 7.733,1.801 3.39,0 6.991,-1.059 10.805,-3.178 l 5.932,10.805 c -2.825,1.977 -6.003,3.496 -9.534,4.555 -3.531,1.059 -6.779,1.589 -9.745,1.589 z m -9.958,-34.11 h 15.678 c 0,-2.048 -0.53,-3.813 -1.589,-5.296 -0.989,-1.554 -2.86,-2.331 -5.614,-2.331 -1.978,0 -3.743,0.601 -5.297,1.801 -1.554,1.201 -2.613,3.143 -3.178,5.826 z"
     fill="#000b1b"
     id="path1-2" /><path
     d="m 248.378,171.091 a 18.942,18.942 0 0 0 -2.574,-5.692 c 0.25,-0.918 0.44,-1.85 0.568,-2.791 0.828,-5.976 -1.243,-11.447 -5.148,-15.681 -2.115,-2.312 -4.382,-3.838 -6.783,-4.775 a 90.605,90.605 0 0 0 2.378,-20.569 c 0,-3.162 -0.179,-6.26 -0.479,-9.312 a 109.184,109.184 0 0 0 -0.567,-4.561 91.132,91.132 0 0 0 -3.052,-13.21 91.51,91.51 0 0 0 -3.053,-8.374 91.956,91.956 0 0 0 -6.041,-11.754 81.65,81.65 0 0 0 -4.908,-7.261 68.979,68.979 0 0 0 -2.704,-3.446 90.383,90.383 0 0 0 -9.033,-9.487 69.113,69.113 0 0 0 -3.314,-2.861 82.115,82.115 0 0 0 -3.424,-2.705 96.194,96.194 0 0 0 -7.263,-4.907 C 179.2,35.335 163.039,30.536 145.766,30.536 c -50.29,0 -91.052,40.762 -91.052,91.051 -10e-4,7.012 0.811,14 2.421,20.824 -2.16,0.938 -4.23,2.399 -6.15,4.514 -3.904,4.231 -5.976,9.683 -5.147,15.658 0.125,0.95 0.315,1.89 0.567,2.814 a 19.006,19.006 0 0 0 -2.574,5.694 c -1.2,4.561 -0.805,8.674 0.72,12.277 -1.657,4.711 -1.243,9.727 0.916,14.088 1.57,3.185 3.817,5.648 6.586,7.851 3.293,2.617 7.415,4.842 12.388,6.975 5.932,2.53 13.172,4.907 16.465,5.779 8.506,2.203 16.662,3.599 24.929,3.666 11.776,0.11 21.918,-2.66 29.18,-9.747 3.567,0.437 7.157,0.656 10.751,0.655 a 93.753,93.753 0 0 0 11.358,-0.716 c 7.244,7.132 17.425,9.927 29.245,9.814 8.265,-0.065 16.421,-1.461 24.905,-3.667 3.315,-0.872 10.553,-3.249 16.488,-5.778 4.973,-2.138 9.094,-4.362 12.41,-6.976 2.748,-2.202 4.993,-4.666 6.564,-7.851 2.181,-4.361 2.574,-9.377 0.938,-14.088 1.511,-3.603 1.903,-7.725 0.704,-12.282 z m -8.439,11.972 c 1.671,3.171 1.778,6.754 0.303,10.091 -2.236,5.058 -7.79,9.041 -18.577,13.318 -6.707,2.661 -12.85,4.361 -12.904,4.377 -8.872,2.301 -16.896,3.469 -23.842,3.469 -11.502,0 -20.06,-3.173 -25.488,-9.441 a 85.495,85.495 0 0 1 -27.748,0.157 c -5.434,6.164 -13.945,9.284 -25.35,9.284 -6.947,0 -14.97,-1.168 -23.842,-3.469 -0.055,-0.016 -6.194,-1.716 -12.904,-4.377 -10.787,-4.277 -16.342,-8.258 -18.577,-13.318 -1.475,-3.337 -1.368,-6.92 0.303,-10.091 0.155,-0.294 0.32,-0.582 0.497,-0.859 a 12.806,12.806 0 0 1 -1.728,-10.342 c 0.664,-2.522 2.036,-4.62 3.898,-6.127 a 12.764,12.764 0 0 1 -1.73,-4.822 c -0.536,-3.714 0.696,-7.423 3.47,-10.446 2.16,-2.353 5.212,-3.648 8.593,-3.648 h 0.09 A 84.46,84.46 0 0 1 60.57,121.584 c 0,-46.672 37.837,-84.51 84.514,-84.51 46.678,0 84.514,37.835 84.514,84.51 a 84.462,84.462 0 0 1 -3.859,25.299 c 0.408,-0.04 0.808,-0.061 1.2,-0.061 3.38,0 6.434,1.294 8.593,3.647 2.772,3.021 4.007,6.733 3.47,10.446 a 12.763,12.763 0 0 1 -1.73,4.823 c 1.862,1.506 3.234,3.604 3.898,6.127 a 12.82,12.82 0 0 1 -1.728,10.342 c 0.177,0.274 0.344,0.562 0.497,0.856 z"
     fill="#ffffff"
     id="path2-7" /><path
     d="m 239.442,182.207 a 12.82,12.82 0 0 0 1.728,-10.342 c -0.664,-2.522 -2.036,-4.62 -3.898,-6.127 a 12.776,12.776 0 0 0 1.73,-4.822 c 0.536,-3.714 -0.696,-7.423 -3.47,-10.446 -2.159,-2.353 -5.213,-3.648 -8.593,-3.648 -0.393,0 -0.792,0.02 -1.2,0.061 a 84.485,84.485 0 0 0 3.852,-25.298 c 0,-46.671 -37.837,-84.51 -84.51,-84.51 -46.673,0 -84.514,37.835 -84.514,84.51 A 84.46,84.46 0 0 0 64.4,146.82 h -0.09 c -3.38,0 -6.433,1.295 -8.592,3.648 -2.772,3.021 -4.006,6.732 -3.47,10.446 a 12.757,12.757 0 0 0 1.73,4.822 c -1.862,1.507 -3.234,3.605 -3.897,6.128 a 12.807,12.807 0 0 0 1.73,10.343 c -0.179,0.277 -0.343,0.565 -0.497,0.859 -1.67,3.171 -1.778,6.754 -0.303,10.091 2.235,5.057 7.79,9.042 18.577,13.318 6.707,2.661 12.85,4.361 12.904,4.377 8.872,2.301 16.895,3.47 23.841,3.47 11.406,0 19.916,-3.12 25.351,-9.285 a 85.495,85.495 0 0 0 27.748,-0.157 c 5.427,6.268 13.986,9.442 25.488,9.442 6.946,0 14.97,-1.169 23.842,-3.47 0.054,-0.016 6.194,-1.716 12.904,-4.377 10.787,-4.276 16.342,-8.261 18.577,-13.318 1.475,-3.337 1.368,-6.92 -0.303,-10.091 a 10.34,10.34 0 0 0 -0.498,-0.859 z m -111.647,13.18 a 34.082,34.082 0 0 1 -1.503,2.395 c -1.405,2.057 -3.253,3.628 -5.397,4.797 -4.101,2.235 -9.29,3.017 -14.563,3.017 -8.328,0 -16.866,-1.949 -21.652,-3.191 -0.235,-0.061 -29.334,-8.28 -25.65,-15.276 0.62,-1.176 1.641,-1.646 2.925,-1.646 5.187,0 14.632,7.724 18.692,7.724 0.906,0 1.546,-0.387 1.807,-1.328 1.73,-6.205 -26.293,-8.813 -23.933,-17.797 0.417,-1.59 1.546,-2.235 3.135,-2.235 6.857,-0.001 22.249,12.059 25.468,12.059 0.247,0 0.424,-0.072 0.52,-0.224 l 0.042,-0.069 c 1.51,-2.495 0.644,-4.309 -9.708,-10.649 l -0.994,-0.605 c -11.39,-6.895 -19.386,-11.043 -14.838,-15.993 0.523,-0.572 1.264,-0.825 2.165,-0.825 1.069,0 2.362,0.358 3.786,0.957 6.016,2.537 14.354,9.456 17.837,12.474 1.027,0.894 1.632,1.44 1.632,1.44 0,0 4.41,4.586 7.077,4.586 0.614,0 1.134,-0.241 1.487,-0.84 1.892,-3.188 -17.563,-17.93 -18.66,-24.012 -0.743,-4.122 0.522,-6.209 2.863,-6.209 1.112,0 2.47,0.473 3.969,1.424 4.65,2.952 13.628,18.38 16.915,24.381 1.102,2.012 2.983,2.862 4.678,2.862 3.363,0 5.992,-3.343 0.308,-7.591 -8.543,-6.393 -5.545,-16.841 -1.468,-17.484 0.174,-0.027 0.35,-0.041 0.525,-0.042 3.708,0 5.344,6.39 5.344,6.39 0,0 4.793,12.038 13.028,20.266 7.473,7.469 8.516,13.599 4.163,21.244 z m 26.629,1.41 -0.427,0.051 -0.729,0.084 c -0.383,0.039 -0.766,0.077 -1.151,0.113 l -0.376,0.034 -0.342,0.029 -0.487,0.039 c -0.179,0.013 -0.358,0.027 -0.537,0.038 l -0.536,0.036 -0.118,0.007 -0.422,0.025 -0.179,0.009 -0.5,0.025 -0.581,0.024 -0.528,0.018 -0.352,0.01 h -0.178 c -0.11,0 -0.219,0.006 -0.329,0.007 h -0.175 c -0.11,0 -0.219,0 -0.329,0.006 l -0.447,0.005 h -0.626 c -0.491,0 -0.98,-0.005 -1.469,-0.014 l -0.396,-0.009 c -0.112,0 -0.225,-0.006 -0.337,-0.009 l -0.419,-0.013 -0.522,-0.02 -0.469,-0.02 -0.122,-0.005 -0.447,-0.024 c -0.124,-0.007 -0.248,-0.013 -0.371,-0.021 l -0.289,-0.017 a 79.656,79.656 0 0 1 -1.089,-0.077 l -0.38,-0.03 -0.48,-0.041 -0.561,-0.052 a 49.756,49.756 0 0 1 -0.939,-0.096 h -0.015 c 4.57,-10.195 2.259,-19.716 -6.976,-28.944 -6.056,-6.048 -10.086,-14.981 -10.921,-16.942 -1.692,-5.805 -6.171,-12.258 -13.608,-12.258 a 12.16,12.16 0 0 0 -1.877,0.149 c -3.259,0.512 -6.107,2.388 -8.139,5.21 -2.195,-2.731 -4.33,-4.902 -6.26,-6.129 -2.91,-1.844 -5.813,-2.78 -8.643,-2.78 -3.53,0 -6.687,1.45 -8.887,4.08 l -0.055,0.067 -0.124,-0.521 -0.005,-0.022 a 74.105,74.105 0 0 1 -1.054,-5.412 c 0,-0.013 0,-0.025 -0.006,-0.037 l -0.062,-0.411 a 90.073,90.073 0 0 1 -0.098,-0.667 c -0.026,-0.185 -0.052,-0.37 -0.076,-0.554 -0.024,-0.184 -0.05,-0.369 -0.072,-0.554 -0.024,-0.186 -0.046,-0.371 -0.068,-0.556 A 63.197,63.197 0 0 1 69.778,130.1 l -0.006,-0.045 a 77.937,77.937 0 0 1 -0.232,-2.439 l -0.035,-0.471 a 23.88,23.88 0 0 1 -0.027,-0.39 c 0,-0.03 -0.004,-0.061 -0.006,-0.089 l -0.033,-0.522 c -0.012,-0.189 -0.021,-0.378 -0.031,-0.567 -0.01,-0.188 -0.02,-0.377 -0.028,-0.567 l -0.02,-0.495 -0.006,-0.15 -0.015,-0.458 -0.01,-0.388 c 0,-0.155 -0.008,-0.311 -0.011,-0.466 l -0.008,-0.489 c -0.002,-0.163 0,-0.325 -0.004,-0.488 -0.005,-0.164 0,-0.327 0,-0.491 0,-41.852 33.931,-75.783 75.787,-75.783 41.856,0 75.786,33.929 75.786,75.783 v 0.979 c 0,0.163 -0.004,0.327 -0.008,0.489 0,0.136 -0.005,0.269 -0.009,0.405 0,0.121 -0.005,0.241 -0.01,0.358 0,0.153 -0.009,0.305 -0.014,0.458 v 0.013 l -0.041,0.996 -0.006,0.11 -0.026,0.496 -0.024,0.393 a 79.037,79.037 0 0 1 -0.218,2.791 v 0.013 c -0.016,0.174 -0.034,0.349 -0.053,0.523 l -0.134,1.215 -0.051,0.407 -0.063,0.478 c -0.022,0.175 -0.046,0.349 -0.071,0.523 -0.027,0.195 -0.056,0.389 -0.084,0.583 l -0.07,0.458 -0.082,0.52 c -0.028,0.173 -0.056,0.345 -0.089,0.518 -0.034,0.172 -0.06,0.344 -0.09,0.517 -0.06,0.344 -0.122,0.687 -0.189,1.03 a 101.36,101.36 0 0 1 -0.419,2.044 46.3,46.3 0 0 1 -0.114,0.508 c -2.133,-2.073 -4.957,-3.202 -8.073,-3.202 -2.827,0 -5.733,0.935 -8.642,2.78 -1.931,1.226 -4.064,3.398 -6.261,6.129 -2.035,-2.823 -4.883,-4.698 -8.138,-5.211 a 12.298,12.298 0 0 0 -1.878,-0.148 c -7.439,0 -11.915,6.453 -13.608,12.258 -0.839,1.961 -4.869,10.893 -10.932,16.951 -9.228,9.198 -11.557,18.677 -7.058,28.83 z m 78.24,-20.408 -0.03,0.089 a 4.962,4.962 0 0 1 -0.065,0.17 5.249,5.249 0 0 1 -0.442,0.825 c -0.167,0.249 -0.35,0.487 -0.549,0.711 -0.046,0.052 -0.09,0.103 -0.142,0.154 -0.07,0.077 -0.145,0.152 -0.219,0.227 -1.347,1.335 -3.399,2.504 -5.719,3.578 -0.263,0.119 -0.529,0.238 -0.799,0.357 l -0.268,0.119 c -0.179,0.079 -0.357,0.158 -0.545,0.235 -0.183,0.078 -0.367,0.155 -0.551,0.231 l -0.558,0.231 c -1.305,0.537 -2.642,1.048 -3.947,1.554 l -0.557,0.216 -0.552,0.216 c -0.366,0.143 -0.728,0.286 -1.085,0.429 l -0.531,0.214 -0.521,0.214 -0.257,0.107 c -0.17,0.072 -0.338,0.142 -0.504,0.214 -3.838,1.646 -6.598,3.321 -6.018,5.4 0.016,0.059 0.034,0.115 0.054,0.169 0.052,0.154 0.123,0.3 0.211,0.436 0.052,0.082 0.112,0.159 0.179,0.229 0.682,0.708 1.923,0.596 3.488,0.034 0.127,-0.046 0.257,-0.095 0.388,-0.147 0.09,-0.034 0.179,-0.07 0.269,-0.106 l 0.135,-0.057 c 0.358,-0.152 0.737,-0.321 1.125,-0.506 0.097,-0.045 0.195,-0.089 0.293,-0.141 1.913,-0.935 4.082,-2.196 6.234,-3.343 0.33,-0.179 0.661,-0.35 0.99,-0.52 a 45.57,45.57 0 0 1 1.629,-0.805 c 2.038,-0.958 3.953,-1.638 5.494,-1.638 0.722,0 1.361,0.148 1.892,0.488 l 0.089,0.059 c 0.269,0.19 0.503,0.423 0.694,0.691 0.044,0.063 0.09,0.128 0.129,0.195 0.042,0.069 0.082,0.14 0.12,0.212 0.761,1.444 0.124,2.941 -1.366,4.408 -1.431,1.408 -3.657,2.789 -6.188,4.068 -0.187,0.095 -0.376,0.19 -0.566,0.282 -7.531,3.698 -17.391,6.483 -17.529,6.518 -2.628,0.681 -6.386,1.576 -10.619,2.245 l -0.627,0.097 -0.102,0.015 c -0.96,0.144 -1.923,0.271 -2.888,0.381 l -0.089,0.009 c -1.755,0.2 -3.555,0.345 -5.358,0.406 h -0.027 c -0.648,0.024 -1.295,0.035 -1.943,0.035 h -0.746 a 47.159,47.159 0 0 1 -2.96,-0.134 c -0.023,0 -0.047,0 -0.071,-0.005 a 38.048,38.048 0 0 1 -2.864,-0.338 c -0.234,-0.039 -0.484,-0.08 -0.725,-0.122 -0.11,-0.02 -0.219,-0.04 -0.328,-0.062 l -0.026,-0.005 a 28.01,28.01 0 0 1 -1.036,-0.218 c -0.199,-0.045 -0.399,-0.09 -0.596,-0.143 l -0.118,-0.031 a 12.27,12.27 0 0 1 -0.29,-0.076 l -0.053,-0.014 -0.309,-0.089 -0.335,-0.098 -0.04,-0.012 -0.291,-0.089 c -0.11,-0.034 -0.219,-0.07 -0.328,-0.105 -0.09,-0.03 -0.179,-0.061 -0.269,-0.09 l -0.197,-0.069 c -0.19,-0.066 -0.378,-0.136 -0.566,-0.208 l -0.178,-0.069 -0.147,-0.059 a 23.971,23.971 0 0 1 -0.844,-0.358 l -0.186,-0.089 -0.031,-0.014 c -0.066,-0.031 -0.131,-0.062 -0.197,-0.09 a 17.142,17.142 0 0 1 -0.384,-0.191 l -0.038,-0.019 -0.184,-0.097 a 14.95,14.95 0 0 1 -0.962,-0.546 l -0.172,-0.105 c -0.089,-0.054 -0.17,-0.109 -0.255,-0.164 l -0.224,-0.149 a 7.919,7.919 0 0 1 -0.241,-0.166 l -0.144,-0.102 c -0.152,-0.109 -0.301,-0.22 -0.448,-0.335 -0.078,-0.06 -0.155,-0.122 -0.232,-0.179 a 14.422,14.422 0 0 1 -0.503,-0.423 l -0.007,-0.006 a 11.998,11.998 0 0 1 -0.471,-0.43 l -0.008,-0.01 c -0.08,-0.076 -0.158,-0.152 -0.236,-0.231 -0.077,-0.079 -0.155,-0.157 -0.23,-0.236 -0.076,-0.08 -0.152,-0.161 -0.226,-0.244 a 11.935,11.935 0 0 1 -0.212,-0.237 l -0.024,-0.027 a 15.004,15.004 0 0 1 -1.012,-1.315 l -0.124,-0.183 a 28.884,28.884 0 0 1 -0.243,-0.365 l -0.236,-0.363 a 30.362,30.362 0 0 1 -0.573,-0.921 c -0.065,-0.11 -0.13,-0.219 -0.192,-0.327 -0.035,-0.059 -0.068,-0.119 -0.101,-0.179 -0.033,-0.062 -0.072,-0.125 -0.107,-0.188 l -0.056,-0.099 c -0.019,-0.033 -0.025,-0.043 -0.035,-0.065 -0.068,-0.119 -0.134,-0.24 -0.198,-0.363 -0.029,-0.053 -0.058,-0.107 -0.089,-0.16 l -0.09,-0.172 -0.089,-0.171 -0.172,-0.347 -0.082,-0.171 c -0.059,-0.123 -0.115,-0.244 -0.171,-0.365 -0.022,-0.049 -0.045,-0.098 -0.065,-0.147 -0.077,-0.167 -0.15,-0.336 -0.219,-0.507 -0.047,-0.113 -0.09,-0.225 -0.136,-0.337 -0.129,-0.33 -0.25,-0.663 -0.361,-1 -0.033,-0.1 -0.066,-0.199 -0.095,-0.299 a 11.678,11.678 0 0 1 -0.195,-0.687 12.614,12.614 0 0 1 -0.187,-0.814 8.834,8.834 0 0 1 -0.089,-0.486 12.865,12.865 0 0 1 -0.156,-1.442 c 0,-0.053 -0.005,-0.107 -0.006,-0.16 a 8.438,8.438 0 0 1 -0.009,-0.318 c -0.056,-4.272 2.107,-8.381 6.73,-13.002 8.234,-8.227 13.028,-20.266 13.028,-20.266 0,0 0.129,-0.505 0.398,-1.231 0.09,-0.241 0.184,-0.481 0.283,-0.718 0.113,-0.268 0.234,-0.533 0.364,-0.793 l 0.038,-0.076 c 0.167,-0.332 0.348,-0.655 0.545,-0.97 0.045,-0.073 0.089,-0.146 0.141,-0.218 a 9.62,9.62 0 0 1 0.464,-0.634 6.15,6.15 0 0 1 0.401,-0.453 c 0.478,-0.492 1.023,-0.894 1.64,-1.109 l 0.078,-0.025 c 0.052,-0.017 0.103,-0.033 0.156,-0.048 0.062,-0.016 0.124,-0.031 0.186,-0.044 l 0.028,-0.005 c 0.131,-0.026 0.262,-0.044 0.395,-0.053 h 0.012 c 0.069,0 0.138,-0.007 0.209,-0.007 0.177,0.001 0.353,0.015 0.528,0.042 0.742,0.117 1.449,0.559 2.057,1.241 l 0.082,0.096 c 0.198,0.232 0.378,0.48 0.538,0.74 0.12,0.193 0.233,0.396 0.34,0.609 0.043,0.09 0.084,0.172 0.125,0.26 0.02,0.045 0.04,0.089 0.059,0.135 0.04,0.089 0.077,0.179 0.114,0.273 0.209,0.536 0.371,1.089 0.485,1.653 0.121,0.609 0.191,1.227 0.211,1.848 0.007,0.273 0.007,0.549 0,0.829 -0.005,0.106 -0.01,0.213 -0.018,0.32 a 11.966,11.966 0 0 1 -0.769,3.472 c -0.043,0.11 -0.09,0.222 -0.134,0.334 a 12.366,12.366 0 0 1 -0.747,1.492 c -0.161,0.274 -0.335,0.546 -0.521,0.816 l -0.114,0.162 a 13.539,13.539 0 0 1 -1.471,1.728 15.541,15.541 0 0 1 -1.699,1.471 c -0.603,0.445 -1.168,0.939 -1.69,1.476 -1.503,1.578 -1.853,2.969 -1.515,4.024 0.04,0.119 0.087,0.236 0.141,0.349 0.125,0.245 0.287,0.47 0.481,0.666 l 0.053,0.053 c 0.055,0.053 0.113,0.104 0.172,0.153 l 0.06,0.049 c 0.146,0.112 0.3,0.212 0.461,0.299 0.046,0.025 0.089,0.05 0.142,0.074 0.221,0.11 0.452,0.198 0.69,0.265 l 0.066,0.017 0.089,0.024 0.078,0.019 0.083,0.018 0.083,0.017 0.079,0.013 c 0.059,0.011 0.119,0.02 0.178,0.028 l 0.058,0.008 0.103,0.011 0.064,0.006 0.106,0.008 h 0.061 l 0.11,0.005 h 0.347 l 0.099,-0.005 0.114,-0.007 0.139,-0.013 0.13,-0.016 c 0.029,0 0.059,-0.008 0.089,-0.013 a 5.056,5.056 0 0 0 1.587,-0.508 5.249,5.249 0 0 0 1.159,-0.799 l 0.141,-0.134 c 0.022,-0.022 0.045,-0.043 0.066,-0.066 0.138,-0.138 0.268,-0.284 0.389,-0.437 0.214,-0.27 0.404,-0.557 0.569,-0.859 a 229.428,229.428 0 0 1 6.151,-10.513 l 0.294,-0.471 0.297,-0.472 c 0.149,-0.238 0.298,-0.474 0.447,-0.707 l 0.151,-0.235 0.301,-0.469 c 0.404,-0.625 0.809,-1.243 1.217,-1.855 l 0.305,-0.456 c 0.612,-0.906 1.223,-1.788 1.827,-2.627 l 0.302,-0.414 a 55.052,55.052 0 0 1 2.053,-2.661 l 0.283,-0.338 c 0.046,-0.057 0.089,-0.112 0.14,-0.167 l 0.277,-0.321 c 0.046,-0.053 0.09,-0.105 0.138,-0.156 l 0.268,-0.303 0.135,-0.146 c 0.13,-0.141 0.262,-0.28 0.396,-0.418 0.09,-0.089 0.173,-0.179 0.26,-0.262 a 10.454,10.454 0 0 1 1.669,-1.387 l 0.139,-0.089 0.141,-0.09 c 0.09,-0.056 0.181,-0.11 0.274,-0.161 2.364,-1.341 4.322,-1.44 5.448,-0.314 0.683,0.683 1.06,1.814 1.04,3.387 0,0.07 0,0.139 -0.006,0.211 v 0.078 c 0,0.071 -0.006,0.144 -0.011,0.217 0,0.089 -0.011,0.179 -0.02,0.268 -0.009,0.09 -0.013,0.158 -0.022,0.237 0,0.023 -0.005,0.046 -0.008,0.069 -0.007,0.07 -0.016,0.141 -0.025,0.211 0,0.022 0,0.043 -0.009,0.065 -0.01,0.095 -0.024,0.19 -0.041,0.284 a 3.934,3.934 0 0 1 -0.042,0.261 c -0.007,0.05 -0.017,0.099 -0.025,0.149 -0.026,0.142 -0.06,0.283 -0.101,0.421 a 6.04,6.04 0 0 1 -0.282,0.757 9.287,9.287 0 0 1 -0.151,0.319 c -0.108,0.217 -0.23,0.439 -0.364,0.669 -0.067,0.113 -0.136,0.23 -0.21,0.347 l -0.112,0.178 c -0.114,0.179 -0.233,0.36 -0.357,0.543 -0.124,0.183 -0.257,0.37 -0.4,0.559 -0.185,0.252 -0.38,0.509 -0.586,0.769 l -0.156,0.197 a 53.765,53.765 0 0 1 -1.355,1.62 l -0.367,0.415 -0.187,0.21 c -0.255,0.285 -0.511,0.568 -0.769,0.849 l -0.198,0.214 c -0.131,0.142 -0.268,0.286 -0.399,0.429 -0.134,0.145 -0.27,0.289 -0.406,0.433 l -0.412,0.434 -0.417,0.435 c -0.139,0.145 -0.279,0.292 -0.42,0.437 l -0.849,0.875 c -4.055,4.159 -8.328,8.304 -9.774,10.888 a 6.003,6.003 0 0 0 -0.262,0.519 c -0.205,0.47 -0.291,0.872 -0.233,1.197 0.019,0.107 0.057,0.21 0.112,0.303 0.082,0.141 0.181,0.271 0.295,0.387 0.053,0.052 0.108,0.101 0.168,0.145 0.297,0.212 0.657,0.321 1.022,0.31 h 0.114 l 0.117,-0.008 0.118,-0.014 0.097,-0.014 c 0.013,-0.001 0.026,-0.004 0.039,-0.007 l 0.089,-0.017 0.024,-0.006 0.098,-0.021 0.035,-0.009 0.105,-0.027 0.125,-0.037 c 0.082,-0.025 0.164,-0.053 0.248,-0.084 0.181,-0.064 0.358,-0.138 0.531,-0.221 0.044,-0.021 0.089,-0.041 0.132,-0.064 l 0.133,-0.066 c 0.174,-0.088 0.347,-0.183 0.521,-0.286 0.139,-0.082 0.277,-0.166 0.415,-0.255 l 0.134,-0.089 c 0.044,-0.028 0.089,-0.057 0.133,-0.09 l 0.133,-0.089 0.07,-0.049 0.192,-0.134 c 0.179,-0.124 0.346,-0.251 0.516,-0.38 l 0.015,-0.011 0.268,-0.208 c 0.367,-0.29 0.716,-0.582 1.031,-0.857 l 0.21,-0.185 0.02,-0.018 0.109,-0.097 c 0.258,-0.231 0.488,-0.447 0.68,-0.626 l 0.078,-0.076 0.189,-0.179 0.113,-0.11 0.039,-0.04 0.011,-0.011 0.192,-0.193 0.008,-0.008 0.036,-0.032 c 0.011,-0.012 0.026,-0.024 0.043,-0.039 l 0.014,-0.013 0.038,-0.034 0.203,-0.179 0.114,-0.103 c 0.056,-0.048 0.117,-0.103 0.179,-0.162 l 0.137,-0.12 c 0.024,-0.02 0.048,-0.043 0.073,-0.065 l 0.143,-0.125 0.211,-0.184 0.111,-0.097 c 0.435,-0.379 0.965,-0.836 1.572,-1.351 l 0.249,-0.21 0.412,-0.345 0.42,-0.352 c 0.55,-0.456 1.142,-0.941 1.768,-1.445 l 0.411,-0.33 c 0.35,-0.278 0.71,-0.563 1.074,-0.849 0.146,-0.115 0.295,-0.23 0.447,-0.344 a 115.022,115.022 0 0 1 3.762,-2.788 l 0.385,-0.267 c 0.268,-0.186 0.536,-0.371 0.805,-0.552 l 0.243,-0.165 c 0.481,-0.324 0.966,-0.641 1.455,-0.951 l 0.243,-0.153 0.241,-0.15 c 0.241,-0.149 0.482,-0.297 0.72,-0.44 l 0.239,-0.142 0.479,-0.279 c 0.157,-0.091 0.313,-0.18 0.469,-0.268 l 0.094,-0.053 0.372,-0.203 c 0.154,-0.084 0.309,-0.165 0.462,-0.244 l 0.23,-0.118 0.222,-0.113 a 22.556,22.556 0 0 1 1.551,-0.707 c 0.072,-0.03 0.143,-0.059 0.214,-0.09 0.141,-0.059 0.281,-0.113 0.42,-0.161 0.139,-0.047 0.276,-0.096 0.411,-0.144 0.123,-0.041 0.242,-0.079 0.358,-0.115 l 0.039,-0.012 c 0.062,-0.019 0.124,-0.037 0.186,-0.053 l 0.018,-0.005 c 0.126,-0.036 0.252,-0.069 0.379,-0.099 h 0.01 c 0.187,-0.045 0.369,-0.083 0.547,-0.113 0.061,-0.01 0.121,-0.02 0.179,-0.028 0.173,-0.026 0.347,-0.044 0.521,-0.056 0.11,-0.008 0.221,-0.011 0.331,-0.011 h 0.084 c 0.112,0 0.22,0.007 0.327,0.018 0.049,0 0.098,0.009 0.146,0.016 h 0.02 c 0.048,0.005 0.097,0.013 0.144,0.023 0.047,0.01 0.095,0.017 0.141,0.028 h 0.016 c 0.046,0.01 0.089,0.023 0.137,0.036 0.382,0.103 0.733,0.297 1.024,0.565 l 0.026,0.026 0.051,0.05 0.05,0.053 c 0.401,0.422 0.733,0.905 0.983,1.431 l 0.039,0.089 c 0.085,0.2 0.152,0.407 0.199,0.619 0.13,0.591 0.095,1.207 -0.102,1.779 a 4.973,4.973 0 0 1 -0.312,0.723 l -0.082,0.148 a 8.262,8.262 0 0 1 -1.099,1.452 l -0.09,0.095 a 12.533,12.533 0 0 1 -0.819,0.796 l -0.106,0.096 c -0.22,0.195 -0.445,0.385 -0.673,0.571 -0.04,0.032 -0.081,0.064 -0.12,0.098 -0.159,0.128 -0.323,0.258 -0.493,0.388 -0.586,0.448 -1.183,0.88 -1.791,1.297 -0.358,0.245 -0.728,0.492 -1.11,0.743 -0.712,0.467 -1.429,0.924 -2.153,1.372 -0.209,0.129 -0.419,0.26 -0.633,0.39 -1.967,1.21 -4.148,2.504 -6.474,3.911 l -0.602,0.366 c -0.659,0.402 -1.281,0.786 -1.866,1.151 l -0.295,0.186 -0.558,0.358 c -0.221,0.14 -0.436,0.278 -0.645,0.414 -0.158,0.101 -0.312,0.201 -0.463,0.3 l -0.298,0.196 c -0.145,0.095 -0.289,0.19 -0.433,0.287 l -0.14,0.089 c -0.148,0.099 -0.292,0.196 -0.432,0.292 l -0.229,0.156 -0.269,0.187 -0.248,0.173 c -0.392,0.275 -0.779,0.556 -1.163,0.842 l -0.134,0.102 c -0.151,0.114 -0.297,0.228 -0.438,0.339 l -0.184,0.147 c -0.31,0.249 -0.591,0.488 -0.845,0.716 L 204.9,178.8 c -0.071,0.065 -0.141,0.13 -0.207,0.194 -0.047,0.044 -0.09,0.089 -0.137,0.133 l -0.065,0.064 c -0.143,0.143 -0.282,0.29 -0.417,0.441 l -0.066,0.076 c -0.147,0.17 -0.275,0.333 -0.388,0.492 l -0.05,0.072 c -0.13,0.19 -0.245,0.391 -0.343,0.6 l -0.034,0.073 -0.021,0.051 -0.017,0.044 -0.023,0.061 c -0.007,0.021 -0.021,0.058 -0.029,0.09 a 2.187,2.187 0 0 0 -0.091,0.367 l -0.01,0.067 -0.008,0.061 -0.005,0.059 v 0.314 c 0,0.026 0,0.053 0.006,0.08 l 0.005,0.048 c 0,0.026 0.007,0.052 0.01,0.079 l 0.019,0.11 v 0.005 c 0.007,0.035 0.014,0.07 0.023,0.105 0.009,0.035 0.018,0.074 0.029,0.111 0.032,0.113 0.071,0.225 0.116,0.334 0,0.008 0.007,0.017 0.01,0.025 0.012,0.027 0.023,0.055 0.036,0.082 0.049,0.114 0.104,0.225 0.164,0.334 l 0.063,0.113 0.066,0.114 0.069,0.114 a 0.409,0.409 0 0 0 0.04,0.053 l 0.023,0.024 0.024,0.022 0.027,0.021 a 0.543,0.543 0 0 0 0.057,0.035 c 0.02,0.009 0.042,0.019 0.064,0.027 a 0.977,0.977 0 0 0 0.072,0.021 c 0.577,0.13 1.763,-0.348 3.338,-1.18 l 0.283,-0.15 0.479,-0.261 0.235,-0.13 c 0.166,-0.09 0.337,-0.19 0.51,-0.289 l 0.317,-0.179 c 2.083,-1.199 4.572,-2.74 7.144,-4.244 0.24,-0.141 0.482,-0.281 0.724,-0.421 l 0.486,-0.31 c 0.243,-0.14 0.485,-0.278 0.728,-0.414 a 79.755,79.755 0 0 1 3.141,-1.694 l 0.475,-0.241 c 0.316,-0.156 0.629,-0.308 0.938,-0.456 a 41.942,41.942 0 0 1 1.815,-0.808 l 0.335,-0.136 0.041,-0.016 c 1.774,-0.703 3.383,-1.138 4.685,-1.138 0.282,-0.002 0.563,0.021 0.841,0.069 h 0.008 c 0.09,0.016 0.171,0.034 0.253,0.055 h 0.015 c 0.12,0.029 0.238,0.066 0.352,0.112 0.091,0.033 0.179,0.072 0.264,0.118 a 2.51,2.51 0 0 1 0.987,0.902 c 0.088,0.134 0.164,0.275 0.226,0.423 0.037,0.085 0.071,0.173 0.103,0.268 0.032,0.096 0.06,0.188 0.089,0.287 0.212,0.758 0.191,1.56 -0.06,2.306 z"
     fill="#ff9d00"
     id="path3-9" /><path
     clip-rule="evenodd"
     d="m 220.867,122.075 v -0.49 c 0,-41.854 -33.918,-75.783 -75.775,-75.783 -41.855,0 -75.786,33.931 -75.786,75.783 v 0.164 c -0.002,0.109 -0.003,0.217 0,0.326 0.004,0.163 0.006,0.326 0.004,0.489 l 0.006,0.36 0.002,0.13 0.005,0.178 c 0.002,0.096 0.005,0.191 0.005,0.287 l 0.01,0.389 0.016,0.457 0.005,0.15 0.02,0.473 v 0.022 l 0.028,0.553 v 0.014 a 52.174,52.174 0 0 0 0.065,1.089 l 0.003,0.031 c 0.009,0.149 0.019,0.299 0.03,0.448 l 0.003,0.039 c 0.01,0.144 0.021,0.289 0.033,0.432 l 0.002,0.028 0.02,0.25 c 0.06,0.721 0.13,1.442 0.21,2.161 l 0.005,0.045 0.06,0.528 0.07,0.556 a 68.513,68.513 0 0 0 0.244,1.775 l 0.005,0.027 a 73.78,73.78 0 0 0 1.118,5.833 l 0.005,0.023 0.032,0.135 c 0.03,0.128 0.06,0.256 0.092,0.385 l 0.055,-0.067 c 2.2,-2.63 5.356,-4.08 8.887,-4.08 2.83,0 5.734,0.935 8.643,2.78 1.93,1.226 4.064,3.398 6.26,6.129 2.032,-2.823 4.88,-4.698 8.138,-5.21 0.622,-0.098 1.25,-0.148 1.878,-0.149 7.437,0 11.916,6.454 13.608,12.258 0.835,1.962 4.865,10.893 10.941,16.935 9.235,9.227 11.546,18.749 6.976,28.944 h 0.015 c 0.312,0.034 0.625,0.066 0.939,0.095 0.187,0.018 0.374,0.036 0.561,0.052 l 0.066,0.006 c 0.137,0.013 0.275,0.025 0.413,0.035 l 0.38,0.031 c 0.362,0.028 0.725,0.053 1.09,0.077 l 0.288,0.017 0.229,0.013 0.143,0.008 0.446,0.024 0.122,0.005 0.47,0.02 0.521,0.02 0.42,0.012 0.07,0.003 c 0.088,0.003 0.178,0.007 0.267,0.007 l 0.095,0.002 c 0.59,0.014 1.179,0.021 1.769,0.021 h 0.626 l 0.448,-0.005 c 0.11,-0.006 0.219,-0.006 0.329,-0.006 h 0.174 l 0.151,-0.003 c 0.059,-0.002 0.119,-0.004 0.178,-0.004 h 0.179 l 0.351,-0.01 0.528,-0.018 0.582,-0.025 c 0.167,-0.007 0.333,-0.015 0.5,-0.024 l 0.179,-0.01 0.265,-0.015 0.157,-0.009 0.117,-0.007 0.537,-0.036 c 0.179,-0.011 0.358,-0.025 0.537,-0.039 l 0.486,-0.038 0.343,-0.029 0.375,-0.034 c 0.385,-0.036 0.769,-0.074 1.151,-0.114 0.244,-0.027 0.486,-0.054 0.729,-0.083 l 0.427,-0.051 c -4.499,-10.153 -2.17,-19.632 7.028,-28.823 6.062,-6.057 10.092,-14.99 10.932,-16.951 1.693,-5.805 6.168,-12.258 13.607,-12.258 0.629,10e-4 1.257,0.05 1.878,0.149 3.255,0.512 6.104,2.388 8.139,5.21 2.197,-2.731 4.33,-4.903 6.26,-6.129 2.909,-1.845 5.815,-2.78 8.642,-2.78 3.116,0 5.941,1.13 8.074,3.202 0.117,-0.522 0.23,-1.044 0.338,-1.568 0.066,-0.327 0.131,-0.655 0.195,-0.984 0.078,-0.404 0.152,-0.81 0.22,-1.216 0.018,-0.11 0.037,-0.22 0.058,-0.331 0.033,-0.173 0.062,-0.344 0.089,-0.518 l 0.011,-0.066 0.071,-0.453 0.07,-0.459 0.001,-0.005 c 0.028,-0.192 0.057,-0.385 0.083,-0.578 0.021,-0.146 0.041,-0.292 0.06,-0.439 l 0.012,-0.084 0.062,-0.478 0.051,-0.407 a 104.21,104.21 0 0 0 0.125,-1.128 l 0.01,-0.087 c 0.019,-0.179 0.036,-0.357 0.052,-0.536 l 0.04,-0.416 c 0.083,-0.922 0.15,-1.844 0.202,-2.768 v -0.006 l 0.027,-0.49 0.005,-0.11 0.02,-0.465 c 0.008,-0.175 0.015,-0.352 0.021,-0.531 v -0.013 l 0.005,-0.129 c 0.005,-0.11 0.009,-0.22 0.009,-0.329 l 0.002,-0.045 c 0.004,-0.102 0.008,-0.208 0.008,-0.313 l 0.003,-0.09 c 0.003,-0.105 0.006,-0.209 0.006,-0.314 l 0.002,-0.089 c 0.003,-0.134 0.006,-0.267 0.006,-0.401 z m -94.571,75.707 c 6.001,-8.802 5.576,-15.408 -2.659,-23.638 -8.235,-8.23 -13.028,-20.266 -13.028,-20.266 0,0 -1.789,-6.992 -5.869,-6.349 -4.08,0.642 -7.073,11.089 1.469,17.484 8.542,6.395 -1.699,10.731 -4.987,4.73 -3.289,-6.002 -12.265,-21.429 -16.92,-24.38 -4.654,-2.951 -7.927,-1.297 -6.83,4.785 0.545,3.019 5.613,8.171 10.348,12.985 4.804,4.885 9.265,9.42 8.312,11.025 -1.893,3.188 -8.56,-3.745 -8.56,-3.745 0,0 -20.876,-18.997 -25.42,-14.046 -4.19,4.563 2.27,8.442 12.226,14.42 0.847,0.509 1.72,1.033 2.612,1.573 11.39,6.896 12.276,8.715 10.66,11.324 -0.597,0.964 -4.41,-1.325 -9.1,-4.141 -7.995,-4.8 -18.538,-11.129 -20.026,-5.464 -1.289,4.903 6.467,7.907 13.501,10.632 5.86,2.27 11.22,4.346 10.432,7.164 -0.817,2.921 -5.246,0.485 -10.088,-2.179 -5.435,-2.991 -11.39,-6.268 -13.338,-2.57 -3.684,6.99 25.41,15.219 25.65,15.279 9.4,2.438 33.271,7.604 41.615,-4.623 z m 38.664,0 c -6.002,-8.802 -5.576,-15.408 2.659,-23.638 8.235,-8.23 13.029,-20.266 13.029,-20.266 0,0 1.788,-6.992 5.868,-6.349 4.08,0.642 7.074,11.089 -1.469,17.484 -8.543,6.395 1.699,10.731 4.988,4.73 3.288,-6.002 12.26,-21.429 16.914,-24.38 4.654,-2.951 7.928,-1.297 6.831,4.785 -0.545,3.019 -5.613,8.172 -10.349,12.986 -4.803,4.884 -9.264,9.419 -8.311,11.024 1.892,3.188 8.565,-3.749 8.565,-3.749 0,0 20.875,-18.997 25.42,-14.046 4.189,4.563 -2.272,8.443 -12.228,14.422 -0.847,0.508 -1.718,1.031 -2.611,1.572 -11.391,6.895 -12.276,8.715 -10.66,11.323 0.597,0.964 4.41,-1.325 9.099,-4.14 7.996,-4.8 18.539,-11.13 20.027,-5.465 1.289,4.903 -6.467,7.908 -13.502,10.633 -5.86,2.27 -11.219,4.345 -10.432,7.164 0.817,2.921 5.244,0.484 10.084,-2.18 5.435,-2.991 11.391,-6.269 13.34,-2.57 3.684,6.995 -25.414,15.215 -25.65,15.276 -9.4,2.445 -33.272,7.611 -41.612,-4.616 z"
     fill="#ffd21e"
     fill-rule="evenodd"
     id="path4-5" /><path
     clip-rule="evenodd"
     d="m 169.705,100.957 c 1.181,0.418 2.06,1.691 2.896,2.901 1.13,1.637 2.182,3.159 3.796,2.301 a 10.897,10.897 0 0 0 5.735,-10.672 10.898,10.898 0 0 0 -9.23,-9.74 10.904,10.904 0 0 0 -10.038,3.849 10.91,10.91 0 0 0 -1.215,12.054 c 0.748,1.407 2.408,0.744 4.16,0.043 1.374,-0.549 2.804,-1.121 3.896,-0.736 z m -51.376,0.001 c -1.181,0.418 -2.061,1.691 -2.897,2.901 -1.13,1.636 -2.182,3.159 -3.796,2.301 a 10.903,10.903 0 0 1 -5.568,-7.478 10.906,10.906 0 0 1 2.244,-9.049 10.914,10.914 0 0 1 8.421,-4.004 10.909,10.909 0 0 1 10.875,9.81 10.9,10.9 0 0 1 -1.222,6.212 c -0.75,1.407 -2.41,0.743 -4.162,0.042 -1.373,-0.549 -2.803,-1.121 -3.895,-0.735 z m 43.428,46.751 c 8.143,-6.416 11.134,-16.889 11.134,-23.341 0,-5.1 -3.432,-3.495 -8.925,-0.776 l -0.309,0.154 c -5.043,2.497 -11.755,5.821 -19.123,5.821 -7.369,0 -14.081,-3.325 -19.122,-5.822 -5.671,-2.809 -9.228,-4.571 -9.228,0.624 0,6.655 3.182,17.584 11.917,23.934 a 18.945,18.945 0 0 1 11.574,-9.786 c 0.872,-0.26 1.77,1.241 2.69,2.777 0.887,1.483 1.793,2.999 2.716,2.999 0.982,0 1.948,-1.494 2.891,-2.953 0.985,-1.524 1.945,-3.01 2.874,-2.713 a 18.964,18.964 0 0 1 10.911,9.082 z"
     fill="#32343d"
     fill-rule="evenodd"
     id="path5-8" /><path
     d="m 161.754,147.708 c -4.241,3.342 -9.878,5.583 -17.218,5.583 -6.897,0 -12.292,-1.978 -16.435,-4.989 a 18.968,18.968 0 0 1 11.574,-9.786 c 1.713,-0.511 3.527,5.776 5.405,5.776 2.011,0 3.948,-6.247 5.766,-5.666 a 18.972,18.972 0 0 1 10.908,9.082 z"
     fill="#ff323d"
     id="path6-6" /><path
     clip-rule="evenodd"
     d="m 98.858,110.031 a 7.08,7.08 0 0 1 -5.328,1.074 7.09,7.09 0 0 1 -2.549,-12.86 7.088,7.088 0 0 1 7.877,11.786 z m 101.412,0 a 7.083,7.083 0 0 1 -7.89,0.017 7.084,7.084 0 0 1 -3.02,-4.519 7.105,7.105 0 0 1 1.068,-5.33 7.092,7.092 0 0 1 7.278,-2.998 7.09,7.09 0 0 1 5.561,8.32 7.09,7.09 0 0 1 -2.997,4.51 z"
     fill="#ffad03"
     fill-rule="evenodd"
     id="path7-3" /></g><g
   transform="matrix(0.03392021,0,0,0.031948,399.80543,-91.391424)"
   id="g20"><linearGradient
     id="a"
     gradientUnits="userSpaceOnUse"
     x1="-11445.563"
     y1="603.91803"
     x2="-11445.563"
     y2="465.76801"
     gradientTransform="matrix(1.3509,0,0,-1.3509,10917.478,3681.026)"><stop
       offset="0"
       stop-color="#196eef"
       id="stop1-3" /><stop
       offset=".5"
       stop-color="#186dee"
       id="stop2-5" /><stop
       offset="1"
       stop-color="#1065e7"
       id="stop3-7" /></linearGradient><path
     d="m -4520.08,2990.41 h 32.21 v 45.24 c -10.05,3.229 -22.74,5 -35.931,5 -53.46,0 -84.88,-45.78 -84.88,-90.49 0,-43.851 28.42,-74.61 68.07,-74.61 25.09,0 39.689,8.5 52.75,20.34 v 14.76 l 24.49,-24.49 c -15.49,-10.48 -37.92,-20.44 -69.98,-20.44 -70.38,0 -102.55,50.351 -102.55,91.73 0,58.899 42.9,94.38 96.811,94.38 26.14,0 49.35,-3.99 76.16,-11.45 v -46.74 c 0,-2.39 1.05,-4.03 2.62,-5.47 l 8.46,-8.46 h -57.45 z"
     fill="url(#a)"
     id="path3-7"
     style="fill:url(#a)" /><linearGradient
     id="b"
     gradientUnits="userSpaceOnUse"
     x1="-11323.519"
     y1="556.948"
     x2="-11323.519"
     y2="467.61801"
     gradientTransform="matrix(1.3509,0,0,-1.3509,10917.478,3681.026)"><stop
       offset="0"
       stop-color="#de5744"
       id="stop4-9" /><stop
       offset=".5"
       stop-color="#db4632"
       id="stop5-3" /><stop
       offset="1"
       stop-color="#d13d29"
       id="stop6-6" /></linearGradient><path
     d="m -4375.79,2928.93 c -40.51,0 -65.61,29.601 -65.61,61.021 0,27.12 20.221,59.319 61.19,59.319 39.41,0 63.59,-29.659 63.59,-61.629 0,-29.78 -23.63,-58.7 -59.17,-58.7 z m -6.721,8.63 c 28.561,0 41.28,37.21 41.28,63.75 0,39.47 -29.61,40.25 -33.15,40.25 -13.55,0 -23.02,-8.189 -30.109,-18.93 -6.24,-9.899 -12.34,-28.29 -12.34,-46.26 0,-17.9 5.859,-26.64 15.08,-33.07 7.54,-4.82 14.6,-5.74 19.229,-5.74 z"
     fill="url(#b)"
     id="path6-8"
     style="fill:url(#b)" /><linearGradient
     id="c"
     gradientUnits="userSpaceOnUse"
     x1="-11130.575"
     y1="556.948"
     x2="-11130.575"
     y2="413.51801"
     gradientTransform="matrix(1.3509,0,0,-1.3509,10917.478,3681.026)"><stop
       offset="0"
       stop-color="#1a6fef"
       id="stop7" /><stop
       offset=".25"
       stop-color="#1e72ef"
       id="stop8" /><stop
       offset=".5"
       stop-color="#166bec"
       id="stop9" /><stop
       offset=".75"
       stop-color="#1267e9"
       id="stop10" /><stop
       offset="1"
       stop-color="#1063e5"
       stop-opacity=".87"
       id="stop11" /></linearGradient><path
     d="m -4110.979,2928.92 c -35.381,0 -54.521,22.4 -54.521,47.41 0,19.04 13.64,40.52 41.78,40.52 h 7.119 c 0,0 -1.939,4.71 -1.949,9.26 0,6.711 2.41,10.48 7.529,16.28 -48.42,2.95 -67.88,22.48 -67.88,43.47 0,18.381 17.601,36.471 54.59,36.471 43.79,0 66.47,-24.311 66.47,-48.17 0,-16.82 -8.38,-26.04 -29.6,-41.94 -6.24,-4.85 -7.45,-7.939 -7.45,-11.569 0,-5.2 3.11,-8.641 4.25,-9.94 2.01,-2.12 5.49,-4.54 6.79,-5.7 7.13,-6.04 17.2,-14.979 17.2,-32.82 0,-12.24 -5.091,-22.77 -16.69,-32.63 h 14.16 l 10.64,-10.64 h -52.438 z m -9.76,7.96 c 6.42,0 11.779,2.27 17.439,6.98 6.279,5.66 16.311,20.87 16.311,39.69 0,20.31 -15.78,25.87 -24.32,25.87 -4.18,0 -9.189,-1.17 -13.43,-4.07 -9.42,-6.109 -18.771,-22.37 -18.771,-41.72 0,-17.46 10.4,-26.75 22.771,-26.75 z m 14.01,113.22 c 2.699,0 4.64,0.221 4.64,0.221 0,0 6.37,4.55 10.82,7.949 10.36,8.19 16.819,14.45 16.819,25.601 0,15.33 -14.22,27.35 -37.25,27.35 -25.279,0 -44.6,-11.77 -44.6,-30.989 0,-15.921 13.24,-29.623 49.571,-30.132 z"
     fill="url(#c)"
     id="path11"
     style="fill:url(#c)" /><linearGradient
     id="d"
     gradientUnits="userSpaceOnUse"
     x1="-11061.771"
     y1="601.40802"
     x2="-11061.771"
     y2="470.12799"
     gradientTransform="matrix(1.3509,0,0,-1.3509,10917.478,3681.026)"><stop
       offset="0"
       stop-color="#0aa561"
       id="stop12" /><stop
       offset=".5"
       stop-color="#009b58"
       id="stop13" /><stop
       offset="1"
       stop-color="#00914b"
       id="stop14" /></linearGradient><path
     d="m -4050.88,3045.76 h 48.57 l 7.399,-7.399 -13.93,-1.74 c -3.75,-0.46 -5.979,-3.7 -5.979,-6.84 v -146.71 c 0,-2.89 1.34,-4.37 2.319,-5.311 l 8.761,-8.76 h -41.42 l -10.78,10.78 h 16.1 v 151.97 c 0,2.16 -0.68,3.63 -2.14,5.14 z"
     fill="url(#d)"
     id="path14"
     style="fill:url(#d)" /><linearGradient
     id="e"
     gradientUnits="userSpaceOnUse"
     x1="-10998.289"
     y1="556.948"
     x2="-10998.289"
     y2="467.86401"
     gradientTransform="matrix(1.3509,0,0,-1.3509,10917.478,3681.026)"><stop
       offset="0"
       stop-color="#de5644"
       id="stop15" /><stop
       offset=".5"
       stop-color="#da4531"
       id="stop16" /><stop
       offset="1"
       stop-color="#ce3a28"
       id="stop17" /></linearGradient><path
     d="m -3936.5,2928.93 c -27.12,0 -55.93,20.67 -55.93,57.78 0,30.649 20.67,62.56 59.29,62.56 9.63,0 17.56,-1.239 24.99,-4.649 7.97,-3.67 15.64,-9.63 21.239,-17.12 -10.569,5.33 -19.189,8.83 -30.64,8.83 -21.76,0 -42.74,-15.7 -50.08,-44.56 l 76.87,-31.07 c -4.44,-15.83 -16.96,-31.771 -45.729,-31.771 z m -5.021,8.49 c 14.551,0 25.07,11.97 25.07,21.34 0,3.03 -1.899,4.63 -5.66,6.11 l -47.25,19.11 c 0,0 -1.279,-5.95 -1.279,-12.38 0,-26.97 19.5,-34.18 29.119,-34.18 z"
     fill="url(#e)"
     id="path17"
     style="fill:url(#e)" /><linearGradient
     id="f"
     gradientUnits="userSpaceOnUse"
     x1="-11221.762"
     y1="556.75403"
     x2="-11221.762"
     y2="467.79501"
     gradientTransform="matrix(1.3509,0,0,-1.3509,10917.478,3681.026)"><stop
       offset="0"
       stop-color="#ffc01a"
       id="stop18" /><stop
       offset=".5"
       stop-color="#ffba03"
       id="stop19" /><stop
       offset="1"
       stop-color="#ffb300"
       id="stop20" /></linearGradient><path
     d="m -4238.33,2928.93 c -40.51,0 -65.61,29.601 -65.61,61.021 0,27.12 20.221,59.319 61.19,59.319 39.41,0 63.59,-29.659 63.59,-61.629 0,-29.78 -23.63,-58.7 -59.17,-58.7 z m -6.721,8.63 c 28.561,0 41.28,37.21 41.28,63.75 0,39.47 -29.61,40.25 -33.15,40.25 -13.55,0 -23.02,-8.189 -30.109,-18.93 -6.24,-9.899 -12.34,-28.29 -12.34,-46.26 0,-17.9 5.859,-26.64 15.08,-33.07 7.54,-4.82 14.6,-5.74 19.229,-5.74 z"
     fill="url(#f)"
     id="path20"
     style="fill:url(#f)" /></g><path
   d="m 297.55853,3.3201529 c -0.44558,0 -0.76358,0.1741452 -0.91966,0.5039366 l -0.084,0.1786069 V 3.4061101 h -0.72506 v 3.6261626 h 0.76262 V 4.8749532 c 0,-0.5154348 0.2448,-0.8111114 0.67128,-0.8111114 0.40672,0 0.63988,0.2879044 0.63988,0.7896341 v 2.1787968 h 0.76292 V 4.6978415 c 0,-0.8633811 -0.41417,-1.3776886 -1.10812,-1.3776886 z m -3.6984,0 c -0.89992,0 -1.45722,0.6425196 -1.45722,1.6767233 v 0.509134 c 0,0.9945358 0.56379,1.6122435 1.47146,1.6122435 0.60718,0 1.03268,-0.2545729 1.30049,-0.7781596 l -0.47279,-0.3112567 c -0.19786,0.3020132 -0.5139,0.4891279 -0.82737,0.4891279 -0.4595,0 -0.73378,-0.3246059 -0.73378,-0.8685547 V 5.5052508 h 2.12849 V 4.9038469 c 0,-0.9634232 -0.55276,-1.5837177 -1.40863,-1.5837177 z m 0.71533,1.5989062 h -1.43713 v -0.087096 c 0,-0.5969422 0.25613,-0.9263657 0.72115,-0.9263657 0.44784,0 0.71532,0.3245939 0.71532,0.8685664 z M 306.24027,2.809156 V 2.1155061 h -2.63788 V 2.809156 h 0.92484 v 3.5279716 h -0.92484 v 0.6936738 h 2.63788 V 6.3371276 H 305.3151 V 2.809156 Z M 286.23892,2.0154519 c -1.17808,0 -1.91057,0.8400171 -1.91057,2.192894 v 0.731455 c 0,1.3525088 0.73217,2.1928938 1.91057,2.1928938 1.1784,0 1.91056,-0.840385 1.91056,-2.1928938 v -0.731455 c -3.4e-4,-1.3543483 -0.73347,-2.192894 -1.91056,-2.192894 z m 1.12237,2.9743879 c 0,0.8981958 -0.40899,1.4132628 -1.12237,1.4132628 -0.71339,0 -1.12205,-0.515067 -1.12205,-1.4132628 v -0.831877 c 0,-0.8982197 0.4093,-1.4132865 1.12237,-1.4132865 0.71306,0 1.12237,0.5150668 1.12237,1.4132865 z m 3.18352,-1.6696869 c -0.40025,0 -0.74674,0.1897134 -0.92743,0.507271 l -0.0819,0.1444446 V 3.4060507 h -0.72538 v 4.8738119 h 0.76294 v -1.765291 l 0.0816,0.1385472 c 0.17163,0.2912508 0.50679,0.4650281 0.89668,0.4650281 0.65769,0 1.3212,-0.4917146 1.3212,-1.5907424 V 4.9108122 c 0,-0.7918647 -0.40899,-1.5907661 -1.32769,-1.5907661 z m 0.56474,2.164724 c 0,0.5843524 -0.29791,0.9474872 -0.77716,0.9474872 -0.44689,0 -0.75873,-0.3838885 -0.75873,-0.9330345 V 4.9538739 c 0,-0.5558146 0.31443,-0.9471075 0.7652,-0.9471075 0.47569,0 0.77135,0.3627551 0.77135,0.9471075 z m 9.66521,-3.369003 -1.53914,4.9163988 h 0.7749 l 0.29469,-1.05383 h 1.76937 l 0.002,0.01068 0.29143,1.0434711 h 0.7746 l -1.54173,-4.9167901 z m -0.28044,3.1692747 0.69429,-2.4856278 0.68715,2.4856278 z M 282.83681,3.4883652 A 1.8545435,2.1221215 0 0 0 282.67749,1.7449431 1.8781828,2.1491716 0 0 0 280.65683,0.71518895 1.8551912,2.1228628 0 0 0 279.25758,7.9716719e-4 1.8762398,2.1469483 0 0 0 277.4678,1.4881512 a 1.8558389,2.1236038 0 0 0 -1.23992,1.0297542 1.8781828,2.1491716 0 0 0 0.23088,2.5174878 1.8558389,2.1236038 0 0 0 0.15933,1.7415829 1.8781828,2.1491716 0 0 0 2.02227,1.0319611 1.8558389,2.1236038 0 0 0 1.39764,0.7144392 1.8762398,2.1469483 0 0 0 1.78978,-1.4873777 1.855515,2.1232332 0 0 0 1.2396,-1.029766 1.8755922,2.1462072 0 0 0 -0.23057,-2.5178675 z M 280.038,7.967538 a 1.3901791,1.5907575 0 0 1 -0.89311,-0.3705391 c 0.0111,-0.00712 0.0325,-0.019342 0.0446,-0.028478 l 1.48313,-0.9797271 a 0.24060169,0.2753163 0 0 0 0.12179,-0.2412356 V 3.9545798 l 0.62659,0.4138974 a 0.02169624,0.02482663 0 0 1 0.0124,0.020053 v 1.9805757 a 1.3969793,1.5985389 0 0 1 -1.39536,1.5985384 z M 277.0397,6.5023971 A 1.3924459,1.5933514 0 0 1 276.87293,5.432263 c 0.0111,0.00712 0.0304,0.021122 0.0441,0.029903 l 1.48343,0.980095 a 0.24092552,0.27568684 0 0 0 0.24352,0 l 1.80986,-1.1976103 v 0.8278066 a 0.02169624,0.02482663 0 0 1 -0.009,0.022308 l -1.49931,0.9901097 a 1.3969793,1.5985389 0 0 1 -1.90604,-0.5843644 z m -0.38858,-3.7054749 a 1.3898552,1.5903869 0 0 1 0.72634,-0.7003186 v 2.0172533 a 0.24124934,0.27605739 0 0 0 0.12178,0.2412237 l 1.81018,1.1961152 -0.62886,0.4153927 a 0.02202007,0.0251972 0 0 1 -0.0211,0.00118 l -1.49899,-0.9904778 a 1.3966556,1.5981684 0 0 1 -0.51065,-2.1814076 z m 5.14882,1.3710199 -1.8102,-1.1961152 0.62597,-0.4142654 a 0.0223439,0.02556773 0 0 1 0.0211,-0.00238 l 1.49899,0.9904777 a 1.3956841,1.5970569 0 0 1 -0.21567,2.881374 V 4.4101388 a 0.24092552,0.27568684 0 0 0 -0.12116,-0.2423391 z m 0.624,-1.074572 c -0.0111,-0.00712 -0.0305,-0.021122 -0.0441,-0.029903 L 280.89639,2.083384 a 0.24092552,0.27568684 0 0 0 -0.24353,0 l -1.81017,1.1957475 V 2.451705 a 0.0236392,0.02704992 0 0 1 0.009,-0.022308 l 1.49898,-0.9901099 a 1.3956841,1.5970569 0 0 1 2.07249,1.6544865 z M 278.50113,4.5696295 277.8742,4.155732 a 0.0236392,0.02704992 0 0 1 -0.0124,-0.020053 v -1.980576 a 1.3953602,1.5966863 0 0 1 2.28847,-1.22798731 c -0.0111,0.00712 -0.0307,0.0193415 -0.0447,0.0284784 l -1.48312,0.97971511 a 0.24124934,0.27605739 0 0 0 -0.12178,0.2412357 z m 0.34033,-0.8400407 0.80633,-0.5328422 0.80599,0.5328422 v 1.0649604 l -0.80631,0.5328423 -0.80633,-0.5328423 z"
   id="path1-5"
   style="stroke-width:0.0346399" /></svg>
