<svg id="79a51077-a51c-40d5-8ebb-8911cbe43176" data-name="8bd26427-6d84-48e2-bef4-a4d97b369daa" xmlns="http://www.w3.org/2000/svg" xmlns:xlink="http://www.w3.org/1999/xlink" viewBox="0 0 200 247.43">
  <defs>
    <linearGradient id="ea33ee81-e0ed-4607-ac34-66712bbb490c" x1="70.66" y1="110.01" x2="70.66" y2="296.58" gradientTransform="matrix(1, 0, 0, -1, 0, 296.58)" gradientUnits="userSpaceOnUse">
      <stop offset="0" stop-color="#d4d9ec"/>
      <stop offset="1" stop-color="#eff0f8"/>
    </linearGradient>
    <linearGradient id="5856141e-6d33-40ee-9bac-ec16d947254c" x1="48.21" y1="172.76" x2="74.7" y2="172.76" gradientTransform="matrix(1, 0, 0, -1, 0, 296.58)" gradientUnits="userSpaceOnUse">
      <stop offset="0.15" stop-color="#4d9ed7"/>
      <stop offset="1" stop-color="#67bce9"/>
    </linearGradient>
    <linearGradient id="9612e314-269e-4232-894e-f030c30c0ba0" x1="51.31" y1="170.95" x2="77.82" y2="170.95" xlink:href="#5856141e-6d33-40ee-9bac-ec16d947254c"/>
    <linearGradient id="69a31c80-3e04-4838-bb51-a4249ec417de" x1="4.34" y1="250.65" x2="141.33" y2="250.65" gradientTransform="matrix(1, 0, 0, -1, 0, 296.58)" gradientUnits="userSpaceOnUse">
      <stop offset="0" stop-color="#49496c"/>
      <stop offset="1" stop-color="#5d639e"/>
    </linearGradient>
    <linearGradient id="e056ee43-1023-444a-8853-90c30201da3f" x1="111.63" y1="211.49" x2="135.41" y2="211.49" gradientTransform="matrix(1, 0, 0, -1, 35.54, 246.58)" gradientUnits="userSpaceOnUse">
      <stop offset="0" stop-color="#68bbe8"/>
      <stop offset="0.85" stop-color="#4e9dd5"/>
    </linearGradient>
    <linearGradient id="114f68d0-de93-43c6-88b1-81c2da90b00e" x1="112.58" y1="211.49" x2="136.36" y2="211.49" gradientTransform="matrix(1, 0, 0, -1, 35.54, 246.58)" gradientUnits="userSpaceOnUse">
      <stop offset="0.15" stop-color="#4e9dd5"/>
      <stop offset="1" stop-color="#68bbe8"/>
    </linearGradient>
    <linearGradient id="53d25ce4-f8b7-4900-be14-f7fc069fc133" x1="-82.59" y1="142.72" x2="-81.17" y2="142.72" gradientTransform="translate(257.57 16.73)" gradientUnits="userSpaceOnUse">
      <stop offset="0.15" stop-color="#e7b620"/>
      <stop offset="1" stop-color="#fcd700"/>
    </linearGradient>
    <linearGradient id="c4ad53ea-cf1f-4669-8217-7219dca93f0e" x1="-80.98" y1="143.75" x2="-79.56" y2="143.75" xlink:href="#53d25ce4-f8b7-4900-be14-f7fc069fc133"/>
    <linearGradient id="0c4c7718-7335-44a5-83ab-7acba6610db6" x1="-79.37" y1="144.72" x2="-77.94" y2="144.72" xlink:href="#53d25ce4-f8b7-4900-be14-f7fc069fc133"/>
    <linearGradient id="d58a41ec-dc9e-415a-b3fc-dd028cab524a" x1="-103" y1="158.62" x2="-61.61" y2="158.62" gradientTransform="translate(257.57 16.73)" gradientUnits="userSpaceOnUse">
      <stop offset="0" stop-color="#5c629e"/>
      <stop offset="1" stop-color="#48486a"/>
    </linearGradient>
    <linearGradient id="a412faee-a2af-4901-bba0-7895233758d4" x1="-93.51" y1="150.99" x2="-87.51" y2="154.6" gradientTransform="translate(257.57 16.73)" gradientUnits="userSpaceOnUse">
      <stop offset="0" stop-color="#54addf"/>
      <stop offset="0.92" stop-color="#4d9ed7"/>
    </linearGradient>
    <linearGradient id="d2853f5d-01ad-47ec-8d0e-479e736d4c8f" x1="-89.44" y1="144.23" x2="-83.44" y2="147.85" xlink:href="#a412faee-a2af-4901-bba0-7895233758d4"/>
    <linearGradient id="f30def75-0b4f-411c-a66a-23945bb78e07" x1="-91.46" y1="147.57" x2="-85.46" y2="151.19" xlink:href="#a412faee-a2af-4901-bba0-7895233758d4"/>
    <linearGradient id="46bc5b28-c4dd-42fa-88dc-e8856a3a5aef" x1="-94.48" y1="152.57" x2="-88.47" y2="156.19" xlink:href="#a412faee-a2af-4901-bba0-7895233758d4"/>
    <linearGradient id="9aeab7a1-465b-4726-9693-8c90001b985e" x1="-158.17" y1="185.48" x2="-127.11" y2="185.48" gradientTransform="matrix(-1, 0, 0, 1, 34.7, 16.73)" gradientUnits="userSpaceOnUse">
      <stop offset="0" stop-color="#d3daed"/>
      <stop offset="1" stop-color="#99a7d8"/>
    </linearGradient>
    <linearGradient id="55eee33e-4e09-4738-aa27-2b937e1a693d" x1="95.77" y1="165.61" x2="119.45" y2="165.61" gradientTransform="matrix(1, 0, 0, -1, 0, 246.58)" xlink:href="#114f68d0-de93-43c6-88b1-81c2da90b00e"/>
    <linearGradient id="9d2cf179-2a02-4a4a-80ba-37d1869f21aa" x1="-85.36" y1="64.62" x2="-61.68" y2="64.62" gradientTransform="matrix(-1, 0, 0, 1, 35.13, 16.73)" xlink:href="#5856141e-6d33-40ee-9bac-ec16d947254c"/>
    <linearGradient id="0f4c953f-1af0-4638-8693-a567023c0be6" x1="620.64" y1="79.05" x2="670.11" y2="79.05" gradientTransform="matrix(-1, 0, 0, 1, 798.83, 16.73)" gradientUnits="userSpaceOnUse">
      <stop offset="0" stop-color="#d3daed"/>
      <stop offset="0.55" stop-color="#b0bce0"/>
      <stop offset="1" stop-color="#99a7d8"/>
    </linearGradient>
  </defs>
  <title>high-standards</title>
  <g style="opacity: 0.14000000059604645">
    <path d="M141.82,117.71c0-3.71-2.6-5.32-5.93-3.42L6.44,189A13.12,13.12,0,0,0,.5,199.32v43.9c0,3.71,2.72,5.32,5.93,3.42l129.68-74.77A13.12,13.12,0,0,0,142,161.59Z" style="fill: #f4f3f5;opacity: 0.024000000208616257;isolation: isolate"/>
    <path d="M141.82,117.71c0-3.71-2.6-5.32-5.93-3.42L6.44,189A13.12,13.12,0,0,0,.5,199.32v42.78c0,3.71,2.72,5.32,5.93,3.42L136,170.58a13.12,13.12,0,0,0,5.93-10.27Z" style="fill: #eceaed;opacity: 0.04899999871850014;isolation: isolate"/>
    <path d="M141.82,117.71c0-3.71-2.6-5.32-5.93-3.42L6.44,189A13.12,13.12,0,0,0,.5,199.32v41.55c0,3.71,2.72,5.32,5.93,3.42l129.68-74.77A13.12,13.12,0,0,0,142,159.24Z" style="fill: #e6e5e8;opacity: 0.0729999989271164;isolation: isolate"/>
    <path d="M141.82,117.71c0-3.71-2.6-5.32-5.93-3.42L6.44,189A13.12,13.12,0,0,0,.5,199.32v40.43c0,3.71,2.72,5.32,5.93,3.42l129.68-74.65A13.12,13.12,0,0,0,142,158.25Z" style="fill: #e1dee4;opacity: 0.09799999743700027;isolation: isolate"/>
    <path d="M141.82,117.71c0-3.71-2.6-5.32-5.93-3.42L6.44,189A13.12,13.12,0,0,0,.5,199.32v39.16c0,3.71,2.72,5.32,5.93,3.42l129.68-74.74A13.12,13.12,0,0,0,142,156.89Z" style="fill: #dbd8e0;opacity: 0.12200000137090683;isolation: isolate"/>
    <path d="M141.82,117.83c0-3.71-2.6-5.32-5.93-3.42L6.44,189.17A13.12,13.12,0,0,0,.5,199.44v38.08c0,3.71,2.72,5.32,5.93,3.42l129.68-74.77A13.12,13.12,0,0,0,142,155.9Z" style="fill: #d6d3db;opacity: 0.1459999978542328;isolation: isolate"/>
    <path d="M141.82,117.83c0-3.71-2.6-5.32-5.93-3.42L6.44,189.17A13.12,13.12,0,0,0,.5,199.44v37c0,3.71,2.72,5.32,5.93,3.42l129.68-74.77A13.12,13.12,0,0,0,142,154.79Z" style="fill: #d1ced7;opacity: 0.17100000381469727;isolation: isolate"/>
    <path d="M141.82,117.83c0-3.71-2.6-5.32-5.93-3.42L6.44,189.17A13.12,13.12,0,0,0,.5,199.44v35.73c0,3.71,2.72,5.32,5.93,3.42l129.68-74.76A13.12,13.12,0,0,0,142,153.56Z" style="fill: #cac7d1;opacity: 0.19499999284744263;isolation: isolate"/>
    <path d="M141.82,117.83c0-3.71-2.6-5.32-5.93-3.42L6.44,189.17A13.12,13.12,0,0,0,.5,199.44v34.62c0,3.71,2.72,5.32,5.93,3.42l129.68-74.65A13.12,13.12,0,0,0,142,152.57Z" style="fill: #c5c2cd;opacity: 0.2199999988079071;isolation: isolate"/>
    <path d="M141.82,117.83c0-3.71-2.6-5.32-5.93-3.42L6.44,189.17A13.12,13.12,0,0,0,.5,199.44V233c0,3.71,2.72,5.32,5.93,3.42l129.68-74.66A13.12,13.12,0,0,0,142,151.45Z" style="fill: #c0bcc8;opacity: 0.24400000274181366;isolation: isolate"/>
    <path d="M141.82,117.83c0-3.71-2.6-5.32-5.93-3.42L6.44,189.17A13.12,13.12,0,0,0,.5,199.44v32.27c0,3.71,2.72,5.32,5.93,3.42l129.68-74.77A13.12,13.12,0,0,0,142,150.09Z" style="fill: #bbb8c5;opacity: 0.2680000066757202;isolation: isolate"/>
    <path d="M141.82,117.95c0-3.71-2.6-5.32-5.93-3.42L6.44,189.3A13.12,13.12,0,0,0,.5,199.57v31.15c0,3.71,2.72,5.32,5.93,3.42l129.68-74.77A13.12,13.12,0,0,0,142,149.1Z" style="fill: #b8b3c1;opacity: 0.2930000126361847;isolation: isolate"/>
    <path d="M141.82,117.95c0-3.71-2.6-5.32-5.93-3.42L6.44,189.3A13.12,13.12,0,0,0,.5,199.57v29.92c0,3.71,2.72,5.32,5.93,3.42L136,158.26A13.12,13.12,0,0,0,141.94,148Z" style="fill: #b3aebd;opacity: 0.31700000166893005;isolation: isolate"/>
    <path d="M141.82,117.95c0-3.71-2.6-5.32-5.93-3.42L6.44,189.3A13.12,13.12,0,0,0,.5,199.57V228.5c0,3.71,2.72,5.32,5.93,3.42l129.68-74.78A13.12,13.12,0,0,0,142,146.87Z" style="fill: #aea9b9;opacity: 0.3409999907016754;isolation: isolate"/>
    <path d="M141.82,117.95c0-3.71-2.6-5.32-5.93-3.42L6.44,189.3A13.12,13.12,0,0,0,.5,199.57v27.69c0,3.71,2.72,5.32,5.93,3.42l129.68-74.77A13.12,13.12,0,0,0,142,145.64Z" style="fill: #a9a4b5;opacity: 0.3659999966621399;isolation: isolate"/>
    <path d="M141.82,117.95c0-3.71-2.6-5.32-5.93-3.42L6.44,189.3A13.12,13.12,0,0,0,.5,199.57v26.59c0,3.71,2.72,5.32,5.93,3.42L136.11,154.8A13.12,13.12,0,0,0,142,144.53Z" style="fill: #a39eb1;opacity: 0.38999998569488525;isolation: isolate"/>
    <path d="M141.82,118.07c0-3.71-2.6-5.32-5.93-3.42L6.44,189.41A13.12,13.12,0,0,0,.5,199.68V225c0,3.71,2.72,5.32,5.93,3.42l129.68-74.76A13.12,13.12,0,0,0,142,143.42Z" style="fill: #a09bae;opacity: 0.41499999165534973;isolation: isolate"/>
    <path d="M141.82,118.07c0-3.71-2.6-5.32-5.93-3.42L6.44,189.41A13.12,13.12,0,0,0,.5,199.68v24.24c0,3.71,2.72,5.32,5.93,3.42l129.68-74.77A13.12,13.12,0,0,0,142,142.3Z" style="fill: #9c96aa;opacity: 0.4390000104904175;isolation: isolate"/>
    <path d="M141.82,118.07c0-3.71-2.6-5.32-5.93-3.42L6.44,189.41A13.12,13.12,0,0,0,.5,199.68V222.8c0,3.71,2.72,5.32,5.93,3.42l129.68-74.89A13.12,13.12,0,0,0,142,141.07Z" style="fill: #9691a7;opacity: 0.46299999952316284;isolation: isolate"/>
    <path d="M141.82,118.2c0-3.71-2.6-5.32-5.93-3.42L6.44,189.54A13.12,13.12,0,0,0,.5,199.81v22c0,3.71,2.72,5.32,5.93,3.42l129.68-74.77A13.12,13.12,0,0,0,142,140.2Z" style="fill: #938ea3;opacity: 0.4880000054836273;isolation: isolate"/>
    <path d="M141.82,118.2c0-3.71-2.6-5.32-5.93-3.42L6.44,189.54A13.12,13.12,0,0,0,.5,199.81V220.7c0,3.71,2.72,5.32,5.93,3.42l129.68-74.76A13.12,13.12,0,0,0,142,139.09Z" style="fill: #8f89a0;opacity: 0.5120000243186951;isolation: isolate"/>
    <path d="M141.82,118.2c0-3.71-2.6-5.32-5.93-3.42L6.44,189.54A13.12,13.12,0,0,0,.5,199.81v19.66c0,3.71,2.72,5.32,5.93,3.42l129.68-74.77A13.12,13.12,0,0,0,142,137.85Z" style="fill: #8b859c;opacity: 0.5370000004768372;isolation: isolate"/>
    <path d="M141.82,118.2c0-3.71-2.6-5.32-5.93-3.42L6.44,189.54A13.12,13.12,0,0,0,.5,199.81v18.54c0,3.71,2.72,5.32,5.93,3.42L136,147.09a13.12,13.12,0,0,0,5.93-10.27Z" style="fill: #878199;opacity: 0.5609999895095825;isolation: isolate"/>
    <path d="M141.82,118.2c0-3.71-2.6-5.32-5.93-3.42L6.44,189.54A13.12,13.12,0,0,0,.5,199.81v17.43c0,3.71,2.72,5.32,5.93,3.42L136,145.86a13.12,13.12,0,0,0,5.93-10.27Z" style="fill: #837f96;opacity: 0.5849999785423279;isolation: isolate"/>
    <path d="M141.82,118.2c0-3.71-2.6-5.32-5.93-3.42L6.44,189.54A13.12,13.12,0,0,0,.5,199.81v16.32c0,3.71,2.72,5.32,5.93,3.42L136,144.61a13.12,13.12,0,0,0,5.93-10.27Z" style="fill: #817b93;opacity: 0.6100000143051147;isolation: isolate"/>
    <path d="M141.82,118.33c0-3.71-2.6-5.32-5.93-3.42L6.44,189.66A13.12,13.12,0,0,0,.5,199.93V215c0,3.71,2.72,5.32,5.93,3.42l129.68-74.77A13.12,13.12,0,0,0,142,133.4Z" style="fill: #7e7790;opacity: 0.6340000033378601;isolation: isolate"/>
    <path d="M141.82,118.33c0-3.71-2.6-5.32-5.93-3.42L6.44,189.66A13.12,13.12,0,0,0,.5,199.93v14c0,3.71,2.72,5.32,5.93,3.42l129.68-74.76A13.12,13.12,0,0,0,142,132.29Z" style="fill: #79748c;opacity: 0.6589999794960022;isolation: isolate"/>
    <path d="M141.82,118.33c0-3.71-2.6-5.32-5.93-3.42L6.44,189.66A13.12,13.12,0,0,0,.5,199.93v12.73c0,3.71,2.72,5.32,5.93,3.42l129.68-74.77A13.12,13.12,0,0,0,142,131Z" style="fill: #76708a;opacity: 0.6830000281333923;isolation: isolate"/>
    <path d="M141.82,118.33c0-3.71-2.6-5.32-5.93-3.42l-129.45,75A13.12,13.12,0,0,0,.5,200.18v11.63c0,3.71,2.72,5.32,5.93,3.42l129.68-75A13.12,13.12,0,0,0,142,129.94Z" style="fill: #736d87;opacity: 0.7070000171661377;isolation: isolate"/>
    <path d="M141.82,118.33c0-3.71-2.6-5.32-5.93-3.42l-129.45,75A13.12,13.12,0,0,0,.5,200.18v10.51c0,3.71,2.72,5.32,5.93,3.42l129.68-74.91A13.12,13.12,0,0,0,142,128.94Z" style="fill: #6f6985;opacity: 0.7319999933242798;isolation: isolate"/>
    <path d="M141.82,118.45c0-3.71-2.6-5.32-5.93-3.42L6.44,189.91A13.12,13.12,0,0,0,.5,200.18v9.4c0,3.71,2.72,5.32,5.93,3.42l129.68-74.94A13.12,13.12,0,0,0,142,127.8Z" style="fill: #6b6782;opacity: 0.7559999823570251;isolation: isolate"/>
    <path d="M141.82,118.45c0-3.71-2.6-5.32-5.93-3.42L6.44,189.91A13.12,13.12,0,0,0,.5,200.18v8.16c0,3.71,2.72,5.32,5.93,3.42l129.68-74.84A13.12,13.12,0,0,0,142,126.65Z" style="fill: #696380;opacity: 0.7799999713897705;isolation: isolate"/>
    <path d="M141.82,118.45c0-3.71-2.6-5.32-5.93-3.42L6.44,189.91A13.12,13.12,0,0,0,.5,200.18v6.93c0,3.71,2.72,5.32,5.93,3.42l129.68-74.75A13.12,13.12,0,0,0,142,125.51Z" style="fill: #65607e;opacity: 0.8050000071525574;isolation: isolate"/>
    <path d="M141.82,118.45c0-3.71-2.6-5.32-5.93-3.42L6.44,189.91A13.12,13.12,0,0,0,.5,200.18v5.93c0,3.71,2.72,5.32,5.93,3.42l129.68-74.9A13.12,13.12,0,0,0,142,124.37Z" style="fill: #615e7c;opacity: 0.8289999961853027;isolation: isolate"/>
    <path d="M141.82,118.45c0-3.71-2.6-5.32-5.93-3.42L6.44,189.91A13.12,13.12,0,0,0,.5,200.18v4.7c0,3.71,2.72,5.32,5.93,3.42L136,133.5a13.12,13.12,0,0,0,5.93-10.27Z" style="fill: #5d5b7a;opacity: 0.8539999723434448;isolation: isolate"/>
    <path d="M141.82,118.45c0-3.71-2.6-5.32-5.93-3.42L6.44,189.91A13.12,13.12,0,0,0,.5,200.18v3.58c0,3.71,2.72,5.32,5.93,3.42L136,132.26A13.12,13.12,0,0,0,141.94,122Z" style="fill: #5a5777;opacity: 0.878000020980835;isolation: isolate"/>
    <path d="M141.82,118.58c0-3.71-2.6-5.32-5.93-3.42L6.44,189.91A13.12,13.12,0,0,0,.5,200.18v2.6c0,3.71,2.72,5.32,5.93,3.42l129.68-74.9A13.12,13.12,0,0,0,142,121Z" style="fill: #565475;opacity: 0.9020000100135803;isolation: isolate"/>
    <path d="M141.82,118.58c0-3.71-2.6-5.32-5.93-3.42L6.44,189.91A13.12,13.12,0,0,0,.5,200.18v1.36c0,3.71,2.72,5.32,5.93,3.42l129.68-74.89A13.12,13.12,0,0,0,142,119.81Z" style="fill: #545173;opacity: 0.9269999861717224;isolation: isolate"/>
    <path d="M141.82,118.58c0-3.71-2.6-5.32-5.93-3.42L6.44,189.91A13.12,13.12,0,0,0,.5,200.18c0,3.71,2.72,5.32,5.93,3.42l129.68-74.67A13.12,13.12,0,0,0,142,118.67Z" style="fill: #4f4f70;opacity: 0.9509999752044678;isolation: isolate"/>
    <path d="M141.82,118.58c0-3.71-2.6-5.32-5.93-3.42L6.44,189.91A13.12,13.12,0,0,0,.5,200.18v-1c0,3.71,2.72,5.32,5.93,3.42L136.11,127.8A13.12,13.12,0,0,0,142,117.53Z" style="fill: #4c4b6d;opacity: 0.9760000109672546;isolation: isolate"/>
    <path d="M141.82,118.58c0-3.71-2.6-5.32-5.93-3.42L6.44,189.91A13.12,13.12,0,0,0,.5,200.18v-2.1c0,3.71,2.72,5.32,5.93,3.42l129.68-74.65A13.12,13.12,0,0,0,142,116.59Z" style="fill: #49496c"/>
  </g>
  <g>
    <g>
      <polygon points="137.24 109.92 137 15.45 141.33 0 132.92 0 0 77.4 0 94.58 0 94.58 0.25 186.46 4.7 186.57 137.24 109.92" style="fill: url(#ea33ee81-e0ed-4607-ac34-66712bbb490c)"/>
      <g>
        <path d="M141.57,107.33l-137,79.13L4.32,91.88l137-79.14Z" style="fill: #f6f6f9"/>
        <polygon points="85.08 113.37 85.08 116.47 129.21 91 129.21 87.91 85.08 113.37" style="fill: #d4d9ec"/>
        <polygon points="85.08 107.44 85.08 110.53 129.21 85.06 129.21 81.97 85.08 107.44" style="fill: #d4d9ec"/>
        <polygon points="84.95 70.36 84.95 76.53 131.31 49.83 131.31 43.65 84.95 70.36" style="fill: #d4d9ec"/>
        <polygon points="84.95 60.7 84.95 66.89 129.09 41.42 129.09 35.11 84.95 60.7" style="fill: #d4d9ec"/>
        <polygon points="85.08 119.32 85.08 122.41 129.21 96.93 129.21 93.84 85.08 119.32" style="fill: #d4d9ec"/>
        <polygon points="85.08 101.51 85.08 104.72 129.21 79.13 129.21 76.04 85.08 101.51" style="fill: #d4d9ec"/>
        <polygon points="85.08 95.7 85.08 98.79 129.21 73.2 129.21 70.11 85.08 95.7" style="fill: #d4d9ec"/>
        <polygon points="84.95 80 85.08 86.31 113.64 69.73 113.64 63.56 84.95 80" style="fill: #d4d9ec"/>
      </g>
      <g style="opacity: 0.30000001192092896">
        <polygon points="48.15 116.26 48.29 146.65 74.76 131.38 74.62 101 48.15 116.26" style="fill: url(#5856141e-6d33-40ee-9bac-ec16d947254c)"/>
      </g>
      <polygon points="51.37 118.08 51.37 148.47 77.84 133.21 77.69 102.81 51.37 118.08" style="fill: url(#9612e314-269e-4232-894e-f030c30c0ba0)"/>
      <g>
        <g style="opacity: 0.800000011920929">
          <path d="M73.18,122.81a.52.52,0,0,0,.25-.44v-3a.22.22,0,0,0-.09-.19s-1.54-.81-1.56-.81L71.68,114c0-.18-.12-.27-.26-.21l-4.43,2a.18.18,0,0,0-.08-.08L65.51,115c-.21-.12-.5,0-.71.32l-1.29,2a.57.57,0,0,0-.08.16l-1.68.78a.53.53,0,0,0-.27.47c0,.18.13.27.28.21l9.33-4.37.14,6.93-2.48,3.19v-.32c0-.93-.66-1.4-1.42-1h-.12a4.92,4.92,0,0,0,.62-2.59c-.09-1.55-1.18-2.34-2.48-1.81a4.16,4.16,0,0,0-1.89,1.76,5.05,5.05,0,0,0-.75,2.65,2.3,2.3,0,0,0,.74,1.8h-.13a2.84,2.84,0,0,0-1.4,2.44v.32l-2.75-.69L59,120l1.21-.56a.53.53,0,0,0,.27-.47c0-.18-.13-.27-.28-.21l-1.5.69a.53.53,0,0,0-.27.47l.12,4.54-1.67,2.62a.56.56,0,0,0-.1.31l.32,12.5a.19.19,0,0,0,.3.18l15.95-8.48a.54.54,0,0,0,.25-.45l-.14-7c0-.17-.12-.26-.26-.19a.52.52,0,0,0-.25.44l.13,6.46L66,129l6.89-8.89v2.47c0,.18.12.26.26.19Zm-9-5.74,1-1.43h0l1,.53Zm-5.61,8.36v1.78L57.47,127Zm13.95,6-14.8,7.76-.3-11.53Zm-4.2-6.07-2.79,3.49-3-.74v-.74a1.77,1.77,0,0,1,.87-1.51l.9-.44a.53.53,0,0,0,.26-.37c0-.16,0-.28-.14-.31-.66-.12-1.09-.75-1.1-1.65A4,4,0,0,1,63.9,121a3.3,3.3,0,0,1,1.49-1.38c1-.43,1.89.21,2,1.42a4.08,4.08,0,0,1-1,2.75.52.52,0,0,0-.12.43.17.17,0,0,0,.19.14l.07,0,.88-.44c.48-.23.87,0,.88.63Zm3.49-4.5v-1.71l1,.52Z" style="fill: #fff"/>
          <path d="M65.3,121.09A2.22,2.22,0,0,0,64.2,123c0,.18.13.27.28.19a.53.53,0,0,0,.26-.45,1.16,1.16,0,0,1,.58-1c.32-.16.59,0,.61.44a1.16,1.16,0,0,1-.57,1,.53.53,0,0,0-.26.45v1c0,.18.13.27.27.19a.53.53,0,0,0,.26-.45v-.74a2.3,2.3,0,0,0,.83-1.74c0-.75-.53-1.12-1.15-.83Z" style="fill: #fff"/>
          <path d="M65.39,125.33a.53.53,0,0,0-.26.45v.35c0,.18.13.27.27.19a.53.53,0,0,0,.26-.45v-.35C65.66,125.35,65.53,125.26,65.39,125.33Z" style="fill: #fff"/>
        </g>
        <polygon id="29d253f2-b567-4eb8-b1cb-6c58ea9b4718" data-name="5d9c9e08-a376-41ea-8ab5-100e99292718" points="51.37 118.08 51.47 118.02 65.34 125 77.11 103.16 77.71 102.81 77.71 103.83 66.08 125.41 77.84 132.73 77.85 133.06 77.31 133.37 65.69 126.12 52.22 147.84 51.38 148.33 51.38 147.63 64.94 125.71 51.38 118.9 51.37 118.08" style="fill: #fff"/>
      </g>
      <polygon points="49.13 78.44 49.13 108.83 75.6 93.56 75.46 63.18 49.13 78.44" style="fill: #d4d9ec"/>
      <g style="opacity: 0.800000011920929">
        <path d="M67.13,93.4h-.28v-.06a.36.36,0,0,1,0-.08.49.49,0,0,1,0-.09v-.35l.06-.08H67l.16-.08h.21v.06a.36.36,0,0,1,0,.08.48.48,0,0,1,0,.09v.35l-.06.08h-.16Z" style="fill: #fff"/>
        <g>
          <path d="M65.65,94.2l-6.72,3.63c-.25.13-.44,0-.44-.21a.85.85,0,0,1,.44-.67l6.72-3.57a.26.26,0,0,1,.41.21.79.79,0,0,1-.4.63Z" style="fill: #fff"/>
          <path d="M71,80.78l-1.1-3.39a1.15,1.15,0,0,0-.28-.47,2.58,2.58,0,0,0,.16-.9,1.29,1.29,0,0,0-2-1.19,3,3,0,0,0-.88.58,4.89,4.89,0,0,0-4.06.26A10.16,10.16,0,0,0,59,78.51l-.28.36a2.17,2.17,0,0,0-1,.18,3.75,3.75,0,0,0-2.24,3.13,1.56,1.56,0,0,0,.22.83,3.27,3.27,0,0,0-.32.79l-1.29,4.85a.32.32,0,0,0,.08.35.35.35,0,0,0,.36,0L58,87.33a3.44,3.44,0,0,0,3.61,1v.9l-2.18,1.14a5.3,5.3,0,0,0-2.84,4.25v5.52c0,.25.21.34.45.19l11.75-6.46a.76.76,0,0,0,.37-.62L69.1,88.2c0-1.43-1.16-2.06-2.59-1.37l-2.12,1V87a10.42,10.42,0,0,0,3.27-4.17l3-1.4a.67.67,0,0,0,.3-.3.5.5,0,0,0,0-.37Zm-2-4.43a2,2,0,0,1-.79,1.5,3.05,3.05,0,0,0-.75-2,1.69,1.69,0,0,1,.35-.19.79.79,0,0,1,1.19.71Zm-6.13.14h0a4.15,4.15,0,0,1,3.57-.22,2.29,2.29,0,0,1,1,2.11v1a4.73,4.73,0,0,1-3,.22A3.08,3.08,0,0,1,63.23,79a.3.3,0,0,0-.34,0h0a.72.72,0,0,0-.34.32A10.42,10.42,0,0,1,61.4,81a10.61,10.61,0,0,1-3.23,2.59V82.55a5.27,5.27,0,0,1,.89-2.92v-.09h0a8.69,8.69,0,0,1,3.77-3ZM57.73,79.9a1.47,1.47,0,0,1,.41-.12,6.46,6.46,0,0,0-.81,2.84.79.79,0,0,1-.94-.84,2.27,2.27,0,0,1,1.29-1.89Zm-2.59,7.94,1.06-4.23v-.16a1.71,1.71,0,0,0,1,0V84.8a4.36,4.36,0,0,0,.37,1.81ZM65.73,89.3h0a3.05,3.05,0,0,1,0,2.69v.06a2.83,2.83,0,0,1-1.59.36,2.25,2.25,0,0,0,.34-1.12.87.87,0,0,0-.37-.78,5.8,5.8,0,0,1,1.58-1.29Zm-2.59,2.15c.32-.17.59,0,.59.3a1.12,1.12,0,0,1-.58.9c-.32.17-.59,0-.61-.3A1.12,1.12,0,0,1,63.14,91.44ZM62,93.56a5.79,5.79,0,0,1-1.65,1.29h0a3.06,3.06,0,0,1,0-2.78V92A3.37,3.37,0,0,1,62,91.63a2.27,2.27,0,0,0-.36,1.16.87.87,0,0,0,.37.78Zm6.29-4.91.08,4.68L57.51,99.23v-5a3.66,3.66,0,0,1,2-2.95l.41-.21.37.18h-.13a.84.84,0,0,0-.39.43l-.14.36a3.88,3.88,0,0,0,0,3.57l.16.22c.08.1.22.12.39,0l.21-.1a7.82,7.82,0,0,0,2.59-2.2l.26-.1.26-.16a3.43,3.43,0,0,0,2.47-.45l.18-.1a.8.8,0,0,0,.35-.41l.13-.35a3.88,3.88,0,0,0,0-3.4l-.14-.21a.26.26,0,0,0-.36,0h-.12l.34-.52.37-.18c1-.48,1.77,0,1.78.94ZM64,89l1-.5-.54.84a8.41,8.41,0,0,0-1.18,1.21l-.23.1-.23.14a3,3,0,0,0-1.21,0l-.58-.28,1.06-.53a.78.78,0,0,0,.41-.63V88.14l.54-.23.54-.28v1.16c0,.23.19.32.41.22ZM63,87c-2.59,1.29-4.86.14-4.89-2.59h0a12.37,12.37,0,0,0,3.76-3,13.21,13.21,0,0,0,1-1.38,3.88,3.88,0,0,0,1,.47,5.44,5.44,0,0,0,3.53-.28h0A8.19,8.19,0,0,1,63,87Zm5-5.17a6.73,6.73,0,0,0,.28-2V78.66a3.43,3.43,0,0,0,.88-.84v.1l1,3Z" style="fill: #fff"/>
        </g>
      </g>
      <polygon id="b9048e08-137f-44cc-931f-5169ab86ba82" data-name="092e6a65-be41-43bb-86a4-b270042d2cd7" points="49.12 78.58 49.23 78.52 63.09 85.51 74.86 63.66 75.46 63.32 75.47 64.33 63.83 85.93 75.59 93.24 75.6 93.56 75.07 93.88 63.44 86.64 49.97 108.35 49.13 108.83 49.14 108.13 62.7 86.22 49.13 79.41 49.12 78.58" style="fill: #fff"/>
      <g>
        <polygon points="12.85 139.09 12.99 169.33 39.32 154.21 39.32 123.82 12.85 139.09" style="fill: #d4d9ec"/>
        <polygon id="7d07a223-5f12-47f0-87aa-8dcf1389a415" data-name="08520d4a-3327-4302-8f06-e4a82cd173fb" points="12.86 139.09 12.97 139.03 26.83 146.01 38.61 124.17 39.2 123.82 39.2 124.84 27.57 146.43 39.33 153.74 39.35 154.07 38.8 154.38 27.17 147.14 13.7 168.85 12.88 169.34 12.88 168.63 26.43 146.72 12.88 139.91 12.86 139.09" style="fill: #fff"/>
        <polygon points="12.85 99.44 12.85 129.7 39.32 114.44 39.18 84.18 12.85 99.44" style="fill: #d4d9ec"/>
        <g style="opacity: 0.800000011920929">
          <g>
            <path d="M29.63,111.43a.18.18,0,0,0-.3-.17l-.56.31v-.22a2.21,2.21,0,0,0,.58-1.29v-.52c0-.19-.09-.3-.25-.26a.53.53,0,0,0-.31.43v.54a1,1,0,0,1-.22.57.61.61,0,0,0-.14-.13h0a.89.89,0,0,0-.39-.76.84.84,0,0,0-.84,0,2.12,2.12,0,0,0-.8.84,2.2,2.2,0,0,0-.3,1.14h0a2.39,2.39,0,0,0-.13.28.32.32,0,0,1-.27-.3l-.1-.47c0-.17-.19-.21-.35-.09a.56.56,0,0,0-.22.5l.1.45a.67.67,0,0,0,.7.62v.23l-.58.32A.58.58,0,0,0,25,114a.19.19,0,0,0,.3.17l.58-.32V114a2.33,2.33,0,0,0-.61,1.29v.54c0,.22.13.34.3.23a.61.61,0,0,0,.27-.43v-.54h0a1.07,1.07,0,0,1,.17-.5,1,1,0,0,0,.83.67,1,1,0,0,0,.61-.14,2,2,0,0,0,.62-.45,3.88,3.88,0,0,0,.71-1.53.34.34,0,0,1,.21.28h0l.1.45c0,.14.17.19.31.1a.56.56,0,0,0,.23-.52l-.1-.44a.66.66,0,0,0-.69-.62v-.16l.56-.31a.56.56,0,0,0,.26-.48Zm-1.62,0a.17.17,0,0,1-.06.1l-1.29.71h-.08a.12.12,0,0,1,0-.12.9.9,0,0,1,.31-.28l.78-.43a.4.4,0,0,1,.32,0h0v.08Zm-.79-.84h0a.44.44,0,0,1,.44,0,.36.36,0,0,1,.12.12l-.16.06h0l-.78.41-.16.09a1.29,1.29,0,0,1,.1-.25,1.1,1.1,0,0,1,.41-.44Zm-.79,3.1V113a.62.62,0,0,0,.26-.08h0l.37-.21.08,1.87h0c-.44,0-.67-.4-.7-.9Zm1.29.59-.09-1.9.37-.21a1,1,0,0,0,.25-.19v.7a2.51,2.51,0,0,1-.57,1.6Z" style="fill: #fff"/>
            <path d="M35.27,108.43l-.62-.84c-.08-.1-.25-.08-.36.08a.44.44,0,0,0-.06.48l.62.84a1.29,1.29,0,0,1,.13,1.1l-.52,2.08s-.14-.14-.45,0l-.17.09.18-6.58a.54.54,0,0,0-.18-.47.43.43,0,0,0-.45,0l-5.78,3.09a7.63,7.63,0,0,0,.84-.85,2.88,2.88,0,0,1,1.29-1l1.74-.52a.49.49,0,0,0,.3-.41c0-.18-.09-.3-.23-.26l-1.07.32a15.28,15.28,0,0,0,1.38-3.79,5.31,5.31,0,0,0,.18-1.29,5.71,5.71,0,0,0-1.9-3.71,3.35,3.35,0,0,0-3.66-.89h0a9.5,9.5,0,0,0-3.54,4.33,13.4,13.4,0,0,0-1.63,5.65,3.1,3.1,0,0,0,.32,1.09,5.17,5.17,0,0,0,1.81,2.27l-1.09.81a.56.56,0,0,0-.22.5c0,.17.19.19.35.08l1.81-1.37a2,2,0,0,1,1.55-.47,3.3,3.3,0,0,0,.9,0L20.51,112a1.29,1.29,0,0,0-.49.52,1.16,1.16,0,0,0-.16.69l.88,6.46-.18.1a1.41,1.41,0,0,0-.5.54l-.81-1.47a1.62,1.62,0,0,1,0-1.29l.63-1.68c.08-.21,0-.39-.13-.4a.4.4,0,0,0-.36.41l-.65,1.68a2.43,2.43,0,0,0,0,2l1.09,2a.5.5,0,0,0,.47.32.58.58,0,0,0,.37-.09L34.16,114a1.07,1.07,0,0,0,.34-.34,1.82,1.82,0,0,0,.34-.74l.69-2.79a2,2,0,0,0-.19-1.64Zm-5.38-2.59a2.73,2.73,0,0,0-.94.48v-.8l.14-.25a5.88,5.88,0,0,0,1-2.82,1.14,1.14,0,0,0,.35-.3,1.29,1.29,0,0,0,.27-.7v-.54c.52,0,.76,0,.84.16s-.06.47-.16.87a14.53,14.53,0,0,1-1.51,3.88Zm-4.51.85a1.72,1.72,0,0,1-1.1-1.42l-.06-1.55a19.7,19.7,0,0,1,2.59-1.59,15,15,0,0,1,2.59-1l.08,1.5a4.91,4.91,0,0,1-.87,2.38,5.53,5.53,0,0,1-1.53,1.86,1.89,1.89,0,0,1-1.69-.19ZM23.71,105c-.08,0-.14,0-.16-.09l-.13-.57.25-.19ZM30,101.82V101h.23v.63a.27.27,0,0,1-.13.23Zm-3.45-5.17c1.91-.88,4.43,1.4,4.92,3.66a3.88,3.88,0,0,0-1.37.09,14.57,14.57,0,0,0-3.32,1.18,20.52,20.52,0,0,0-3.39,2.15A9.93,9.93,0,0,0,22,105c.3-2.78,2.59-7.47,4.59-8.4Zm-2.4,12.12a4.73,4.73,0,0,1-1.94-2.26,6.06,6.06,0,0,1-.25-.7,3.64,3.64,0,0,1,.89-1l.12.5c.06.3.23.39.35.4a.66.66,0,0,0,.39-.08A2.08,2.08,0,0,0,25,107.32l.13.08v.84a3.5,3.5,0,0,0-1,.56Zm1.56-.61v-.47a1.78,1.78,0,0,0,1.41-.22h0a3.88,3.88,0,0,0,1.29-1.19v.45l-.27.3a7.54,7.54,0,0,1-.94.92.36.36,0,0,1-.14.08,3.45,3.45,0,0,1-1,.09Zm-5.29,4.76a.14.14,0,0,1,0-.08h0L33.37,106h0l-.19,6.67-12,6.8Zm13.61.41-13.48,7.76v-.31a.17.17,0,0,1,.08-.13l13.47-7.76h.08v.28a.14.14,0,0,1,0,.12Z" style="fill: #fff"/>
          </g>
        </g>
        <polygon id="cf308325-ade2-4e23-b40c-c08474edb3df" data-name="49ece975-0307-42be-b18e-31e74f38d3f6" points="12.85 99.46 12.95 99.39 26.81 106.37 38.6 84.53 39.18 84.18 39.19 85.2 27.56 106.79 39.31 114.1 39.32 114.44 38.79 114.75 27.16 107.5 13.69 129.21 12.85 129.7 12.86 129 26.42 107.08 12.85 100.27 12.85 99.46" style="fill: #fff"/>
      </g>
      <polygon points="4.34 79.13 4.34 91.86 141.33 12.86 141.33 0 4.34 79.13" style="fill: url(#69a31c80-3e04-4838-bb51-a4249ec417de)"/>
    </g>
    <g>
      <path d="M75.42,196.46c.13.49,4.2,12.61,4.94,17.69a8.07,8.07,0,0,0-2.48-.62C77.41,208.22,76.42,201.65,75.42,196.46Z" style="fill: none"/>
      <path d="M76,141.57c5.19.13,7.05-4.56,6.31-8.53,1.86.25.74,5.07-.25,9.13a12.21,12.21,0,0,0-5.19.38C76.29,142.63,76,142.06,76,141.57Z" style="fill: none"/>
      <path d="M80.37,214.15c0,.38.13.74.13,1A2,2,0,0,0,81,216h0l.49,1.36c3.34,1.23,3.83-.62,3.83-.62h0a6.21,6.21,0,0,0,.25,1.48c.25.62.74,4-3,3.42-1.61-.38-2.35-2.84-3.09-3.22-.25-.13-.87-.38-1.36-.62-.13-1.23-.13-2.72-.38-4.32A9.92,9.92,0,0,1,80.37,214.15Z" style="fill: #373750"/>
      <path d="M81.48,217.37,81,216h0c1.14.87,3.34,1.23,4.08-.38a6.31,6.31,0,0,0,.13,1.14h0S84.77,218.6,81.48,217.37Z" style="fill: #f2b9b8"/>
      <path d="M72.71,223.41Z" style="fill: #e5807e"/>
      <path d="M70.61,223.64" style="fill: #e5807e"/>
      <path d="M72.33,223.54l-.38.13Z" style="fill: #e5807e"/>
      <path d="M77.92,219.47h0l.49,4.32c-1.86,1-4.7-.25-4.94-.87h0a3.13,3.13,0,0,0,.38-3.09h0A3.55,3.55,0,0,0,77.92,219.47Z" style="fill: #f2b9b8"/>
      <path d="M71.84,223.64Z" style="fill: #e5807e"/>
      <path d="M73.36,222.92c.25.62,3.09,1.86,4.94.87a3.34,3.34,0,0,1,0,4c-.49.62-2.6,1.23-5.57.13-1.36-.62-4.83-.49-5.71-1.73-.38-.74-.62-2.48,3.42-2.35h1.36l.41-.15.25-.13h.13a2.7,2.7,0,0,0,.62-.38h0Z" style="fill: #373750"/>
      <path d="M47.36,155.79c.49-1.73.87-4.83.25-5.32s1.23-.87,2.48,0,1,3.22.74,5.93c1.36,1,7.91,3.22,8,3.22s2.72-4.94,2.72-4.94h0c2.1,3.42,4.83,3.22,4.83,3.22s-4,7.29-5.93,6.85-11-5.07-11-5.07C48.25,159.49,46.86,157.46,47.36,155.79Z" style="fill: #f2b9b8"/>
      <path d="M85.32,150.47l.62.13c.49,2,1.61,6.55.13,7.17a13.83,13.83,0,0,1-4.45.62,33.57,33.57,0,0,1,.62-6.06A4,4,0,0,0,85.32,150.47Z" style="fill: #f2b9b8"/>
      <path d="M81.48,164.94s4,7.17,1.73,13.85c-1.36,3.83-1.73,15.34-1.73,15.34a115,115,0,0,1,3.58,21.53c-.74,1.61-3.09,1.23-4.08.38a1.26,1.26,0,0,1-.49-.87,3.07,3.07,0,0,0-.13-1c-.74-5.07-4.83-17.18-4.94-17.69A162,162,0,0,1,77.9,213.6c.13,1.61.25,3,.38,4.32v1l-.38.74a3.55,3.55,0,0,1-4.08.38,1.93,1.93,0,0,1-.74-1c-.62-6.55-4.83-23.49-5.71-26.71s-3.71-14.22-.38-25.84C75.8,170.74,81.48,164.94,81.48,164.94Z" style="fill: #49496c"/>
      <path d="M85.32,150.47a3.69,3.69,0,0,1-3.22,1.86,22.82,22.82,0,0,0,.62-3.09A8.42,8.42,0,0,0,85.32,150.47Z" style="fill: #5d78b1"/>
      <path d="M61.58,154.68l-.25-.38c1.48-3.42,2.6-6.06,8.9-9.28.25.74,5.93,1.48,6.42-2.48a12.35,12.35,0,0,1,5.19-.38c-.38,1.23-.62,2.48-.87,3.42a3.64,3.64,0,0,0,1.48,3.58c-.25,1-.38,2.1-.62,3.09a33.57,33.57,0,0,0-.62,6.06,64.48,64.48,0,0,0,.13,6.55s-5.71,5.93-14.59,1.48c.13-3.09-.38-9-.38-9l-.25.49C66.4,157.88,63.68,158,61.58,154.68Z" style="fill: #5d78b1"/>
      <path d="M71,133.66A7.49,7.49,0,0,1,71,136s0,.38.49.38c.13-.87,1-1.48,1.73-.87,1.36,1.23-.38,3-.38,3a6.74,6.74,0,0,0,2.48,3.09H76c.13.49.25,1,.74,1-.49,4-6.18,3.09-6.42,2.48,2-.74,1.36-2.84,1-4-3.71-1-3-5.32-2.35-7.67a6.4,6.4,0,0,1,1.73-4.32C71.71,130.08,70.72,133.28,71,133.66Z" style="fill: #f2b9b8"/>
      <path d="M82,133h.25c.74,4-1.14,8.66-6.31,8.53h-.74a6.74,6.74,0,0,1-2.48-3.09s1.86-1.73.38-3c-.74-.62-1.61.13-1.73.87-.49,0-.49-.38-.49-.38a7.49,7.49,0,0,0,0-2.35c-.25-.38.74-3.58-.38-4.56,0,0-.49-3.71,5.44-2.35a6,6,0,0,1,4.7,2.48c-.25.13-.38.25-.62.38Z" style="fill: #474c69"/>
      <path d="M82.72,149.24a3.42,3.42,0,0,1-1.48-3.58c.25-1,.49-2.28.87-3.42,1-4.08,2.28-8.9.25-9.13h-.25l-2-3.42c.25-.13.38-.25.62-.38a7.87,7.87,0,0,1,5.81-.13c3.83,1.36,4.08,8.9,2.72,12.48s-3.34,6.85-.49,8.41a3.62,3.62,0,0,1-3,.49l-.62-.13A6.38,6.38,0,0,1,82.72,149.24Z" style="fill: #474c69"/>
    </g>
  </g>
  <g>
    <path id="b29d9742-b63a-4bfa-b2ca-ac8ddde1d54a" data-name="400c6431-4a70-4f37-a2d2-c8dc8a07f850" d="M159.08,21.35c6.53-3.77,11.87-.66,11.87,6.85A26.43,26.43,0,0,1,159,48.81c-6.55,3.79-11.89.68-11.87-6.85A26.48,26.48,0,0,1,159.08,21.35Z" style="fill: url(#e056ee43-1023-444a-8853-90c30201da3f)"/>
    <path id="84147680-c0f2-40e7-97d0-538af9877bdd" data-name="578d71d4-2746-44d0-ae1c-5d42acc1bc3d" d="M160.08,21.35c6.53-3.77,11.87-.66,11.87,6.85A26.43,26.43,0,0,1,160,48.81c-6.55,3.79-11.89.68-11.87-6.85A26.48,26.48,0,0,1,160.08,21.35Z" style="fill: url(#114f68d0-de93-43c6-88b1-81c2da90b00e)"/>
    <path id="c8fd85f8-ebc8-4134-a0a9-3145c1c9055c" data-name="c7ae250a-0044-415c-8d06-f9491da3dcd3" d="M166.15,33.57a1.68,1.68,0,0,1-.8,1.14l-.24.13c.45-.23.79.09.7.72a1.68,1.68,0,0,1-.8,1.14l-1.78.9-1.59.8a2.53,2.53,0,0,0,.15.72v.29h0a7.31,7.31,0,0,1,.11,1.31v1.21a1.53,1.53,0,0,1-.32.75,1.07,1.07,0,0,1-.34.29c-.32.16-.58,0-.63-.38a5.24,5.24,0,0,0-.4-1.89l-1-1.14h0l-.64.33v.84a.26.26,0,0,1-.11.21l-2.35,1.14.15-5.28v-2.6L158.58,33h.13v.73l.4-.21h.13l.13-.1a1.34,1.34,0,0,0,.18-.24l.75-1.31a1.31,1.31,0,0,1,.51-.52l3.17-1.6a.47.47,0,0,1,.75.38,1.61,1.61,0,0,1-.75,1.46l.72-.37a.47.47,0,0,1,.75.38,1.61,1.61,0,0,1-.75,1.46l.76-.39C165.89,32.63,166.24,33,166.15,33.57Z" style="fill: #fff"/>
  </g>
  <g id="211f223d-72cb-495f-a164-2dfe75f4b9f3" data-name="bc1286b7-e70f-4875-98a5-61db154229e4">
    <g id="74da97e1-3725-417e-8f86-c7930cf8aeed" data-name="f784883f-8602-4b29-8319-073cf7a93e3f">
      <path id="94a45234-e08f-4102-8384-c1a36a09821c" data-name="bd011216-64a4-4141-9609-a1349a982f7e" d="M173.47,156.4a3.29,3.29,0,0,1,3,0l23,13.28a1,1,0,0,1,0,1.72l-22.68,13.08a3.33,3.33,0,0,1-3,0l-22.68-13.1a1,1,0,0,1,0-1.75Z" style="fill: #fff;fill-opacity: 0"/>
      <path id="b5354221-fdbe-4c85-b08c-e3a473b33920" data-name="d61d15f9-1adb-4d15-bb7b-3664c018ba25" d="M173.48,156.47a3.25,3.25,0,0,1,3,0l22.82,13.17a.91.91,0,0,1,0,1.72l-22.5,13a3.3,3.3,0,0,1-3,0l-22.51-13a1,1,0,0,1,0-1.73Z" style="fill: #fbfbfb;opacity: 0.024390000849962234;isolation: isolate"/>
      <path id="5445cd56-2a68-4dbe-9346-793cfc95dd6e" data-name="e67fb5da-afc7-4263-aa3f-ef1263ee1de2" d="M173.49,156.56a3.23,3.23,0,0,1,2.94,0l22.68,13.1a.91.91,0,0,1,0,1.71l-22.33,12.89a3.29,3.29,0,0,1-3,0l-22.36-12.91a1,1,0,0,1,0-1.72Z" style="fill: #f6f6f8;opacity: 0.04878000169992447;isolation: isolate"/>
      <path id="cf1dba36-0546-453e-8aaa-e05657f574d4" data-name="cfcab026-6aeb-4e6e-b0ba-c9ae7a795837" d="M173.51,156.64a3.22,3.22,0,0,1,2.9,0l22.47,13a.9.9,0,0,1,0,1.7l-22.16,12.81a3.26,3.26,0,0,1-2.9,0l-22.2-12.81a.91.91,0,0,1,0-1.71Z" style="fill: #f2f2f4;opacity: 0.07317099720239639;isolation: isolate"/>
      <path id="718db8bb-5a9a-4d92-a541-43dcded68e2a" data-name="276a6de8-6aab-452c-ae13-d1d11abb1ce0" d="M173.52,156.71a3.18,3.18,0,0,1,2.9,0l22.35,12.91a.89.89,0,0,1,0,1.68l-22,12.72a3.23,3.23,0,0,1-2.9,0l-22-12.73a.9.9,0,0,1,0-1.7Z" style="fill: #ededf0;opacity: 0.09756100177764893;isolation: isolate"/>
      <path id="32c07684-b7d8-457a-b32f-1f322b3e30e4" data-name="6c87ba02-8194-4f01-85af-b5f7c95c15e3" d="M173.53,156.8a3.17,3.17,0,0,1,2.9,0l22.2,12.81a.89.89,0,0,1,0,1.67l-21.89,12.63a3.22,3.22,0,0,1-2.9,0L152,171.28a.9.9,0,0,1,0-1.69Z" style="fill: #e9e9ed;opacity: 0.12195099890232086;isolation: isolate"/>
      <path id="24e42586-3871-4da4-bdaf-acd3a65447bd" data-name="82b8eb32-6cf7-40ed-948f-392137b9d579" d="M173.54,156.88a3.14,3.14,0,0,1,2.9,0l22,12.71a.88.88,0,0,1,0,1.67l-21.68,12.55a3.18,3.18,0,0,1-2.9,0l-21.68-12.55a.89.89,0,0,1,0-1.68Z" style="fill: #e4e4e9;opacity: 0.1463409960269928;isolation: isolate"/>
      <path id="0a3cdcaf-2fab-45bb-8d91-6c1376cbcf86" data-name="694b47d8-b7d9-47a0-ac4e-decab7f880f0" d="M173.56,157a3.12,3.12,0,0,1,2.85,0l21.87,12.63a.87.87,0,0,1,0,1.65l-21.57,12.46a3.17,3.17,0,0,1-2.9,0l-21.57-12.45a.88.88,0,0,1,0-1.67Z" style="fill: #e0e0e6;opacity: 0.17073200643062592;isolation: isolate"/>
      <path id="69dbf151-4cee-41fa-a4a0-dd0c037b52fe" data-name="cb60d3b8-87ca-42f6-ab07-080ed1df43ea" d="M173.57,157a3.1,3.1,0,0,1,2.82,0l21.68,12.55a.86.86,0,0,1,0,1.63l-21.39,12.32a3.14,3.14,0,0,1-2.83,0l-21.37-12.39a.88.88,0,0,1,0-1.65Z" style="fill: #dbdbe2;opacity: 0.19512200355529785;isolation: isolate"/>
      <path id="2d7199a7-7d5c-42ad-9a36-599c8b599f46" data-name="3f5691f4-306a-4c65-96a3-0f13685c22c7" d="M173.57,157.12a3.07,3.07,0,0,1,2.8,0l21.55,12.44a.86.86,0,0,1,0,1.62l-21.25,12.27a3.12,3.12,0,0,1-2.81,0l-21.23-12.29a.87.87,0,0,1,0-1.64Z" style="fill: #d7d7de;opacity: 0.2195120006799698;isolation: isolate"/>
      <path id="86ba2e20-99c3-4965-982d-b33cdb95c01b" data-name="4886b2c8-9181-4a8e-a4ff-c1dd2696cb9b" d="M173.59,157.2a3,3,0,0,1,2.78,0l21.36,12.35a.84.84,0,0,1,0,1.61l-21.07,12.2a3.09,3.09,0,0,1-2.8,0l-21.05-12.2a.86.86,0,0,1,0-1.62Z" style="fill: #d2d2db;opacity: 0.24390199780464172;isolation: isolate"/>
      <path id="35571341-40ef-450b-a81d-b21ebfb2656d" data-name="f57c526f-66b9-4d8c-8439-80982e68853f" d="M173.61,157.28a3,3,0,0,1,2.76,0l21.25,12.25a.84.84,0,0,1,0,1.6l-20.93,12.08a3.07,3.07,0,0,1-2.77,0L153,171.16a.86.86,0,0,1,0-1.61Z" style="fill: #ceced7;opacity: 0.26829299330711365;isolation: isolate"/>
      <path id="d331d1c6-a43d-4e9a-bd03-07275b00b095" data-name="5ba93c24-0c17-4f10-aae9-0ac95dc63a6a" d="M173.62,157.36a3,3,0,0,1,2.74,0l21.06,12.15a.84.84,0,0,1,0,1.59l-20.76,12a3,3,0,0,1-2.75,0l-20.77-11.92a.84.84,0,0,1,0-1.6Z" style="fill: #c9c9d3;opacity: 0.2926830053329468;isolation: isolate"/>
      <path id="a24ef4ee-dfda-43cd-b08d-243d254bd5e9" data-name="212074f5-2820-44cf-8bb1-fa6564c1140f" d="M173.63,157.46a3,3,0,0,1,2.72,0l20.89,12.07a.83.83,0,0,1,0,1.57L176.63,183a3,3,0,0,1-2.73,0l-20.61-11.9a.84.84,0,0,1,0-1.6Z" style="fill: #c5c5d0;opacity: 0.3170729875564575;isolation: isolate"/>
      <path id="095e57cc-69f0-4c55-8622-4a46ee87a9fa" data-name="282fdb82-b09b-4a2f-b780-fbaa380604df" d="M173.64,157.53a3,3,0,0,1,2.69,0l20.73,12a.82.82,0,0,1,0,1.56l-20.44,11.8a3,3,0,0,1-2.7,0L153.48,171a.84.84,0,0,1,0-1.57Z" style="fill: #c1c1cc;opacity: 0.34146299958229065;isolation: isolate"/>
      <path id="4cf125fd-e4ab-4c1d-b57d-2fd3f3a61813" data-name="bda58ced-fabb-4d58-ae6f-a26b2153ac19" d="M173.65,157.6a2.9,2.9,0,0,1,2.67,0l20.54,11.88a.82.82,0,0,1,0,1.54l-20.28,11.71a3,3,0,0,1-2.68,0L153.63,171a.83.83,0,0,1,0-1.56Z" style="fill: #bcbcc8;opacity: 0.3658539950847626;isolation: isolate"/>
      <path id="52e1e6d3-3662-4fcd-afae-f44c08a687eb" data-name="6cd1c8c7-3797-45ec-9505-ad1aeec3bd48" d="M173.67,157.69a2.9,2.9,0,0,1,2.66,0l20.41,11.78a.81.81,0,0,1,0,1.54l-20.13,11.56a3,3,0,0,1-2.67,0L153.81,171a.82.82,0,0,1,0-1.55Z" style="fill: #b8b8c5;opacity: 0.3902440071105957;isolation: isolate"/>
      <path id="b6686495-1759-463b-bccc-a6fd95bf4033" data-name="10ba5bc8-1e3a-48cd-b142-3df5810001bf" d="M173.68,157.77a2.9,2.9,0,0,1,2.64,0l20.28,11.7a.8.8,0,0,1,0,1.53l-20,11.51a2.9,2.9,0,0,1-2.65,0L154,171a.82.82,0,0,1,0-1.54Z" style="fill: #b3b3c1;opacity: 0.41463398933410645;isolation: isolate"/>
      <path id="f471ebaa-01ca-46ce-971e-1cf202540693" data-name="7c6eba15-0498-4648-a37d-fef9f284e695" d="M173.7,157.85a2.9,2.9,0,0,1,2.61,0l20.08,11.58a.8.8,0,0,1,0,1.52l-19.81,11.41a2.9,2.9,0,0,1-2.61,0l-19.81-11.41a.81.81,0,0,1,0-1.53Z" style="fill: #afafbe;opacity: 0.4390240013599396;isolation: isolate"/>
      <path id="6c93ed40-c927-4851-8a4d-08061659717d" data-name="e018ff92-0a90-47d1-abce-bd209685e79f" d="M173.7,157.93a2.84,2.84,0,0,1,2.59,0l19.93,11.5a.79.79,0,0,1,0,1.49l-19.64,11.33a2.9,2.9,0,0,1-2.6,0l-19.61-11.33a.8.8,0,0,1,0-1.52Z" style="fill: #aaaaba;opacity: 0.4634149968624115;isolation: isolate"/>
      <path id="2bab7581-ead8-47c7-addf-0541852ab8da" data-name="f2869244-8a37-44ea-911a-18120b696357" d="M173.77,158a2.82,2.82,0,0,1,2.57,0l19.76,11.41a.79.79,0,0,1,0,1.48l-19.49,11.25a2.9,2.9,0,0,1-2.58,0L154.54,170.9a.8.8,0,0,1,0-1.51Z" style="fill: #a6a6b6;opacity: 0.48780500888824463;isolation: isolate"/>
      <path id="ae57d181-c318-4d1e-8079-6a77d8922cda" data-name="a4169998-93e4-48a0-bf1c-29bfec85bdf1" d="M173.77,158.09a2.8,2.8,0,0,1,2.54,0l19.6,11.32a.79.79,0,0,1,0,1.47L176.61,182a2.84,2.84,0,0,1-2.56,0l-19.31-11.15a.79.79,0,0,1,0-1.48Z" style="fill: #a1a1b3;opacity: 0.5121949911117554;isolation: isolate"/>
      <path id="c6cd0621-4939-4d5c-b2c5-d6816c5db7a5" data-name="8ba6f2b8-fb50-4b91-a5e3-77ff35f2da3c" d="M173.77,158.17a2.77,2.77,0,0,1,2.53,0l19.4,11.22a.78.78,0,0,1,0,1.47l-19.17,11a2.81,2.81,0,0,1-2.54,0l-19.16-11.1a.79.79,0,0,1,0-1.47Z" style="fill: #9d9daf;opacity: 0.5365849733352661;isolation: isolate"/>
      <path id="874aea3c-07b1-4ba9-98eb-44208dce41af" data-name="19a39532-150f-436b-a0fb-b4e29933fda4" d="M173.77,158.25a2.75,2.75,0,0,1,2.51,0l19.31,11.14a.76.76,0,0,1,0,1.45l-19,11a2.8,2.8,0,0,1-2.51,0l-19-11a.79.79,0,0,1,0-1.47Z" style="fill: #9898ab;opacity: 0.5609760284423828;isolation: isolate"/>
      <path id="ba6e9904-7a50-4914-905f-f6941ed531d4" data-name="523516b4-8491-47d8-8c34-953627aef5b4" d="M173.77,158.33a2.73,2.73,0,0,1,2.48,0l19.12,11a.76.76,0,0,1,0,1.44l-18.84,10.89a2.76,2.76,0,0,1-2.49,0L155.19,170.8a.78.78,0,0,1,0-1.46Z" style="fill: #9494a8;opacity: 0.5853660106658936;isolation: isolate"/>
      <path id="858d84fb-093e-44b0-84e6-c7da90be0a2c" data-name="1f95a332-5840-487e-a3c0-30b5c86c49af" d="M173.77,158.41a2.7,2.7,0,0,1,2.46,0l19,10.94a.75.75,0,0,1,0,1.43l-18.68,10.78a2.74,2.74,0,0,1-2.48,0l-18.68-10.77a.76.76,0,0,1,0-1.44Z" style="fill: #8f8fa4;opacity: 0.6097559928894043;isolation: isolate"/>
      <path id="24859a1b-c80a-4a21-9621-1c5b0befeb2a" data-name="5b2ecd9d-17e9-488a-803a-ee829c00626e" d="M173.77,158.49a2.68,2.68,0,0,1,2.44,0L195,169.34a.74.74,0,0,1,0,1.41l-18.5,10.67a2.73,2.73,0,0,1-2.45,0l-18.54-10.68a.76.76,0,0,1,0-1.43Z" style="fill: #8b8ba1;opacity: 0.634145975112915;isolation: isolate"/>
      <path id="1be5b3fd-896b-438c-b48b-d2b46c4c48fc" data-name="97777325-9cf8-4ccb-b089-70499d0a929e" d="M173.77,158.6a2.66,2.66,0,0,1,2.42,0l18.62,10.76a.74.74,0,0,1,0,1.4l-18.35,10.62a2.69,2.69,0,0,1-2.43,0l-18.35-10.62a.75.75,0,0,1,0-1.41Z" style="fill: #86869d;opacity: 0.658536970615387;isolation: isolate"/>
      <path id="92ec7fe6-b26f-4822-8ea7-c4250755b41f" data-name="2052d1c7-b976-446d-b8af-d2e1f159a0e8" d="M173.77,158.6a2.64,2.64,0,0,1,2.41,0l18.46,10.62a.73.73,0,0,1,0,1.39l-18.26,10.51a2.67,2.67,0,0,1-2.41,0l-18.26-10.51a.74.74,0,0,1,0-1.4Z" style="fill: #828299;opacity: 0.6829270124435425;isolation: isolate"/>
      <path id="2b1c63a7-08ad-486e-bc13-f6ae0efc467c" data-name="1faf7550-a1f5-4568-855e-bb3595415beb" d="M173.83,158.73a2.6,2.6,0,0,1,2.37,0l18.35,10.57a.72.72,0,0,1,0,1.38L176.5,181.09a2.65,2.65,0,0,1-2.38,0L156,170.66a.74.74,0,0,1,0-1.39Z" style="fill: #7e7e96;opacity: 0.7073169946670532;isolation: isolate"/>
      <path id="71322117-2813-4c87-9991-d095bfa5f55d" data-name="de99a82c-2061-49af-aef2-a07e53385f69" d="M173.84,158.81a2.59,2.59,0,0,1,2.35,0l18.14,10.47a.72.72,0,0,1,0,1.36l-17.88,10.27a2.62,2.62,0,0,1-2.36,0l-17.88-10.27a.73.73,0,0,1,0-1.38Z" style="fill: #797992;opacity: 0.731706976890564;isolation: isolate"/>
      <path id="2c138a6a-5cfe-4a31-9e36-f6b1d0ca7d5b" data-name="d98497f6-b76c-4bf1-a8ff-736612e6fccb" d="M173.89,158.9a2.57,2.57,0,0,1,2.28,0l17.94,10.37a.72.72,0,0,1,0,1.35l-17.73,10.27a2.6,2.6,0,0,1-2.35,0L156.3,170.62a.72.72,0,0,1,0-1.37Z" style="fill: #75758e;opacity: 0.7560979723930359;isolation: isolate"/>
      <path id="ea630a5f-3085-4b1b-9d4c-4eb6a355d2ed" data-name="d6e04ccf-11c0-40ec-b3a2-d07a723d4de7" d="M173.89,159a2.54,2.54,0,0,1,2.28,0L194,169.25a.71.71,0,0,1,0,1.35l-17.56,10.14a2.58,2.58,0,0,1-2.28,0L156.53,170.6a.72.72,0,0,1,0-1.35Z" style="fill: #70708b;opacity: 0.7804880142211914;isolation: isolate"/>
      <path id="30b23261-0a11-4b93-a931-0dabc1938154" data-name="d2276b25-fa21-4b8b-963a-2e88d10762e2" d="M173.89,159.06a2.52,2.52,0,0,1,2.28,0l17.65,10.2a.71.71,0,0,1,0,1.34l-17.38,10.05a2.56,2.56,0,0,1-2.28,0L156.79,170.6a.72.72,0,0,1,0-1.35Z" style="fill: #6c6c87;opacity: 0.8048779964447021;isolation: isolate"/>
      <path id="1975138a-3050-41d8-899d-d495bd017d67" data-name="e2551cfd-a8d5-465d-9597-c4b6926d6482" d="M173.89,159.14a2.49,2.49,0,0,1,2.28,0l17.49,10.1a.7.7,0,0,1,0,1.31l-17.25,9.9a2.53,2.53,0,0,1-2.28,0l-17.24-9.95a.71.71,0,0,1,0-1.34Z" style="fill: #676783;opacity: 0.8292679786682129;isolation: isolate"/>
      <path id="5f9aa918-5417-456b-b292-ccbc9e9cd283" data-name="58d82ec9-4ed7-4c83-a95e-d74e5447b6d9" d="M173.89,159.22a2.48,2.48,0,0,1,2.28,0l17.33,10a.68.68,0,0,1,0,1.3l-17.12,9.86a2.51,2.51,0,0,1-2.28,0L157,170.52a.7.7,0,0,1,0-1.31Z" style="fill: #636380;opacity: 0.8536589741706848;isolation: isolate"/>
      <path id="ea6777fc-934e-4c20-88e6-67858358a4ed" data-name="50770a60-2014-410b-b3d9-f63b9be92743" d="M173.89,159.3a2.45,2.45,0,0,1,2.28,0l17.12,9.92a.68.68,0,0,1,0,1.29l-16.9,9.78a2.48,2.48,0,0,1-2.28,0l-16.92-9.77a.7.7,0,0,1,0-1.3Z" style="fill: #5e5e7c;opacity: 0.8780490159988403;isolation: isolate"/>
      <path id="b6de0585-a881-4dc2-aeae-222e2babf202" data-name="ede2c11e-01b2-45cf-b7fd-7436b8c8f388" d="M173.89,159.38a2.42,2.42,0,0,1,2.21,0l17,9.82a.67.67,0,0,1,0,1.29l-16.76,9.65a2.46,2.46,0,0,1-2.23,0l-16.76-9.65a.68.68,0,0,1,0-1.29Z" style="fill: #5a5a79;opacity: 0.9024389982223511;isolation: isolate"/>
      <path id="c70be0e8-f242-4bf8-bd4d-c910ecc5ec28" data-name="23de7c15-4e48-480b-bed9-c587ecee5268" d="M173.89,159.46a2.41,2.41,0,0,1,2.19,0l16.84,9.72a.66.66,0,0,1,0,1.27L176.31,180a2.43,2.43,0,0,1-2.2,0l-16.61-9.58a.67.67,0,0,1,0-1.29Z" style="fill: #555575;opacity: 0.9268289804458618;isolation: isolate"/>
      <path id="986689f9-7ebd-4c80-b76c-af2daadb4adc" data-name="7cf1d4cd-99c8-4c7b-a1ef-bcafd0be227e" d="M174,159.54a2.37,2.37,0,0,1,2.17,0l16.68,9.65a.66.66,0,0,1,0,1.26l-16.42,9.49a2.42,2.42,0,0,1-2.17,0l-16.42-9.48a.67.67,0,0,1,0-1.27Z" style="fill: #515171;opacity: 0.9512199759483337;isolation: isolate"/>
      <path id="30b82719-ffc5-49b1-9bd7-ce5d5b6c5f96" data-name="e7fbd4f2-9d44-4c38-97a4-81f8785bdf4f" d="M174,159.62a2.35,2.35,0,0,1,2.15,0l16.52,9.54a.66.66,0,0,1,0,1.24l-16.29,9.4a2.4,2.4,0,0,1-2.16,0l-16.28-9.4a.66.66,0,0,1,0-1.26Z" style="fill: #4c4c6e;opacity: 0.9756100177764893;isolation: isolate"/>
      <path id="b9e41e48-ab23-449f-9993-4c2edbdbe05a" data-name="f244d5cc-5ced-46cd-9ce6-83efe423dbc9" d="M174,159.74a2.28,2.28,0,0,1,2.12,0l16.36,9.45a.65.65,0,0,1,0,1.23l-16.12,9.31a2.36,2.36,0,0,1-2.13,0l-16.12-9.31a.66.66,0,0,1,0-1.24Z" style="fill: #48486a"/>
    </g>
    <path id="6bb1459f-0860-4430-a2c6-8660c210cb27" data-name="d49d4aad-8005-4bd6-bce4-b1f825da5a6a" d="M173.77,157.71a2.74,2.74,0,0,1,2.5,0l19.18,11.08a.76.76,0,0,1,0,1.45l-18.93,10.93a2.78,2.78,0,0,1-2.5,0l-19-10.93a.78.78,0,0,1,0-1.46Z" style="fill: #48486a"/>
    <path id="2101d268-4614-43fd-8887-38432f8fd6ed" data-name="ee15db1e-ec71-49a9-bde3-ff8f359e386b" d="M195.45,168.78l-19.2-11.08a2.74,2.74,0,0,0-2.5,0L171.49,159l21.68,12.55,2.23-1.29a.76.76,0,0,0,0-1.47Z" style="fill: #5c629e"/>
    <path id="d47f540a-9a78-4af9-9084-ae52cb21c650" data-name="555ce6e1-f526-4a83-a297-86f4b50f0469" d="M176.19,159.74a.31.31,0,0,0,0-.58,1.14,1.14,0,0,0-1,0,.31.31,0,0,0,0,.58A1.14,1.14,0,0,0,176.19,159.74Z" style="fill: url(#53d25ce4-f8b7-4900-be14-f7fc069fc133)"/>
    <path id="097cff97-7400-44a5-a78c-d4c5a7e893c3" data-name="857e044d-d171-4679-80bd-0e2dd5ab6ce5" d="M177.76,160.77a.31.31,0,0,0,0-.58,1.14,1.14,0,0,0-1,0,.31.31,0,0,0,0,.58A1.14,1.14,0,0,0,177.76,160.77Z" style="fill: url(#c4ad53ea-cf1f-4669-8217-7219dca93f0e)"/>
    <path id="fdcceced-4914-4a47-bc03-01d96c82ebc6" data-name="845a331a-8afc-4619-826a-289770ef14fd" d="M179.42,161.74a.31.31,0,0,0,0-.58,1.14,1.14,0,0,0-1,0,.31.31,0,0,0,0,.58A1.14,1.14,0,0,0,179.42,161.74Z" style="fill: url(#0c4c7718-7335-44a5-83ab-7acba6610db6)"/>
    <path id="380758b5-9c63-4d42-ad5e-28e3f266c20a" data-name="e587b645-f936-495e-b78a-a3ee4c7bf140" d="M195.45,169.51l-18.93,11a2.78,2.78,0,0,1-2.5,0l-18.93-10.93a1.14,1.14,0,0,1-.41-.37c-.23.37-.1.8.41,1.14L174,181.24a2.78,2.78,0,0,0,2.5,0l18.93-11c.5-.29.64-.72.4-1.08A1.14,1.14,0,0,1,195.45,169.51Z" style="fill: url(#d58a41ec-dc9e-415a-b3fc-dd028cab524a)"/>
    <polygon id="613b5917-5680-411b-a123-57c3c5587e22" data-name="497dfff2-27ca-4f49-b5ba-3e14e323dbf2" points="174.45 162.24 173.41 162.84 178.69 165.91 179.75 165.3 174.45 162.24" style="fill: #fff"/>
    <polygon id="d34d68ff-fb7c-4b05-be43-07812b406651" data-name="3675d39f-f429-4cd6-9eca-cf5d52846193" points="172 172.11 170.96 172.72 176.23 175.79 177.29 175.18 172 172.11" style="fill: #fff"/>
    <polygon id="f0346dc9-726a-4cff-9310-95596bf8ee56" data-name="23bd9428-c6f3-4a25-986a-33b8918bba4c" points="166.58 168.69 165.54 169.28 170.81 172.35 171.87 171.75 166.58 168.69" style="fill: url(#a412faee-a2af-4901-bba0-7895233758d4)"/>
    <polygon id="16908a99-4c5e-46f5-a67a-e89ae04940a7" data-name="e8102a46-6d85-4627-ac20-267817439a3d" points="177.16 166.04 176.13 166.64 181.4 169.72 182.46 169.1 177.16 166.04" style="fill: #fff"/>
    <polygon id="70a2e346-89ad-4816-ad93-9de14fbeb06f" data-name="0418aec8-b1bd-43be-b00a-1f88a087876c" points="170.88 164.6 169.84 165.2 182.14 172.38 183.2 171.77 170.88 164.6" style="fill: #fff"/>
    <polygon id="6607f749-9c41-4808-b28a-2757bad0b7f2" data-name="3d60131e-bfb2-431d-ba8f-fe4d6e7f8a00" points="161.17 170.32 160.14 170.91 173.65 178.75 174.7 178.15 161.17 170.32" style="fill: #fff"/>
    <polygon id="fd87bd31-9cb1-426d-9d17-c7309158a066" data-name="269fdef9-b8e5-47ea-aac0-77215a892966" points="174.68 164.33 173.64 164.93 175.75 166.17 176.81 165.55 174.68 164.33" style="fill: url(#d2853f5d-01ad-47ec-8d0e-479e736d4c8f)"/>
    <polygon id="89dd4cd5-2cc9-4a79-90c4-ead4c337b136" data-name="51f44c23-f751-453b-ae5e-b8b936f0fe22" points="172.88 170.37 171.84 170.96 173.95 172.21 175 171.59 172.88 170.37" style="fill: #fff"/>
    <polygon id="af30ff05-e196-480c-96a7-c2d19511d5cd" data-name="155c4f10-bd35-4ea1-a5ee-13f84cf90224" points="183.64 172.11 182.61 172.72 184.71 173.95 185.77 173.35 183.64 172.11" style="fill: #fff"/>
    <polygon id="5669b485-e302-4da3-b5f9-1ce76c11c544" data-name="8be7a0da-56dd-40ea-8be1-35e22a535d05" points="174.99 169.31 173.95 169.91 178.56 172.6 179.62 171.98 174.99 169.31" style="fill: #fff"/>
    <polygon id="4c608b59-eeed-4e2b-aee9-5ebb34219094" data-name="6e3d1b12-ccf8-4844-a289-bc2e67b21b04" points="172.76 167.74 171.74 168.34 173.84 169.58 174.9 168.96 172.76 167.74" style="fill: url(#f30def75-0b4f-411c-a66a-23945bb78e07)"/>
    <polygon id="5db7ada5-1b7b-4e18-9c67-b17290ab5655" data-name="c70eb636-ad6d-427a-ad73-02df3eff7de9" points="173.29 174.86 172.26 175.47 174.36 176.7 175.42 176.1 173.29 174.86" style="fill: url(#46bc5b28-c4dd-42fa-88dc-e8856a3a5aef)"/>
    <polygon id="cc185880-47e5-46d1-8c1a-9afbd62e7179" data-name="da96cb7e-2c60-4d10-bd39-7230635650fa" points="167.15 171.52 166.11 172.11 170.71 174.81 171.77 174.19 167.15 171.52" style="fill: #fff"/>
    <polygon id="3b293ed9-321f-4468-bb67-21deddc2a5b5" data-name="bce0059b-7226-40a1-80e8-5c1e0a5a6980" points="163.19 169.24 162.15 169.83 165.57 171.79 166.64 171.18 163.19 169.24" style="fill: #fff"/>
    <polygon id="35a3d99e-7c66-4746-beb2-7a005b139ca1" data-name="fe7fff9a-f7ba-4f2f-b1a9-4dbe28b40e13" points="169.81 166.24 168.78 166.83 170.88 168.07 171.94 167.45 169.81 166.24" style="fill: #fff"/>
    <polygon id="3dd7e8ea-9cab-49c5-9c80-27eb2bcb5a63" data-name="c0cc3df0-e7a6-472d-bee2-5aa919049548" points="180.78 165.91 179.75 166.51 188.22 171.41 189.29 170.8 180.78 165.91" style="fill: #fff"/>
    <polygon id="455405b9-118d-41f4-9135-05f9ac147015" data-name="53507dd2-f361-4b19-ace1-f631eb8a95be" points="167.15 166.89 166.11 167.49 171.2 170.53 172.25 169.91 167.15 166.89" style="fill: #fff"/>
    <polygon id="9b815d08-2dac-4a9f-9e7e-9823122a660f" data-name="64a03e85-0ea7-4420-b204-75953c7349ca" points="171.25 160.33 170.22 160.92 171.68 161.78 172.74 161.17 171.25 160.33" style="fill: #fff"/>
    <polygon id="8184aa68-9de4-491a-b4a5-b191f1221a44" data-name="518e7405-8efb-425c-abe3-3251dffe0ca8" points="169.32 161.46 168.29 162.06 169.75 162.92 170.81 162.31 169.32 161.46" style="fill: #fff"/>
    <polygon id="8a0b7738-cd47-4f25-8a2c-17dd2fcceba1" data-name="0fcf82fd-fa90-4a0e-8011-4d6537d6479c" points="167.39 162.6 166.36 163.19 167.82 164.06 168.88 163.44 167.39 162.6" style="fill: #fff"/>
    <polygon id="d15c9885-7973-43ad-a016-f707c4d2769b" data-name="6c8ed34c-57e8-4e1c-917c-3e89777027e4" points="165.47 163.74 164.43 164.33 165.9 165.2 166.96 164.58 165.47 163.74" style="fill: #fff"/>
    <polygon id="8a806fd7-d1d0-4607-b73b-22cd18613c50" data-name="f6a69796-eb1c-4127-89a2-5f94aaa4be37" points="163.53 164.88 162.51 165.47 163.97 166.33 165.03 165.71 163.53 164.88" style="fill: #fff"/>
    <polygon id="282a236b-a580-4b0a-90ac-58eba0a2dfad" data-name="b30a56d0-0f8b-49f4-bd9b-6615bc8fbdc9" points="161.6 166.01 160.58 166.61 162.04 167.47 163.1 166.85 161.6 166.01" style="fill: #fff"/>
    <polygon id="eacaeb28-e57a-4226-bd2b-37360d4fc2f7" data-name="b66cd53b-ac71-4659-b524-13c433b49eb5" points="159.69 167.15 158.65 167.74 160.11 168.6 161.17 167.99 159.69 167.15" style="fill: #fff"/>
    <polygon id="90db42ce-28c7-46c9-8bc2-97eda3fb3e83" data-name="0023feb5-86cc-47f8-9098-b7feaa67af08" points="157.76 168.29 156.72 168.88 158.18 169.74 159.24 169.13 157.76 168.29" style="fill: #fff"/>
  </g>
  <g id="f07c1478-d821-46f4-a7eb-82d988dd3e21" data-name="7dfeb24f-54dd-4b8a-bcca-7f14dd2ee5d9">
    <g>
      <path id="593fe54e-8788-4bda-b975-9f0035b8fe6d" data-name="5ecb94ad-0bd7-4eae-911d-c3c44d3b64c0" d="M178.65,188a2.46,2.46,0,0,0-2.28,0l-17.25,10a.72.72,0,0,0,0,1.3l17,9.82a2.5,2.5,0,0,0,2.28,0l17-9.82a.72.72,0,0,0,0-1.31Z" style="fill: #fff;fill-opacity: 0"/>
      <path d="M178.65,188.09a2.44,2.44,0,0,0-2.28,0L159.25,198a.68.68,0,0,0,0,1.29L176.14,209a2.48,2.48,0,0,0,2.28,0l16.89-9.76a.72.72,0,0,0,0-1.3Z" style="fill: #fbfbfb;opacity: 0.024390000849962234;isolation: isolate"/>
      <path d="M178.63,188.15a2.43,2.43,0,0,0-2.21,0l-17,9.81a.68.68,0,0,0,0,1.28l16.77,9.69a2.46,2.46,0,0,0,2.21,0l16.74-9.69a.72.72,0,0,0,0-1.3Z" style="fill: #f6f6f8;opacity: 0.04878000169992447;isolation: isolate"/>
      <path d="M178.63,188.27a2.41,2.41,0,0,0-2.17,0L159.57,198a.67.67,0,0,0,0,1.28l16.66,9.61a2.45,2.45,0,0,0,2.17,0l16.66-9.61a.68.68,0,0,0,0-1.28Z" style="fill: #f2f2f4;opacity: 0.07317099720239639;isolation: isolate"/>
      <path d="M178.62,188.27a2.38,2.38,0,0,0-2.17,0L159.69,198a.66.66,0,0,0,0,1.26l16.52,9.6a2.43,2.43,0,0,0,2.17,0l16.54-9.55a.67.67,0,0,0,0-1.28Z" style="fill: #ededf0;opacity: 0.09756100177764893;isolation: isolate"/>
      <path d="M178.61,188.34a2.37,2.37,0,0,0-2.17,0l-16.66,9.61a.66.66,0,0,0,0,1.26l16.43,9.46a2.41,2.41,0,0,0,2.17,0l16.41-9.47a.67.67,0,0,0,0-1.27Z" style="fill: #e9e9ed;opacity: 0.12195099890232086;isolation: isolate"/>
      <path d="M178.59,188.4a2.35,2.35,0,0,0-2.17,0l-16.52,9.54a.66.66,0,0,0,0,1.24l16.28,9.41a2.38,2.38,0,0,0,2.17,0l16.28-9.41a.66.66,0,0,0,0-1.26Z" style="fill: #e4e4e9;opacity: 0.1463409960269928;isolation: isolate"/>
      <path d="M178.59,188.45a2.34,2.34,0,0,0-2.13,0l-16.39,9.47a.65.65,0,0,0,0,1.24l16.17,9.33a2.37,2.37,0,0,0,2.17,0l16.13-9.35a.66.66,0,0,0,0-1.24Z" style="fill: #e0e0e6;opacity: 0.17073200643062592;isolation: isolate"/>
      <path d="M178.58,188.52a2.28,2.28,0,0,0-2.11,0l-16.28,9.41a.64.64,0,0,0,0,1.22l16,9.27a2.35,2.35,0,0,0,2.12,0l16-9.27a.66.66,0,0,0,0-1.24Z" style="fill: #dbdbe2;opacity: 0.19512200355529785;isolation: isolate"/>
      <path d="M178.57,188.58a2.28,2.28,0,0,0-2.1,0L160.3,197.9a.64.64,0,0,0,0,1.22l16,9.2a2.34,2.34,0,0,0,2.11,0l16-9.2a.65.65,0,0,0,0-1.23Z" style="fill: #d7d7de;opacity: 0.2195120006799698;isolation: isolate"/>
      <path d="M178.56,188.64a2.28,2.28,0,0,0-2.09,0l-16,9.27a.64.64,0,0,0,0,1.21l15.81,9.13a2.28,2.28,0,0,0,2.09,0l15.81-9.13a.64.64,0,0,0,0-1.22Z" style="fill: #d2d2db;opacity: 0.24390199780464172;isolation: isolate"/>
      <path d="M178.55,188.7a2.28,2.28,0,0,0-2.08,0l-16,9.19a.63.63,0,0,0,0,1.2l15.69,9.06a2.28,2.28,0,0,0,2.08,0L194,199a.64.64,0,0,0,0-1.21Z" style="fill: #ceced7;opacity: 0.26829299330711365;isolation: isolate"/>
      <path d="M178.54,188.74a2.28,2.28,0,0,0-2.05,0l-15.79,9.13a.63.63,0,0,0,0,1.14l15.58,9a2.28,2.28,0,0,0,2.07,0l15.58-9a.64.64,0,0,0,0-1.2Z" style="fill: #c9c9d3;opacity: 0.2926830053329468;isolation: isolate"/>
      <path d="M178.53,188.82a2.28,2.28,0,0,0-2,0l-15.67,9a.63.63,0,0,0,0,1.14l15.45,8.92a2.28,2.28,0,0,0,2,0L193.77,199a.63.63,0,0,0,0-1.14Z" style="fill: #c5c5d0;opacity: 0.3170729875564575;isolation: isolate"/>
      <path d="M178.53,188.89a2.21,2.21,0,0,0-2,0l-15.55,9a.62.62,0,0,0,0,1.14l15.34,8.85a2.28,2.28,0,0,0,2,0L193.66,199a.63.63,0,0,0,0-1.14Z" style="fill: #c1c1cc;opacity: 0.34146299958229065;isolation: isolate"/>
      <path d="M178.51,188.94a2.17,2.17,0,0,0-2,0l-15.44,8.91a.62.62,0,0,0,0,1.14l15.21,8.79a2.28,2.28,0,0,0,2,0l15.18-8.8a.63.63,0,0,0,0-1.14Z" style="fill: #bcbcc8;opacity: 0.3658539950847626;isolation: isolate"/>
      <path d="M178.5,189a2.17,2.17,0,0,0-2,0l-15.29,8.83a.6.6,0,0,0,0,1.14l15.07,8.69a2.21,2.21,0,0,0,2,0l15.1-8.69a.62.62,0,0,0,0-1.14Z" style="fill: #b8b8c5;opacity: 0.3902440071105957;isolation: isolate"/>
      <path d="M178.49,189.06a2.17,2.17,0,0,0-2,0l-15.21,8.77a.6.6,0,0,0,0,1.14l15,8.59a2.17,2.17,0,0,0,2,0l15-8.61a.62.62,0,0,0,0-1.14Z" style="fill: #b3b3c1;opacity: 0.41463398933410645;isolation: isolate"/>
      <path d="M178.49,189.13a2.17,2.17,0,0,0-2,0l-15.06,8.69a.6.6,0,0,0,0,1.14l14.83,8.57a2.17,2.17,0,0,0,2,0L193.1,199a.6.6,0,0,0,0-1.14Z" style="fill: #afafbe;opacity: 0.4390240013599396;isolation: isolate"/>
      <path d="M178.47,189.18a2.13,2.13,0,0,0-1.94,0l-14.91,8.61a.59.59,0,0,0,0,1.14l14.71,8.51a2.17,2.17,0,0,0,2,0L193,199a.6.6,0,0,0,0-1.14Z" style="fill: #aaaaba;opacity: 0.4634149968624115;isolation: isolate"/>
      <path d="M178.47,189.24a2.11,2.11,0,0,0-1.93,0l-14.83,8.56a.58.58,0,0,0,0,1.14l14.62,8.43a2.17,2.17,0,0,0,1.93,0l14.62-8.48a.6.6,0,0,0,0-1.14Z" style="fill: #a6a6b6;opacity: 0.48780500888824463;isolation: isolate"/>
      <path d="M178.46,189.3a2.09,2.09,0,0,0-1.92,0l-14.7,8.49a.58.58,0,0,0,0,1.14l14.48,8.36a2.13,2.13,0,0,0,1.92,0l14.5-8.38a.59.59,0,0,0,0-1.14Z" style="fill: #a1a1b3;opacity: 0.5121949911117554;isolation: isolate"/>
      <path d="M178.46,189.41a2.08,2.08,0,0,0-1.89,0L162,197.82a.58.58,0,0,0,0,1.14l14.38,8.3a2.11,2.11,0,0,0,1.91,0l14.37-8.3a.58.58,0,0,0,0-1.14Z" style="fill: #9d9daf;opacity: 0.5365849733352661;isolation: isolate"/>
      <path d="M178.43,189.41a2.07,2.07,0,0,0-1.88,0l-14.48,8.35a.57.57,0,1,0,0,1.14l14.25,8.23a2.09,2.09,0,0,0,1.88,0l14.29-8.2a.58.58,0,0,0,0-1.14Z" style="fill: #9898ab;opacity: 0.5609760284423828;isolation: isolate"/>
      <path d="M178.43,189.41a2,2,0,0,0-1.86,0l-14.34,8.27a.57.57,0,0,0,0,1.08l14.13,8.16a2.08,2.08,0,0,0,1.87,0l14.14-8.16a.58.58,0,0,0,0-1.14Z" style="fill: #9494a8;opacity: 0.5853660106658936;isolation: isolate"/>
      <path d="M178.42,189.55a2,2,0,0,0-1.85,0l-14.22,8.19a.57.57,0,0,0,0,1.07l14,8.09a2.05,2.05,0,0,0,1.85,0l14-8.09a.57.57,0,0,0,0-1.08Z" style="fill: #8f8fa4;opacity: 0.6097559928894043;isolation: isolate"/>
      <path d="M178.41,189.61a2,2,0,0,0-1.84,0l-14.09,8.14a.56.56,0,0,0,0,1.06l13.9,8a2,2,0,0,0,1.84,0l13.89-8.06a.57.57,0,0,0,0-1.07Z" style="fill: #8b8ba1;opacity: 0.634145975112915;isolation: isolate"/>
      <path d="M178.4,189.66a2,2,0,0,0-1.81,0l-14,8.07a.56.56,0,0,0,0,1l13.76,8a2,2,0,0,0,1.83,0l13.76-8a.57.57,0,0,0,0-1.06Z" style="fill: #86869d;opacity: 0.658536970615387;isolation: isolate"/>
      <path d="M178.39,189.73a2,2,0,0,0-1.8,0l-13.85,8a.55.55,0,0,0,0,1l13.69,7.88a2,2,0,0,0,1.8,0l13.69-7.86a.56.56,0,0,0,0-1Z" style="fill: #828299;opacity: 0.6829270124435425;isolation: isolate"/>
      <path d="M178.33,189.79a2,2,0,0,0-1.78,0l-13.76,7.92a.55.55,0,0,0,0,1l13.59,7.78a2,2,0,0,0,1.79,0l13.56-7.82a.56.56,0,0,0,0-1Z" style="fill: #7e7e96;opacity: 0.7073169946670532;isolation: isolate"/>
      <path d="M178.33,189.85a1.94,1.94,0,0,0-1.77,0L163,197.71a.55.55,0,0,0,0,1l13.41,7.74a2,2,0,0,0,1.77,0l13.41-7.75a.55.55,0,0,0,0-1Z" style="fill: #797992;opacity: 0.731706976890564;isolation: isolate"/>
      <path d="M178.33,189.91a1.93,1.93,0,0,0-1.76,0l-13.49,7.78a.54.54,0,0,0,0,1l13.29,7.68a2,2,0,0,0,1.76,0l13.29-7.68a.55.55,0,0,0,0-1Z" style="fill: #75758e;opacity: 0.7560979723930359;isolation: isolate"/>
      <path d="M178.33,190a1.91,1.91,0,0,0-1.73,0l-13.36,7.71a.52.52,0,0,0,0,1l13.17,7.6a1.93,1.93,0,0,0,1.75,0l13.17-7.6a.54.54,0,0,0,0-1Z" style="fill: #70708b;opacity: 0.7804880142211914;isolation: isolate"/>
      <path d="M178.33,190a1.89,1.89,0,0,0-1.72,0l-13.24,7.64a.52.52,0,0,0,0,1l13,7.54a1.92,1.92,0,0,0,1.73,0l13-7.54a.54.54,0,0,0,0-1Z" style="fill: #6c6c87;opacity: 0.8048779964447021;isolation: isolate"/>
      <path d="M178.33,190.1a1.87,1.87,0,0,0-1.71,0l-13.12,7.57a.52.52,0,0,0,0,1l12.94,7.47a1.89,1.89,0,0,0,1.71,0l12.94-7.49a.52.52,0,0,0,0-1Z" style="fill: #676783;opacity: 0.8292679786682129;isolation: isolate"/>
      <path d="M178.33,190.15a1.85,1.85,0,0,0-1.69,0l-13,7.51a.51.51,0,0,0,0,1L176.46,206a1.88,1.88,0,0,0,1.7,0L191,198.63a.52.52,0,0,0,0-1Z" style="fill: #636380;opacity: 0.8536589741706848;isolation: isolate"/>
      <path d="M178.33,190.19a1.84,1.84,0,0,0-1.68,0l-12.86,7.44a.51.51,0,0,0,0,1l12.68,7.33a1.86,1.86,0,0,0,1.68,0l12.73-7.31a.52.52,0,0,0,0-1Z" style="fill: #5e5e7c;opacity: 0.8780490159988403;isolation: isolate"/>
      <path d="M178.33,190.27a1.81,1.81,0,0,0-1.65,0l-12.76,7.36a.5.5,0,0,0,0,1l12.55,7.25a1.85,1.85,0,0,0,1.67,0l12.55-7.25a.51.51,0,0,0,0-1Z" style="fill: #5a5a79;opacity: 0.9024389982223511;isolation: isolate"/>
      <path d="M178.28,190.32a1.8,1.8,0,0,0-1.64,0L164,197.62a.5.5,0,0,0,0,.95l12.46,7.19a1.83,1.83,0,0,0,1.65,0l12.47-7.21a.5.5,0,0,0,0-1Z" style="fill: #555575;opacity: 0.9268289804458618;isolation: isolate"/>
      <path d="M178.28,190.39a1.78,1.78,0,0,0-1.63,0l-12.55,7.25a.5.5,0,0,0,0,.95l12.31,7.12a1.81,1.81,0,0,0,1.63,0l12.35-7.17a.5.5,0,0,0,0-.95Z" style="fill: #515171;opacity: 0.9512199759483337;isolation: isolate"/>
      <path d="M178.28,190.45a1.77,1.77,0,0,0-1.61,0l-12.39,7.15a.49.49,0,0,0,0,.94l12.22,7.05a1.79,1.79,0,0,0,1.62,0l12.2-7.05a.5.5,0,0,0,0-.95Z" style="fill: #4c4c6e;opacity: 0.9756100177764893;isolation: isolate"/>
      <path id="8e43cfe3-81d0-4524-89d2-e1206d91679b" data-name="88dddcbd-2f46-450f-80ee-7dafb7510cc3" d="M178.28,190.55a1.76,1.76,0,0,0-1.6,0l-12.27,7.09a.49.49,0,0,0,0,.92l12.09,7a1.77,1.77,0,0,0,1.6,0l12.09-7a.49.49,0,0,0,0-.94Z" style="fill: #48486a"/>
    </g>
    <path id="a5cc5b1a-99f8-4a57-84e1-47c379a972fa" data-name="8b936a99-aea9-4a4e-93b4-0775a9fe9996" d="M178.47,189a2.05,2.05,0,0,0-1.87,0l-14.4,8.32a.57.57,0,1,0,0,1.14l14.21,8.19a2.09,2.09,0,0,0,1.87,0l14.21-8.2a.58.58,0,0,0,0-1.14Z" style="fill: #f6f8fb"/>
    <path id="370110d2-cfc7-4e83-845b-2f99cec1f530" data-name="e66754cf-3d86-488e-aaa2-7f147e469e40" d="M162.2,197.33,176.6,189a2.05,2.05,0,0,1,1.87,0l1.63,1-16.25,9.41-1.67-1a.57.57,0,1,1,0-1.14Z" style="fill: #48486a"/>
    <path id="84c794a9-296b-40c6-bd5a-3d93dfc5529a" data-name="7df55c92-8faa-4fd2-a88e-19f87f0a3075" d="M176.61,190.55a.23.23,0,0,1,0-.43.84.84,0,0,1,.72,0,.23.23,0,0,1,0,.43A.84.84,0,0,1,176.61,190.55Z" style="fill: #fff"/>
    <path id="ccd17548-2449-4054-9e73-e6c38bd435f9" data-name="b2ea89c3-9b12-48e9-85ad-9433a78f4360" d="M175.38,191.32a.23.23,0,0,1,0-.43.84.84,0,0,1,.72,0,.23.23,0,0,1,0,.43A.84.84,0,0,1,175.38,191.32Z" style="fill: #fff"/>
    <path id="5d702bb7-fd77-4592-84ae-5c679fcae47a" data-name="ac158d55-424b-421b-ac35-a316c83c1daf" d="M174.19,192a.23.23,0,0,1,0-.43.84.84,0,0,1,.72,0,.23.23,0,0,1,0,.43A.84.84,0,0,1,174.19,192Z" style="fill: #fff"/>
    <path id="6d476bd0-cbac-47df-9c1b-7b2fabaae7bf" data-name="1d53d312-6974-4e9b-8dc1-ad1324c3a841" d="M162.2,197.87l14.21,8.19a2.09,2.09,0,0,0,1.87,0l14.21-8.19a.86.86,0,0,0,.31-.27c.17.27.08.6-.31.82l-14.21,8.19a2.09,2.09,0,0,1-1.87,0l-14.21-8.19c-.38-.22-.48-.55-.3-.81A.87.87,0,0,0,162.2,197.87Z" style="fill: url(#9aeab7a1-465b-4726-9693-8c90001b985e)"/>
    <g id="a7137212-4384-45d2-8f7e-4852b852321d" data-name="ed855083-7c30-40dd-91c7-52744a7b4c9e">
      <path id="f9230297-caf1-4364-b0dc-0b9f7508259a" data-name="0ba2c7ea-8d4c-46b9-ac1b-41420a1a7353" d="M183,194.48l-.38-.57-3.32.83.41.6,2.17-.57-1.36,1.81.41.62Z" style="fill: #48486a"/>
      <path id="89ee5b4d-b673-45b2-8bb1-0636245d51f6" data-name="e1ea09d4-4393-4574-aed9-fa8a57cd0bcd" d="M176.05,196.18l-.72.54,4.86,2.28.79-.52Z" style="fill: #48486a"/>
      <path id="bec4e2e0-d8f7-42e9-8814-29341373d8cf" data-name="0dd73d4d-df75-4f17-9732-ea26e41f0199" d="M173,200.27l.38.57,3.32-.83-.41-.62-2.17.55,1.34-1.79-.41-.6Z" style="fill: #48486a"/>
    </g>
  </g>
  <g>
    <path id="353bdf3a-8743-4db5-8301-02f6960806d0" data-name="77c5dad3-c706-405d-8277-3bc1f78b99d3" d="M118.84,62.27l.62.42v21a7.68,7.68,0,0,1-3.42,6L98.08,100.08l-1.41-.7A1.54,1.54,0,0,1,95.8,98V78a7.63,7.63,0,0,1,3.42-6l17.29-9.86A2.17,2.17,0,0,1,118.84,62.27Z" style="fill: url(#55eee33e-4e09-4738-aa27-2b937e1a693d)"/>
    <path id="fdaaf60b-5767-475d-a0d2-ddedddb93586" data-name="c46b688f-0af9-49d5-8932-20c0d7a68b64" d="M117,62.94c1.89-1.14,3.42-.17,3.42,2V84.07a7.68,7.68,0,0,1-3.42,6l-16.76,9.69c-1.91,1.14-3.42.21-3.42-2V78.35a7.63,7.63,0,0,1,3.42-6Z" style="fill: url(#9d2cf179-2a02-4a4a-80ba-37d1869f21aa)"/>
    <g id="10e4c0c7-86f9-4ddb-ba99-72869b48528c" data-name="5ee5a97d-bfe5-4fd0-b43b-c2dbbf0a2cc0">
      <path id="2ea8dc7a-4e2e-4626-ba6e-8244051230d5" data-name="a4028b0f-9951-4529-88a3-480bd1ee071e" d="M102,83a1,1,0,0,1-.4.6l-1.14.76a1.26,1.26,0,0,0-.51,1l.09,2.28c0,.35.26.48.56.29l1.14-.75c.19-.13.37-.08.43.09l.15.3a.75.75,0,0,1-.06.66l-.78,1.51c-.21.39-.18.8,0,.91l1.38.72c.22.11.56-.1.76-.5l.79-1.52a.75.75,0,0,1,.49-.43h.34a.27.27,0,0,1,.3.31v1.38c0,.35.26.48.56.29l1.87-1.23a1.26,1.26,0,0,0,.52-1V87.31a1.07,1.07,0,0,1,.29-.7l.31-.37c.17-.21.38-.31.51-.23l.86.45c.22.11.56-.1.76-.5l1.26-2.45c.19-.39.18-.8,0-.91l-.86-.45c-.14-.07-.18-.27-.11-.52l.14-.51a1,1,0,0,1,.4-.6l1.14-.75a1.26,1.26,0,0,0,.51-1l-.09-2.28c0-.35-.26-.49-.56-.3l-1.14.75c-.19.13-.37.08-.43-.09l-.16-.31a.75.75,0,0,1,.06-.66l.78-1.51c.21-.39.18-.8,0-.91l-1.38-.71c-.22-.11-.56.11-.76.5l-.78,1.52a.75.75,0,0,1-.49.43h-.34a.27.27,0,0,1-.3-.31L108,73.52c0-.35-.26-.48-.56-.29l-1.87,1.23a1.26,1.26,0,0,0-.51,1l.06,1.38a1.07,1.07,0,0,1-.29.7l-.31.37c-.17.21-.38.31-.51.24l-.86-.43c-.22-.11-.56.1-.76.5l-1.26,2.45c-.21.39-.18.8,0,.91l1.07.58S102.05,82.62,102,83Zm7.09-.64c-.66,1.7-2,3.09-3.22,3.26-1.54.17-2.19-1.69-1.31-4,.66-1.7,2-3.09,3.21-3.24,1.54-.17,2.19,1.69,1.31,4Z" style="fill: #5d78b1;opacity: 0.5;isolation: isolate"/>
      <path id="c214b6ff-8216-4975-ac68-2b600088a728" data-name="cce4a588-7e2f-402a-a831-cfb949a158e4" d="M102.27,86.24l.09,2.28a.35.35,0,0,0,.25.38h1.47v-.84h0c.19-.13.37-.08.43.09l.15.3a.75.75,0,0,1-.06.66l-.78,1.51c-.21.39-.18.8,0,.91l1.38.72h1.72V91h-.49l.41-.81a.75.75,0,0,1,.49-.43h.34a.27.27,0,0,1,.3.31v1.38a.35.35,0,0,0,.24.37h1.45v-.84l.74-.49a1.26,1.26,0,0,0,.51-1V88.08a1.07,1.07,0,0,1,.29-.7l.31-.37c.17-.21.38-.31.51-.23l2.88-2.51c.21-.39.18-.8,0-.91l-.86-.45c-.14-.07-.18-.27-.11-.52l.14-.51a1,1,0,0,1,.4-.6l1.14-.75a1.26,1.26,0,0,0,.51-1v-.9h1.14V76.88h-1.59a.46.46,0,0,0-.29.09l-1.14.75c-.19.13-.37.08-.43-.09l-.16-.31a.75.75,0,0,1,.06-.66l.78-1.51c.21-.39.18-.8,0-.91h-.09v-.7H113a.88.88,0,0,0-.62.52l-.78,1.52a.75.75,0,0,1-.5.45h-.34a.27.27,0,0,1-.3-.31v-.11l1.14-.06V74h-1.47a.49.49,0,0,0-.24.09l-1.94,1.24a1.26,1.26,0,0,0-.52,1l.06,1.38a1.07,1.07,0,0,1-.29.7l-.31.37a.91.91,0,0,1-.17.16v-.37h-1.22a.32.32,0,0,0-.23,0h0a1,1,0,0,0-.51.5l-1.26,2.46c-.21.39-.18.8,0,.91l1.14.56s-.14.51-.24.92a1,1,0,0,1-.4.6l-1.14.76A1.26,1.26,0,0,0,102.27,86.24Zm6,.24c-1.54.19-2.19-1.69-1.31-4,.66-1.7,2-3.09,3.21-3.24,1.54-.17,2.19,1.69,1.31,4-.66,1.7-2,3.09-3.21,3.24Z" style="fill: #48486a"/>
      <path id="cbd4aa8e-0499-44da-9bc3-918c99ee7226" data-name="67011c52-4293-4509-9c09-93ff59e6ed67" d="M105.8,83.88a1,1,0,0,1-.4.6l-1.14.76a1.26,1.26,0,0,0-.51,1l.09,2.28c0,.35.26.48.56.29l1.14-.75c.19-.13.37-.08.43.09a3.16,3.16,0,0,0,.15.3.75.75,0,0,1-.06.66l-.75,1.46c-.21.39-.18.8,0,.91l1.38.72c.22.11.56-.1.76-.5l.79-1.52a.75.75,0,0,1,.52-.43h.34a.27.27,0,0,1,.3.31v1.38c0,.35.26.48.56.29l1.87-1.23a1.26,1.26,0,0,0,.51-1V88.12a1.07,1.07,0,0,1,.29-.7l.31-.37c.17-.21.38-.31.51-.23l.86.45c.22.11.56-.1.76-.5l1.26-2.45c.19-.39.18-.8,0-.91l-.86-.45c-.14-.07-.18-.27-.11-.52l.14-.51a1,1,0,0,1,.4-.6l1.14-.75a1.26,1.26,0,0,0,.51-1l-.09-2.28c0-.35-.26-.49-.56-.3l-1.14.75c-.19.13-.37.08-.43-.09l-.16-.31a.75.75,0,0,1,.06-.66l.78-1.52c.21-.39.18-.8,0-.91l-1.38-.71c-.22-.11-.56.11-.76.5l-.78,1.52a.75.75,0,0,1-.49.43h-.34a.27.27,0,0,1-.3-.31l-.06-1.38c0-.35-.26-.48-.56-.29l-2,1.28a1.26,1.26,0,0,0-.51,1l.06,1.38a1.07,1.07,0,0,1-.29.7l-.31.37c-.17.21-.38.31-.51.24l-.86-.43c-.22-.11-.56.1-.76.5l-1.27,2.46c-.21.39-.18.8,0,.91L106,83S105.9,83.47,105.8,83.88Zm3.88,2.6c-1.54.17-2.19-1.69-1.31-4,.66-1.7,2-3.09,3.21-3.24,1.54-.17,2.19,1.69,1.31,4C112.23,84.94,110.85,86.33,109.68,86.48Z" style="fill: #5c629e"/>
    </g>
  </g>
  <g>
    <path id="6fff1b11-b3e4-443a-a5b3-09dc9d694627" data-name="c437ca87-3d76-4dc7-b18b-c6d536002e4b" d="M178.19,65.89v32.2a2.85,2.85,0,0,1-1.3,2.28l-46,26.48a1.14,1.14,0,0,1-.9.11h0a1.73,1.73,0,0,1-1.28-1.67V93.18A2.85,2.85,0,0,1,130,90.9l45.25-26.06a2.19,2.19,0,0,1,2.57.29h0A1,1,0,0,1,178.19,65.89Z" style="fill: url(#0f4c953f-1af0-4638-8693-a567023c0be6)"/>
    <path id="adef839d-de28-4d0d-b81a-782912edc834" data-name="b7bdbabf-8ac0-4cc9-95b5-ad3157737002" d="M178.19,98.09a2.85,2.85,0,0,1-1.3,2.28l-45.82,26.41c-.71.41-1.29.08-1.29-.74V93.91a2.85,2.85,0,0,1,1.29-2.28l45.82-26.38c.71-.41,1.3-.08,1.3.73Z" style="fill: #f6f8fb"/>
    <path id="c490ef06-790d-45f3-8ee9-a307aa360cce" data-name="61e711e0-356a-4932-b0ba-46195d20cb33" d="M168.17,81.36c0,1.92,1.36,2.7,3,1.75a6.71,6.71,0,0,0,3-5.25c0-1.92-1.36-2.7-3-1.75A6.71,6.71,0,0,0,168.17,81.36Z" style="fill: #99a7d8"/>
    <path d="M129.8,93.91v3.55l48.39-27.91V66c0-.81-.59-1.14-1.3-.73L131.07,91.7A2.85,2.85,0,0,0,129.8,93.91Z" style="fill: #5c629e"/>
    <g id="7e5ab7ad-0c09-4048-ac49-89ce99abe21a" data-name="24d2f495-2b35-4ee0-92a3-31787f950d79">
      <polygon points="133.9 97.11 163.92 79.85 163.93 80.81 133.9 98.13 133.9 97.11" style="fill: #e5e9f4"/>
    </g>
    <g id="1bdc816f-4a23-457c-a18e-479ba7309c4e" data-name="1cb9a48a-1d29-4536-b033-77e4ddc676e0">
      <polygon points="133.9 100.95 163.92 83.69 163.93 84.66 133.9 101.98 133.9 100.95" style="fill: #e5e9f4"/>
    </g>
    <g id="c7a3075f-1723-4d0e-9397-9ee8904666fe" data-name="6d474a0e-d911-404c-9af3-4b52cb12ef63">
      <polygon points="133.9 104.78 163.92 87.53 163.93 88.49 133.9 105.81 133.9 104.78" style="fill: #e5e9f4"/>
    </g>
    <g id="091f4cd7-a681-457a-9dd3-606da69ad616" data-name="618ff480-d498-4d02-9821-4265d0ef2a85">
      <polygon points="133.9 108.63 163.92 91.36 163.93 92.32 133.9 109.66 133.9 108.63" style="fill: #e5e9f4"/>
    </g>
    <g id="4a335787-68e7-42ad-b4a7-e38e54e03050" data-name="b85c5fbb-651c-4799-969f-5d1154a5a94a">
      <polygon points="133.9 112.47 163.92 95.21 163.93 96.17 133.9 113.49 133.9 112.47" style="fill: #e5e9f4"/>
    </g>
    <g id="4d1f6ddb-d08e-48f7-b88c-624b1b8f4ff4" data-name="4bfed019-00a7-4028-97df-22d026332d56">
      <polygon points="133.9 116.31 163.92 99.04 163.93 100 133.9 117.33 133.9 116.31" style="fill: #e5e9f4"/>
    </g>
    <g id="ee1abfe4-76d2-4574-9382-9a8a38354459" data-name="3b5147fc-56d0-41bd-a023-7d29fbd4ebd3">
      <polygon points="146.5 112.86 163.92 102.89 163.93 103.85 146.5 113.88 146.5 112.86" style="fill: #e5e9f4"/>
    </g>
    <polygon id="ae34af65-0938-4b22-adc6-480e6fea59d8" data-name="0b85ab7a-5905-46b7-a392-a6de90ece83a" points="166.86 87.51 166.86 102.56 175.54 97.54 175.54 82.5 166.86 87.51" style="fill: #d3daed"/>
    <g>
      <path id="93ceb2aa-fa9f-4206-900f-20d0bbffa47f" data-name="8465f828-6c63-416e-ac09-e7b56758962f" d="M174,69.53c0,.39.27.55.62.35a1.4,1.4,0,0,0,.65-1.07c0-.39-.27-.55-.62-.35A1.4,1.4,0,0,0,174,69.53Z" style="fill: #fff"/>
      <path id="2f0b5bd3-0280-4c45-afc0-e24accae383d" data-name="89397ed5-eebd-426c-996c-21e392646f8b" d="M172,70.78c0,.39.27.55.62.35a1.4,1.4,0,0,0,.62-1.07c0-.39-.27-.55-.62-.35A1.4,1.4,0,0,0,172,70.78Z" style="fill: #fff"/>
      <path id="7ad0dd7f-9661-41d8-9a7e-1daeff93297a" data-name="a28ea499-6119-4be8-b719-764e32114b8a" d="M169.84,72c0,.39.27.55.62.35a1.4,1.4,0,0,0,.62-1.07c0-.39-.27-.55-.62-.35A1.4,1.4,0,0,0,169.84,72Z" style="fill: #fff"/>
    </g>
  </g>
</svg>