<?xml version="1.0" encoding="UTF-8" standalone="no"?>
<svg
   viewBox="0 0 121.9 200"
   version="1.1"
   id="svg215"
   sodipodi:docname="indexing.svg"
   inkscape:version="1.3.2 (091e20ef0f, 2023-11-25)"
   xmlns:inkscape="http://www.inkscape.org/namespaces/inkscape"
   xmlns:sodipodi="http://sodipodi.sourceforge.net/DTD/sodipodi-0.dtd"
   xmlns:xlink="http://www.w3.org/1999/xlink"
   xmlns="http://www.w3.org/2000/svg"
   xmlns:svg="http://www.w3.org/2000/svg">
  <sodipodi:namedview
     id="namedview215"
     pagecolor="#ffffff"
     bordercolor="#000000"
     borderopacity="0.25"
     inkscape:showpageshadow="2"
     inkscape:pageopacity="0.0"
     inkscape:pagecheckerboard="0"
     inkscape:deskcolor="#d1d1d1"
     inkscape:zoom="4"
     inkscape:cx="-22.25"
     inkscape:cy="95.125"
     inkscape:window-width="1876"
     inkscape:window-height="1138"
     inkscape:window-x="0"
     inkscape:window-y="0"
     inkscape:window-maximized="1"
     inkscape:current-layer="svg215" />
  <defs
     id="defs16">
    <linearGradient
       id="465ce3d0-025a-4129-9942-381e33db76c0"
       x1="29.49"
       y1="161.28"
       x2="39.18"
       y2="161.28"
       gradientUnits="userSpaceOnUse">
      <stop
         offset="0"
         stop-color="#4d9ed7"
         id="stop1" />
      <stop
         offset="0.27"
         stop-color="#54a6dc"
         id="stop2" />
      <stop
         offset="0.66"
         stop-color="#66bbe9"
         id="stop3" />
      <stop
         offset="1"
         stop-color="#67bce9"
         id="stop4" />
    </linearGradient>
    <linearGradient
       id="540d4128-2140-4ee8-99d8-f7eccab99c27"
       x1="35.88"
       y1="165.07"
       x2="45.56"
       y2="165.07"
       xlink:href="#465ce3d0-025a-4129-9942-381e33db76c0" />
    <linearGradient
       id="10821a37-b086-4179-8472-7da73cdb86b8"
       x1="30.37"
       y1="161.28"
       x2="38.29"
       y2="161.28"
       xlink:href="#465ce3d0-025a-4129-9942-381e33db76c0" />
    <linearGradient
       id="00d1dd06-8cd5-4be2-9eb7-69e6b7ee2bdd"
       x1="36.76"
       y1="165.07"
       x2="44.68"
       y2="165.07"
       xlink:href="#465ce3d0-025a-4129-9942-381e33db76c0" />
    <linearGradient
       id="04e9f09e-8793-4832-be8a-9a5acbd19766"
       x1="39.33"
       y1="30.7"
       x2="73.39"
       y2="36.7"
       gradientUnits="userSpaceOnUse">
      <stop
         offset="0.15000001"
         stop-color="#4d9ed7"
         id="stop5"
         style="stop-color:#788187;stop-opacity:1;" />
      <stop
         offset="1"
         stop-color="#54addf"
         id="stop6"
         style="stop-color:#76858e;stop-opacity:1;" />
    </linearGradient>
    <linearGradient
       id="dd431a13-0c0a-4ca7-a889-d09f14cdb299"
       x1="56.33"
       y1="40.69"
       x2="56.33"
       y2="20.89"
       gradientUnits="userSpaceOnUse">
      <stop
         offset="0.22"
         stop-color="#67bce9"
         id="stop7" />
      <stop
         offset="0.5"
         stop-color="#63b8e7"
         id="stop8" />
      <stop
         offset="0.79"
         stop-color="#59acdf"
         id="stop9" />
      <stop
         offset="1"
         stop-color="#4d9ed7"
         id="stop10" />
    </linearGradient>
    <linearGradient
       id="31b6f46d-5b00-499c-b2b3-5440f55d6db6"
       x1="75.25"
       y1="169.19"
       x2="80.18"
       y2="169.19"
       xlink:href="#465ce3d0-025a-4129-9942-381e33db76c0" />
    <linearGradient
       id="bb1d4239-0504-4bd3-ba48-2095f92c2312"
       x1="1144.19"
       y1="150.99"
       x2="1157.23"
       y2="150.99"
       gradientTransform="matrix(-1, 0, 0, 1, 1239.24, 0)"
       gradientUnits="userSpaceOnUse">
      <stop
         offset="0"
         stop-color="#ebe9ec"
         id="stop11" />
      <stop
         offset="1"
         stop-color="#99a7d8"
         id="stop12" />
    </linearGradient>
    <linearGradient
       id="e736ea2c-9c1b-4a00-9e32-5d5d3988b326"
       x1="1135.59"
       y1="158.95"
       x2="1156.87"
       y2="158.95"
       gradientTransform="matrix(-1, 0, 0, 1, 1239.24, 0)"
       gradientUnits="userSpaceOnUse">
      <stop
         offset="0"
         stop-color="#fff"
         id="stop13" />
      <stop
         offset="1"
         stop-color="#99a7d8"
         id="stop14" />
    </linearGradient>
    <linearGradient
       id="3b63a88b-ccec-4383-976e-00e04186543b"
       x1="83.61"
       y1="153.67"
       x2="94.24"
       y2="153.67"
       xlink:href="#465ce3d0-025a-4129-9942-381e33db76c0" />
    <linearGradient
       id="c4dc650d-f176-4104-8716-3b880021171b"
       x1="61.27"
       y1="112.22"
       x2="99.82"
       y2="112.22"
       gradientUnits="userSpaceOnUse">
      <stop
         offset="0"
         stop-color="#49496c"
         id="stop15" />
      <stop
         offset="1"
         stop-color="#5d639e"
         id="stop16" />
    </linearGradient>
  </defs>
  <title
     id="title16">server_2</title>
  <g
     style="isolation: isolate"
     id="g215">
    <g
       id="d1d89921-3092-4a19-b942-fa20640c57bc">
      <g
         style="opacity: 0.5"
         id="g65">
        <path
           id="48adf15f-9f1e-4555-8958-c309359c591b"
           d="M2,143.25l51.31-29.62a5.55,5.55,0,0,1,5.55,0l51.31,29.62a3.93,3.93,0,0,1,0,6.81L58.83,179.69a5.55,5.55,0,0,1-5.55,0L2,150.07A3.93,3.93,0,0,1,2,143.25Z"
           style="fill: #fff;opacity: 0" />
        <path
           d="M2.21,143.27l51.08-29.49a5.52,5.52,0,0,1,5.52,0l51.08,29.49a3.92,3.92,0,0,1,0,6.78L58.81,179.54a5.52,5.52,0,0,1-5.52,0L2.21,150.05A3.92,3.92,0,0,1,2.21,143.27Z"
           style="fill: #fbfbfc;opacity: 0.019608"
           id="path16" />
        <path
           d="M2.46,143.29,53.3,113.93a5.5,5.5,0,0,1,5.5,0l50.84,29.35a3.9,3.9,0,0,1,0,6.75L58.8,179.39a5.5,5.5,0,0,1-5.5,0L2.46,150A3.9,3.9,0,0,1,2.46,143.29Z"
           style="fill: #f8f8f9;opacity: 0.039216"
           id="path17" />
        <path
           d="M2.7,143.3l50.61-29.22a5.47,5.47,0,0,1,5.47,0L109.4,143.3a3.88,3.88,0,0,1,0,6.72L58.79,179.24a5.47,5.47,0,0,1-5.47,0L2.7,150A3.88,3.88,0,0,1,2.7,143.3Z"
           style="fill: #f4f4f6;opacity: 0.058823999999999994"
           id="path18" />
        <path
           d="M2.95,143.32l50.38-29.09a5.45,5.45,0,0,1,5.45,0l50.38,29.09a3.86,3.86,0,0,1,0,6.69L58.78,179.09a5.45,5.45,0,0,1-5.45,0L2.95,150A3.86,3.86,0,0,1,2.95,143.32Z"
           style="fill: #f1f1f3;opacity: 0.078431"
           id="path19" />
        <path
           d="M3.2,143.33l50.14-29a5.42,5.42,0,0,1,5.42,0l50.14,29a3.84,3.84,0,0,1,0,6.66l-50.14,29a5.42,5.42,0,0,1-5.42,0L3.2,150A3.84,3.84,0,0,1,3.2,143.33Z"
           style="fill: #ededf0;opacity: 0.098039"
           id="path20" />
        <path
           d="M3.44,143.35l49.91-28.82a5.4,5.4,0,0,1,5.4,0l49.91,28.82a3.83,3.83,0,0,1,0,6.63L58.75,178.79a5.4,5.4,0,0,1-5.4,0L3.44,150A3.83,3.83,0,0,1,3.44,143.35Z"
           style="fill: #eaeaee;opacity: 0.117647"
           id="path21" />
        <path
           d="M3.69,143.36l49.68-28.68a5.37,5.37,0,0,1,5.37,0l49.68,28.68a3.81,3.81,0,0,1,0,6.6L58.74,178.64a5.37,5.37,0,0,1-5.37,0L3.69,150A3.81,3.81,0,0,1,3.69,143.36Z"
           style="fill: #e6e6eb;opacity: 0.137255"
           id="path22" />
        <path
           d="M3.93,143.38l49.45-28.55a5.35,5.35,0,0,1,5.35,0l49.45,28.55a3.79,3.79,0,0,1,0,6.57L58.73,178.49a5.35,5.35,0,0,1-5.35,0L3.93,149.94A3.79,3.79,0,0,1,3.93,143.38Z"
           style="fill: #e2e2e8;opacity: 0.156863"
           id="path23" />
        <path
           d="M4.18,143.39,53.39,115a5.32,5.32,0,0,1,5.32,0l49.21,28.41a3.77,3.77,0,0,1,0,6.53L58.71,178.34a5.32,5.32,0,0,1-5.32,0L4.18,149.93A3.77,3.77,0,0,1,4.18,143.39Z"
           style="fill: #dfdfe5;opacity: 0.176471"
           id="path24" />
        <path
           d="M4.42,143.41l49-28.28a5.3,5.3,0,0,1,5.3,0l49,28.28a3.76,3.76,0,0,1,0,6.5l-49,28.28a5.3,5.3,0,0,1-5.3,0l-49-28.28A3.76,3.76,0,0,1,4.42,143.41Z"
           style="fill: #dbdbe2;opacity: 0.196078"
           id="path25" />
        <path
           d="M4.67,143.43l48.75-28.14a5.27,5.27,0,0,1,5.27,0l48.75,28.14a3.74,3.74,0,0,1,0,6.47L58.69,178a5.27,5.27,0,0,1-5.27,0L4.67,149.9A3.74,3.74,0,0,1,4.67,143.43Z"
           style="fill: #d8d8df;opacity: 0.215686"
           id="path26" />
        <path
           d="M4.92,143.44l48.51-28a5.25,5.25,0,0,1,5.25,0l48.51,28a3.72,3.72,0,0,1,0,6.44l-48.51,28a5.25,5.25,0,0,1-5.25,0l-48.51-28A3.72,3.72,0,0,1,4.92,143.44Z"
           style="fill: #d4d4dc;opacity: 0.235294"
           id="path27" />
        <path
           d="M5.16,143.46l48.28-27.87a5.22,5.22,0,0,1,5.22,0l48.28,27.87a3.7,3.7,0,0,1,0,6.41L58.66,177.74a5.22,5.22,0,0,1-5.22,0L5.16,149.87A3.7,3.7,0,0,1,5.16,143.46Z"
           style="fill: #d1d0d9;opacity: 0.25490199999999996"
           id="path28" />
        <path
           d="M5.41,143.47l48-27.74a5.2,5.2,0,0,1,5.2,0l48,27.74a3.68,3.68,0,0,1,0,6.38l-48,27.74a5.2,5.2,0,0,1-5.2,0l-48-27.74A3.68,3.68,0,0,1,5.41,143.47Z"
           style="fill: #cdcdd6;opacity: 0.27451000000000003"
           id="path29" />
        <path
           d="M5.65,143.49l47.81-27.61a5.17,5.17,0,0,1,5.17,0l47.81,27.61a3.67,3.67,0,0,1,0,6.35L58.64,177.44a5.17,5.17,0,0,1-5.17,0L5.65,149.84A3.67,3.67,0,0,1,5.65,143.49Z"
           style="fill: #c9c9d3;opacity: 0.294118"
           id="path30" />
        <path
           d="M5.9,143.5,53.48,116a5.15,5.15,0,0,1,5.15,0L106.2,143.5a3.65,3.65,0,0,1,0,6.32L58.62,177.29a5.15,5.15,0,0,1-5.15,0L5.9,149.82A3.65,3.65,0,0,1,5.9,143.5Z"
           style="fill: #c6c6d0;opacity: 0.313725"
           id="path31" />
        <path
           d="M6.14,143.52l47.35-27.34a5.12,5.12,0,0,1,5.12,0L106,143.52a3.63,3.63,0,0,1,0,6.29L58.61,177.14a5.12,5.12,0,0,1-5.12,0L6.14,149.81A3.63,3.63,0,0,1,6.14,143.52Z"
           style="fill: #c2c2ce;opacity: 0.333333"
           id="path32" />
        <path
           d="M6.39,143.53l47.11-27.2a5.09,5.09,0,0,1,5.09,0l47.11,27.2a3.61,3.61,0,0,1,0,6.26L58.6,177a5.09,5.09,0,0,1-5.09,0L6.39,149.79A3.61,3.61,0,0,1,6.39,143.53Z"
           style="fill: #bfbfcb;opacity: 0.352941"
           id="path33" />
        <path
           d="M6.64,143.55l46.88-27.07a5.07,5.07,0,0,1,5.07,0l46.88,27.07a3.59,3.59,0,0,1,0,6.23L58.59,176.84a5.07,5.07,0,0,1-5.07,0L6.64,149.77A3.59,3.59,0,0,1,6.64,143.55Z"
           style="fill: #bbbbc8;opacity: 0.37254899999999996"
           id="path34" />
        <path
           d="M6.88,143.56l46.65-26.93a5,5,0,0,1,5,0l46.65,26.93a3.58,3.58,0,0,1,0,6.19L58.57,176.69a5,5,0,0,1-5,0L6.88,149.76A3.58,3.58,0,0,1,6.88,143.56Z"
           style="fill: #b7b7c5;opacity: 0.392157"
           id="path35" />
        <path
           d="M7.13,143.58l46.42-26.8a5,5,0,0,1,5,0L105,143.58a3.56,3.56,0,0,1,0,6.16l-46.42,26.8a5,5,0,0,1-5,0L7.13,149.74A3.56,3.56,0,0,1,7.13,143.58Z"
           style="fill: #b4b4c2;opacity: 0.411765"
           id="path36" />
        <path
           d="M7.37,143.6l46.18-26.66a5,5,0,0,1,5,0l46.18,26.66a3.54,3.54,0,0,1,0,6.13L58.55,176.39a5,5,0,0,1-5,0L7.37,149.73A3.54,3.54,0,0,1,7.37,143.6Z"
           style="fill: #b0b0bf;opacity: 0.431373"
           id="path37" />
        <path
           d="M7.62,143.61l45.95-26.53a5,5,0,0,1,5,0l45.95,26.53a3.52,3.52,0,0,1,0,6.1L58.54,176.24a5,5,0,0,1-5,0L7.62,149.71A3.52,3.52,0,0,1,7.62,143.61Z"
           style="fill: #adadbc;opacity: 0.45098000000000005"
           id="path38" />
        <path
           d="M7.86,143.63l45.72-26.39a4.94,4.94,0,0,1,4.94,0l45.72,26.39a3.5,3.5,0,0,1,0,6.07L58.52,176.09a4.94,4.94,0,0,1-4.94,0L7.86,149.7A3.5,3.5,0,0,1,7.86,143.63Z"
           style="fill: #a9a9b9;opacity: 0.470588"
           id="path39" />
        <path
           d="M8.11,143.64l45.48-26.26a4.92,4.92,0,0,1,4.92,0L104,143.64a3.49,3.49,0,0,1,0,6L58.51,175.94a4.92,4.92,0,0,1-4.92,0L8.11,149.68A3.49,3.49,0,0,1,8.11,143.64Z"
           style="fill: #a6a6b6;opacity: 0.49019599999999997"
           id="path40" />
        <path
           d="M8.36,143.66,53.6,117.53a4.89,4.89,0,0,1,4.89,0l45.25,26.13a3.47,3.47,0,0,1,0,6L58.5,175.79a4.89,4.89,0,0,1-4.89,0L8.36,149.67A3.47,3.47,0,0,1,8.36,143.66Z"
           style="fill: #a2a2b3;opacity: 0.5098039999999999"
           id="path41" />
        <path
           d="M8.6,143.67l45-26a4.87,4.87,0,0,1,4.87,0l45,26a3.45,3.45,0,0,1,0,6l-45,26a4.87,4.87,0,0,1-4.87,0l-45-26A3.45,3.45,0,0,1,8.6,143.67Z"
           style="fill: #9e9eb0;opacity: 0.529412"
           id="path42" />
        <path
           d="M8.85,143.69l44.78-25.86a4.84,4.84,0,0,1,4.84,0l44.78,25.86a3.43,3.43,0,0,1,0,5.95L58.47,175.49a4.84,4.84,0,0,1-4.84,0L8.85,149.64A3.43,3.43,0,0,1,8.85,143.69Z"
           style="fill: #9b9bae;opacity: 0.5490200000000001"
           id="path43" />
        <path
           d="M9.09,143.7,53.64,118a4.82,4.82,0,0,1,4.82,0L103,143.7a3.42,3.42,0,0,1,0,5.92L58.46,175.34a4.82,4.82,0,0,1-4.82,0L9.09,149.62A3.42,3.42,0,0,1,9.09,143.7Z"
           style="fill: #9797ab;opacity: 0.568627"
           id="path44" />
        <path
           d="M9.34,143.72l44.32-25.59a4.79,4.79,0,0,1,4.79,0l44.32,25.59a3.4,3.4,0,0,1,0,5.88L58.45,175.19a4.79,4.79,0,0,1-4.79,0L9.34,149.6A3.4,3.4,0,0,1,9.34,143.72Z"
           style="fill: #9494a8;opacity: 0.588235"
           id="path45" />
        <path
           d="M9.58,143.73l44.08-25.45a4.77,4.77,0,0,1,4.77,0l44.08,25.45a3.38,3.38,0,0,1,0,5.85L58.44,175a4.77,4.77,0,0,1-4.77,0L9.58,149.59A3.38,3.38,0,0,1,9.58,143.73Z"
           style="fill: #9090a5;opacity: 0.607843"
           id="path46" />
        <path
           d="M9.83,143.75l43.85-25.32a4.74,4.74,0,0,1,4.74,0l43.85,25.32a3.36,3.36,0,0,1,0,5.82L58.42,174.89a4.74,4.74,0,0,1-4.74,0L9.83,149.57A3.36,3.36,0,0,1,9.83,143.75Z"
           style="fill: #8d8ca2;opacity: 0.627451"
           id="path47" />
        <path
           d="M10.08,143.77l43.62-25.18a4.72,4.72,0,0,1,4.72,0L102,143.77a3.34,3.34,0,0,1,0,5.79L58.41,174.74a4.72,4.72,0,0,1-4.72,0L10.08,149.56A3.34,3.34,0,0,1,10.08,143.77Z"
           style="fill: #89899f;opacity: 0.6470589999999999"
           id="path48" />
        <path
           d="M10.32,143.78l43.38-25a4.69,4.69,0,0,1,4.69,0l43.38,25a3.33,3.33,0,0,1,0,5.76l-43.38,25a4.69,4.69,0,0,1-4.69,0l-43.39-25A3.33,3.33,0,0,1,10.32,143.78Z"
           style="fill: #85859c;opacity: 0.666667"
           id="path49" />
        <path
           d="M10.57,143.8l43.15-24.91a4.67,4.67,0,0,1,4.67,0l43.15,24.91a3.31,3.31,0,0,1,0,5.73L58.38,174.44a4.67,4.67,0,0,1-4.67,0L10.57,149.53A3.31,3.31,0,0,1,10.57,143.8Z"
           style="fill: #828299;opacity: 0.686275"
           id="path50" />
        <path
           d="M10.81,143.81,53.73,119a4.64,4.64,0,0,1,4.64,0l42.92,24.78a3.29,3.29,0,0,1,0,5.7L58.37,174.29a4.64,4.64,0,0,1-4.64,0L10.81,149.51A3.29,3.29,0,0,1,10.81,143.81Z"
           style="fill: #7e7e96;opacity: 0.705882"
           id="path51" />
        <path
           d="M11.06,143.83l42.69-24.64a4.62,4.62,0,0,1,4.62,0L101,143.83a3.27,3.27,0,0,1,0,5.67L58.36,174.14a4.62,4.62,0,0,1-4.62,0L11.06,149.5A3.27,3.27,0,0,1,11.06,143.83Z"
           style="fill: #7b7b93;opacity: 0.7254900000000001"
           id="path52" />
        <path
           d="M11.3,143.84l42.45-24.51a4.59,4.59,0,0,1,4.59,0l42.45,24.51a3.25,3.25,0,0,1,0,5.64L58.35,174a4.59,4.59,0,0,1-4.59,0L11.3,149.48A3.25,3.25,0,0,1,11.3,143.84Z"
           style="fill: #777790;opacity: 0.7450979999999999"
           id="path53" />
        <path
           d="M11.55,143.86l42.22-24.38a4.57,4.57,0,0,1,4.57,0l42.22,24.38a3.24,3.24,0,0,1,0,5.61L58.33,173.84a4.57,4.57,0,0,1-4.57,0L11.55,149.46A3.24,3.24,0,0,1,11.55,143.86Z"
           style="fill: #74738e;opacity: 0.764706"
           id="path54" />
        <path
           d="M11.8,143.87l42-24.24a4.54,4.54,0,0,1,4.54,0l42,24.24a3.22,3.22,0,0,1,0,5.58l-42,24.24a4.54,4.54,0,0,1-4.54,0l-42-24.24A3.22,3.22,0,0,1,11.8,143.87Z"
           style="fill: #70708b;opacity: 0.784314"
           id="path55" />
        <path
           d="M12,143.89l41.75-24.11a4.51,4.51,0,0,1,4.52,0l41.75,24.11a3.2,3.2,0,0,1,0,5.54L58.31,173.54a4.52,4.52,0,0,1-4.51,0L12,149.43A3.2,3.2,0,0,1,12,143.89Z"
           style="fill: #6c6c88;opacity: 0.8039219999999999"
           id="path56" />
        <path
           d="M12.29,143.9l41.52-24a4.49,4.49,0,0,1,4.49,0l41.52,24a3.18,3.18,0,0,1,0,5.51l-41.52,24a4.49,4.49,0,0,1-4.49,0l-41.52-24A3.18,3.18,0,0,1,12.29,143.9Z"
           style="fill: #696985;opacity: 0.823529"
           id="path57" />
        <path
           d="M12.53,143.92l41.29-23.84a4.46,4.46,0,0,1,4.46,0l41.29,23.84a3.17,3.17,0,0,1,0,5.48L58.28,173.24a4.46,4.46,0,0,1-4.46,0L12.53,149.4A3.17,3.17,0,0,1,12.53,143.92Z"
           style="fill: #656582;opacity: 0.8431369999999999"
           id="path58" />
        <path
           d="M12.78,143.94l41.05-23.7a4.44,4.44,0,0,1,4.44,0l41.05,23.7a3.15,3.15,0,0,1,0,5.45l-41.05,23.7a4.44,4.44,0,0,1-4.44,0l-41.05-23.7A3.15,3.15,0,0,1,12.78,143.94Z"
           style="fill: #62627f;opacity: 0.862745"
           id="path59" />
        <path
           d="M13,144l40.82-23.57a4.41,4.41,0,0,1,4.41,0L99.08,144a3.13,3.13,0,0,1,0,5.42L58.26,172.94a4.41,4.41,0,0,1-4.41,0L13,149.37A3.13,3.13,0,0,1,13,144Z"
           style="fill: #5e5e7c;opacity: 0.8823529999999999"
           id="path60" />
        <path
           d="M13.27,144l40.59-23.43a4.39,4.39,0,0,1,4.39,0L98.83,144a3.11,3.11,0,0,1,0,5.39L58.25,172.79a4.39,4.39,0,0,1-4.39,0L13.27,149.36A3.11,3.11,0,0,1,13.27,144Z"
           style="fill: #5a5a79;opacity: 0.901961"
           id="path61" />
        <path
           d="M13.51,144l40.35-23.3a4.36,4.36,0,0,1,4.36,0L98.59,144a3.09,3.09,0,0,1,0,5.36l-40.35,23.3a4.36,4.36,0,0,1-4.36,0l-40.35-23.3A3.09,3.09,0,0,1,13.51,144Z"
           style="fill: #575776;opacity: 0.921569"
           id="path62" />
        <path
           d="M13.76,144l40.12-23.16a4.34,4.34,0,0,1,4.34,0L98.34,144a3.08,3.08,0,0,1,0,5.33L58.22,172.49a4.34,4.34,0,0,1-4.34,0L13.76,149.33A3.08,3.08,0,0,1,13.76,144Z"
           style="fill: #535373;opacity: 0.941176"
           id="path63" />
        <path
           d="M14,144l39.89-23a4.31,4.31,0,0,1,4.31,0L98.1,144a3.06,3.06,0,0,1,0,5.3l-39.89,23a4.31,4.31,0,0,1-4.31,0L14,149.31A3.06,3.06,0,0,1,14,144Z"
           style="fill: #505070;opacity: 0.960784"
           id="path64" />
        <path
           d="M14.25,144l39.66-22.9a4.29,4.29,0,0,1,4.29,0L97.85,144a3,3,0,0,1,0,5.27L58.2,172.19a4.29,4.29,0,0,1-4.29,0l-39.66-22.9A3,3,0,0,1,14.25,144Z"
           style="fill: #4c4c6e;opacity: 0.9803919999999999"
           id="path65" />
        <path
           id="afac6b06-fac9-49c5-9500-67fe91b32918"
           d="M14.5,144l39.42-22.76a4.26,4.26,0,0,1,4.26,0L97.61,144a3,3,0,0,1,0,5.23L58.18,172a4.26,4.26,0,0,1-4.26,0L14.5,149.28A3,3,0,0,1,14.5,144Z"
           style="fill: #49486b" />
      </g>
      <g
         style="opacity: 0.5"
         id="g115">
        <path
           id="bc2f5bde-f01b-4e9d-b388-def3b207e7c0"
           d="M59.4,178.9l29.12-16.81a3.15,3.15,0,0,1,3.15,0l29.12,16.81a2.23,2.23,0,0,1,0,3.87L91.67,199.58a3.15,3.15,0,0,1-3.15,0L59.4,182.77A2.23,2.23,0,0,1,59.4,178.9Z"
           style="fill: #fff;opacity: 0" />
        <path
           d="M59.54,178.91l29-16.74a3.13,3.13,0,0,1,3.13,0l29,16.74a2.22,2.22,0,0,1,0,3.85l-29,16.74a3.13,3.13,0,0,1-3.13,0l-29-16.74A2.22,2.22,0,0,1,59.54,178.91Z"
           style="fill: #fbfbfc;opacity: 0.019608"
           id="path66" />
        <path
           d="M59.68,178.92l28.85-16.66a3.12,3.12,0,0,1,3.12,0l28.85,16.66a2.21,2.21,0,0,1,0,3.83L91.65,199.41a3.12,3.12,0,0,1-3.12,0L59.68,182.75A2.21,2.21,0,0,1,59.68,178.92Z"
           style="fill: #f8f8f9;opacity: 0.039216"
           id="path67" />
        <path
           d="M59.82,178.93l28.72-16.58a3.11,3.11,0,0,1,3.11,0l28.72,16.58a2.2,2.2,0,0,1,0,3.81L91.64,199.32a3.11,3.11,0,0,1-3.11,0L59.82,182.74A2.2,2.2,0,0,1,59.82,178.93Z"
           style="fill: #f4f4f6;opacity: 0.058823999999999994"
           id="path68" />
        <path
           d="M60,178.93l28.59-16.51a3.09,3.09,0,0,1,3.09,0l28.59,16.51a2.19,2.19,0,0,1,0,3.8L91.64,199.24a3.09,3.09,0,0,1-3.09,0L60,182.73A2.19,2.19,0,0,1,60,178.93Z"
           style="fill: #f1f1f3;opacity: 0.078431"
           id="path69" />
        <path
           d="M60.1,178.94l28.46-16.43a3.08,3.08,0,0,1,3.08,0l28.46,16.43a2.18,2.18,0,0,1,0,3.78L91.63,199.15a3.08,3.08,0,0,1-3.08,0L60.1,182.72A2.18,2.18,0,0,1,60.1,178.94Z"
           style="fill: #ededf0;opacity: 0.098039"
           id="path70" />
        <path
           d="M60.23,179,88.56,162.6a3.06,3.06,0,0,1,3.06,0L119.95,179a2.17,2.17,0,0,1,0,3.76L91.62,199.07a3.06,3.06,0,0,1-3.06,0L60.23,182.71A2.17,2.17,0,0,1,60.23,179Z"
           style="fill: #eaeaee;opacity: 0.117647"
           id="path71" />
        <path
           d="M60.37,179l28.19-16.28a3,3,0,0,1,3,0L119.81,179a2.16,2.16,0,0,1,0,3.74L91.62,199a3,3,0,0,1-3,0L60.37,182.7A2.16,2.16,0,0,1,60.37,179Z"
           style="fill: #e6e6eb;opacity: 0.137255"
           id="path72" />
        <path
           d="M60.51,179l28.06-16.2a3,3,0,0,1,3,0L119.67,179a2.15,2.15,0,0,1,0,3.73L91.61,198.9a3,3,0,0,1-3,0L60.51,182.7A2.15,2.15,0,0,1,60.51,179Z"
           style="fill: #e2e2e8;opacity: 0.156863"
           id="path73" />
        <path
           d="M60.65,179l27.93-16.12a3,3,0,0,1,3,0L119.53,179a2.14,2.14,0,0,1,0,3.71L91.6,198.81a3,3,0,0,1-3,0L60.65,182.69A2.14,2.14,0,0,1,60.65,179Z"
           style="fill: #dfdfe5;opacity: 0.176471"
           id="path74" />
        <path
           d="M60.79,179l27.8-16a3,3,0,0,1,3,0l27.8,16a2.13,2.13,0,0,1,0,3.69l-27.8,16a3,3,0,0,1-3,0l-27.8-16A2.13,2.13,0,0,1,60.79,179Z"
           style="fill: #dbdbe2;opacity: 0.196078"
           id="path75" />
        <path
           d="M60.93,179,88.6,163a3,3,0,0,1,3,0l27.66,16a2.12,2.12,0,0,1,0,3.67l-27.66,16a3,3,0,0,1-3,0l-27.66-16A2.12,2.12,0,0,1,60.93,179Z"
           style="fill: #d8d8df;opacity: 0.215686"
           id="path76" />
        <path
           d="M61.07,179l27.53-15.9a3,3,0,0,1,3,0L119.11,179a2.11,2.11,0,0,1,0,3.66l-27.53,15.9a3,3,0,0,1-3,0l-27.53-15.9A2.11,2.11,0,0,1,61.07,179Z"
           style="fill: #d4d4dc;opacity: 0.235294"
           id="path77" />
        <path
           d="M61.21,179l27.4-15.82a3,3,0,0,1,3,0L119,179a2.1,2.1,0,0,1,0,3.64l-27.4,15.82a3,3,0,0,1-3,0l-27.4-15.82A2.1,2.1,0,0,1,61.21,179Z"
           style="fill: #d1d0d9;opacity: 0.25490199999999996"
           id="path78" />
        <path
           d="M61.35,179l27.27-15.74a3,3,0,0,1,2.95,0L118.83,179a2.09,2.09,0,0,1,0,3.62L91.57,198.39a3,3,0,0,1-2.95,0L61.35,182.64A2.09,2.09,0,0,1,61.35,179Z"
           style="fill: #cdcdd6;opacity: 0.27451000000000003"
           id="path79" />
        <path
           d="M61.49,179l27.13-15.67a2.93,2.93,0,0,1,2.93,0L118.69,179a2.08,2.08,0,0,1,0,3.6L91.56,198.3a2.93,2.93,0,0,1-2.93,0L61.49,182.63A2.08,2.08,0,0,1,61.49,179Z"
           style="fill: #c9c9d3;opacity: 0.294118"
           id="path80" />
        <path
           d="M61.63,179l27-15.59a2.92,2.92,0,0,1,2.92,0l27,15.59a2.07,2.07,0,0,1,0,3.59l-27,15.59a2.92,2.92,0,0,1-2.92,0l-27-15.59A2.07,2.07,0,0,1,61.63,179Z"
           style="fill: #c6c6d0;opacity: 0.313725"
           id="path81" />
        <path
           d="M61.77,179l26.87-15.51a2.91,2.91,0,0,1,2.91,0L118.41,179a2.06,2.06,0,0,1,0,3.57L91.54,198.13a2.91,2.91,0,0,1-2.91,0L61.77,182.62A2.06,2.06,0,0,1,61.77,179Z"
           style="fill: #c2c2ce;opacity: 0.333333"
           id="path82" />
        <path
           d="M61.91,179.06l26.74-15.44a2.89,2.89,0,0,1,2.89,0l26.74,15.44a2,2,0,0,1,0,3.55L91.54,198a2.89,2.89,0,0,1-2.89,0L61.91,182.61A2,2,0,0,1,61.91,179.06Z"
           style="fill: #bfbfcb;opacity: 0.352941"
           id="path83" />
        <path
           d="M62,179.07l26.61-15.36a2.88,2.88,0,0,1,2.88,0l26.61,15.36a2,2,0,0,1,0,3.53L91.53,198a2.88,2.88,0,0,1-2.88,0L62,182.6A2,2,0,0,1,62,179.07Z"
           style="fill: #bbbbc8;opacity: 0.37254899999999996"
           id="path84" />
        <path
           d="M62.19,179.08l26.47-15.28a2.86,2.86,0,0,1,2.86,0L118,179.08a2,2,0,0,1,0,3.52L91.52,197.87a2.86,2.86,0,0,1-2.86,0L62.19,182.59A2,2,0,0,1,62.19,179.08Z"
           style="fill: #b7b7c5;opacity: 0.392157"
           id="path85" />
        <path
           d="M62.33,179.08l26.34-15.21a2.85,2.85,0,0,1,2.85,0l26.34,15.21a2,2,0,0,1,0,3.5L91.52,197.79a2.85,2.85,0,0,1-2.85,0L62.33,182.58A2,2,0,0,1,62.33,179.08Z"
           style="fill: #b4b4c2;opacity: 0.411765"
           id="path86" />
        <path
           d="M62.47,179.09,88.67,164a2.83,2.83,0,0,1,2.83,0l26.21,15.13a2,2,0,0,1,0,3.48L91.51,197.7a2.83,2.83,0,0,1-2.83,0L62.47,182.57A2,2,0,0,1,62.47,179.09Z"
           style="fill: #b0b0bf;opacity: 0.431373"
           id="path87" />
        <path
           d="M62.61,179.1,88.68,164a2.82,2.82,0,0,1,2.82,0l26.08,15.06a2,2,0,0,1,0,3.46L91.5,197.62a2.82,2.82,0,0,1-2.82,0L62.61,182.56A2,2,0,0,1,62.61,179.1Z"
           style="fill: #adadbc;opacity: 0.45098000000000005"
           id="path88" />
        <path
           d="M62.74,179.11l25.94-15a2.81,2.81,0,0,1,2.81,0l25.94,15a2,2,0,0,1,0,3.45l-25.94,15a2.81,2.81,0,0,1-2.81,0l-25.94-15A2,2,0,0,1,62.74,179.11Z"
           style="fill: #a9a9b9;opacity: 0.470588"
           id="path89" />
        <path
           d="M62.88,179.12l25.81-14.9a2.79,2.79,0,0,1,2.79,0l25.81,14.9a2,2,0,0,1,0,3.43l-25.81,14.9a2.79,2.79,0,0,1-2.79,0l-25.81-14.9A2,2,0,0,1,62.88,179.12Z"
           style="fill: #a6a6b6;opacity: 0.49019599999999997"
           id="path90" />
        <path
           d="M63,179.13,88.7,164.3a2.78,2.78,0,0,1,2.78,0l25.68,14.83a2,2,0,0,1,0,3.41L91.48,197.36a2.78,2.78,0,0,1-2.78,0L63,182.54A2,2,0,0,1,63,179.13Z"
           style="fill: #a2a2b3;opacity: 0.5098039999999999"
           id="path91" />
        <path
           d="M63.16,179.14l25.55-14.75a2.76,2.76,0,0,1,2.76,0L117,179.14a2,2,0,0,1,0,3.39L91.47,197.28a2.76,2.76,0,0,1-2.76,0L63.16,182.53A2,2,0,0,1,63.16,179.14Z"
           style="fill: #9e9eb0;opacity: 0.529412"
           id="path92" />
        <path
           d="M63.3,179.15l25.41-14.67a2.75,2.75,0,0,1,2.75,0l25.41,14.67a2,2,0,0,1,0,3.37L91.47,197.19a2.75,2.75,0,0,1-2.75,0L63.3,182.52A2,2,0,0,1,63.3,179.15Z"
           style="fill: #9b9bae;opacity: 0.5490200000000001"
           id="path93" />
        <path
           d="M63.44,179.15l25.28-14.6a2.73,2.73,0,0,1,2.73,0l25.28,14.6a1.94,1.94,0,0,1,0,3.36l-25.28,14.6a2.73,2.73,0,0,1-2.73,0l-25.28-14.6A1.94,1.94,0,0,1,63.44,179.15Z"
           style="fill: #9797ab;opacity: 0.568627"
           id="path94" />
        <path
           d="M63.58,179.16l25.15-14.52a2.72,2.72,0,0,1,2.72,0l25.15,14.52a1.93,1.93,0,0,1,0,3.34L91.45,197a2.72,2.72,0,0,1-2.72,0L63.58,182.5A1.93,1.93,0,0,1,63.58,179.16Z"
           style="fill: #9494a8;opacity: 0.588235"
           id="path95" />
        <path
           d="M63.72,179.17l25-14.44a2.71,2.71,0,0,1,2.71,0l25,14.44a1.92,1.92,0,0,1,0,3.32l-25,14.44a2.71,2.71,0,0,1-2.71,0l-25-14.44A1.92,1.92,0,0,1,63.72,179.17Z"
           style="fill: #9090a5;opacity: 0.607843"
           id="path96" />
        <path
           d="M63.86,179.18l24.89-14.37a2.69,2.69,0,0,1,2.69,0l24.89,14.37a1.91,1.91,0,0,1,0,3.3L91.44,196.85a2.69,2.69,0,0,1-2.69,0L63.86,182.49A1.91,1.91,0,0,1,63.86,179.18Z"
           style="fill: #8d8ca2;opacity: 0.627451"
           id="path97" />
        <path
           d="M64,179.19,88.75,164.9a2.68,2.68,0,0,1,2.68,0l24.75,14.29a1.9,1.9,0,0,1,0,3.29L91.43,196.77a2.68,2.68,0,0,1-2.68,0L64,182.48A1.9,1.9,0,0,1,64,179.19Z"
           style="fill: #89899f;opacity: 0.6470589999999999"
           id="path98" />
        <path
           d="M64.14,179.2,88.76,165a2.66,2.66,0,0,1,2.66,0L116,179.2a1.89,1.89,0,0,1,0,3.27L91.42,196.68a2.66,2.66,0,0,1-2.66,0L64.14,182.47A1.89,1.89,0,0,1,64.14,179.2Z"
           style="fill: #85859c;opacity: 0.666667"
           id="path99" />
        <path
           d="M64.28,179.21l24.49-14.14a2.65,2.65,0,0,1,2.65,0l24.49,14.14a1.88,1.88,0,0,1,0,3.25L91.42,196.6a2.65,2.65,0,0,1-2.65,0L64.28,182.46A1.88,1.88,0,0,1,64.28,179.21Z"
           style="fill: #828299;opacity: 0.686275"
           id="path100" />
        <path
           d="M64.42,179.22l24.36-14.06a2.63,2.63,0,0,1,2.63,0l24.36,14.06a1.87,1.87,0,0,1,0,3.23L91.41,196.51a2.63,2.63,0,0,1-2.63,0L64.42,182.45A1.87,1.87,0,0,1,64.42,179.22Z"
           style="fill: #7e7e96;opacity: 0.705882"
           id="path101" />
        <path
           d="M64.56,179.22l24.22-14a2.62,2.62,0,0,1,2.62,0l24.22,14a1.86,1.86,0,0,1,0,3.22l-24.22,14a2.62,2.62,0,0,1-2.62,0l-24.22-14A1.86,1.86,0,0,1,64.56,179.22Z"
           style="fill: #7b7b93;opacity: 0.7254900000000001"
           id="path102" />
        <path
           d="M64.7,179.23l24.09-13.91a2.61,2.61,0,0,1,2.61,0l24.09,13.91a1.85,1.85,0,0,1,0,3.2L91.39,196.34a2.61,2.61,0,0,1-2.61,0L64.7,182.43A1.85,1.85,0,0,1,64.7,179.23Z"
           style="fill: #777790;opacity: 0.7450979999999999"
           id="path103" />
        <path
           d="M64.84,179.24l24-13.83a2.59,2.59,0,0,1,2.59,0l24,13.83a1.84,1.84,0,0,1,0,3.18l-24,13.83a2.59,2.59,0,0,1-2.59,0l-24-13.83A1.84,1.84,0,0,1,64.84,179.24Z"
           style="fill: #74738e;opacity: 0.764706"
           id="path104" />
        <path
           d="M65,179.25,88.8,165.49a2.58,2.58,0,0,1,2.58,0l23.83,13.76a1.83,1.83,0,0,1,0,3.16L91.38,196.17a2.58,2.58,0,0,1-2.58,0L65,182.42A1.83,1.83,0,0,1,65,179.25Z"
           style="fill: #70708b;opacity: 0.784314"
           id="path105" />
        <path
           d="M65.12,179.26l23.7-13.68a2.56,2.56,0,0,1,2.56,0l23.7,13.68a1.82,1.82,0,0,1,0,3.15l-23.7,13.68a2.56,2.56,0,0,1-2.56,0l-23.7-13.68A1.82,1.82,0,0,1,65.12,179.26Z"
           style="fill: #6c6c88;opacity: 0.8039219999999999"
           id="path106" />
        <path
           d="M65.25,179.27l23.56-13.6a2.55,2.55,0,0,1,2.55,0l23.56,13.6a1.81,1.81,0,0,1,0,3.13L91.37,196a2.55,2.55,0,0,1-2.55,0L65.25,182.4A1.81,1.81,0,0,1,65.25,179.27Z"
           style="fill: #696985;opacity: 0.823529"
           id="path107" />
        <path
           d="M65.39,179.28l23.43-13.53a2.53,2.53,0,0,1,2.53,0l23.43,13.53a1.8,1.8,0,0,1,0,3.11L91.36,195.92a2.53,2.53,0,0,1-2.53,0L65.39,182.39A1.8,1.8,0,0,1,65.39,179.28Z"
           style="fill: #656582;opacity: 0.8431369999999999"
           id="path108" />
        <path
           d="M65.53,179.29l23.3-13.45a2.52,2.52,0,0,1,2.52,0l23.3,13.45a1.79,1.79,0,0,1,0,3.09l-23.3,13.45a2.52,2.52,0,0,1-2.52,0l-23.3-13.45A1.79,1.79,0,0,1,65.53,179.29Z"
           style="fill: #62627f;opacity: 0.862745"
           id="path109" />
        <path
           d="M65.67,179.29l23.17-13.37a2.51,2.51,0,0,1,2.51,0l23.17,13.37a1.78,1.78,0,0,1,0,3.08L91.34,195.75a2.51,2.51,0,0,1-2.51,0L65.67,182.37A1.78,1.78,0,0,1,65.67,179.29Z"
           style="fill: #5e5e7c;opacity: 0.8823529999999999"
           id="path110" />
        <path
           d="M65.81,179.3l23-13.3a2.49,2.49,0,0,1,2.49,0l23,13.3a1.77,1.77,0,0,1,0,3.06l-23,13.3a2.49,2.49,0,0,1-2.49,0l-23-13.3A1.77,1.77,0,0,1,65.81,179.3Z"
           style="fill: #5a5a79;opacity: 0.901961"
           id="path111" />
        <path
           d="M66,179.31l22.9-13.22a2.48,2.48,0,0,1,2.48,0l22.9,13.22a1.76,1.76,0,0,1,0,3l-22.9,13.22a2.48,2.48,0,0,1-2.48,0L66,182.35A1.76,1.76,0,0,1,66,179.31Z"
           style="fill: #575776;opacity: 0.921569"
           id="path112" />
        <path
           d="M66.09,179.32l22.77-13.15a2.46,2.46,0,0,1,2.46,0l22.77,13.15a1.75,1.75,0,0,1,0,3L91.32,195.49a2.46,2.46,0,0,1-2.46,0L66.09,182.34A1.75,1.75,0,0,1,66.09,179.32Z"
           style="fill: #535373;opacity: 0.941176"
           id="path113" />
        <path
           d="M66.23,179.33l22.64-13.07a2.45,2.45,0,0,1,2.45,0L114,179.33a1.74,1.74,0,0,1,0,3L91.32,195.41a2.45,2.45,0,0,1-2.45,0L66.23,182.34A1.74,1.74,0,0,1,66.23,179.33Z"
           style="fill: #505070;opacity: 0.960784"
           id="path114" />
        <path
           d="M66.37,179.34l22.5-13a2.43,2.43,0,0,1,2.43,0l22.5,13a1.73,1.73,0,0,1,0,3l-22.5,13a2.43,2.43,0,0,1-2.43,0l-22.5-13A1.73,1.73,0,0,1,66.37,179.34Z"
           style="fill: #4c4c6e;opacity: 0.9803919999999999"
           id="path115" />
        <path
           id="86bd7e64-85c2-4838-92b0-69508b3f0e98"
           d="M66.51,179.35l22.37-12.92a2.42,2.42,0,0,1,2.42,0l22.37,12.92a1.72,1.72,0,0,1,0,3L91.3,195.24a2.42,2.42,0,0,1-2.42,0L66.51,182.32A1.72,1.72,0,0,1,66.51,179.35Z"
           style="fill: #49486b" />
      </g>
      <g
         id="g116">
        <polygon
           id="5875cc7e-34d3-4323-b81a-a8e5eaa37a24"
           points="8.31 63.94 56.05 36.38 103.79 63.94 56.05 91.91 8.31 63.94"
           style="fill: #dce1f0" />
        <polygon
           id="065dbe90-916b-4fd8-ba4b-4d8dbd462c93"
           points="8.31 63.94 8.31 147.62 56.05 175.19 56.05 91.51 8.31 63.94"
           style="fill: #d8deee" />
        <polygon
           id="c6290bff-8e14-4efd-a360-a2ecb30e4545"
           points="56.05 175.19 103.79 147.62 103.79 63.94 56.05 91.51 56.05 175.19"
           style="fill: #d4daed" />
        <g
           id="228a502a-eeed-46fb-8cff-92098e036b4a">
          <polygon
             points="56.05 120.42 8.31 93.03 8.31 91.5 56.05 118.95 103.79 91.32 103.79 93.24 56.05 120.42"
             style="fill: #9aa7d5"
             id="polygon115" />
        </g>
        <g
           id="c43b21bd-5ca4-4395-9220-abced7d96f29">
          <polygon
             points="56.05 148.19 8.31 120.8 8.31 118.49 56.05 145.94 103.79 118.88 103.79 120.8 56.05 148.19"
             style="fill: #9aa7d5"
             id="polygon116" />
        </g>
        <polygon
           id="dffccbe0-3b19-4af8-a68f-846bea88e157"
           points="59.06 95.2 67.99 90.13 67.99 93.54 59.06 98.61 59.06 95.2"
           style="fill: #9aa7d5" />
        <polygon
           id="bd5b3712-0c29-4572-acab-ad827c4561b0"
           points="69.76 89.17 78.69 84.1 78.69 87.51 69.76 92.58 69.76 89.17"
           style="fill: #9aa7d5" />
        <polygon
           id="561f08ac-d155-404c-a7e4-1aa571fa2f86"
           points="59.06 151.13 67.99 146.06 67.99 149.47 59.06 154.54 59.06 151.13"
           style="fill: #9aa7d5" />
        <polygon
           id="9e33f3a9-0fdb-44e9-89ce-1a63ad4295b8"
           points="69.76 145.1 78.69 140.03 78.69 143.44 69.76 148.51 69.76 145.1"
           style="fill: #9aa7d5" />
        <path
           id="b31bbfc5-8660-4c18-9185-f4495c59d5ab"
           d="M16.9,83.82c-.76-.44-1.38-.08-1.38.8A3.08,3.08,0,0,0,16.91,87c.76.44,1.39.08,1.38-.8A3.09,3.09,0,0,0,16.9,83.82Z"
           style="fill: #9aa7d5" />
        <path
           id="2e67728a-b780-4931-b87e-89c0ef689046"
           d="M22.4,87.41c-.76-.44-1.38-.08-1.38.8a3.08,3.08,0,0,0,1.39,2.41c.76.44,1.39.08,1.38-.8A3.09,3.09,0,0,0,22.4,87.41Z"
           style="fill: #9aa7d5" />
        <path
           id="6aad61e5-ed02-432e-9276-fcf9ad5ad83c"
           d="M16.9,111.48c-.76-.44-1.38-.08-1.38.8a3.08,3.08,0,0,0,1.39,2.41c.76.44,1.39.08,1.38-.8A3.09,3.09,0,0,0,16.9,111.48Z"
           style="fill: #9aa7d5" />
        <path
           id="f9f15a55-11a4-4542-b1e2-2d20c04385c6"
           d="M22.4,115.06c-.76-.44-1.38-.08-1.38.8a3.08,3.08,0,0,0,1.39,2.41c.76.44,1.39.08,1.38-.8A3.09,3.09,0,0,0,22.4,115.06Z"
           style="fill: #9aa7d5" />
        <path
           id="2063ca69-2f8e-485f-a0bb-56d7fd5e1d71"
           d="M16.9,139.13c-.76-.44-1.38-.08-1.38.8a3.08,3.08,0,0,0,1.39,2.41c.76.44,1.39.08,1.38-.8A3.09,3.09,0,0,0,16.9,139.13Z"
           style="fill: #9aa7d5" />
        <path
           id="aea89573-dc6a-4d54-a490-5827b4152b1f"
           d="M22.4,142.72c-.76-.44-1.38-.08-1.38.8a3.08,3.08,0,0,0,1.39,2.41c.76.44,1.39.08,1.38-.8A3.09,3.09,0,0,0,22.4,142.72Z"
           style="fill: #9aa7d5" />
      </g>
      <g
         id="fff8475a-3762-434f-8282-aa3a30f0b8f9">
        <g
           id="g119">
          <g
             id="a5f62af5-1dab-4d8e-b0d8-b006640e2c20"
             style="opacity: 0.4">
            <path
               d="M30.82,170.32A1.32,1.32,0,0,1,29.49,169v-6.49a9.45,9.45,0,0,1,4.76-8.19l2.95-1.9a1.32,1.32,0,1,1,1.31,2.3l-2.94,1.9a6.8,6.8,0,0,0-3.42,5.89V169A1.32,1.32,0,0,1,30.82,170.32Z"
               style="fill: url(#465ce3d0-025a-4129-9942-381e33db76c0)"
               id="path116" />
          </g>
          <g
             id="bc9fcb11-8aee-44a0-8a84-ec83dab4c2e7"
             style="opacity: 0.4">
            <path
               d="M37.2,174.11a1.32,1.32,0,0,1-1.32-1.32v-6.49a9.45,9.45,0,0,1,4.76-8.19l2.94-1.9a1.32,1.32,0,1,1,1.31,2.3l-2.94,1.9a6.79,6.79,0,0,0-3.42,5.89v6.49A1.32,1.32,0,0,1,37.2,174.11Z"
               style="fill: url(#540d4128-2140-4ee8-99d8-f7eccab99c27)"
               id="path117" />
          </g>
          <g
             id="b933b5e3-a55c-4740-a9d4-6a91e100669e">
            <path
               d="M30.82,169.44a.44.44,0,0,1-.44-.44v-6.49a8.56,8.56,0,0,1,4.31-7.42l2.95-1.9a.44.44,0,1,1,.44.77l-2.95,1.9a7.68,7.68,0,0,0-3.87,6.66V169A.44.44,0,0,1,30.82,169.44Z"
               style="fill:#77abff;fill-opacity:1"
               id="path118" />
          </g>
          <g
             id="1e54d140-610c-4e5a-9997-2994c646b840">
            <path
               d="M37.2,173.23a.44.44,0,0,1-.44-.44v-6.49a8.56,8.56,0,0,1,4.31-7.42L44,157a.44.44,0,1,1,.44.77l-2.94,1.9a7.68,7.68,0,0,0-3.87,6.66v6.49A.44.44,0,0,1,37.2,173.23Z"
               style="fill:#77abff;fill-opacity:1"
               id="path119" />
          </g>
        </g>
      </g>
      <g
         style="opacity: 0.5"
         id="g171">
        <path
           id="baed0bc0-dc51-4852-bf11-94e10f4e9249"
           d="M75.64,74.9c10.59-6.08,10.59-16,0-22.11s-27.87-6.08-38.4,0-10.53,16,0,22.11S65.05,81,75.64,74.9Z"
           style="fill: #d4daed" />
        <path
           d="M37.24,56.06c10.53-6.08,27.81-6.08,38.4,0,4.58,2.63,7.17,6,7.79,9.42.82-4.53-1.78-9.23-7.79-12.69-10.59-6.08-27.87-6.08-38.4,0-6,3.45-8.56,8.15-7.75,12.69C30.11,62,32.69,58.68,37.24,56.06Z"
           style="fill: #49486b"
           id="path120" />
        <g
           style="opacity: 0.5"
           id="g170">
          <path
             id="2acef626-1e53-4931-b4fb-2cf87d763502"
             d="M75.64,74.9c10.59-6.08,10.59-16,0-22.11s-27.87-6.08-38.4,0-10.53,16,0,22.11S65,81,75.64,74.9Z"
             style="fill: #9aa7d5" />
          <path
             d="M75.63,74c10.59-6.08,10.59-16,0-22.11s-27.87-6.08-38.4,0-10.53,16,0,22.11S65,80,75.63,74Z"
             style="fill: #9aa7d5;opacity: 0.9803921561688189"
             id="path121" />
          <path
             d="M75.63,73c10.59-6.08,10.59-16,0-22.11s-27.87-6.08-38.4,0-10.53,16,0,22.11S65,79.09,75.63,73Z"
             style="fill: #9aa7d5;opacity: 0.9607843130598875"
             id="path122" />
          <path
             d="M75.62,72.07C86.21,66,86.21,56,75.62,50s-27.87-6.08-38.4,0-10.53,16,0,22.11S65,78.15,75.62,72.07Z"
             style="fill: #9aa7d5;opacity: 0.9411764699509562"
             id="path123" />
          <path
             d="M75.62,71.12c10.59-6.08,10.59-16,0-22.11s-27.87-6.08-38.4,0-10.53,16,0,22.11S65,77.2,75.62,71.12Z"
             style="fill: #9aa7d5;opacity: 0.9215686268420249"
             id="path124" />
          <path
             d="M75.61,70.17c10.59-6.08,10.59-16,0-22.11s-27.87-6.08-38.4,0-10.53,16,0,22.11S65,76.25,75.61,70.17Z"
             style="fill: #9aa7d5;opacity: 0.9019607837330935"
             id="path125" />
          <path
             d="M75.61,69.23c10.59-6.08,10.59-16,0-22.11s-27.87-6.08-38.4,0-10.53,16,0,22.11S65,75.31,75.61,69.23Z"
             style="fill: #9aa7d5;opacity: 0.8823529406241621"
             id="path126" />
          <path
             d="M75.6,68.28c10.59-6.08,10.59-16,0-22.11s-27.87-6.08-38.4,0-10.53,16,0,22.11S65,74.36,75.6,68.28Z"
             style="fill: #9aa7d5;opacity: 0.8627450975152308"
             id="path127" />
          <path
             d="M75.6,67.34c10.59-6.08,10.59-16,0-22.11s-27.87-6.08-38.4,0-10.53,16,0,22.11S65,73.42,75.6,67.34Z"
             style="fill: #9aa7d5;opacity: 0.8431372544062994"
             id="path128" />
          <path
             d="M75.59,66.39c10.59-6.08,10.59-16,0-22.11s-27.87-6.08-38.4,0-10.53,16,0,22.11S65,72.47,75.59,66.39Z"
             style="fill: #9aa7d5;opacity: 0.823529411297368"
             id="path129" />
          <path
             d="M75.59,65.45c10.59-6.08,10.59-16,0-22.11s-27.87-6.08-38.4,0-10.53,16,0,22.11S65,71.53,75.59,65.45Z"
             style="fill: #9aa7d5;opacity: 0.8039215681884366"
             id="path130" />
          <path
             d="M75.58,64.5c10.59-6.08,10.59-16,0-22.11s-27.87-6.08-38.4,0-10.53,16,0,22.11S65,70.58,75.58,64.5Z"
             style="fill: #9aa7d5;opacity: 0.7843137250795053"
             id="path131" />
          <path
             d="M75.58,63.55c10.59-6.08,10.59-16,0-22.11s-27.87-6.08-38.4,0-10.53,16,0,22.11S65,69.63,75.58,63.55Z"
             style="fill: #9aa7d5;opacity: 0.7647058819705739"
             id="path132" />
          <path
             d="M75.57,62.61c10.59-6.08,10.59-16,0-22.11s-27.87-6.08-38.4,0-10.53,16,0,22.11S65,68.69,75.57,62.61Z"
             style="fill: #9aa7d5;opacity: 0.7450980388616425"
             id="path133" />
          <path
             d="M75.57,61.66c10.59-6.08,10.59-16,0-22.11s-27.87-6.08-38.4,0-10.53,16,0,22.11S65,67.74,75.57,61.66Z"
             style="fill: #9aa7d5;opacity: 0.7254901957527111"
             id="path134" />
          <path
             d="M75.56,60.72c10.59-6.08,10.59-16,0-22.11s-27.87-6.08-38.4,0-10.53,16,0,22.11S65,66.8,75.56,60.72Z"
             style="fill: #9aa7d5;opacity: 0.7058823526437797"
             id="path135" />
          <path
             d="M75.56,59.77c10.59-6.08,10.59-16,0-22.11s-27.87-6.08-38.4,0-10.53,16,0,22.11S65,65.85,75.56,59.77Z"
             style="fill: #9aa7d5;opacity: 0.6862745095348484"
             id="path136" />
          <path
             d="M75.55,58.83c10.59-6.08,10.59-16,0-22.11s-27.87-6.08-38.4,0-10.53,16,0,22.11S65,64.91,75.55,58.83Z"
             style="fill: #9aa7d5;opacity: 0.666666666425917"
             id="path137" />
          <path
             d="M75.55,57.88c10.59-6.08,10.59-16,0-22.11s-27.87-6.08-38.4,0-10.53,16,0,22.11S65,64,75.55,57.88Z"
             style="fill: #9aa7d5;opacity: 0.6470588233169856"
             id="path138" />
          <path
             d="M75.54,56.93c10.59-6.08,10.59-16,0-22.11s-27.87-6.08-38.4,0-10.53,16,0,22.11S65,63,75.54,56.93Z"
             style="fill: #9aa7d5;opacity: 0.6274509802080542"
             id="path139" />
          <path
             d="M75.54,56c10.59-6.08,10.59-16,0-22.11s-27.87-6.08-38.4,0-10.53,16,0,22.11S64.95,62.07,75.54,56Z"
             style="fill: #9aa7d5;opacity: 0.6078431370991229"
             id="path140" />
          <path
             d="M75.53,55c10.59-6.08,10.59-16,0-22.11s-27.87-6.08-38.4,0S26.6,49,37.13,55,64.94,61.12,75.53,55Z"
             style="fill: #9aa7d5;opacity: 0.5882352939901915"
             id="path141" />
          <path
             d="M75.53,54.1c10.59-6.08,10.59-16,0-22.11s-27.87-6.08-38.4,0-10.53,16,0,22.11S64.94,60.18,75.53,54.1Z"
             style="fill: #9aa7d5;opacity: 0.5686274508812601"
             id="path142" />
          <path
             d="M75.52,53.15c10.59-6.08,10.59-16,0-22.11S47.65,25,37.12,31s-10.53,16,0,22.11S64.93,59.23,75.52,53.15Z"
             style="fill: #9aa7d5;opacity: 0.5490196077723287"
             id="path143" />
          <path
             d="M75.52,52.2c10.59-6.08,10.59-16,0-22.11s-27.87-6.08-38.4,0-10.53,16,0,22.11S64.93,58.28,75.52,52.2Z"
             style="fill: #9aa7d5;opacity: 0.5294117646633973"
             id="path144" />
          <path
             d="M75.51,51.26c10.59-6.08,10.59-16,0-22.11s-27.87-6.08-38.4,0-10.53,16,0,22.11S64.92,57.34,75.51,51.26Z"
             style="fill: #9aa7d5;opacity: 0.509803921554466"
             id="path145" />
          <path
             d="M75.51,50.31c10.59-6.08,10.59-16,0-22.11s-27.87-6.08-38.4,0-10.53,16,0,22.11S64.92,56.39,75.51,50.31Z"
             style="fill: #9aa7d5;opacity: 0.4901960784455346"
             id="path146" />
          <path
             d="M75.5,49.37c10.59-6.08,10.59-16,0-22.11s-27.87-6.08-38.4,0-10.53,16,0,22.11S64.91,55.45,75.5,49.37Z"
             style="fill: #9aa7d5;opacity: 0.4705882353366032"
             id="path147" />
          <path
             d="M75.5,48.42c10.59-6.08,10.59-16,0-22.11s-27.87-6.08-38.4,0-10.53,16,0,22.11S64.9,54.5,75.5,48.42Z"
             style="fill: #9aa7d5;opacity: 0.45098039222767183"
             id="path148" />
          <path
             d="M75.49,47.48c10.59-6.08,10.59-16,0-22.11s-27.87-6.08-38.4,0-10.53,16,0,22.11S64.9,53.56,75.49,47.48Z"
             style="fill: #9aa7d5;opacity: 0.43137254911874046"
             id="path149" />
          <path
             d="M75.49,46.53c10.59-6.08,10.59-16,0-22.11s-27.87-6.08-38.4,0-10.53,16,0,22.11S64.89,52.61,75.49,46.53Z"
             style="fill: #9aa7d5;opacity: 0.4117647060098091"
             id="path150" />
          <path
             d="M75.48,45.58c10.59-6.08,10.59-16,0-22.11s-27.87-6.08-38.4,0-10.53,16,0,22.11S64.89,51.66,75.48,45.58Z"
             style="fill: #9aa7d5;opacity: 0.3921568629008777"
             id="path151" />
          <path
             d="M75.47,44.64c10.59-6.08,10.59-16,0-22.11s-27.87-6.08-38.4,0-10.53,16,0,22.11S64.88,50.72,75.47,44.64Z"
             style="fill: #9aa7d5;opacity: 0.3725490197919463"
             id="path152" />
          <path
             d="M75.47,43.69c10.59-6.08,10.59-16,0-22.11s-27.87-6.08-38.4,0-10.53,16,0,22.11S64.88,49.77,75.47,43.69Z"
             style="fill: #9aa7d5;opacity: 0.35294117668301495"
             id="path153" />
          <path
             d="M75.46,42.75c10.59-6.08,10.59-16,0-22.11s-27.87-6.08-38.4,0-10.53,16,0,22.11S64.87,48.83,75.46,42.75Z"
             style="fill: #9aa7d5;opacity: 0.33333333357408357"
             id="path154" />
          <path
             d="M75.46,41.8c10.59-6.08,10.59-16,0-22.11s-27.87-6.08-38.4,0-10.53,16,0,22.11S64.87,47.88,75.46,41.8Z"
             style="fill: #9aa7d5;opacity: 0.3137254904651522"
             id="path155" />
          <path
             d="M75.45,40.86c10.59-6.08,10.59-16,0-22.11s-27.87-6.08-38.4,0-10.53,16,0,22.11S64.86,46.94,75.45,40.86Z"
             style="fill: #9aa7d5;opacity: 0.2941176473562208"
             id="path156" />
          <path
             d="M75.45,39.91c10.59-6.08,10.59-16,0-22.11s-27.87-6.08-38.4,0-10.53,16,0,22.11S64.86,46,75.45,39.91Z"
             style="fill: #9aa7d5;opacity: 0.27450980424728944"
             id="path157" />
          <path
             d="M75.44,39c10.59-6.08,10.59-16,0-22.11s-27.87-6.08-38.4,0S26.51,32.88,37,39,64.85,45,75.44,39Z"
             style="fill: #9aa7d5;opacity: 0.25490196113835806"
             id="path158" />
          <path
             d="M75.44,38C86,31.94,86,22,75.44,15.91s-27.87-6.08-38.4,0S26.51,31.94,37,38,64.85,44.1,75.44,38Z"
             style="fill: #9aa7d5;opacity: 0.23529411802942668"
             id="path159" />
          <path
             d="M75.43,37.07C86,31,86,21,75.43,15S47.56,8.88,37,15,26.5,31,37,37.07,64.84,43.15,75.43,37.07Z"
             style="fill: #9aa7d5;opacity: 0.2156862749204953"
             id="path160" />
          <path
             d="M75.43,36.13C86,30,86,20.1,75.43,14S47.56,7.94,37,14,26.5,30,37,36.13,64.84,42.21,75.43,36.13Z"
             style="fill: #9aa7d5;opacity: 0.19607843181156392"
             id="path161" />
          <path
             d="M75.42,35.18c10.59-6.08,10.59-16,0-22.11S47.55,7,37,13.07s-10.53,16,0,22.11S64.83,41.26,75.42,35.18Z"
             style="fill: #9aa7d5;opacity: 0.17647058870263255"
             id="path162" />
          <path
             d="M75.42,34.24c10.59-6.08,10.59-16,0-22.11S47.55,6,37,12.13s-10.53,16,0,22.11S64.83,40.32,75.42,34.24Z"
             style="fill: #9aa7d5;opacity: 0.15686274559370117"
             id="path163" />
          <path
             d="M75.41,33.29c10.59-6.08,10.59-16,0-22.11S47.54,5.1,37,11.18s-10.53,16,0,22.11S64.82,39.37,75.41,33.29Z"
             style="fill: #9aa7d5;opacity: 0.1372549024847698"
             id="path164" />
          <path
             d="M75.41,32.34c10.59-6.08,10.59-16,0-22.11s-27.87-6.08-38.4,0-10.53,16,0,22.11S64.82,38.42,75.41,32.34Z"
             style="fill: #9aa7d5;opacity: 0.11764705937583841"
             id="path165" />
          <path
             d="M75.4,31.4C86,25.32,86,15.37,75.4,9.29S47.53,3.21,37,9.29s-10.53,16,0,22.11S64.81,37.48,75.4,31.4Z"
             style="fill: #9aa7d5;opacity: 0.09803921626690704"
             id="path166" />
          <path
             d="M75.4,30.45C86,24.37,86,14.42,75.4,8.34S47.53,2.26,37,8.34s-10.53,16,0,22.11S64.81,36.53,75.4,30.45Z"
             style="fill: #9aa7d5;opacity: 0.07843137315797566"
             id="path167" />
          <path
             d="M75.39,29.51C86,23.43,86,13.48,75.39,7.4S47.52,1.32,37,7.4s-10.53,16,0,22.11S64.8,35.59,75.39,29.51Z"
             style="fill: #9aa7d5;opacity: 0.05882353004904428"
             id="path168" />
          <path
             d="M75.39,28.56c10.59-6.08,10.59-16,0-22.11S47.52.37,37,6.45s-10.53,16,0,22.11S64.8,34.64,75.39,28.56Z"
             style="fill: #9aa7d5;opacity: 0.039215686940112904"
             id="path169" />
          <path
             d="M75.38,27.61c10.59-6.08,10.59-16,0-22.11S47.51-.57,37,5.51s-10.53,16,0,22.11S64.79,33.69,75.38,27.61Z"
             style="fill: #9aa7d5;opacity: 0.019607843831181526"
             id="path170" />
          <path
             id="132919bd-76c0-441e-b2ac-02cc64d2b926"
             d="M75.38,26.67c10.59-6.08,10.59-16,0-22.11S47.51-1.52,37,4.56s-10.53,16,0,22.11S64.79,32.75,75.38,26.67Z"
             style="fill: #9aa7d5;opacity: 0" />
        </g>
      </g>
      <g
         id="g172">
        <path
           d="M73.53,31.92c0-.43-.61-.78-1.35-.78H69.29c-.48,0-1.27.5-1.39.35s-.13-.54.21-.74l2-1.18c.53-.3-2.83-.16-3.36-.47v0h1.32l2-1.18a.69.69,0,0,0,.39-.5h0V25.3h-3l-.68-.39a2.12,2.12,0,0,0-1.91,0l-.68.39H60V23.75c0-.43-.61-.78-1.35-.78H54c-.75,0-1.35.35-1.35.78V25.3H48.35l-.65-.37a2.12,2.12,0,0,0-1.91,0l-.64.37H42.08v2.08a.65.65,0,0,0,.4.57l2.06,1.18h1l0,.23c-.53.3-3.6-.05-3.07.25l2.06,1.18c.32.19.42.47.24.71s-.93-.33-1.39-.33H40.47c-.75,0-1.35.35-1.35.78v4c0,.43.61.78,1.36.78h1.69l0,3.26a.46.46,0,0,0,0,.17h0a.71.71,0,0,0,.38.47l3.33,1.91a2,2,0,0,0,1.19.2h0a1.83,1.83,0,0,0,.7-.2l2.05-1.19a1.76,1.76,0,0,1,1.23-.14l.88.21c.43.1.71.33.71.6v1.68c0,.43.61.78,1.35.78h4.7c.75,0,1.35-.35,1.35-.78V42c0-.27.31-.51.75-.61l.8-.19a1.81,1.81,0,0,1,1.28.12l2,1.17a1.83,1.83,0,0,0,.7.2v0l0,0a2,2,0,0,0,1.18-.2l3.32-1.92a.73.73,0,0,0,.38-.45h0V40s0,0,0,0l0-3.34h1.66c.75,0,1.35-.35,1.35-.78Zm-10.64,3.3c-.78,2.39-5.09,3.74-9,2.89-2.94-.65-4.73-2.48-4.15-4.27.78-2.39,5.09-3.74,9-2.89C61.68,31.6,63.47,33.43,62.89,35.22Z"
           style="fill: url(#04e9f09e-8793-4832-be8a-9a5acbd19766)"
           id="path171" />
        <g
           id="76318721-7a8a-4d38-bf6a-5f5a9a59ac82">
          <path
             id="16aa5ec8-c17b-426f-9b11-d1028b0be3c5"
             d="M68.49,32.92h3.69c.75,0,1.35-.35,1.35-.78V29.43c0-.43-.61-.78-1.35-.78H69.29a1.27,1.27,0,0,1-1.06-.43q-.15-.23-.33-.46c-.2-.25-.13-.54.21-.74l2-1.18a.58.58,0,0,0,0-1.1l-3.33-1.91a2.12,2.12,0,0,0-1.91,0L62.86,24a1.76,1.76,0,0,1-1.23.14l-.88-.21c-.43-.1-.71-.33-.71-.6V21.67c0-.43-.61-.78-1.35-.78H54c-.75,0-1.35.35-1.35.78v1.66c0,.27-.31.51-.76.61l-.84.2A1.81,1.81,0,0,1,49.75,24l-2-1.17a2.12,2.12,0,0,0-1.91,0l-3.32,1.92a.58.58,0,0,0,0,1.1l2.06,1.18c.32.19.42.47.24.71l-.36.51a1.28,1.28,0,0,1-1,.41H40.47c-.75,0-1.35.35-1.35.78v2.71c0,.43.61.78,1.36.78h2.89a1.28,1.28,0,0,1,1.06.43q.15.23.33.46c.2.25.13.54-.21.74l-2,1.18a.58.58,0,0,0,0,1.1l3.33,1.91a2.12,2.12,0,0,0,1.91,0l2.05-1.19a1.76,1.76,0,0,1,1.23-.14l.88.21c.43.1.71.33.71.6v1.68c0,.43.61.78,1.35.78h4.7c.75,0,1.35-.35,1.35-.78V38.25c0-.27.31-.51.75-.61l.8-.19a1.81,1.81,0,0,1,1.28.12l2,1.17a2.12,2.12,0,0,0,1.91,0l3.32-1.92a.58.58,0,0,0,0-1.1l-2.06-1.18c-.32-.19-.42-.47-.24-.71C68.17,33.43,68.48,32.94,68.49,32.92ZM49.77,30.1c.78-2.39,5.09-3.74,9-2.89,2.94.65,4.73,2.48,4.15,4.27-.78,2.39-5.09,3.74-9,2.89C51,33.71,49.19,31.88,49.77,30.1Z"
             style="fill:#f23665;fill-opacity:1" />
        </g>
      </g>
      <g
         id="132e171a-f424-43a9-9e2e-c26bb61693d1">
        <g
           id="f81a7966-475b-4165-a06f-8a18179cfac8">
          <polygon
             id="fbe21728-0b0f-4e08-a93b-bd783a547144"
             points="115.76 156.67 89.19 141.33 63.27 156.67 89.19 172.01 115.76 156.67"
             style="fill: #dce1f0" />
          <polygon
             id="9d7e2869-e1b2-47c6-a188-8ae253ef5988"
             points="115.76 156.67 115.76 182.17 89.19 196.68 89.19 172.01 115.76 156.67"
             style="fill: #d4daed" />
          <polygon
             id="b2d0ee0f-ddc5-417c-a45a-5a86d813fc23"
             points="63.27 156.67 63.27 181.34 89.19 196.68 89.19 172.01 63.27 156.67"
             style="fill: #d8deee" />
          <polygon
             id="666143cf-a3d2-433e-a9c0-7e2c463eb49b"
             points="81.69 170.6 81.69 172.38 86.62 175.25 86.62 173.48 81.69 170.6"
             style="fill: #9aa7d5" />
          <polygon
             id="1f9caf1d-280f-4f11-8fb0-f3cad5fb70e0"
             points="75.25 166.87 75.25 168.64 80.18 171.52 80.18 169.75 75.25 166.87"
             style="fill:#77abff;fill-opacity:1" />
        </g>
      </g>
      <g
         id="g212">
        <g
           style="mix-blend-mode: multiply"
           id="g211">
          <path
             id="24893baf-2e93-4bf0-b6a6-9b081313c4de"
             d="M95.93,152.79l8.45,4.83a.27.27,0,0,1,0,.48l-13.16,7.6a1.09,1.09,0,0,1-1.09,0l-8.45-4.83a.27.27,0,0,1,0-.48l13.16-7.6A1.09,1.09,0,0,1,95.93,152.79Z"
             style="fill: #fff;opacity: 0" />
          <path
             d="M95.91,152.8l8.42,4.81a.27.27,0,0,1,0,.47l-13.11,7.57a1.09,1.09,0,0,1-1.08,0l-8.42-4.81a.27.27,0,0,1,0-.47l13.11-7.57A1.09,1.09,0,0,1,95.91,152.8Z"
             style="fill: #fbfbfb;opacity: 0.024390000000000002"
             id="path172" />
          <path
             d="M95.89,152.82l8.38,4.79a.27.27,0,0,1,0,.47l-13.05,7.54a1.08,1.08,0,0,1-1.08,0l-8.38-4.79a.27.27,0,0,1,0-.47l13.05-7.54A1.08,1.08,0,0,1,95.89,152.82Z"
             style="fill: #f6f6f8;opacity: 0.048780000000000004"
             id="path173" />
          <path
             d="M95.87,152.84l8.35,4.77a.27.27,0,0,1,0,.47l-13,7.51a1.08,1.08,0,0,1-1.07,0l-8.35-4.77a.27.27,0,0,1,0-.47l13-7.51A1.08,1.08,0,0,1,95.87,152.84Z"
             style="fill: #f2f2f4;opacity: 0.073171"
             id="path174" />
          <path
             d="M95.85,152.86l8.32,4.75a.27.27,0,0,1,0,.47l-12.95,7.48a1.07,1.07,0,0,1-1.07,0l-8.32-4.75a.27.27,0,0,1,0-.47l12.95-7.47A1.07,1.07,0,0,1,95.85,152.86Z"
             style="fill: #ededf0;opacity: 0.097561"
             id="path175" />
          <path
             d="M95.83,152.88l8.28,4.73a.27.27,0,0,1,0,.47l-12.89,7.44a1.07,1.07,0,0,1-1.06,0l-8.28-4.73a.27.27,0,0,1,0-.47l12.89-7.44A1.07,1.07,0,0,1,95.83,152.88Z"
             style="fill: #e9e9ed;opacity: 0.12195099999999999"
             id="path176" />
          <path
             d="M95.82,152.9l8.25,4.71a.27.27,0,0,1,0,.46l-12.84,7.41a1.06,1.06,0,0,1-1.06,0l-8.25-4.71a.27.27,0,0,1,0-.46l12.84-7.41A1.06,1.06,0,0,1,95.82,152.9Z"
             style="fill: #e4e4e9;opacity: 0.146341"
             id="path177" />
          <path
             d="M95.8,152.91l8.21,4.7a.27.27,0,0,1,0,.46l-12.79,7.38a1.06,1.06,0,0,1-1.06,0L82,160.76a.27.27,0,0,1,0-.46l12.79-7.38A1.06,1.06,0,0,1,95.8,152.91Z"
             style="fill: #e0e0e6;opacity: 0.170732"
             id="path178" />
          <path
             d="M95.78,152.93l8.18,4.68a.27.27,0,0,1,0,.46l-12.74,7.35a1.06,1.06,0,0,1-1.05,0L82,160.75a.27.27,0,0,1,0-.46l12.74-7.35A1.06,1.06,0,0,1,95.78,152.93Z"
             style="fill: #dbdbe2;opacity: 0.195122"
             id="path179" />
          <path
             d="M95.76,153l8.15,4.66a.26.26,0,0,1,0,.46l-12.68,7.32a1.05,1.05,0,0,1-1,0L82,160.73a.26.26,0,0,1,0-.46L94.71,153A1.05,1.05,0,0,1,95.76,153Z"
             style="fill: #d7d7de;opacity: 0.21951199999999998"
             id="path180" />
          <path
             d="M95.74,153l8.11,4.64a.26.26,0,0,1,0,.46l-12.63,7.29a1,1,0,0,1-1,0l-8.11-4.64a.26.26,0,0,1,0-.46L94.7,153A1,1,0,0,1,95.74,153Z"
             style="fill: #d2d2db;opacity: 0.24390199999999998"
             id="path181" />
          <path
             d="M95.72,153l8.08,4.62a.26.26,0,0,1,0,.45l-12.58,7.26a1,1,0,0,1-1,0l-8.08-4.62a.26.26,0,0,1,0-.45L94.68,153A1,1,0,0,1,95.72,153Z"
             style="fill: #ceced7;opacity: 0.268293"
             id="path182" />
          <path
             d="M95.7,153l8,4.6a.26.26,0,0,1,0,.45l-12.52,7.23a1,1,0,0,1-1,0l-8-4.6a.26.26,0,0,1,0-.45L94.67,153A1,1,0,0,1,95.7,153Z"
             style="fill: #c9c9d3;opacity: 0.29268299999999997"
             id="path183" />
          <path
             d="M95.68,153l8,4.58a.26.26,0,0,1,0,.45l-12.47,7.2a1,1,0,0,1-1,0l-8-4.58a.26.26,0,0,1,0-.45L94.65,153A1,1,0,0,1,95.68,153Z"
             style="fill: #c5c5d0;opacity: 0.317073"
             id="path184" />
          <path
             d="M95.66,153l8,4.56a.26.26,0,0,1,0,.45l-12.42,7.17a1,1,0,0,1-1,0l-8-4.56a.26.26,0,0,1,0-.45L94.64,153A1,1,0,0,1,95.66,153Z"
             style="fill: #c1c1cc;opacity: 0.34146299999999996"
             id="path185" />
          <path
             d="M95.64,153.06l7.94,4.54a.26.26,0,0,1,0,.45l-12.36,7.14a1,1,0,0,1-1,0l-7.94-4.54a.26.26,0,0,1,0-.45l12.36-7.14A1,1,0,0,1,95.64,153.06Z"
             style="fill: #bcbcc8;opacity: 0.36585399999999996"
             id="path186" />
          <path
             d="M95.62,153.08l7.91,4.52a.26.26,0,0,1,0,.45l-12.31,7.11a1,1,0,0,1-1,0l-7.91-4.52a.26.26,0,0,1,0-.44l12.31-7.11A1,1,0,0,1,95.62,153.08Z"
             style="fill: #b8b8c5;opacity: 0.390244"
             id="path187" />
          <path
             d="M95.6,153.1l7.87,4.5a.26.26,0,0,1,0,.44l-12.26,7.08a1,1,0,0,1-1,0l-7.87-4.5a.26.26,0,0,1,0-.44l12.26-7.08A1,1,0,0,1,95.6,153.1Z"
             style="fill: #b3b3c1;opacity: 0.414634"
             id="path188" />
          <path
             d="M95.58,153.12l7.84,4.48a.25.25,0,0,1,0,.44l-12.21,7a1,1,0,0,1-1,0l-7.84-4.48a.25.25,0,0,1,0-.44l12.21-7A1,1,0,0,1,95.58,153.12Z"
             style="fill: #afafbe;opacity: 0.43902399999999997"
             id="path189" />
          <path
             d="M95.56,153.13l7.81,4.46a.25.25,0,0,1,0,.44l-12.15,7a1,1,0,0,1-1,0l-7.81-4.46a.25.25,0,0,1,0-.44l12.15-7A1,1,0,0,1,95.56,153.13Z"
             style="fill: #aaaaba;opacity: 0.46341499999999997"
             id="path190" />
          <path
             d="M95.55,153.15l7.77,4.44a.25.25,0,0,1,0,.44l-12.1,7a1,1,0,0,1-1,0l-7.77-4.44a.25.25,0,0,1,0-.44l12.1-7A1,1,0,0,1,95.55,153.15Z"
             style="fill: #a6a6b6;opacity: 0.487805"
             id="path191" />
          <path
             d="M95.53,153.17l7.74,4.42a.25.25,0,0,1,0,.44l-12,7a1,1,0,0,1-1,0l-7.74-4.42a.25.25,0,0,1,0-.44l12-7A1,1,0,0,1,95.53,153.17Z"
             style="fill: #a1a1b3;opacity: 0.512195"
             id="path192" />
          <path
             d="M95.51,153.19l7.7,4.4a.25.25,0,0,1,0,.43l-12,6.92a1,1,0,0,1-1,0l-7.7-4.4a.25.25,0,0,1,0-.43l12-6.92A1,1,0,0,1,95.51,153.19Z"
             style="fill: #9d9daf;opacity: 0.536585"
             id="path193" />
          <path
             d="M95.49,153.21l7.67,4.38a.25.25,0,0,1,0,.43l-11.94,6.89a1,1,0,0,1-1,0l-7.67-4.38a.25.25,0,0,1,0-.43l11.94-6.89A1,1,0,0,1,95.49,153.21Z"
             style="fill: #9898ab;opacity: 0.5609759999999999"
             id="path194" />
          <path
             d="M95.47,153.23l7.64,4.36a.25.25,0,0,1,0,.43l-11.89,6.86a1,1,0,0,1-1,0l-7.64-4.36a.25.25,0,0,1,0-.43l11.89-6.86A1,1,0,0,1,95.47,153.23Z"
             style="fill: #9494a8;opacity: 0.5853659999999999"
             id="path195" />
          <path
             d="M95.45,153.24l7.6,4.35a.25.25,0,0,1,0,.43l-11.84,6.83a1,1,0,0,1-1,0l-7.6-4.35a.25.25,0,0,1,0-.43l11.84-6.83A1,1,0,0,1,95.45,153.24Z"
             style="fill: #8f8fa4;opacity: 0.609756"
             id="path196" />
          <path
             d="M95.43,153.26l7.57,4.33a.25.25,0,0,1,0,.43l-11.78,6.8a1,1,0,0,1-1,0l-7.57-4.33a.25.25,0,0,1,0-.43l11.78-6.8A1,1,0,0,1,95.43,153.26Z"
             style="fill: #8b8ba1;opacity: 0.634146"
             id="path197" />
          <path
             d="M95.41,153.28l7.53,4.31a.24.24,0,0,1,0,.42l-11.73,6.77a1,1,0,0,1-1,0l-7.53-4.31a.24.24,0,0,1,0-.42l11.73-6.77A1,1,0,0,1,95.41,153.28Z"
             style="fill: #86869d;opacity: 0.6585369999999999"
             id="path198" />
          <path
             d="M95.39,153.3l7.5,4.29a.24.24,0,0,1,0,.42l-11.68,6.74a1,1,0,0,1-1,0l-7.5-4.29a.24.24,0,0,1,0-.42l11.68-6.74A1,1,0,0,1,95.39,153.3Z"
             style="fill: #828299;opacity: 0.682927"
             id="path199" />
          <path
             d="M95.37,153.32l7.47,4.27a.24.24,0,0,1,0,.42l-11.62,6.71a1,1,0,0,1-1,0l-7.47-4.27a.24.24,0,0,1,0-.42l11.62-6.71A1,1,0,0,1,95.37,153.32Z"
             style="fill: #7e7e96;opacity: 0.707317"
             id="path200" />
          <path
             d="M95.35,153.34l7.43,4.25a.24.24,0,0,1,0,.42l-11.57,6.68a1,1,0,0,1-1,0l-7.43-4.25a.24.24,0,0,1,0-.42l11.57-6.68A1,1,0,0,1,95.35,153.34Z"
             style="fill: #797992;opacity: 0.731707"
             id="path201" />
          <path
             d="M95.33,153.35l7.4,4.23a.24.24,0,0,1,0,.42l-11.52,6.65a1,1,0,0,1-1,0l-7.4-4.23a.24.24,0,0,1,0-.42l11.52-6.65A1,1,0,0,1,95.33,153.35Z"
             style="fill: #75758e;opacity: 0.7560979999999999"
             id="path202" />
          <path
             d="M95.31,153.37l7.36,4.21a.24.24,0,0,1,0,.41l-11.46,6.62a1,1,0,0,1-.95,0l-7.36-4.21a.24.24,0,0,1,0-.41l11.46-6.62A1,1,0,0,1,95.31,153.37Z"
             style="fill: #70708b;opacity: 0.780488"
             id="path203" />
          <path
             d="M95.29,153.39l7.33,4.19a.24.24,0,0,1,0,.41l-11.41,6.59a1,1,0,0,1-.94,0l-7.33-4.19a.24.24,0,0,1,0-.41l11.41-6.59A1,1,0,0,1,95.29,153.39Z"
             style="fill: #6c6c87;opacity: 0.804878"
             id="path204" />
          <path
             d="M95.28,153.41l7.3,4.17a.24.24,0,0,1,0,.41l-11.36,6.56a.94.94,0,0,1-.94,0L83,160.38a.24.24,0,0,1,0-.41l11.36-6.56A.94.94,0,0,1,95.28,153.41Z"
             style="fill: #676783;opacity: 0.829268"
             id="path205" />
          <path
             d="M95.26,153.43l7.26,4.15a.24.24,0,0,1,0,.41l-11.31,6.53a.94.94,0,0,1-.93,0L83,160.37a.24.24,0,0,1,0-.41l11.31-6.53A.94.94,0,0,1,95.26,153.43Z"
             style="fill: #636380;opacity: 0.853659"
             id="path206" />
          <path
             d="M95.24,153.45l7.23,4.13a.23.23,0,0,1,0,.41l-11.25,6.5a.93.93,0,0,1-.93,0l-7.23-4.13a.23.23,0,0,1,0-.41l11.25-6.5A.93.93,0,0,1,95.24,153.45Z"
             style="fill: #5e5e7c;opacity: 0.878049"
             id="path207" />
          <path
             d="M95.22,153.46l7.19,4.11a.23.23,0,0,1,0,.4l-11.2,6.47a.93.93,0,0,1-.92,0l-7.19-4.11a.23.23,0,0,1,0-.4l11.2-6.47A.93.93,0,0,1,95.22,153.46Z"
             style="fill: #5a5a79;opacity: 0.902439"
             id="path208" />
          <path
             d="M95.2,153.48l7.16,4.09a.23.23,0,0,1,0,.4l-11.15,6.44a.92.92,0,0,1-.92,0l-7.16-4.09a.23.23,0,0,1,0-.4l11.15-6.44A.92.92,0,0,1,95.2,153.48Z"
             style="fill: #555575;opacity: 0.9268289999999999"
             id="path209" />
          <path
             d="M95.18,153.5l7.13,4.07a.23.23,0,0,1,0,.4l-11.09,6.41a.92.92,0,0,1-.92,0l-7.13-4.07a.23.23,0,0,1,0-.4l11.09-6.41A.92.92,0,0,1,95.18,153.5Z"
             style="fill: #515171;opacity: 0.9512200000000001"
             id="path210" />
          <path
             d="M95.16,153.52l7.09,4.05a.23.23,0,0,1,0,.4l-11,6.37a.92.92,0,0,1-.91,0l-7.09-4.05a.23.23,0,0,1,0-.4l11-6.37A.91.91,0,0,1,95.16,153.52Z"
             style="fill: #4c4c6e;opacity: 0.9756100000000001"
             id="path211" />
          <path
             id="cb5b99f3-13d1-49b5-a962-8c55f9407c4f"
             d="M95.14,153.54l7.06,4a.23.23,0,0,1,0,.4l-11,6.34a.91.91,0,0,1-.91,0l-7.06-4a.23.23,0,0,1,0-.4l11-6.34A.91.91,0,0,1,95.14,153.54Z"
             style="fill: #48486a" />
        </g>
        <path
           id="47ec18bd-301b-497a-84a3-3507e2f4dec3"
           d="M82.29,149.56l12.39-7.15a.25.25,0,0,1,.38.22V152a.55.55,0,0,1-.27.47l-12.39,7.15a.25.25,0,0,1-.38-.22V150A.55.55,0,0,1,82.29,149.56Z"
           style="fill: url(#bb1d4239-0504-4bd3-ba48-2095f92c2312)" />
        <path
           id="2d1376b0-bdda-4e67-9bfb-11cf4644ebe5"
           d="M82.45,149.66l12.39-7.15a.25.25,0,0,1,.38.22v9.33a.55.55,0,0,1-.27.47l-12.39,7.15a.25.25,0,0,1-.38-.22v-9.33A.55.55,0,0,1,82.45,149.66Z"
           style="fill: #48486a" />
        <polygon
           id="fa8102e4-e99c-48fe-b97a-cc683318ad00"
           points="82.91 150.25 94.56 143.49 94.56 152.02 82.91 158.79 82.91 150.25"
           style="fill: #d6dcef" />
        <path
           id="a34f4044-82be-449e-94d2-851c7e1b680e"
           d="M95.71,153l7.93,4.18s0,.62-.13.72l-12.15,7a1,1,0,0,1-1,0l-7.81-4.46c-.32-.2-.13-.72-.13-.72L94.71,153A1,1,0,0,1,95.71,153Z"
           style="fill: url(#e736ea2c-9c1b-4a00-9e32-5d5d3988b326)" />
        <path
           id="bd8da152-fbfb-4272-8b71-fb8d4fcb1afa"
           d="M95.71,152.51l7.81,4.46a.25.25,0,0,1,0,.44l-12.15,7a1,1,0,0,1-1,0L82.56,160a.25.25,0,0,1,0-.44l12.15-7A1,1,0,0,1,95.71,152.51Z"
           style="fill: #f7f7f7" />
        <path
           id="54adcfbc-1114-4906-895b-537fe989e100"
           d="M96.4,158.28l2.06,1.18a.07.07,0,0,1,0,.12l-3.2,1.85a.27.27,0,0,1-.26,0l-2.06-1.18a.07.07,0,0,1,0-.12l3.2-1.85A.27.27,0,0,1,96.4,158.28Z"
           style="fill: #e5e9f4" />
        <path
           id="cbd21c6b-bd75-4872-a06d-51289f2389a2"
           d="M94.85,153.19l-.67.39a0,0,0,0,0,0,.07l.33.19a.09.09,0,0,0,.09,0l.67-.39a0,0,0,0,0,0-.07l-.33-.19A.09.09,0,0,0,94.85,153.19Z"
           style="fill: #d3daed" />
        <path
           id="f6a1438f-2125-475b-be2f-6af560db2e21"
           d="M93.86,153.77l-.67.39a0,0,0,0,0,0,.07l.33.19a.09.09,0,0,0,.09,0l.67-.39a0,0,0,0,0,0-.07l-.33-.19A.09.09,0,0,0,93.86,153.77Z"
           style="fill: #d3daed" />
        <path
           id="dcfe8193-f01c-4207-8a80-cf0b89812d7b"
           d="M92.87,154.33l-.67.39a0,0,0,0,0,0,.07l.33.19a.09.09,0,0,0,.09,0l.67-.39a0,0,0,0,0,0-.07l-.33-.19A.09.09,0,0,0,92.87,154.33Z"
           style="fill: #d3daed" />
        <path
           id="1c5b401b-18cb-4662-a7b8-df2af0009cf4"
           d="M91.86,154.9l-.67.39a0,0,0,0,0,0,.07l.33.19a.09.09,0,0,0,.09,0l.67-.39a0,0,0,0,0,0-.07l-.33-.19A.09.09,0,0,0,91.86,154.9Z"
           style="fill: #d3daed" />
        <path
           id="b1c8168e-d0fe-44eb-af59-7205e7d44921"
           d="M90.88,155.45l-.67.39a0,0,0,0,0,0,.07l.33.19a.09.09,0,0,0,.09,0l.67-.39a0,0,0,0,0,0-.07l-.33-.19A.09.09,0,0,0,90.88,155.45Z"
           style="fill: #d3daed" />
        <path
           id="1ae66fe1-7a27-4a91-8b63-b25044e1545a"
           d="M89.93,156l-.67.39a0,0,0,0,0,0,.07l.33.19a.09.09,0,0,0,.09,0l.67-.39a0,0,0,0,0,0-.07L90,156A.09.09,0,0,0,89.93,156Z"
           style="fill: #d3daed" />
        <path
           id="e3b82644-703f-4b58-a1e4-8844f34ac267"
           d="M88.93,156.59l-.67.39a0,0,0,0,0,0,.07l.33.19a.09.09,0,0,0,.09,0l.67-.39a0,0,0,0,0,0-.07l-.33-.19A.09.09,0,0,0,88.93,156.59Z"
           style="fill: #d3daed" />
        <path
           id="58a97193-b8a7-4dd3-8ddf-0f9380c8e429"
           d="M87.95,157.17l-.67.39a0,0,0,0,0,0,.07l.33.19a.09.09,0,0,0,.09,0l.67-.39a0,0,0,0,0,0-.07l-.33-.19A.09.09,0,0,0,87.95,157.17Z"
           style="fill: #d3daed" />
        <path
           id="9ecb7105-fbf4-42a6-9695-9bcf88980130"
           d="M87,157.74l-.67.39a0,0,0,0,0,0,.07l.33.19a.09.09,0,0,0,.09,0l.67-.39a0,0,0,0,0,0-.07l-.33-.19A.09.09,0,0,0,87,157.74Z"
           style="fill: #d3daed" />
        <path
           id="4911aaf9-e99b-4e64-8cc1-ab73308fafb5"
           d="M86,158.33l-.67.39a0,0,0,0,0,0,.07l.33.19a.09.09,0,0,0,.09,0l.67-.39a0,0,0,0,0,0-.07l-.33-.19A.09.09,0,0,0,86,158.33Z"
           style="fill: #d3daed" />
        <path
           id="ed8bf85b-67b7-4d34-9fa6-b2209ec1e6cb"
           d="M85,158.88l-.67.39a0,0,0,0,0,0,.07l.33.19a.09.09,0,0,0,.09,0l.67-.39a0,0,0,0,0,0-.07l-.33-.19A.09.09,0,0,0,85,158.88Z"
           style="fill: #d3daed" />
        <g
           id="806d5a6f-df1c-44ab-92be-d2f88fb4963b">
          <path
             id="e475dd19-f8c3-4420-9d03-897f39ac6e53"
             d="M96.22,153.92l-.46-.27a.19.19,0,0,0-.19,0l-.44.26a.09.09,0,0,0,0,.16l.44.27a.19.19,0,0,0,.19,0l.46-.26A.09.09,0,0,0,96.22,153.92Z"
             style="fill: #d3daed" />
          <path
             id="ba916b2b-4592-455b-8ba5-db6df1616983"
             d="M95.2,154.51l-.46-.27a.19.19,0,0,0-.19,0l-.45.26a.09.09,0,0,0,0,.16l.44.27a.19.19,0,0,0,.19,0l.46-.26A.09.09,0,0,0,95.2,154.51Z"
             style="fill: #d3daed" />
          <path
             id="5ef9c9ae-8687-4344-b9ce-f5032d9c08a3"
             d="M94.21,155.06l-.46-.27a.19.19,0,0,0-.19,0l-.44.26a.09.09,0,0,0,0,.16l.44.27a.19.19,0,0,0,.19,0l.46-.26A.09.09,0,0,0,94.21,155.06Z"
             style="fill: #d3daed" />
          <path
             id="091fd066-355f-4701-ae4e-3bfccc8bed85"
             d="M93.15,155.64l-.46-.27a.19.19,0,0,0-.19,0l-.44.26a.09.09,0,0,0,0,.16l.44.27a.19.19,0,0,0,.19,0l.46-.26A.09.09,0,0,0,93.15,155.64Z"
             style="fill: #d3daed" />
          <path
             id="c5457b17-8a58-4fa7-ba89-d459eb5b4a8d"
             d="M92.22,156.18l-.46-.27a.19.19,0,0,0-.19,0l-.44.26a.09.09,0,0,0,0,.16l.44.27a.19.19,0,0,0,.19,0l.46-.26A.09.09,0,0,0,92.22,156.18Z"
             style="fill: #d3daed" />
          <path
             id="57e801e6-9edf-4ea3-9883-eee5161f0471"
             d="M91.28,156.76l-.46-.27a.19.19,0,0,0-.19,0l-.45.26a.09.09,0,0,0,0,.16l.44.27a.19.19,0,0,0,.19,0l.46-.26A.09.09,0,0,0,91.28,156.76Z"
             style="fill: #d3daed" />
          <path
             id="bddfcc8a-6e3e-454a-92ea-5ab1ff32407b"
             d="M90.27,157.32l-.46-.27a.19.19,0,0,0-.19,0l-.45.26a.09.09,0,0,0,0,.16l.44.27a.19.19,0,0,0,.19,0l.46-.26A.09.09,0,0,0,90.27,157.32Z"
             style="fill: #d3daed" />
          <path
             id="74a3a054-b49d-45b4-9838-b9d08ab9c5f6"
             d="M89.29,157.88l-.46-.27a.19.19,0,0,0-.19,0l-.45.26a.09.09,0,0,0,0,.16l.44.27a.19.19,0,0,0,.19,0l.46-.26A.09.09,0,0,0,89.29,157.88Z"
             style="fill: #d3daed" />
          <path
             id="144580f8-0a3a-41ed-92b2-55f4354bd1a1"
             d="M88.32,158.47l-.46-.27a.19.19,0,0,0-.19,0l-.44.26a.09.09,0,0,0,0,.16l.44.27a.19.19,0,0,0,.19,0l.46-.26A.09.09,0,0,0,88.32,158.47Z"
             style="fill: #d3daed" />
          <path
             id="941fa07c-6402-4623-847a-99ff8109176e"
             d="M87.26,159.09l-.46-.27a.19.19,0,0,0-.19,0l-.44.26a.09.09,0,0,0,0,.16l.44.27a.19.19,0,0,0,.19,0l.46-.26A.09.09,0,0,0,87.26,159.09Z"
             style="fill: #d3daed" />
          <path
             id="9cbbfcde-ee31-4f59-b9fe-9a53db4bd8fc"
             d="M86.31,159.61l-.46-.27a.19.19,0,0,0-.19,0l-.45.26a.09.09,0,0,0,0,.16l.44.27a.19.19,0,0,0,.19,0l.46-.26A.09.09,0,0,0,86.31,159.61Z"
             style="fill: #d3daed" />
        </g>
        <g
           id="96a40ee8-bc5c-4644-bde8-6cffd5e9fc85">
          <path
             id="11102691-5a5a-4e61-943a-d40358bb1c1b"
             d="M97.23,154.47l-.46-.27a.19.19,0,0,0-.19,0l-.44.26a.09.09,0,0,0,0,.16l.44.27a.19.19,0,0,0,.19,0l.46-.26A.09.09,0,0,0,97.23,154.47Z"
             style="fill: #d3daed" />
          <path
             id="05379cfe-627c-408a-b36b-e8322d92a9c7"
             d="M96.21,155.06l-.46-.27a.19.19,0,0,0-.19,0l-.44.26a.09.09,0,0,0,0,.16l.44.27a.19.19,0,0,0,.19,0l.46-.26A.09.09,0,0,0,96.21,155.06Z"
             style="fill: #d3daed" />
          <path
             id="6cef1330-5358-4f78-8361-ca7e17efbc78"
             d="M95.22,155.61l-.46-.27a.19.19,0,0,0-.19,0l-.44.26a.09.09,0,0,0,0,.16l.44.27a.19.19,0,0,0,.19,0l.46-.26A.09.09,0,0,0,95.22,155.61Z"
             style="fill: #d3daed" />
          <path
             id="7a8dba08-eebf-4ee6-b007-f3b8f173f93d"
             d="M94.17,156.19l-.46-.27a.19.19,0,0,0-.19,0l-.45.26a.09.09,0,0,0,0,.16l.44.27a.19.19,0,0,0,.19,0l.46-.26A.09.09,0,0,0,94.17,156.19Z"
             style="fill: #d3daed" />
          <path
             id="1c56851f-52e5-4db2-a067-2606554aa74a"
             d="M93.24,156.73l-.46-.27a.19.19,0,0,0-.19,0l-.44.26a.09.09,0,0,0,0,.16l.44.27a.19.19,0,0,0,.19,0l.46-.26A.09.09,0,0,0,93.24,156.73Z"
             style="fill: #d3daed" />
          <path
             id="42645078-8ebf-4a24-af7b-bcb7dc8e9c4c"
             d="M92.3,157.32l-.46-.27a.19.19,0,0,0-.19,0l-.44.26a.09.09,0,0,0,0,.16l.44.27a.19.19,0,0,0,.19,0l.46-.26A.09.09,0,0,0,92.3,157.32Z"
             style="fill: #d3daed" />
          <path
             id="1b928d2f-5f93-4d46-9296-d31526de8f10"
             d="M91.29,157.87l-.46-.27a.19.19,0,0,0-.19,0l-.44.26a.09.09,0,0,0,0,.16l.44.27a.19.19,0,0,0,.19,0l.46-.26A.09.09,0,0,0,91.29,157.87Z"
             style="fill: #d3daed" />
          <path
             id="d21c5212-874b-47f0-837e-6e7ba6ef40e1"
             d="M90.3,158.43l-.46-.27a.19.19,0,0,0-.19,0l-.44.26a.09.09,0,0,0,0,.16l.44.27a.19.19,0,0,0,.19,0l.46-.26A.09.09,0,0,0,90.3,158.43Z"
             style="fill: #d3daed" />
          <path
             id="409622b2-d12d-4b8e-bf1d-4b2881f4544b"
             d="M89.33,159l-.46-.27a.19.19,0,0,0-.19,0l-.44.26a.09.09,0,0,0,0,.16l.44.27a.19.19,0,0,0,.19,0l.46-.26A.09.09,0,0,0,89.33,159Z"
             style="fill: #d3daed" />
          <path
             id="2d6e0dd2-93b7-4000-bd7e-96bb2b0e1e87"
             d="M88.28,159.65l-.46-.27a.19.19,0,0,0-.19,0l-.44.26a.09.09,0,0,0,0,.16l.44.27a.19.19,0,0,0,.19,0l.46-.26A.09.09,0,0,0,88.28,159.65Z"
             style="fill: #d3daed" />
          <path
             id="ecf9f4c4-9d11-43c9-ac75-8a84fefe4a23"
             d="M87.32,160.16l-.46-.27a.19.19,0,0,0-.19,0l-.44.26a.09.09,0,0,0,0,.16l.44.27a.19.19,0,0,0,.19,0l.46-.26A.09.09,0,0,0,87.32,160.16Z"
             style="fill: #d3daed" />
        </g>
        <g
           id="4f9915ce-4676-4599-890c-0caaeda77312">
          <path
             id="899865c9-1475-49d2-b320-1e1e919ec373"
             d="M98.25,155l-.46-.27a.19.19,0,0,0-.19,0l-.44.26a.09.09,0,0,0,0,.16l.44.27a.19.19,0,0,0,.19,0l.46-.26A.09.09,0,0,0,98.25,155Z"
             style="fill: #d3daed" />
          <path
             id="238966c8-6f4b-48d2-a511-12efb47219ae"
             d="M97.23,155.61l-.46-.27a.19.19,0,0,0-.19,0l-.45.26a.09.09,0,0,0,0,.16l.44.27a.19.19,0,0,0,.19,0l.46-.26A.09.09,0,0,0,97.23,155.61Z"
             style="fill: #d3daed" />
          <path
             id="64d98583-d654-4c9d-851f-14dbe6b804f1"
             d="M96.24,156.17l-.46-.27a.19.19,0,0,0-.19,0l-.44.26a.09.09,0,0,0,0,.16l.44.27a.19.19,0,0,0,.19,0l.46-.26A.09.09,0,0,0,96.24,156.17Z"
             style="fill: #d3daed" />
          <path
             id="c5b34bfb-9a49-4bee-9e14-a0dfa03fe4d9"
             d="M95.18,156.74l-.46-.27a.19.19,0,0,0-.19,0l-.44.26a.09.09,0,0,0,0,.16l.44.27a.19.19,0,0,0,.19,0l.46-.26A.09.09,0,0,0,95.18,156.74Z"
             style="fill: #d3daed" />
          <path
             id="007b0a39-a1a7-4600-8e5a-e223bd15c6bc"
             d="M94.25,157.29,93.8,157a.19.19,0,0,0-.19,0l-.44.26a.09.09,0,0,0,0,.16l.44.27a.19.19,0,0,0,.19,0l.46-.26A.09.09,0,0,0,94.25,157.29Z"
             style="fill: #d3daed" />
          <path
             id="ce38154e-aa9e-4bd5-9c7f-922cfaeb148d"
             d="M93.31,157.87l-.46-.27a.19.19,0,0,0-.19,0l-.45.26a.09.09,0,0,0,0,.16l.44.27a.19.19,0,0,0,.19,0l.46-.26A.09.09,0,0,0,93.31,157.87Z"
             style="fill: #d3daed" />
          <path
             id="4e5208c3-e0ce-4729-ae12-9879b8b751eb"
             d="M92.3,158.42l-.46-.27a.19.19,0,0,0-.19,0l-.45.26a.09.09,0,0,0,0,.16l.44.27a.19.19,0,0,0,.19,0l.46-.26A.09.09,0,0,0,92.3,158.42Z"
             style="fill: #d3daed" />
          <path
             id="899594b7-11a4-474e-8ab4-48ec685d1545"
             d="M91.32,159l-.46-.27a.19.19,0,0,0-.19,0l-.45.26a.09.09,0,0,0,0,.16l.44.27a.19.19,0,0,0,.19,0l.46-.26A.09.09,0,0,0,91.32,159Z"
             style="fill: #d3daed" />
          <path
             id="f4a63a03-fb7d-425b-a814-e6282542c249"
             d="M90.35,159.58l-.46-.27a.19.19,0,0,0-.19,0l-.44.26a.09.09,0,0,0,0,.16l.44.27a.19.19,0,0,0,.19,0l.46-.26A.09.09,0,0,0,90.35,159.58Z"
             style="fill: #d3daed" />
          <path
             id="ba935d19-5bbd-41ef-9260-e6adb06094ea"
             d="M89.29,160.2l-.46-.27a.19.19,0,0,0-.19,0l-.45.26a.09.09,0,0,0,0,.16l.44.27a.19.19,0,0,0,.19,0l.46-.26A.09.09,0,0,0,89.29,160.2Z"
             style="fill: #d3daed" />
          <path
             id="95834186-1b04-40ef-80f9-e38af5a0e287"
             d="M88.34,160.72l-.46-.27a.19.19,0,0,0-.19,0l-.45.26a.09.09,0,0,0,0,.16l.44.27a.19.19,0,0,0,.19,0l.46-.26A.09.09,0,0,0,88.34,160.72Z"
             style="fill: #d3daed" />
        </g>
        <g
           id="f2d6c9c7-6a50-4af5-a62f-099f39aa3e58">
          <path
             id="262d176d-8cd7-4bf4-8350-bdbef2f7907f"
             d="M99.26,155.57l-.46-.27a.19.19,0,0,0-.19,0l-.44.26a.09.09,0,0,0,0,.16l.44.27a.19.19,0,0,0,.19,0l.46-.26A.09.09,0,0,0,99.26,155.57Z"
             style="fill: #d3daed" />
          <path
             id="ebe34a74-1ea0-47ac-a30c-831134a4a33b"
             d="M98.24,156.16l-.46-.27a.19.19,0,0,0-.19,0l-.44.26a.09.09,0,0,0,0,.16l.44.27a.19.19,0,0,0,.19,0l.46-.26A.09.09,0,0,0,98.24,156.16Z"
             style="fill: #d3daed" />
          <path
             id="6a4b033b-93d4-41b3-80ce-ac000b10b81b"
             d="M97.25,156.72l-.46-.27a.19.19,0,0,0-.19,0l-.45.26a.09.09,0,0,0,0,.16l.44.27a.19.19,0,0,0,.19,0l.46-.26A.09.09,0,0,0,97.25,156.72Z"
             style="fill: #d3daed" />
          <path
             id="ae4b1c75-5504-45b5-b9a2-058ebdee99f0"
             d="M96.2,157.29l-.46-.27a.19.19,0,0,0-.19,0l-.44.26a.09.09,0,0,0,0,.16l.44.27a.19.19,0,0,0,.19,0l.46-.26A.09.09,0,0,0,96.2,157.29Z"
             style="fill: #d3daed" />
          <path
             id="c102f729-7903-4b5d-adbf-18f6f3dd97f5"
             d="M95.18,157.9l-.46-.27a.19.19,0,0,0-.19,0L92.22,159a.09.09,0,0,0,0,.16l.44.27a.19.19,0,0,0,.19,0l2.33-1.34A.09.09,0,0,0,95.18,157.9Z"
             style="fill: #d3daed" />
          <path
             id="3e7c18e1-f1d1-4470-a210-044a3d388f7e"
             d="M92.33,159.53l-.46-.27a.19.19,0,0,0-.19,0l-.44.26a.09.09,0,0,0,0,.16l.44.27a.19.19,0,0,0,.19,0l.46-.26A.09.09,0,0,0,92.33,159.53Z"
             style="fill: #d3daed" />
          <path
             id="9781fbbd-b462-4e36-9474-4cf3e8d0481f"
             d="M91.36,160.13l-.46-.27a.19.19,0,0,0-.19,0l-.44.26a.09.09,0,0,0,0,.16l.44.27a.19.19,0,0,0,.19,0l.46-.26A.09.09,0,0,0,91.36,160.13Z"
             style="fill: #d3daed" />
          <path
             id="f39ba55f-7eb2-4206-8c61-3ce4cc464adf"
             d="M90.31,160.75l-.46-.27a.19.19,0,0,0-.19,0l-.44.26a.09.09,0,0,0,0,.16l.44.27a.19.19,0,0,0,.19,0l.46-.26A.09.09,0,0,0,90.31,160.75Z"
             style="fill: #d3daed" />
          <path
             id="6a2b27a8-b7d9-45e2-a5c2-f380cc904755"
             d="M89.35,161.27,88.9,161a.19.19,0,0,0-.19,0l-.45.26a.09.09,0,0,0,0,.16l.44.27a.19.19,0,0,0,.19,0l.46-.26A.09.09,0,0,0,89.35,161.27Z"
             style="fill: #d3daed" />
        </g>
      </g>
      <g
         id="g213">
        <path
           id="6a4b3e23-8721-4665-89fc-206d1532f015"
           d="M94.6,143.57c0-.11-.08-.15-.17-.1L83,150.05a.38.38,0,0,0-.17.3v8.33c0,.11.08.15.17.1l11.4-6.58a.38.38,0,0,0,.17-.3Z"
           style="fill: #fff" />
        <polygon
           id="50830396-efce-4c89-825f-33ccd5799e06"
           points="85.88 149.1 83.83 150.29 83.83 150.99 85.88 149.81 85.88 149.1"
           style="fill: #edf0f8" />
        <polygon
           id="4e9f2f66-759c-4462-8354-3765cddb3fc0"
           points="91.02 147.23 83.83 151.44 83.83 151.86 91.02 147.65 91.02 147.23"
           style="fill: #edf0f8" />
        <polygon
           points="83.61 157.75 83.61 156.12 84.88 154.31 85.54 154.8 86.88 152.14 87.37 152.99 88.08 152.99 89.23 151.29 89.9 150.88 91.29 150.88 92.17 149.59 93.18 150.05 94.24 150 94.24 151.68 83.61 157.75"
           style="fill:#77abff;fill-opacity:1"
           id="polygon212" />
      </g>
      <g
         id="a3cd5092-9d2b-4abc-b8eb-ee0a264515a8">
        <path
           id="79832199-10e8-467e-bd30-3db41b71d0ee"
           d="M99.79,158.8h0a.32.32,0,0,1-.16.42l-1.21.55a.32.32,0,0,1-.42-.16h0a.32.32,0,0,1,.16-.42l1.21-.55A.32.32,0,0,1,99.79,158.8Z"
           style="fill: #f2b1b5" />
        <g
           id="26ee3823-214e-4dd3-919a-630800dd523c">
          <path
             id="115dcf4e-97c3-415e-867e-5a6dc7828166"
             d="M100.91,159.51l-.61-.08-2.22-.37a1,1,0,0,1,.32-1.89l2.22.37c2.7.46,4,1,5.26-1.39a1,1,0,1,1,1.69.9C106,160,104.21,159.82,100.91,159.51Z"
             style="fill: #f2b1b5" />
        </g>
        <path
           id="5db6e06b-f4da-47d1-b1ed-f6153b135956"
           d="M103.5,187.47l.49-.14a2.7,2.7,0,0,1,2.32.4l.51-.38.52,1.19,2.5-.21-.54,2.22a.41.41,0,0,1-.28.3l-1,.3a2.5,2.5,0,0,1-2.42-.59l-2.28-2.17A.55.55,0,0,1,103.5,187.47Z"
           style="fill: #48486a" />
        <path
           id="8ec1438b-6832-4f1a-aa5a-df6e04fcc15c"
           d="M103.5,187.47l.49-.14a2.7,2.7,0,0,1,2.32.4l.51-.38.52,1.19,2.5-.21-.28,1.15a1.47,1.47,0,0,1-1,1.06l-.44.13a2.5,2.5,0,0,1-2.42-.59l-2.28-2.17a.23.23,0,0,1,.11-.45Z"
           style="fill: #fff" />
        <path
           id="cd320db8-ef68-46d5-886e-4493e43e6540"
           d="M107,188.31a.69.69,0,0,1,.31-1.27,2.53,2.53,0,0,1,2.21.54.69.69,0,0,1-.31,1.27A2.53,2.53,0,0,1,107,188.31Z"
           style="fill: #48486a" />
        <g
           id="835f811a-9fbd-42bd-872b-e3dc47c27399">
          <path
             id="924943ac-4aac-469d-bd04-55c74d434b52"
             d="M108.38,188.39a.82.82,0,0,0,.82-.82v-3.18a.82.82,0,1,0-1.65,0v3.18A.82.82,0,0,0,108.38,188.39Z"
             style="fill: #f2b1b5" />
        </g>
        <g
           id="f114beb9-6a54-4865-955c-77ec8e929edb">
          <path
             id="b3fc73b3-2040-46be-b3ae-2fd09480c3c4"
             d="M108.38,187.4h.06c.71,0,1.27.3,1.24-.42l-.35-8.24.35-12.44a1.29,1.29,0,0,0-1.26-1.33c-.71,0-1.66.54-1.68,1.26v12.58l.35,8.29C107.12,187.8,107.69,187.4,108.38,187.4Z"
             style="fill: #5c6873" />
        </g>
        <path
           id="e28af52b-d981-46bb-87e2-3afd2e358f50"
           d="M100,190.64l.44-.25a2.7,2.7,0,0,1,2.34-.16l.4-.49.79,1,2.37-.8v2.28a.41.41,0,0,1-.2.36l-.92.54a2.5,2.5,0,0,1-2.49,0L100,191.59A.55.55,0,0,1,100,190.64Z"
           style="fill: #48486a" />
        <path
           id="3a28afc5-6668-4d2c-a013-5957617461c0"
           d="M100,190.64l.44-.25a2.7,2.7,0,0,1,2.34-.16l.4-.49.79,1,2.37-.8v1.19a1.47,1.47,0,0,1-.73,1.28l-.39.23a2.5,2.5,0,0,1-2.49,0L100,191.11a.23.23,0,0,1,0-.47Z"
           style="fill: #fff" />
        <path
           id="1554b6ae-4c07-4e1a-880e-ff0a25d07882"
           d="M103.65,190.62a.69.69,0,0,1,0-1.31,2.53,2.53,0,0,1,2.27,0,.69.69,0,0,1,0,1.31A2.53,2.53,0,0,1,103.65,190.62Z"
           style="fill: #48486a" />
        <g
           id="ee818a89-3735-41e8-9b84-3e82407e082a">
          <path
             id="692bdd5b-274b-4ba3-a812-fb70b3ab7cf9"
             d="M104.79,190.49a.82.82,0,0,0,.82-.82v-3.18a.82.82,0,1,0-1.65,0v3.18A.82.82,0,0,0,104.79,190.49Z"
             style="fill: #f2b1b5" />
        </g>
        <g
           id="0aa4020f-c53d-47f0-8f0c-dbba27fbe37a">
          <path
             id="9fbc7a03-5e52-4cd2-bcee-556cb4461fef"
             d="M104.79,189.8h.11c.71-.06,1.24,0,1.18-.69l-.7-9.46,2.82-12.25c0-.71-2.62-.21-3.33-.26a1.3,1.3,0,0,0-1.37,1.21l-.71,11.32.71,9.64C103.55,190,104.12,189.8,104.79,189.8Z"
             style="fill: #5c6873" />
        </g>
        <path
           id="bb9b5c3c-8e7a-4a80-86bb-77674bfa3b92"
           d="M107.54,152.3l-1.69,1a5.83,5.83,0,0,0-2.91,5V169.9c1.65,1.16,6.09-.45,7-2.26l-.27-2.53a17.62,17.62,0,0,1-.15-3l.31-8.39A1.52,1.52,0,0,0,107.54,152.3Z"
           style="fill:#77abff;fill-opacity:1" />
        <path
           id="e5bf03ff-0aeb-4e40-9132-9e5fad35989b"
           d="M95.46,162.1h0a.32.32,0,0,1-.45,0l-.64-.61a.32.32,0,0,1,0-.45h0a.32.32,0,0,1,.45,0l.64.61A.32.32,0,0,1,95.46,162.1Z"
           style="fill: #f2b1b5" />
        <path
           id="0cb44733-1a81-4d95-958a-558be6cfa4e3"
           d="M105.45,155.9c-.6-.17-.9.51-1.07,1.1l-.77,1.31a6.19,6.19,0,0,1-.67,1.55v3.36a8.43,8.43,0,0,0,2.83-4.31l.45-1.64A1.12,1.12,0,0,0,105.45,155.9Z"
           style="fill: #231f20;opacity: 0.30000000000000004" />
        <path
           id="8940b47f-5406-45e7-baa7-18608ae26514"
           d="M106.73,154.65h0a.71.71,0,0,1-.71-.71v-3.3h1.43v3.3A.71.71,0,0,1,106.73,154.65Z"
           style="fill: #f2b1b5" />
        <path
           id="cc128b7f-a3f4-48e1-852c-96399d1f7496"
           d="M104.11,146.66h4.31a0,0,0,0,1,0,0v6.15a0,0,0,0,1,0,0h-1.32a3,3,0,0,1-3-3v-3.17A0,0,0,0,1,104.11,146.66Z"
           style="fill: #f2b1b5" />
        <path
           id="35ed5927-3d97-4e90-be93-499fd07f9cac"
           d="M109.82,149.83c0-.16,0-.32,0-.48a11.44,11.44,0,0,0,0-1.87,2.4,2.4,0,0,0-1.22-1.9,3.29,3.29,0,0,0-1.39-.19l-2.87,0a2.21,2.21,0,0,0-1.24.26c-.68.46-.34,1.33.06,1.85a2.37,2.37,0,0,0,.82.7c.31.15.84,0,1,.34s-.25,1.82.36,2,.41-.36.48-.63a.43.43,0,0,1,.35-.35c.22,0,.37.23.41.45a4.25,4.25,0,0,1-.1,1.3,1.37,1.37,0,0,0,.32,1.22,1.28,1.28,0,0,0,.41.22c.43.16,1.23.35,1.63,0a2.22,2.22,0,0,0,1-1.64A10.41,10.41,0,0,0,109.82,149.83Z"
           style="fill: #54200c" />
        <g
           id="8d817de4-e247-4e35-9b52-2dfc9a5c2be8">
          <path
             id="25954831-dd54-450c-a8b2-2dd99223a43a"
             d="M97.9,163.77l-.61,0-3.47-.17a1,1,0,0,1,.1-1.92l3.49.17a6.37,6.37,0,0,0,6.36-3.89l.66-1.57a1,1,0,1,1,1.77.74l-.66,1.57A8.28,8.28,0,0,1,97.9,163.77Z"
             style="fill: #f2b1b5" />
        </g>
        <path
           id="a00d0458-140d-48d1-8675-28f318b1dabb"
           d="m 102.67541,159.40142 a 6.2,6.2 0 0 0 1,-1.66 l 0.66,-1.57 a 1.1226976,1.1226976 0 1 1 2.07,0.87 l -0.66,1.57 a 8.46,8.46 0 0 1 -1.3,2.14 z"
           style="fill:#77abff;fill-opacity:1" />
        <path
           d="M106,151.74a1.5,1.5,0,0,1-.35-.53,1,1,0,0,1,0-.39l.05-.33a.73.73,0,0,0,0-.34.46.46,0,0,0-.26-.26,1,1,0,0,0-.37-.07h0a.06.06,0,0,0,0,0,1.91,1.91,0,0,1,0,.51c-.05.19-.4.47-.56.23l0-.09a.35.35,0,0,0-.28-.13.15.15,0,0,0-.11,0,.11.11,0,0,0,0,.1.47.47,0,0,0,0,.1,1.73,1.73,0,0,1,.08.64,1.59,1.59,0,0,0,.84,1.17,1,1,0,0,0,1,0,.44.44,0,0,0,.15-.14A.55.55,0,0,0,106,151.74Z"
           style="fill: #54200c"
           id="path213" />
      </g>
      <path
         d="M72.32,106.79c-16,9-12.59,23.47-12.59,23.47L102.31,101s.93-12.72-7-11.32S77.77,103.71,72.32,106.79Z"
         style="fill: #d4daed"
         id="path214" />
    </g>
  </g>
  <text
     xml:space="preserve"
     style="font-size:32px;font-family:sans-serif;-inkscape-font-specification:'sans-serif, Normal';white-space:pre;inline-size:55.3478;display:inline;fill:#4652cb;fill-opacity:1;stroke:#4652cb;stroke-width:1.56455503;stroke-linecap:round;stroke-miterlimit:0;stroke-opacity:1;paint-order:stroke markers fill;stroke-dasharray:none"
     x="71.242584"
     y="108.11959"
     id="text215"
     transform="matrix(0.79160619,-0.48900253,0.01054888,0.79726564,2.0390842,72.934913)"><tspan
       x="71.242584"
       y="108.11959"
       id="tspan1">cos</tspan></text>
</svg>
