<?xml version="1.0" encoding="UTF-8" standalone="no"?>
<svg
   version="1.1"
   width="1167.0103"
   height="155.85551"
   viewBox="-0.5 -0.5 1167.0103 155.85551"
   id="svg55"
   sodipodi:docname="lines.svg"
   inkscape:export-filename="lines.svg"
   inkscape:export-xdpi="39.724136"
   inkscape:export-ydpi="39.724136"
   xmlns:inkscape="http://www.inkscape.org/namespaces/inkscape"
   xmlns:sodipodi="http://sodipodi.sourceforge.net/DTD/sodipodi-0.dtd"
   xmlns="http://www.w3.org/2000/svg"
   xmlns:svg="http://www.w3.org/2000/svg">
  <sodipodi:namedview
     id="namedview55"
     pagecolor="#ffffff"
     bordercolor="#000000"
     borderopacity="0.25"
     inkscape:showpageshadow="2"
     inkscape:pageopacity="0.0"
     inkscape:pagecheckerboard="0"
     inkscape:deskcolor="#d1d1d1"
     showgrid="false" />
  <defs
     id="defs1" />
  <g
     id="g55"
     transform="matrix(2.027485,0,0,1.4087999,-81.599398,-0.5)">
    <g
       data-cell-id="0"
       id="g54"
       transform="matrix(1.0027739,0,0,1,-0.11095723,0)"
       inkscape:export-filename=".\g54.svg"
       inkscape:export-xdpi="39.724136"
       inkscape:export-ydpi="39.724136">
      <g
         data-cell-id="1"
         id="g53">
        <g
           data-cell-id="poJGV_G9TbdFLlrn6Faf-3"
           id="g26">
          <g
             id="g1" />
          <g
             data-cell-id="T83nffvXhVvffU0h5fAT-1797"
             id="g3">
            <g
               id="g2">
              <path
                 d="m 317.5,232.5 v -420 l 15,-30 v 450 z"
                 fill="#3d8bff"
                 stroke="none"
                 transform="matrix(0,1,1,0,317.5,-317.5)"
                 pointer-events="all"
                 id="path1" />
            </g>
          </g>
          <g
             data-cell-id="T83nffvXhVvffU0h5fAT-1798"
             id="g5">
            <g
               id="g4">
              <path
                 d="m 302.5,262.5 v -450 l 15,-30 v 480 z"
                 fill="#0054c9"
                 stroke="none"
                 transform="matrix(0,1,1,0,287.5,-287.5)"
                 pointer-events="all"
                 id="path3" />
            </g>
          </g>
          <g
             data-cell-id="T83nffvXhVvffU0h5fAT-1799"
             id="g7">
            <g
               id="g6">
              <path
                 d="m 287.5,292.5 v -480 l 15,-30 v 510 z"
                 fill="#f47a96"
                 stroke="none"
                 transform="matrix(0,1,1,0,257.5,-257.5)"
                 pointer-events="all"
                 id="path5" />
            </g>
          </g>
          <g
             data-cell-id="T83nffvXhVvffU0h5fAT-1800"
             id="g9">
            <g
               id="g8">
              <path
                 d="m 549,0 c 26.21,0 49.85,15.74 59.96,39.91 10.12,24.18 4.73,52.06 -13.67,70.72 L 584.64,100.14 C 598.81,85.77 602.96,64.3 595.17,45.68 587.38,27.07 569.18,14.95 549,14.95 Z"
                 fill="#3d8bff"
                 stroke="none"
                 pointer-events="all"
                 id="path7" />
            </g>
          </g>
          <g
             data-cell-id="T83nffvXhVvffU0h5fAT-1801"
             id="g11">
            <g
               id="g10">
              <path
                 d="m 549,15 c 20.16,0 38.35,12.11 46.13,30.7 7.78,18.6 3.63,40.05 -10.53,54.41 L 573.92,89.58 C 583.83,79.53 586.73,64.51 581.29,51.49 575.84,38.47 563.11,30 549,30 Z"
                 fill="#0054c9"
                 stroke="none"
                 pointer-events="all"
                 id="path9" />
            </g>
          </g>
          <g
             data-cell-id="T83nffvXhVvffU0h5fAT-1802"
             id="g13">
            <g
               id="g12">
              <path
                 d="m 549,30 c 14.11,0 26.84,8.47 32.29,21.49 5.44,13.01 2.54,28.03 -7.36,38.08 L 563.21,79 c 5.64,-5.72 7.3,-14.28 4.19,-21.7 C 564.3,49.88 557.04,45.05 549,45.05 Z"
                 fill="#f47a96"
                 stroke="none"
                 pointer-events="all"
                 id="path11" />
            </g>
          </g>
        </g>
      </g>
    </g>
  </g>
</svg>
