<?xml version="1.0" encoding="UTF-8"?>
<!DOCTYPE svg PUBLIC "-//W3C//DTD SVG 1.1//EN" "http://www.w3.org/Graphics/SVG/1.1/DTD/svg11.dtd">
<svg xmlns="http://www.w3.org/2000/svg" style="background-color: rgb(255, 255, 255);" xmlns:xlink="http://www.w3.org/1999/xlink" version="1.1" width="1205px" height="580px" viewBox="-0.5 -0.5 1205 580"><defs/><rect fill="#ffffff" width="100%" height="100%" x="0" y="0"/><g><g data-cell-id="0"><g data-cell-id="1"><g data-cell-id="poJGV_G9TbdFLlrn6Faf-3"><g/><g data-cell-id="T83nffvXhVvffU0h5fAT-1797"><g><path d="M 317.5 232.5 L 317.5 -187.5 L 332.5 -217.5 L 332.5 232.5 Z" fill="#3d8bff" stroke="none" transform="translate(325,0)scale(-1,1)translate(-325,0)rotate(-270,325,7.5)" pointer-events="all"/></g></g><g data-cell-id="T83nffvXhVvffU0h5fAT-1798"><g><path d="M 302.5 262.5 L 302.5 -187.5 L 317.5 -217.5 L 317.5 262.5 Z" fill="#0054c9" stroke="none" transform="translate(310,0)scale(-1,1)translate(-310,0)rotate(-270,310,22.5)" pointer-events="all"/></g></g><g data-cell-id="T83nffvXhVvffU0h5fAT-1799"><g><path d="M 287.5 292.5 L 287.5 -187.5 L 302.5 -217.5 L 302.5 292.5 Z" fill="#f47a96" stroke="none" transform="translate(295,0)scale(-1,1)translate(-295,0)rotate(-270,295,37.5)" pointer-events="all"/></g></g><g data-cell-id="T83nffvXhVvffU0h5fAT-1800"><g><path d="M 549 0 C 575.21 0 598.85 15.74 608.96 39.91 C 619.08 64.09 613.69 91.97 595.29 110.63 L 584.64 100.14 C 598.81 85.77 602.96 64.3 595.17 45.68 C 587.38 27.07 569.18 14.95 549 14.95 Z" fill="#3d8bff" stroke="none" pointer-events="all"/></g></g><g data-cell-id="T83nffvXhVvffU0h5fAT-1801"><g><path d="M 549 15 C 569.16 15 587.35 27.11 595.13 45.7 C 602.91 64.3 598.76 85.75 584.6 100.11 L 573.92 89.58 C 583.83 79.53 586.73 64.51 581.29 51.49 C 575.84 38.47 563.11 30 549 30 Z" fill="#0054c9" stroke="none" pointer-events="all"/></g></g><g data-cell-id="T83nffvXhVvffU0h5fAT-1802"><g><path d="M 549 30 C 563.11 30 575.84 38.47 581.29 51.49 C 586.73 64.5 583.83 79.52 573.93 89.57 L 563.21 79 C 568.85 73.28 570.51 64.72 567.4 57.3 C 564.3 49.88 557.04 45.05 549 45.05 Z" fill="#f47a96" stroke="none" pointer-events="all"/></g></g><g data-cell-id="T83nffvXhVvffU0h5fAT-1803"><g><path d="M 615 279 C 588.79 279 565.15 263.26 555.04 239.08 C 544.92 214.91 550.32 187.02 568.72 168.36 L 579.36 178.86 C 565.19 193.23 561.04 214.7 568.83 233.31 C 576.61 251.93 594.82 264.05 615 264.05 Z" fill="#f47a96" stroke="none" pointer-events="all"/></g></g><g data-cell-id="T83nffvXhVvffU0h5fAT-1804"><g><path d="M 615 264 C 594.84 264 576.65 251.89 568.87 233.3 C 561.09 214.7 565.24 193.25 579.4 178.89 L 590.08 189.42 C 580.17 199.47 577.27 214.49 582.71 227.51 C 588.16 240.53 600.89 249 615 249 Z" fill="#0054c9" stroke="none" pointer-events="all"/></g></g><g data-cell-id="T83nffvXhVvffU0h5fAT-1805"><g><path d="M 615 249 C 600.89 249 588.16 240.53 582.71 227.51 C 577.27 214.49 580.17 199.48 590.07 189.43 L 600.79 200 C 595.15 205.72 593.49 214.28 596.6 221.7 C 599.7 229.12 606.96 233.95 615 233.95 Z" fill="#3d8bff" stroke="none" pointer-events="all"/></g></g><g data-cell-id="T83nffvXhVvffU0h5fAT-1806"><g><path d="M 902 537 L 902 -24 L 917 -54 L 917 537 Z" fill="#3d8bff" stroke="none" transform="translate(0,241.5)scale(1,-1)translate(0,-241.5)rotate(-270,909.5,241.5)" pointer-events="all"/></g></g><g data-cell-id="T83nffvXhVvffU0h5fAT-1807"><g><path d="M 887 537 L 887 6 L 902 -24 L 902 537 Z" fill="#0054c9" stroke="none" transform="translate(0,256.5)scale(1,-1)translate(0,-256.5)rotate(-270,894.5,256.5)" pointer-events="all"/></g></g><g data-cell-id="T83nffvXhVvffU0h5fAT-1808"><g><path d="M 872 537 L 872 36 L 887 6 L 887 537 Z" fill="#f47a96" stroke="none" transform="translate(0,271.5)scale(1,-1)translate(0,-271.5)rotate(-270,879.5,271.5)" pointer-events="all"/></g></g></g><g data-cell-id="poJGV_G9TbdFLlrn6Faf-10"><g/><g data-cell-id="poJGV_G9TbdFLlrn6Faf-11"><g><path d="M 277.5 552.5 L 277.5 132.5 L 292.5 102.5 L 292.5 552.5 Z" fill="#3d8bff" stroke="none" transform="translate(285,0)scale(-1,1)translate(-285,0)rotate(-270,285,327.5)" pointer-events="all"/></g></g><g data-cell-id="poJGV_G9TbdFLlrn6Faf-12"><g><path d="M 262.5 582.5 L 262.5 132.5 L 277.5 102.5 L 277.5 582.5 Z" fill="#0054c9" stroke="none" transform="translate(270,0)scale(-1,1)translate(-270,0)rotate(-270,270,342.5)" pointer-events="all"/></g></g><g data-cell-id="poJGV_G9TbdFLlrn6Faf-13"><g><path d="M 247.5 612.5 L 247.5 132.5 L 262.5 102.5 L 262.5 612.5 Z" fill="#f47a96" stroke="none" transform="translate(255,0)scale(-1,1)translate(-255,0)rotate(-270,255,357.5)" pointer-events="all"/></g></g><g data-cell-id="poJGV_G9TbdFLlrn6Faf-14"><g><path d="M 509 320 C 536.83 320 561.58 337.72 570.54 364.08 L 556.39 368.89 C 549.49 348.6 530.43 334.95 509 334.95 Z" fill="#3d8bff" stroke="none" pointer-events="all"/></g></g><g data-cell-id="poJGV_G9TbdFLlrn6Faf-15"><g><path d="M 509 335 C 530.46 335 549.53 348.7 556.38 369.04 L 542.17 373.83 C 537.37 359.59 524.02 350 509 350 Z" fill="#0054c9" stroke="none" pointer-events="all"/></g></g><g data-cell-id="poJGV_G9TbdFLlrn6Faf-16"><g><path d="M 509 350 C 524.1 350 537.5 359.69 542.24 374.03 L 527.95 378.75 C 525.25 370.57 517.61 365.05 509 365.05 Z" fill="#f47a96" stroke="none" pointer-events="all"/></g></g><g data-cell-id="poJGV_G9TbdFLlrn6Faf-17"><g><path d="M 575 515 C 545.4 515 519.54 495 512.09 466.36 L 526.56 462.59 C 532.3 484.65 552.21 500.05 575 500.05 Z" fill="#f47a96" stroke="none" pointer-events="all"/></g></g><g data-cell-id="poJGV_G9TbdFLlrn6Faf-18"><g><path d="M 575 500 C 552.28 500 532.41 484.68 526.64 462.7 L 541.15 458.89 C 545.19 474.27 559.09 485 575 485 Z" fill="#0054c9" stroke="none" pointer-events="all"/></g></g><g data-cell-id="poJGV_G9TbdFLlrn6Faf-19"><g><path d="M 575 485 C 559.06 485 545.14 474.23 541.13 458.81 L 555.69 455.02 C 557.98 463.81 565.92 469.95 575 469.95 Z" fill="#3d8bff" stroke="none" pointer-events="all"/></g></g><g data-cell-id="poJGV_G9TbdFLlrn6Faf-20"><g><path d="M 862 773 L 862 212 L 877 182 L 877 773 Z" fill="#3d8bff" stroke="none" transform="translate(0,477.5)scale(1,-1)translate(0,-477.5)rotate(-270,869.5,477.5)" pointer-events="all"/></g></g><g data-cell-id="poJGV_G9TbdFLlrn6Faf-21"><g><path d="M 847 773 L 847 242 L 862 212 L 862 773 Z" fill="#0054c9" stroke="none" transform="translate(0,492.5)scale(1,-1)translate(0,-492.5)rotate(-270,854.5,492.5)" pointer-events="all"/></g></g><g data-cell-id="poJGV_G9TbdFLlrn6Faf-22"><g><path d="M 832 773 L 832 272 L 847 242 L 847 773 Z" fill="#f47a96" stroke="none" transform="translate(0,507.5)scale(1,-1)translate(0,-507.5)rotate(-270,839.5,507.5)" pointer-events="all"/></g></g></g></g></g></g></svg>