<?xml version="1.0" encoding="UTF-8" standalone="no"?>
<!-- Generator: Adobe Illustrator 27.3.0, SVG Export Plug-In . SVG Version: 6.00 Build 0)  -->

<svg
   version="1.1"
   id="Layer_1"
   x="0px"
   y="0px"
   viewBox="0 0 60 50"
   xml:space="preserve"
   sodipodi:docname="lock.svg"
   inkscape:version="1.3.2 (091e20ef0f, 2023-11-25)"
   width="60"
   height="50"
   xmlns:inkscape="http://www.inkscape.org/namespaces/inkscape"
   xmlns:sodipodi="http://sodipodi.sourceforge.net/DTD/sodipodi-0.dtd"
   xmlns="http://www.w3.org/2000/svg"
   xmlns:svg="http://www.w3.org/2000/svg"><defs
   id="defs4">
	
	
</defs><sodipodi:namedview
   id="namedview4"
   pagecolor="#ffffff"
   bordercolor="#000000"
   borderopacity="0.25"
   inkscape:showpageshadow="2"
   inkscape:pageopacity="0.0"
   inkscape:pagecheckerboard="0"
   inkscape:deskcolor="#d1d1d1"
   inkscape:zoom="13.57645"
   inkscape:cx="26.663818"
   inkscape:cy="29.573268"
   inkscape:window-width="1876"
   inkscape:window-height="1138"
   inkscape:window-x="0"
   inkscape:window-y="0"
   inkscape:window-maximized="1"
   inkscape:current-layer="Layer_1" />
<style
   type="text/css"
   id="style1">
	.st0{fill:#8E77FB;}
	.st1{fill:#252627;}
</style>
<path
   class="st0"
   d="m 8.7052695,34.818797 c -0.1,0 -0.2,0 -0.3,0 -4.4,-1 -7.5,-5 -7.2,-9.5 0.1,-3 1.5,-5.8 3.9,-7.7 2,-1.6 4.6,-2.4 7.1000005,-2.1 1.3,-8.8 8.9,-15.30000044 17.8,-15.20000044 h 0.1 c 6.5,0 12.6,3.60000004 15.7,9.30000044 3.2,0 6.4,1.3 8.8,3.5 2.6,2.4 4.1,5.8 4.1,9.3 0.2,4.8 -2.6,9.2 -7,11.3 -0.6,0.3 -1.4,0 -1.7,-0.6 -0.3,-0.6 0,-1.4 0.6,-1.7 3.5,-1.6 5.6,-5.1 5.5,-8.9 0,-2.9 -1.3,-5.6 -3.3,-7.6 -2.1,-1.9 -4.9,-3 -7.7,-2.8 -0.5,0.1 -1,-0.2 -1.2,-0.7 -2.6,-5.2 -8.1,-8.6000004 -13.9,-8.6000004 -0.1,0 -0.2,0 -0.3,0 -8,0 -14.6,6.2000004 -15.2,14.1000004 0,0.4 -0.2,0.7 -0.5,0.9 -0.3,0.2 -0.7,0.3 -1,0.2 -2.2,-0.5 -4.6000005,0 -6.4000005,1.5 -1.8,1.4 -2.9,3.6 -2.9,5.9 -0.2,3.3 2,6.3 5.3,7 0.7,0.1 1.1000005,0.8 1.0000005,1.5 -0.2000005,0.5 -0.7000005,0.9 -1.3000005,0.9 z"
   id="path1"
   style="fill:#dfdaf8;fill-opacity:1" /><g
   id="g3"
   style="fill:#f9b2d1;fill-opacity:1"
   transform="translate(1.1316125,-5.500103)">
		<path
   class="st1"
   d="m 30,48.3 c -2.4,0 -4.4,-2 -4.4,-4.4 0,-2.4 2,-4.4 4.4,-4.4 2.4,0 4.4,2 4.4,4.4 0,2.4 -2,4.4 -4.4,4.4 z M 30,42 c -1,0 -1.9,0.8 -1.9,1.9 0,1.1 0.8,1.9 1.9,1.9 1.1,0 1.9,-0.8 1.9,-1.9 C 31.9,42.8 31,42 30,42 Z"
   id="path2"
   style="fill:#f9b2d1;fill-opacity:1" />
		<path
   class="st1"
   d="M 38.8,32.5 H 37.6 V 30 c 0,-4.1 -3.4,-7.5 -7.5,-7.5 -4.1,0 -7.5,3.4 -7.5,7.5 v 2.5 h -1.2 c -2.1,0 -3.8,1.7 -3.8,3.8 v 15 c 0,2.1 1.7,3.8 3.8,3.8 h 17.5 c 2.1,0 3.8,-1.7 3.8,-3.8 v -15 C 42.5,34.2 40.8,32.5 38.8,32.5 Z M 25,30 c 0,-2.8 2.2,-5 5,-5 2.8,0 5,2.2 5,5 v 2.5 H 25 Z m 15,21.3 c 0,0.7 -0.6,1.2 -1.2,1.2 H 21.3 c -0.7,0 -1.2,-0.6 -1.2,-1.2 v -15 c 0,-0.7 0.6,-1.2 1.2,-1.2 h 17.5 c 0.7,0 1.2,0.6 1.2,1.2 z"
   id="path3"
   style="fill:#f9b2d1;fill-opacity:1" />
	</g>
</svg>
