<svg width="1000" height="250" viewBox="0 0 1000 250" fill="none" xmlns="http://www.w3.org/2000/svg">
<path d="M299.006 177.207C290.46 177.207 282.423 175.356 274.895 171.654C267.57 167.952 261.669 162.594 257.193 155.579C252.716 148.565 250.478 140.186 250.478 130.444C250.682 117 255.26 106.38 264.213 98.5865C273.165 90.5978 284.763 86.6034 299.006 86.6034C304.499 86.6034 309.891 87.188 315.182 88.3571C320.472 89.5261 325.05 91.6695 328.916 94.787C331.968 97.1252 333.494 100.145 333.494 103.847C333.494 106.965 332.273 109.79 329.831 112.323C327.593 114.856 324.745 116.123 321.286 116.123C319.047 116.123 317.013 115.538 315.182 114.369C312.129 112.81 309.383 111.739 306.941 111.154C304.703 110.57 302.16 110.277 299.311 110.277C292.596 110.277 287.103 112.128 282.83 115.83C278.557 119.533 276.421 124.501 276.421 130.736C276.421 137.946 278.761 143.596 283.44 147.688C288.12 151.585 293.614 153.533 299.921 153.533C307.043 153.533 313.757 151 320.065 145.934C322.506 144.181 324.846 143.304 327.084 143.304C330.34 143.304 333.087 144.57 335.325 147.103C337.767 149.636 338.987 152.559 338.987 155.871C338.987 157.235 338.682 158.794 338.072 160.548C337.461 162.107 336.342 163.665 334.715 165.224C329.221 169.511 323.32 172.531 317.013 174.285C310.909 176.233 304.906 177.207 299.006 177.207ZM397.892 177.207C389.143 177.207 381.106 175.259 373.781 171.362C366.456 167.465 360.555 162.107 356.079 155.287C351.806 148.272 349.67 140.381 349.67 131.613C349.67 122.65 351.806 114.856 356.079 108.231C360.555 101.412 366.456 96.1509 373.781 92.4488C381.106 88.5519 389.143 86.6034 397.892 86.6034C406.845 86.6034 414.882 88.5519 422.003 92.4488C429.328 96.1509 435.127 101.412 439.4 108.231C443.673 114.856 445.809 122.65 445.809 131.613C445.809 140.381 443.673 148.272 439.4 155.287C435.127 162.107 429.328 167.465 422.003 171.362C414.882 175.259 406.845 177.207 397.892 177.207ZM397.892 153.533C404.2 153.533 409.286 151.487 413.152 147.396C417.222 143.109 419.256 137.848 419.256 131.613C419.256 125.183 417.222 120.02 413.152 116.123C409.286 112.226 404.2 110.277 397.892 110.277C391.788 110.277 386.599 112.226 382.327 116.123C378.257 120.02 376.223 125.183 376.223 131.613C376.223 137.848 378.257 143.109 382.327 147.396C386.599 151.487 391.788 153.533 397.892 153.533ZM495.862 177.207C482.026 177.207 470.632 174.479 461.679 169.024C459.848 167.855 458.526 166.491 457.712 164.932C456.898 163.178 456.491 161.522 456.491 159.963C456.491 156.651 457.61 153.631 459.848 150.903C462.29 148.175 465.24 146.811 468.699 146.811C470.327 146.811 471.955 147.201 473.582 147.98C477.245 149.539 481.416 150.903 486.096 152.072C490.776 153.046 495.048 153.533 498.914 153.533C506.443 153.533 510.207 151.877 510.207 148.565C510.207 146.616 509.291 144.96 507.46 143.596C505.629 142.037 501.356 140.966 494.641 140.381C491.996 140.186 488.537 139.797 484.265 139.212C480.195 138.628 476.126 137.556 472.056 135.997C467.987 134.243 464.528 131.71 461.679 128.398C459.034 125.086 457.712 120.604 457.712 114.954C457.712 106.186 461.171 99.2685 468.089 94.2025C475.007 89.1364 484.265 86.6034 495.862 86.6034C502.577 86.6034 508.884 87.2854 514.785 88.6493C520.889 90.0133 525.467 92.0591 528.519 94.787C531.368 97.32 532.792 100.243 532.792 103.555C532.792 106.478 531.673 109.108 529.435 111.446C527.196 113.785 524.348 114.954 520.889 114.954C519.058 114.954 517.328 114.564 515.701 113.785C513.259 112.226 510.105 111.057 506.239 110.277C502.577 109.498 498.813 109.108 494.947 109.108C487.215 109.108 483.349 110.667 483.349 113.785C483.349 115.148 484.061 116.415 485.485 117.584C487.113 118.558 490.674 119.435 496.167 120.215C499.626 120.604 503.594 121.189 508.07 121.968C512.547 122.553 516.82 123.722 520.889 125.475C525.162 127.034 528.723 129.665 531.571 133.367C534.42 137.069 535.844 142.135 535.844 148.565C535.844 157.333 532.182 164.347 524.857 169.608C517.532 174.674 507.867 177.207 495.862 177.207ZM591.697 177.207C578.064 177.207 567.077 173.115 558.735 164.932C550.596 156.553 546.526 145.447 546.526 131.613C546.526 117.779 550.494 106.868 558.429 98.8788C566.568 90.6952 577.352 86.6034 590.781 86.6034C599.53 86.6034 607.364 89.6236 614.282 95.6638V57.3764C614.282 54.064 615.502 51.3362 617.944 49.1928C620.386 46.8547 623.539 45.6856 627.405 45.6856C631.475 45.6856 634.73 46.8547 637.172 49.1928C639.817 51.3362 641.14 53.9666 641.14 57.0841V165.809C641.14 169.121 639.817 171.849 637.172 173.992C634.73 176.136 631.475 177.207 627.405 177.207C620.894 177.207 616.723 174.479 614.892 169.024C608.584 174.479 600.853 177.207 591.697 177.207ZM593.833 153.533C599.937 153.533 604.82 151.487 608.483 147.396C612.349 143.109 614.282 137.848 614.282 131.613C614.282 125.183 612.349 120.02 608.483 116.123C604.82 112.226 599.937 110.277 593.833 110.277C587.525 110.277 582.439 112.226 578.573 116.123C574.91 120.02 573.079 125.183 573.079 131.613C573.079 137.848 574.91 143.109 578.573 147.396C582.439 151.487 587.525 153.533 593.833 153.533ZM703.706 177.207C690.074 177.207 678.985 173.115 670.439 164.932C662.097 156.553 657.926 145.447 657.926 131.613C657.926 117.779 661.995 106.868 670.134 98.8788C678.476 90.6952 689.362 86.6034 702.791 86.6034C712.354 86.6034 720.696 89.8184 727.817 96.2484C728.631 93.9102 730.157 91.9617 732.395 90.4029C734.634 88.8442 737.279 88.0648 740.331 88.0648C744.4 88.0648 747.656 89.2339 750.097 91.572C752.742 93.7153 754.065 96.3458 754.065 99.4633V165.809C754.065 169.121 752.742 171.849 750.097 173.992C747.656 176.136 744.4 177.207 740.331 177.207C733.616 177.207 729.445 174.382 727.817 168.731C721.306 174.382 713.269 177.207 703.706 177.207ZM705.843 153.533C712.354 153.533 717.542 151.487 721.408 147.396C725.274 143.109 727.207 137.848 727.207 131.613C727.207 125.183 725.274 120.02 721.408 116.123C717.542 112.226 712.354 110.277 705.843 110.277C699.535 110.277 694.347 112.226 690.277 116.123C686.411 120.02 684.478 125.183 684.478 131.613C684.478 137.848 686.411 143.109 690.277 147.396C694.347 151.487 699.535 153.533 705.843 153.533ZM815.106 177.207C806.357 177.207 799.134 174.772 793.436 169.9C787.739 165.029 784.891 157.528 784.891 147.396V115.83C784.891 113.882 783.873 112.908 781.839 112.908H777.261C773.598 112.908 770.851 111.836 769.02 109.693C767.189 107.549 766.273 104.822 766.273 101.509C766.273 98.002 767.189 95.1767 769.02 93.0334C770.851 90.6952 773.598 89.5261 777.261 89.5261H781.839C783.873 89.5261 784.891 88.5519 784.891 86.6034V64.9754C784.891 61.663 786.112 58.8378 788.553 56.4996C790.995 54.1614 794.149 52.9924 798.014 52.9924C801.88 52.9924 805.034 54.1614 807.476 56.4996C810.121 58.6429 811.443 61.4682 811.443 64.9754V86.6034C811.443 88.5519 812.461 89.5261 814.495 89.5261H825.788C829.247 89.5261 832.096 90.6952 834.334 93.0334C836.775 95.3715 837.996 98.1968 837.996 101.509C837.996 104.822 836.775 107.549 834.334 109.693C832.096 111.836 829.145 112.908 825.483 112.908H814.495C812.461 112.908 811.443 113.882 811.443 115.83V143.304C811.443 146.811 812.054 149.247 813.275 150.611C814.699 151.975 816.428 152.657 818.463 152.657C819.277 152.657 820.905 152.462 823.346 152.072C825.788 151.487 827.314 151.195 827.924 151.195C831.18 151.195 833.927 152.364 836.165 154.702C838.403 157.041 839.522 159.866 839.522 163.178C839.522 165.711 838.708 168.049 837.081 170.193C835.656 172.336 833.316 173.895 830.061 174.869C827.416 175.648 824.872 176.233 822.431 176.623C819.989 177.012 817.547 177.207 815.106 177.207ZM894.459 177.207C880.826 177.207 869.737 173.115 861.191 164.932C852.849 156.553 848.678 145.447 848.678 131.613C848.678 117.779 852.747 106.868 860.886 98.8788C869.228 90.6952 880.114 86.6034 893.543 86.6034C903.106 86.6034 911.448 89.8184 918.57 96.2484C919.384 93.9102 920.91 91.9617 923.148 90.4029C925.386 88.8442 928.031 88.0648 931.083 88.0648C935.152 88.0648 938.408 89.2339 940.85 91.572C943.495 93.7153 944.817 96.3458 944.817 99.4633V165.809C944.817 169.121 943.495 171.849 940.85 173.992C938.408 176.136 935.152 177.207 931.083 177.207C924.369 177.207 920.197 174.382 918.57 168.731C912.059 174.382 904.022 177.207 894.459 177.207ZM896.595 153.533C903.106 153.533 908.295 151.487 912.16 147.396C916.026 143.109 917.959 137.848 917.959 131.613C917.959 125.183 916.026 120.02 912.16 116.123C908.295 112.226 903.106 110.277 896.595 110.277C890.287 110.277 885.099 112.226 881.03 116.123C877.164 120.02 875.231 125.183 875.231 131.613C875.231 137.848 877.164 143.109 881.03 147.396C885.099 151.487 890.287 153.533 896.595 153.533Z" fill="white" fill-opacity="0.901961" stroke="white" stroke-opacity="0.917647"/>
<path d="M117.415 63.8406L172.167 44.5735C175.379 44.339 178.497 45.2821 181.337 49.7527L200.789 113.103C200.964 114.592 199.416 116.56 197.029 116.101L117.281 69.0037C114.565 66.8345 115.705 64.9483 117.415 63.8406Z" fill="white" stroke="white" stroke-width="0.999999"/>
<path d="M186.426 49.7136L211.835 114.621C213.413 116.821 215.039 118.986 218.281 119.936C219.386 120.149 220.706 120.038 221.417 119.741C223.569 118.588 223.33 117.585 223.076 116.48L187.49 49.1221C187.282 48.6767 186.286 48.4266 186.426 49.7136Z" fill="white" stroke="white" stroke-width="0.999999"/>
<path d="M104.648 78.3321C105.359 74.7313 108.308 74.3271 109.969 74.5507L191.088 121.63C194.64 124.911 193.428 127.309 191.661 129.098L110.82 175.025C108.232 175.523 105.466 174.047 104.861 171.977L104.648 78.3321Z" fill="white" stroke="white" stroke-width="0.999999"/>
<path d="M117.542 178.86L195.052 134.445C198.226 133.488 199.919 134.227 199.448 137.445L181.023 206.611C178.733 209.926 175.999 209.695 173.273 209.171L117.909 183.84C115.159 182.416 115.885 180.277 117.542 178.86Z" fill="white" stroke="white" stroke-width="0.999999"/>
<path d="M185.261 208.231L207.494 143.843C208.998 140.058 210.038 138.75 211.203 137.215C214.364 134.224 216.397 133.482 218.349 132.898C220.003 132.534 221.518 132.666 222.726 133.908C223.351 134.823 224.078 135.466 223.034 138.554L186.488 208.85C185.473 209.383 185.287 208.842 185.261 208.231Z" fill="white" stroke="white" stroke-width="0.999999"/>
<path d="M90.5757 44.4814L158.028 42.0723C159.908 42.25 159.958 43.1664 158.264 43.8311L105.989 58.238C103.02 58.9104 101.551 59.0584 97.6118 57.7878L88.537 49.677C87.7897 48.0853 88.1704 46.836 88.571 46.0239C88.9346 45.4024 89.5871 44.8827 90.5757 44.4814Z" fill="white" stroke="white" stroke-width="0.999999"/>
<path d="M87.2137 207.272L97.608 193.042C99.5554 191.385 100.955 190.82 102.521 190.598C103.917 190.379 105.39 190.285 108.74 190.939L164.306 211.18C164.868 211.547 165.816 212.852 163.883 213.597L90.7804 211.505C88.535 211.26 86.481 209.815 87.2137 207.272Z" fill="white" stroke="white" stroke-width="0.999999"/>
<path d="M31.547 130.647L89.768 171.758C94.5607 173.558 95.8838 170.884 96.5764 168.583L95.7812 82.5908C95.6935 77.3525 92.1417 77.2614 90.2024 78.0559L33.2991 123.295C30.0149 126.231 30.442 128.586 31.547 130.647Z" fill="white" stroke="white" stroke-width="0.999999"/>
<path d="M32.1212 114.831L70.9499 50.7898C73.4425 48.6239 76.2906 48.5698 78.732 49.8319L87.1948 58.9288C87.8029 60.4761 88.9403 64.2276 86.5187 67.5263L33.6142 115.988C32.7417 116.66 31.2424 116.949 32.1212 114.831Z" fill="white" stroke="white" stroke-width="0.999999"/>
<path d="M33.0241 141.197L70.7797 204.147C73.7005 207.656 76.5332 206.94 78.2586 205.373L88.9315 191.367C90.3275 188.874 90.3584 185.424 88.3452 182.028L35.0701 139.816C34.2435 139.395 32.5006 138.873 33.0241 141.197Z" fill="white" stroke="white" stroke-width="0.999999"/>
</svg>
