<?xml version="1.0" encoding="UTF-8" standalone="no"?>
<svg
   viewBox="0 0 148.99 210"
   version="1.1"
   id="svg171"
   sodipodi:docname="protection.svg"
   inkscape:version="1.3.2 (091e20ef0f, 2023-11-25)"
   width="148.99001"
   height="210"
   xmlns:inkscape="http://www.inkscape.org/namespaces/inkscape"
   xmlns:sodipodi="http://sodipodi.sourceforge.net/DTD/sodipodi-0.dtd"
   xmlns:xlink="http://www.w3.org/1999/xlink"
   xmlns="http://www.w3.org/2000/svg"
   xmlns:svg="http://www.w3.org/2000/svg"
   xmlns:rdf="http://www.w3.org/1999/02/22-rdf-syntax-ns#"
   xmlns:cc="http://creativecommons.org/ns#"
   xmlns:dc="http://purl.org/dc/elements/1.1/">
  <sodipodi:namedview
     id="namedview171"
     pagecolor="#ffffff"
     bordercolor="#000000"
     borderopacity="0.25"
     inkscape:showpageshadow="2"
     inkscape:pageopacity="0.0"
     inkscape:pagecheckerboard="0"
     inkscape:deskcolor="#d1d1d1"
     inkscape:zoom="6.3359955"
     inkscape:cx="59.02782"
     inkscape:cy="103.77217"
     inkscape:window-width="1876"
     inkscape:window-height="1138"
     inkscape:window-x="0"
     inkscape:window-y="0"
     inkscape:window-maximized="1"
     inkscape:current-layer="svg171" />
  <defs
     id="defs16">
    <linearGradient
       id="linearGradient185"
       x1="-100.95"
       y1="131.07001"
       x2="-62.209999"
       y2="131.07001"
       gradientTransform="matrix(-1,0,0,1,-59.06,0)"
       gradientUnits="userSpaceOnUse"
       spreadMethod="pad">
      <stop
         offset="0"
         stop-color="#4d9ed7"
         id="stop182"
         style="stop-color:#1d3647;stop-opacity:1;" />
      <stop
         offset="0.27000001"
         stop-color="#54a6dc"
         id="stop183"
         style="stop-color:#255371;stop-opacity:1;" />
      <stop
         offset="0.66000003"
         stop-color="#66bbe9"
         id="stop184"
         style="stop-color:#2f5970;stop-opacity:1;" />
      <stop
         offset="1"
         stop-color="#67bce9"
         id="stop185"
         style="stop-color:#4e585d;stop-opacity:1;" />
    </linearGradient>
    <linearGradient
       id="linearGradient182"
       x1="-100.95"
       y1="131.07001"
       x2="-62.209999"
       y2="131.07001"
       gradientTransform="matrix(-1,0,0,1,-59.06,0)"
       gradientUnits="userSpaceOnUse"
       spreadMethod="pad">
      <stop
         offset="0"
         stop-color="#4d9ed7"
         id="stop179"
         style="stop-color:#e967c3;stop-opacity:1;" />
      <stop
         offset="0.27000001"
         stop-color="#54a6dc"
         id="stop180"
         style="stop-color:#cc48a5;stop-opacity:1;" />
    </linearGradient>
    <linearGradient
       id="linearGradient178"
       x1="-100.95"
       y1="131.07001"
       x2="-62.209999"
       y2="131.07001"
       gradientTransform="matrix(-1,0,0,1,-59.06,0)"
       gradientUnits="userSpaceOnUse"
       spreadMethod="pad">
      <stop
         offset="0"
         stop-color="#4d9ed7"
         id="stop175" />
      <stop
         offset="0.27000001"
         stop-color="#54a6dc"
         id="stop176"
         style="stop-color:#dc54a7;stop-opacity:1;" />
      <stop
         offset="0.66"
         stop-color="#66bbe9"
         id="stop177" />
      <stop
         offset="1"
         stop-color="#67bce9"
         id="stop178" />
    </linearGradient>
    <linearGradient
       id="linearGradient174"
       x1="-100.95"
       y1="131.07001"
       x2="-62.209999"
       y2="131.07001"
       gradientTransform="matrix(-1,0,0,1,-59.06,0)"
       gradientUnits="userSpaceOnUse">
      <stop
         offset="0"
         stop-color="#4d9ed7"
         id="stop171" />
      <stop
         offset="0.27000001"
         stop-color="#54a6dc"
         id="stop172"
         style="stop-color:#dc5497;stop-opacity:1;" />
      <stop
         offset="0.66"
         stop-color="#66bbe9"
         id="stop173" />
      <stop
         offset="1"
         stop-color="#67bce9"
         id="stop174" />
    </linearGradient>
    <linearGradient
       id="2c49d36d-e862-4de1-8c9b-e999db50597e"
       x1="-553.22998"
       y1="25.01"
       x2="-532.60999"
       y2="25.01"
       gradientTransform="translate(610.73)"
       gradientUnits="userSpaceOnUse">
      <stop
         offset="0"
         stop-color="#ff9800"
         id="stop1" />
      <stop
         offset="1"
         stop-color="#ffc107"
         id="stop2" />
    </linearGradient>
    <linearGradient
       id="eb7289b0-2807-43a1-9ef3-43fc374d230e"
       x1="57.5"
       y1="25.01"
       x2="78.129997"
       y2="25.01"
       gradientUnits="userSpaceOnUse">
      <stop
         offset="0"
         stop-color="#67bce9"
         id="stop3"
         style="stop-color:#e967b2;stop-opacity:1;" />
      <stop
         offset="1"
         stop-color="#4d9ed7"
         id="stop4"
         style="stop-color:#c8479c;stop-opacity:1;" />
    </linearGradient>
    <linearGradient
       id="956aad47-7050-4dd7-b297-4d7cd9b41c6a"
       x1="70.029999"
       y1="18.74"
       x2="61.689999"
       y2="33.169998"
       gradientUnits="userSpaceOnUse">
      <stop
         offset="0"
         stop-color="#67bce9"
         id="stop5"
         style="stop-color:#e967c3;stop-opacity:1;" />
      <stop
         offset="1"
         stop-color="#4d9ed7"
         id="stop8"
         style="stop-color:#ec9ad5;stop-opacity:1;" />
    </linearGradient>
    <linearGradient
       id="84b1d646-ff35-4b2a-8e07-d17d83f34a6a"
       x1="-100.95"
       y1="131.07001"
       x2="-62.209999"
       y2="131.07001"
       gradientTransform="matrix(-1,0,0,1,-59.06,0)"
       gradientUnits="userSpaceOnUse"
       xlink:href="#linearGradient178">
      <stop
         offset="0"
         stop-color="#4d9ed7"
         id="stop9" />
      <stop
         offset="0.27"
         stop-color="#54a6dc"
         id="stop10" />
      <stop
         offset="0.66"
         stop-color="#66bbe9"
         id="stop11" />
      <stop
         offset="1"
         stop-color="#67bce9"
         id="stop12" />
    </linearGradient>
    <linearGradient
       id="4103d0fc-7a65-4428-b37b-5e18c0990d8d"
       x1="-67.110001"
       y1="139.33"
       x2="-59.549999"
       y2="139.33"
       xlink:href="#linearGradient185" />
    <linearGradient
       id="9953bf47-d813-42c5-a3af-4e1b1d910883"
       x1="-69.910004"
       y1="155.94"
       x2="-61.759998"
       y2="155.94"
       xlink:href="#84b1d646-ff35-4b2a-8e07-d17d83f34a6a" />
    <linearGradient
       id="be3d29e2-dc2d-4ab9-886b-a360843be45b"
       x1="91.790001"
       y1="160.85001"
       x2="98.300003"
       y2="160.85001"
       xlink:href="#linearGradient182" />
    <linearGradient
       id="7c5dddf6-48b2-4642-8e08-48004580db2c"
       x1="1048.33"
       y1="136.83"
       x2="1065.53"
       y2="136.83"
       gradientTransform="matrix(-1,0,0,1,1166.26,0)"
       gradientUnits="userSpaceOnUse">
      <stop
         offset="0"
         stop-color="#ebe9ec"
         id="stop13" />
      <stop
         offset="1"
         stop-color="#99a7d8"
         id="stop14" />
    </linearGradient>
    <linearGradient
       id="8d6bb539-3ed2-451e-a5fc-e0a8dc5f5bb3"
       x1="1036.98"
       y1="147.32001"
       x2="1065.0601"
       y2="147.32001"
       gradientTransform="matrix(-1,0,0,1,1166.26,0)"
       gradientUnits="userSpaceOnUse">
      <stop
         offset="0"
         stop-color="#fff"
         id="stop15" />
      <stop
         offset="1"
         stop-color="#99a7d8"
         id="stop16" />
    </linearGradient>
    <linearGradient
       id="49e6d43e-57df-4ade-a8f9-f1133f4752b6"
       x1="102.78"
       y1="140.61"
       x2="116.81"
       y2="140.61"
       xlink:href="#84b1d646-ff35-4b2a-8e07-d17d83f34a6a" />
    <linearGradient
       id="b2f8245d-0b0f-4b41-984a-ee0f0361bcf4"
       x1="131.32001"
       y1="149.74001"
       x2="140.53999"
       y2="149.74001"
       xlink:href="#84b1d646-ff35-4b2a-8e07-d17d83f34a6a" />
    <linearGradient
       id="21ca84c2-2319-4130-914e-34ffef31148d"
       x1="130.85001"
       y1="145.86"
       x2="135.92"
       y2="145.86"
       xlink:href="#84b1d646-ff35-4b2a-8e07-d17d83f34a6a" />
  </defs>
  <title
     id="title16">protection</title>
  <g
     id="eb214d1f-dc6c-451f-bd00-56e5d40c8cdf"
     transform="translate(-7.2908274,5.3718041)">
    <g
       id="g168">
      <g
         style="opacity:0.5"
         id="g65">
        <path
           id="aba76ba4-6f15-46a6-aa59-8bd59a187ef0"
           d="m 25.58,151.41 40,-23.11 a 4.33,4.33 0 0 1 4.33,0 l 40,23.11 a 3.07,3.07 0 0 1 0,5.31 l -40,23.11 a 4.33,4.33 0 0 1 -4.33,0 l -40,-23.11 a 3.07,3.07 0 0 1 0,-5.31 z"
           style="opacity:0;fill:#ffffff" />
        <path
           d="m 25.77,151.42 39.84,-23 a 4.31,4.31 0 0 1 4.31,0 l 39.84,23 a 3.05,3.05 0 0 1 0,5.29 l -39.84,23 a 4.31,4.31 0 0 1 -4.31,0 l -39.84,-23 a 3.05,3.05 0 0 1 0,-5.29 z"
           style="opacity:0.019608;fill:#fbfbfc"
           id="path16" />
        <path
           d="m 26,151.43 39.66,-22.9 a 4.29,4.29 0 0 1 4.29,0 l 39.66,22.9 a 3,3 0 0 1 0,5.27 l -39.7,22.9 a 4.29,4.29 0 0 1 -4.29,0 L 26,156.7 a 3,3 0 0 1 0,-5.27 z"
           style="opacity:0.039216;fill:#f8f8f9"
           id="path17" />
        <path
           d="m 26.15,151.44 39.48,-22.79 a 4.27,4.27 0 0 1 4.27,0 l 39.48,22.79 a 3,3 0 0 1 0,5.24 l -39.48,22.8 a 4.27,4.27 0 0 1 -4.27,0 L 26.15,156.69 a 3,3 0 0 1 0,-5.25 z"
           style="opacity:0.058824;fill:#f4f4f6"
           id="path18" />
        <path
           d="m 26.34,151.46 39.3,-22.69 a 4.25,4.25 0 0 1 4.25,0 l 39.3,22.69 a 3,3 0 0 1 0,5.22 l -39.3,22.69 a 4.25,4.25 0 0 1 -4.25,0 l -39.3,-22.69 a 3,3 0 0 1 0,-5.22 z"
           style="opacity:0.078431;fill:#f1f1f3"
           id="path19" />
        <path
           d="m 26.54,151.47 39.12,-22.58 a 4.23,4.23 0 0 1 4.23,0 L 109,151.47 a 3,3 0 0 1 0,5.19 l -39.12,22.59 a 4.23,4.23 0 0 1 -4.23,0 L 26.54,156.66 a 3,3 0 0 1 0,-5.19 z"
           style="opacity:0.098039;fill:#ededf0"
           id="path20" />
        <path
           d="M 26.73,151.48 65.66,129 a 4.21,4.21 0 0 1 4.21,0 l 38.93,22.48 a 3,3 0 0 1 0,5.17 l -38.93,22.48 a 4.21,4.21 0 0 1 -4.21,0 L 26.73,156.65 a 3,3 0 0 1 0,-5.17 z"
           style="opacity:0.117647;fill:#e9e9ed"
           id="path21" />
        <path
           d="m 26.92,151.49 38.75,-22.37 a 4.19,4.19 0 0 1 4.19,0 l 38.75,22.37 a 3,3 0 0 1 0,5.15 L 69.86,179 a 4.19,4.19 0 0 1 -4.19,0 L 26.92,156.64 a 3,3 0 0 1 0,-5.15 z"
           style="opacity:0.137255;fill:#e6e6eb"
           id="path22" />
        <path
           d="m 27.11,151.5 38.57,-22.27 a 4.17,4.17 0 0 1 4.17,0 l 38.57,22.27 a 3,3 0 0 1 0,5.12 l -38.57,22.27 a 4.17,4.17 0 0 1 -4.17,0 L 27.11,156.63 a 3,3 0 0 1 0,-5.13 z"
           style="opacity:0.156863;fill:#e2e2e8"
           id="path23" />
        <path
           d="m 27.3,151.52 38.39,-22.16 a 4.15,4.15 0 0 1 4.15,0 l 38.39,22.16 a 2.94,2.94 0 0 1 0,5.1 l -38.39,22.16 a 4.15,4.15 0 0 1 -4.15,0 L 27.3,156.61 a 2.94,2.94 0 0 1 0,-5.09 z"
           style="opacity:0.176471;fill:#dfdfe5"
           id="path24" />
        <path
           d="M 27.49,151.53 65.7,129.47 a 4.13,4.13 0 0 1 4.13,0 L 108,151.53 a 2.93,2.93 0 0 1 0,5.07 l -38.17,22.06 a 4.13,4.13 0 0 1 -4.13,0 L 27.49,156.6 a 2.93,2.93 0 0 1 0,-5.07 z"
           style="opacity:0.196078;fill:#dbdbe2"
           id="path25" />
        <path
           d="m 27.68,151.54 38,-22 a 4.11,4.11 0 0 1 4.11,0 l 38,22 a 2.92,2.92 0 0 1 0,5 l -38,22 a 4.11,4.11 0 0 1 -4.11,0 l -38,-22 a 2.92,2.92 0 0 1 0,-5 z"
           style="opacity:0.215686;fill:#d8d8df"
           id="path26" />
        <path
           d="M 27.88,151.55 65.72,129.7 a 4.09,4.09 0 0 1 4.09,0 l 37.84,21.85 a 2.9,2.9 0 0 1 0,5 l -37.84,21.88 a 4.09,4.09 0 0 1 -4.09,0 L 27.88,156.58 a 2.9,2.9 0 0 1 0,-5.03 z"
           style="opacity:0.235294;fill:#d4d4dc"
           id="path27" />
        <path
           d="m 28.07,151.56 37.66,-21.74 a 4.07,4.07 0 0 1 4.07,0 l 37.66,21.74 a 2.89,2.89 0 0 1 0,5 L 69.8,178.31 a 4.07,4.07 0 0 1 -4.07,0 L 28.07,156.57 a 2.89,2.89 0 0 1 0,-5.01 z"
           style="opacity:0.254902;fill:#d0d0d9"
           id="path28" />
        <path
           d="m 28.26,151.58 37.48,-21.64 a 4.05,4.05 0 0 1 4.05,0 l 37.48,21.64 a 2.87,2.87 0 0 1 0,5 l -37.48,21.61 a 4.05,4.05 0 0 1 -4.05,0 L 28.26,156.55 a 2.87,2.87 0 0 1 0,-4.97 z"
           style="opacity:0.27451;fill:#cdcdd6"
           id="path29" />
        <path
           d="m 28.45,151.59 37.3,-21.53 a 4,4 0 0 1 4,0 l 37.3,21.53 a 2.86,2.86 0 0 1 0,5 l -37.3,21.53 a 4,4 0 0 1 -4,0 l -37.3,-21.53 a 2.86,2.86 0 0 1 0,-5 z"
           style="opacity:0.294118;fill:#c9c9d3"
           id="path30" />
        <path
           d="m 28.64,151.6 37.12,-21.43 a 4,4 0 0 1 4,0 l 37.12,21.43 a 2.85,2.85 0 0 1 0,4.93 L 69.77,178 a 4,4 0 0 1 -4,0 L 28.64,156.53 a 2.85,2.85 0 0 1 0,-4.93 z"
           style="opacity:0.313725;fill:#c6c6d0"
           id="path31" />
        <path
           d="m 28.84,151.61 36.93,-21.32 a 4,4 0 0 1 4,0 l 36.93,21.32 a 2.83,2.83 0 0 1 0,4.9 l -36.94,21.33 a 4,4 0 0 1 -4,0 L 28.84,156.52 a 2.83,2.83 0 0 1 0,-4.91 z"
           style="opacity:0.333333;fill:#c2c2cd"
           id="path32" />
        <path
           d="m 29,151.63 36.75,-21.22 a 4,4 0 0 1 4,0 l 36.75,21.22 a 2.82,2.82 0 0 1 0,4.88 l -36.75,21.21 a 4,4 0 0 1 -4,0 L 29,156.51 a 2.82,2.82 0 0 1 0,-4.88 z"
           style="opacity:0.352941;fill:#bebeca"
           id="path33" />
        <path
           d="m 29.22,151.64 36.57,-21.11 a 4,4 0 0 1 4,0 l 36.57,21.11 a 2.8,2.8 0 0 1 0,4.86 l -36.62,21.11 a 4,4 0 0 1 -4,0 L 29.22,156.49 a 2.8,2.8 0 0 1 0,-4.85 z"
           style="opacity:0.372549;fill:#bbbbc7"
           id="path34" />
        <path
           d="m 29.41,151.65 36.39,-21 a 3.93,3.93 0 0 1 3.93,0 l 36.39,21 a 2.79,2.79 0 0 1 0,4.83 l -36.39,21 a 3.93,3.93 0 0 1 -3.93,0 l -36.39,-21 a 2.79,2.79 0 0 1 0,-4.83 z"
           style="opacity:0.392157;fill:#b7b7c5"
           id="path35" />
        <path
           d="m 29.6,151.66 36.21,-20.9 a 3.92,3.92 0 0 1 3.92,0 l 36.21,20.9 a 2.78,2.78 0 0 1 0,4.81 l -36.21,20.9 a 3.92,3.92 0 0 1 -3.92,0 L 29.6,156.47 a 2.78,2.78 0 0 1 0,-4.81 z"
           style="opacity:0.411765;fill:#b4b4c2"
           id="path36" />
        <path
           d="m 29.79,151.67 36,-20.8 a 3.9,3.9 0 0 1 3.9,0 l 36,20.8 a 2.76,2.76 0 0 1 0,4.78 l -36,20.8 a 3.9,3.9 0 0 1 -3.9,0 l -36,-20.8 a 2.76,2.76 0 0 1 0,-4.78 z"
           style="opacity:0.431373;fill:#b0b0bf"
           id="path37" />
        <path
           d="M 30,151.69 65.83,131 a 3.88,3.88 0 0 1 3.88,0 l 35.84,20.69 a 2.75,2.75 0 0 1 0,4.76 L 69.7,177.14 a 3.88,3.88 0 0 1 -3.88,0 L 30,156.44 a 2.75,2.75 0 0 1 0,-4.75 z"
           style="opacity:0.45098;fill:#acacbc"
           id="path38" />
        <path
           d="m 30.18,151.7 35.66,-20.59 a 3.86,3.86 0 0 1 3.86,0 l 35.66,20.59 a 2.73,2.73 0 0 1 0,4.74 L 69.69,177 a 3.86,3.86 0 0 1 -3.86,0 L 30.18,156.43 a 2.73,2.73 0 0 1 0,-4.73 z"
           style="opacity:0.470588;fill:#a9a9b9"
           id="path39" />
        <path
           d="m 30.37,151.71 35.48,-20.48 a 3.84,3.84 0 0 1 3.84,0 l 35.48,20.48 a 2.72,2.72 0 0 1 0,4.71 L 69.68,176.9 a 3.84,3.84 0 0 1 -3.84,0 L 30.37,156.42 a 2.72,2.72 0 0 1 0,-4.71 z"
           style="opacity:0.490196;fill:#a5a5b6"
           id="path40" />
        <path
           d="m 30.56,151.72 35.3,-20.38 a 3.82,3.82 0 0 1 3.82,0 L 105,151.72 a 2.71,2.71 0 0 1 0,4.69 l -35.3,20.38 a 3.82,3.82 0 0 1 -3.82,0 l -35.3,-20.38 a 2.71,2.71 0 0 1 -0.02,-4.69 z"
           style="opacity:0.509804;fill:#a2a2b3"
           id="path41" />
        <path
           d="m 30.75,151.73 35.12,-20.27 a 3.8,3.8 0 0 1 3.8,0 l 35.12,20.27 a 2.69,2.69 0 0 1 0,4.66 l -35.13,20.28 a 3.8,3.8 0 0 1 -3.8,0 L 30.75,156.4 a 2.69,2.69 0 0 1 0,-4.67 z"
           style="opacity:0.529412;fill:#9e9eb0"
           id="path42" />
        <path
           d="m 30.94,151.75 34.93,-20.17 a 3.78,3.78 0 0 1 3.78,0 l 34.93,20.17 a 2.68,2.68 0 0 1 0,4.64 l -34.93,20.16 a 3.78,3.78 0 0 1 -3.78,0 L 30.94,156.38 a 2.68,2.68 0 0 1 0,-4.63 z"
           style="opacity:0.54902;fill:#9b9bad"
           id="path43" />
        <path
           d="M 31.13,151.76 65.88,131.7 a 3.76,3.76 0 0 1 3.76,0 l 34.75,20.06 a 2.66,2.66 0 0 1 0,4.61 l -34.74,20.07 a 3.76,3.76 0 0 1 -3.76,0 L 31.13,156.37 a 2.66,2.66 0 0 1 0,-4.61 z"
           style="opacity:0.568627;fill:#9797aa"
           id="path44" />
        <path
           d="m 31.33,151.77 34.57,-20 a 3.74,3.74 0 0 1 3.74,0 l 34.57,20 a 2.65,2.65 0 0 1 0,4.59 l -34.57,20 a 3.74,3.74 0 0 1 -3.74,0 l -34.57,-20 a 2.65,2.65 0 0 1 0,-4.59 z"
           style="opacity:0.588235;fill:#9393a7"
           id="path45" />
        <path
           d="m 31.52,151.78 34.39,-19.85 a 3.72,3.72 0 0 1 3.72,0 L 104,151.78 a 2.64,2.64 0 0 1 0,4.57 L 69.63,176.2 a 3.72,3.72 0 0 1 -3.72,0 L 31.52,156.35 a 2.64,2.64 0 0 1 0,-4.57 z"
           style="opacity:0.607843;fill:#9090a4"
           id="path46" />
        <path
           d="M 31.71,151.79 65.92,132 a 3.7,3.7 0 0 1 3.7,0 l 34.21,19.75 a 2.62,2.62 0 0 1 0,4.54 l -34.21,19.8 a 3.7,3.7 0 0 1 -3.7,0 L 31.71,156.34 a 2.62,2.62 0 0 1 0,-4.55 z"
           style="opacity:0.627451;fill:#8c8ca2"
           id="path47" />
        <path
           d="m 31.9,151.81 34,-19.64 a 3.68,3.68 0 0 1 3.68,0 l 34,19.64 a 2.61,2.61 0 0 1 0,4.52 L 69.61,176 a 3.68,3.68 0 0 1 -3.68,0 l -34,-19.64 a 2.61,2.61 0 0 1 -0.03,-4.55 z"
           style="opacity:0.647059;fill:#89899f"
           id="path48" />
        <path
           d="m 32.09,151.82 33.84,-19.54 a 3.66,3.66 0 0 1 3.66,0 l 33.84,19.54 a 2.59,2.59 0 0 1 0,4.49 L 69.6,175.85 a 3.66,3.66 0 0 1 -3.66,0 L 32.09,156.31 a 2.59,2.59 0 0 1 0,-4.49 z"
           style="opacity:0.666667;fill:#85859c"
           id="path49" />
        <path
           d="M 32.29,151.83 65.95,132.4 a 3.64,3.64 0 0 1 3.64,0 l 33.66,19.43 a 2.58,2.58 0 0 1 0,4.47 l -33.66,19.43 a 3.64,3.64 0 0 1 -3.64,0 L 32.29,156.3 a 2.58,2.58 0 0 1 0,-4.47 z"
           style="opacity:0.686275;fill:#818199"
           id="path50" />
        <path
           d="M 32.48,151.84 66,132.51 a 3.62,3.62 0 0 1 3.62,0 l 33.48,19.33 a 2.57,2.57 0 0 1 0,4.45 l -33.52,19.33 a 3.62,3.62 0 0 1 -3.62,0 L 32.48,156.29 a 2.57,2.57 0 0 1 0,-4.45 z"
           style="opacity:0.705882;fill:#7e7e96"
           id="path51" />
        <path
           d="M 32.67,151.85 66,132.63 a 3.6,3.6 0 0 1 3.6,0 l 33.3,19.22 a 2.55,2.55 0 0 1 0,4.42 L 69.57,175.5 a 3.6,3.6 0 0 1 -3.6,0 l -33.3,-19.22 a 2.55,2.55 0 0 1 0,-4.43 z"
           style="opacity:0.72549;fill:#7a7a93"
           id="path52" />
        <path
           d="M 32.86,151.87 66,132.75 a 3.58,3.58 0 0 1 3.58,0 l 33.12,19.12 a 2.54,2.54 0 0 1 0,4.4 l -33.14,19.11 a 3.58,3.58 0 0 1 -3.58,0 L 32.86,156.26 a 2.54,2.54 0 0 1 0,-4.39 z"
           style="opacity:0.745098;fill:#777790"
           id="path53" />
        <path
           d="m 33.05,151.88 32.93,-19 a 3.56,3.56 0 0 1 3.56,0 l 32.93,19 a 2.52,2.52 0 0 1 0,4.37 l -32.93,19 a 3.56,3.56 0 0 1 -3.56,0 l -32.93,-19 a 2.52,2.52 0 0 1 0,-4.37 z"
           style="opacity:0.764706;fill:#73738d"
           id="path54" />
        <path
           d="M 33.24,151.89 66,133 a 3.54,3.54 0 0 1 3.54,0 l 32.75,18.91 a 2.51,2.51 0 0 1 0,4.35 l -32.75,18.89 a 3.54,3.54 0 0 1 -3.54,0 L 33.24,156.24 a 2.51,2.51 0 0 1 0,-4.35 z"
           style="opacity:0.784314;fill:#6f6f8a"
           id="path55" />
        <path
           d="M 33.43,151.9 66,133.1 a 3.52,3.52 0 0 1 3.52,0 l 32.57,18.8 a 2.5,2.5 0 0 1 0,4.32 L 69.53,175 A 3.52,3.52 0 0 1 66,175 L 33.43,156.2 a 2.5,2.5 0 0 1 0,-4.3 z"
           style="opacity:0.803922;fill:#6c6c87"
           id="path56" />
        <path
           d="M 33.63,151.91 66,133.22 a 3.5,3.5 0 0 1 3.5,0 l 32.39,18.7 a 2.48,2.48 0 0 1 0,4.3 l -32.39,18.7 a 3.5,3.5 0 0 1 -3.5,0 l -32.39,-18.7 a 2.48,2.48 0 0 1 0.02,-4.31 z"
           style="opacity:0.823529;fill:#686884"
           id="path57" />
        <path
           d="M 33.82,151.93 66,133.33 a 3.48,3.48 0 0 1 3.48,0 l 32.21,18.59 a 2.47,2.47 0 0 1 0,4.28 l -32.18,18.6 a 3.48,3.48 0 0 1 -3.48,0 L 33.82,156.2 a 2.47,2.47 0 0 1 0,-4.27 z"
           style="opacity:0.843137;fill:#656581"
           id="path58" />
        <path
           d="m 34,151.94 32,-18.49 a 3.46,3.46 0 0 1 3.46,0 l 32,18.49 a 2.46,2.46 0 0 1 0,4.25 l -32,18.49 a 3.46,3.46 0 0 1 -3.46,0 L 34,156.19 a 2.46,2.46 0 0 1 0,-4.25 z"
           style="opacity:0.862745;fill:#61617e"
           id="path59" />
        <path
           d="M 34.2,152 66,133.57 a 3.44,3.44 0 0 1 3.44,0 L 101.33,152 a 2.44,2.44 0 0 1 0,4.23 l -31.84,18.33 a 3.44,3.44 0 0 1 -3.44,0 L 34.2,156.18 a 2.44,2.44 0 0 1 0,-4.18 z"
           style="opacity:0.882353;fill:#5e5e7c"
           id="path60" />
        <path
           d="m 34.39,152 31.66,-18.28 a 3.42,3.42 0 0 1 3.42,0 L 101.14,152 a 2.43,2.43 0 0 1 0,4.2 l -31.66,18.25 a 3.42,3.42 0 0 1 -3.42,0 L 34.39,156.17 a 2.43,2.43 0 0 1 0,-4.17 z"
           style="opacity:0.901961;fill:#5a5a79"
           id="path61" />
        <path
           d="m 34.58,152 31.48,-18.2 a 3.4,3.4 0 0 1 3.4,0 l 31.49,18.2 a 2.41,2.41 0 0 1 0,4.18 l -31.48,18.15 a 3.4,3.4 0 0 1 -3.4,0 L 34.58,156.16 a 2.41,2.41 0 0 1 0,-4.16 z"
           style="opacity:0.921569;fill:#565676"
           id="path62" />
        <path
           d="m 34.78,152 31.3,-18.07 a 3.38,3.38 0 0 1 3.38,0 l 31.3,18.07 a 2.4,2.4 0 0 1 0,4.16 l -31.3,18.07 a 3.38,3.38 0 0 1 -3.38,0 l -31.3,-18.07 a 2.4,2.4 0 0 1 0,-4.16 z"
           style="opacity:0.941176;fill:#535373"
           id="path63" />
        <path
           d="m 35,152 31.12,-18 a 3.36,3.36 0 0 1 3.36,0 l 31.12,18 a 2.39,2.39 0 0 1 0,4.13 l -31.12,18 a 3.36,3.36 0 0 1 -3.36,0 L 35,156.13 A 2.39,2.39 0 0 1 35,152 Z"
           style="opacity:0.960784;fill:#4f4f70"
           id="path64" />
        <path
           d="m 35.16,152 30.93,-17.86 a 3.35,3.35 0 0 1 3.35,0 L 100.37,152 a 2.37,2.37 0 0 1 0,4.11 L 69.44,174 a 3.35,3.35 0 0 1 -3.35,0 L 35.16,156.12 a 2.37,2.37 0 0 1 0,-4.12 z"
           style="opacity:0.980392;fill:#4c4c6d"
           id="path65" />
        <path
           id="a95a0407-64ea-4fc3-a9a7-d3f91cc38bba"
           d="M 35.35,152 66.1,134.27 a 3.33,3.33 0 0 1 3.33,0 L 100.18,152 a 2.36,2.36 0 0 1 0,4.08 l -30.75,17.78 a 3.33,3.33 0 0 1 -3.33,0 L 35.35,156.11 a 2.36,2.36 0 0 1 0,-4.11 z"
           style="fill:#48486a" />
      </g>
      <g
         style="opacity:0.5"
         id="g115">
        <path
           id="bda19abd-19de-4a54-a7de-f961183e3fee"
           d="m 73.51,174.52 35.16,-20.3 a 3.8,3.8 0 0 1 3.8,0 l 35.16,20.3 a 2.7,2.7 0 0 1 0,4.67 l -35.16,20.3 a 3.8,3.8 0 0 1 -3.8,0 l -35.16,-20.3 a 2.7,2.7 0 0 1 0,-4.67 z"
           style="opacity:0;fill:#ffffff" />
        <path
           d="m 73.68,174.53 35,-20.21 a 3.79,3.79 0 0 1 3.79,0 l 35,20.21 a 2.68,2.68 0 0 1 0,4.65 l -35,20.21 a 3.79,3.79 0 0 1 -3.79,0 l -35,-20.21 a 2.68,2.68 0 0 1 0,-4.65 z"
           style="opacity:0.019608;fill:#fbfbfc"
           id="path66" />
        <path
           d="m 73.85,174.54 34.84,-20.12 a 3.77,3.77 0 0 1 3.77,0 l 34.84,20.12 a 2.67,2.67 0 0 1 0,4.63 l -34.84,20.12 a 3.77,3.77 0 0 1 -3.77,0 L 73.85,179.17 a 2.67,2.67 0 0 1 0,-4.63 z"
           style="opacity:0.039216;fill:#f8f8f9"
           id="path67" />
        <path
           d="m 74,174.55 34.68,-20 a 3.75,3.75 0 0 1 3.75,0 l 34.68,20 a 2.66,2.66 0 0 1 0,4.61 l -34.68,20 a 3.75,3.75 0 0 1 -3.75,0 L 74,179.16 a 2.66,2.66 0 0 1 0,-4.61 z"
           style="opacity:0.058824;fill:#f4f4f6"
           id="path68" />
        <path
           d="m 74.18,174.56 34.52,-19.93 a 3.73,3.73 0 0 1 3.73,0 L 147,174.56 a 2.65,2.65 0 0 1 0,4.58 l -34.52,19.93 a 3.73,3.73 0 0 1 -3.73,0 L 74.18,179.15 a 2.65,2.65 0 0 1 0,-4.59 z"
           style="opacity:0.078431;fill:#f1f1f3"
           id="path69" />
        <path
           d="m 74.35,174.57 34.37,-19.84 a 3.72,3.72 0 0 1 3.72,0 l 34.37,19.84 a 2.63,2.63 0 0 1 0,4.56 L 112.43,199 a 3.72,3.72 0 0 1 -3.72,0 L 74.35,179.14 a 2.63,2.63 0 0 1 0,-4.57 z"
           style="opacity:0.098039;fill:#ededf0"
           id="path70" />
        <path
           d="m 74.52,174.58 34.21,-19.75 a 3.7,3.7 0 0 1 3.7,0 l 34.21,19.75 a 2.62,2.62 0 0 1 0,4.54 l -34.21,19.75 a 3.7,3.7 0 0 1 -3.7,0 L 74.52,179.13 a 2.62,2.62 0 0 1 0,-4.55 z"
           style="opacity:0.117647;fill:#e9e9ed"
           id="path71" />
        <path
           d="m 74.69,174.59 34,-19.66 a 3.68,3.68 0 0 1 3.68,0 l 34,19.66 a 2.61,2.61 0 0 1 0,4.52 l -34,19.66 a 3.68,3.68 0 0 1 -3.68,0 l -34,-19.66 a 2.61,2.61 0 0 1 0,-4.52 z"
           style="opacity:0.137255;fill:#e6e6eb"
           id="path72" />
        <path
           d="M 74.86,174.6 108.74,155 a 3.66,3.66 0 0 1 3.66,0 l 33.89,19.56 a 2.6,2.6 0 0 1 0,4.5 l -33.89,19.56 a 3.66,3.66 0 0 1 -3.66,0 L 74.86,179.1 a 2.6,2.6 0 0 1 0,-4.5 z"
           style="opacity:0.156863;fill:#e2e2e8"
           id="path73" />
        <path
           d="m 75,174.61 33.73,-19.47 a 3.65,3.65 0 0 1 3.65,0 l 33.73,19.47 a 2.59,2.59 0 0 1 0,4.48 l -33.71,19.48 a 3.65,3.65 0 0 1 -3.65,0 L 75,179.09 a 2.59,2.59 0 0 1 0,-4.48 z"
           style="opacity:0.176471;fill:#dfdfe5"
           id="path74" />
        <path
           d="m 75.19,174.63 33.57,-19.38 a 3.63,3.63 0 0 1 3.63,0 L 146,174.63 a 2.57,2.57 0 0 1 0,4.46 l -33.57,19.38 a 3.63,3.63 0 0 1 -3.63,0 L 75.19,179.08 a 2.57,2.57 0 0 1 0,-4.45 z"
           style="opacity:0.196078;fill:#dbdbe2"
           id="path75" />
        <path
           d="m 75.36,174.64 33.41,-19.29 a 3.61,3.61 0 0 1 3.61,0 l 33.41,19.29 a 2.56,2.56 0 0 1 0,4.44 l -33.41,19.29 a 3.61,3.61 0 0 1 -3.61,0 l -33.41,-19.3 a 2.56,2.56 0 0 1 0,-4.43 z"
           style="opacity:0.215686;fill:#d8d8df"
           id="path76" />
        <path
           d="m 75.53,174.65 33.25,-19.2 a 3.6,3.6 0 0 1 3.6,0 l 33.25,19.2 a 2.55,2.55 0 0 1 0,4.41 l -33.25,19.2 a 3.6,3.6 0 0 1 -3.6,0 l -33.25,-19.2 a 2.55,2.55 0 0 1 0,-4.41 z"
           style="opacity:0.235294;fill:#d4d4dc"
           id="path77" />
        <path
           d="m 75.7,174.66 33.09,-19.1 a 3.58,3.58 0 0 1 3.58,0 l 33.09,19.1 a 2.54,2.54 0 0 1 0,4.39 l -33.09,19.1 a 3.58,3.58 0 0 1 -3.58,0 L 75.7,179.05 a 2.54,2.54 0 0 1 0,-4.39 z"
           style="opacity:0.254902;fill:#d0d0d9"
           id="path78" />
        <path
           d="m 75.87,174.67 32.93,-19 a 3.56,3.56 0 0 1 3.56,0 l 32.93,19 a 2.52,2.52 0 0 1 0,4.37 l -32.93,19 a 3.56,3.56 0 0 1 -3.56,0 L 75.87,179 a 2.52,2.52 0 0 1 0,-4.33 z"
           style="opacity:0.27451;fill:#cdcdd6"
           id="path79" />
        <path
           d="m 76,174.68 32.77,-18.92 a 3.54,3.54 0 0 1 3.54,0 l 32.77,18.92 a 2.51,2.51 0 0 1 0,4.35 l -32.77,18.92 a 3.54,3.54 0 0 1 -3.54,0 L 76,179 a 2.51,2.51 0 0 1 0,-4.32 z"
           style="opacity:0.294118;fill:#c9c9d3"
           id="path80" />
        <path
           d="m 76.2,174.69 32.61,-18.83 a 3.53,3.53 0 0 1 3.53,0 l 32.61,18.83 a 2.5,2.5 0 0 1 0,4.33 l -32.61,18.83 a 3.53,3.53 0 0 1 -3.53,0 L 76.2,179 a 2.5,2.5 0 0 1 0,-4.31 z"
           style="opacity:0.313725;fill:#c6c6d0"
           id="path81" />
        <path
           d="M 76.37,174.7 108.82,156 a 3.51,3.51 0 0 1 3.51,0 l 32.45,18.73 a 2.49,2.49 0 0 1 0,4.31 l -32.45,18.73 a 3.51,3.51 0 0 1 -3.51,0 L 76.37,179 a 2.49,2.49 0 0 1 0,-4.3 z"
           style="opacity:0.333333;fill:#c2c2cd"
           id="path82" />
        <path
           d="m 76.54,174.71 32.29,-18.64 a 3.49,3.49 0 0 1 3.49,0 l 32.29,18.64 a 2.48,2.48 0 0 1 0,4.29 l -32.29,18.64 a 3.49,3.49 0 0 1 -3.49,0 L 76.54,179 a 2.48,2.48 0 0 1 0,-4.29 z"
           style="opacity:0.352941;fill:#bebeca"
           id="path83" />
        <path
           d="m 76.71,174.72 32.13,-18.55 a 3.47,3.47 0 0 1 3.47,0 l 32.13,18.55 a 2.46,2.46 0 0 1 0,4.27 l -32.13,18.55 a 3.47,3.47 0 0 1 -3.47,0 L 76.71,179 a 2.46,2.46 0 0 1 0,-4.28 z"
           style="opacity:0.372549;fill:#bbbbc7"
           id="path84" />
        <path
           d="m 76.88,174.73 32,-18.46 a 3.46,3.46 0 0 1 3.46,0 l 32,18.46 a 2.45,2.45 0 0 1 0,4.25 l -32,18.46 a 3.46,3.46 0 0 1 -3.46,0 L 76.88,179 a 2.45,2.45 0 0 1 0,-4.27 z"
           style="opacity:0.392157;fill:#b7b7c5"
           id="path85" />
        <path
           d="m 77,174.74 31.81,-18.37 a 3.44,3.44 0 0 1 3.44,0 l 31.81,18.37 a 2.44,2.44 0 0 1 0,4.22 l -31.81,18.37 a 3.44,3.44 0 0 1 -3.44,0 L 77,179 a 2.44,2.44 0 0 1 0,-4.26 z"
           style="opacity:0.411765;fill:#b4b4c2"
           id="path86" />
        <path
           d="m 77.21,174.75 31.65,-18.27 a 3.42,3.42 0 0 1 3.42,0 l 31.65,18.27 a 2.43,2.43 0 0 1 0,4.2 l -31.65,18.27 a 3.42,3.42 0 0 1 -3.42,0 L 77.21,179 a 2.43,2.43 0 0 1 0,-4.25 z"
           style="opacity:0.431373;fill:#b0b0bf"
           id="path87" />
        <path
           d="m 77.38,174.76 31.49,-18.18 a 3.41,3.41 0 0 1 3.41,0 l 31.49,18.18 a 2.41,2.41 0 0 1 0,4.18 l -31.49,18.18 a 3.41,3.41 0 0 1 -3.41,0 L 77.38,178.94 a 2.41,2.41 0 0 1 0,-4.18 z"
           style="opacity:0.45098;fill:#acacbc"
           id="path88" />
        <path
           d="m 77.55,174.77 31.33,-18.09 a 3.39,3.39 0 0 1 3.39,0 l 31.33,18.09 a 2.4,2.4 0 0 1 0,4.16 L 112.27,197 a 3.39,3.39 0 0 1 -3.39,0 L 77.55,178.93 a 2.4,2.4 0 0 1 0,-4.16 z"
           style="opacity:0.470588;fill:#a9a9b9"
           id="path89" />
        <path
           d="m 77.72,174.78 31.17,-18 a 3.37,3.37 0 0 1 3.37,0 l 31.17,18 a 2.39,2.39 0 0 1 0,4.14 l -31.17,18 a 3.37,3.37 0 0 1 -3.37,0 l -31.17,-18 a 2.39,2.39 0 0 1 0,-4.14 z"
           style="opacity:0.490196;fill:#a5a5b6"
           id="path90" />
        <path
           d="m 77.89,174.8 31,-17.9 a 3.35,3.35 0 0 1 3.35,0 l 31,17.9 a 2.38,2.38 0 0 1 0,4.12 l -31,17.9 a 3.35,3.35 0 0 1 -3.35,0 l -31,-17.9 a 2.38,2.38 0 0 1 0,-4.12 z"
           style="opacity:0.509804;fill:#a2a2b3"
           id="path91" />
        <path
           d="M 78.06,174.81 108.91,157 a 3.34,3.34 0 0 1 3.34,0 l 30.85,17.81 a 2.37,2.37 0 0 1 0,4.1 l -30.85,17.81 a 3.34,3.34 0 0 1 -3.34,0 L 78.06,178.9 a 2.37,2.37 0 0 1 0,-4.09 z"
           style="opacity:0.529412;fill:#9e9eb0"
           id="path92" />
        <path
           d="m 78.22,174.82 30.69,-17.72 a 3.32,3.32 0 0 1 3.32,0 l 30.69,17.72 a 2.35,2.35 0 0 1 0,4.08 l -30.69,17.72 a 3.32,3.32 0 0 1 -3.32,0 L 78.22,178.89 a 2.35,2.35 0 0 1 0,-4.07 z"
           style="opacity:0.54902;fill:#9b9bad"
           id="path93" />
        <path
           d="m 78.39,174.83 30.53,-17.63 a 3.3,3.3 0 0 1 3.3,0 l 30.53,17.63 a 2.34,2.34 0 0 1 0,4.05 l -30.53,17.63 a 3.3,3.3 0 0 1 -3.3,0 L 78.39,178.88 a 2.34,2.34 0 0 1 0,-4.05 z"
           style="opacity:0.568627;fill:#9797aa"
           id="path94" />
        <path
           d="m 78.56,174.84 30.37,-17.53 a 3.28,3.28 0 0 1 3.28,0 l 30.37,17.53 a 2.33,2.33 0 0 1 0,4 l -30.37,17.53 a 3.28,3.28 0 0 1 -3.28,0 l -30.37,-17.5 a 2.33,2.33 0 0 1 0,-4.03 z"
           style="opacity:0.588235;fill:#9393a7"
           id="path95" />
        <path
           d="m 78.73,174.85 30.21,-17.44 a 3.27,3.27 0 0 1 3.27,0 l 30.21,17.44 a 2.32,2.32 0 0 1 0,4 l -30.21,17.45 a 3.27,3.27 0 0 1 -3.27,0 L 78.73,178.86 a 2.32,2.32 0 0 1 0,-4.01 z"
           style="opacity:0.607843;fill:#9090a4"
           id="path96" />
        <path
           d="m 78.9,174.86 30.05,-17.35 a 3.25,3.25 0 0 1 3.25,0 l 30.05,17.35 a 2.3,2.3 0 0 1 0,4 L 112.2,196.2 a 3.25,3.25 0 0 1 -3.25,0 L 78.9,178.85 a 2.3,2.3 0 0 1 0,-3.99 z"
           style="opacity:0.627451;fill:#8c8ca2"
           id="path97" />
        <path
           d="M 79.07,174.87 109,157.61 a 3.23,3.23 0 0 1 3.23,0 l 29.89,17.26 a 2.29,2.29 0 0 1 0,4 l -29.93,17.23 a 3.23,3.23 0 0 1 -3.23,0 L 79.07,178.84 a 2.29,2.29 0 0 1 0,-3.97 z"
           style="opacity:0.647059;fill:#89899f"
           id="path98" />
        <path
           d="M 79.23,174.88 109,157.71 a 3.22,3.22 0 0 1 3.22,0 l 29.73,17.17 a 2.28,2.28 0 0 1 0,3.95 L 112.18,196 a 3.22,3.22 0 0 1 -3.22,0 L 79.23,178.83 a 2.28,2.28 0 0 1 0,-3.95 z"
           style="opacity:0.666667;fill:#85859c"
           id="path99" />
        <path
           d="M 79.4,174.89 109,157.82 a 3.2,3.2 0 0 1 3.2,0 l 29.57,17.07 a 2.27,2.27 0 0 1 0,3.93 l -29.57,17.07 a 3.2,3.2 0 0 1 -3.2,0 L 79.4,178.82 a 2.27,2.27 0 0 1 0,-3.93 z"
           style="opacity:0.686275;fill:#818199"
           id="path100" />
        <path
           d="m 79.57,174.9 29.41,-17 a 3.18,3.18 0 0 1 3.18,0 l 29.41,17 a 2.25,2.25 0 0 1 0,3.91 l -29.41,17 a 3.18,3.18 0 0 1 -3.18,0 l -29.41,-17 a 2.25,2.25 0 0 1 0,-3.91 z"
           style="opacity:0.705882;fill:#7e7e96"
           id="path101" />
        <path
           d="M 79.74,174.91 109,158 a 3.16,3.16 0 0 1 3.16,0 l 29.25,16.89 a 2.24,2.24 0 0 1 0,3.88 l -29.25,16.89 a 3.16,3.16 0 0 1 -3.16,0 L 79.74,178.8 a 2.24,2.24 0 0 1 0,-3.89 z"
           style="opacity:0.72549;fill:#7a7a93"
           id="path102" />
        <path
           d="M 79.91,174.92 109,158.13 a 3.15,3.15 0 0 1 3.15,0 l 29.09,16.8 a 2.23,2.23 0 0 1 0,3.86 l -29.09,16.8 a 3.15,3.15 0 0 1 -3.15,0 l -29.09,-16.8 a 2.23,2.23 0 0 1 0,-3.87 z"
           style="opacity:0.745098;fill:#777790"
           id="path103" />
        <path
           d="M 80.08,174.93 109,158.23 a 3.13,3.13 0 0 1 3.13,0 l 28.93,16.7 a 2.22,2.22 0 0 1 0,3.84 l -28.93,16.7 a 3.13,3.13 0 0 1 -3.13,0 l -28.93,-16.7 a 2.22,2.22 0 0 1 0.01,-3.84 z"
           style="opacity:0.764706;fill:#73738d"
           id="path104" />
        <path
           d="M 80.24,174.94 109,158.33 a 3.11,3.11 0 0 1 3.11,0 l 28.77,16.61 a 2.21,2.21 0 0 1 0,3.82 l -28.77,16.61 a 3.11,3.11 0 0 1 -3.11,0 L 80.24,178.76 a 2.21,2.21 0 0 1 0,-3.82 z"
           style="opacity:0.784314;fill:#6f6f8a"
           id="path105" />
        <path
           d="M 80.41,175 109,158.43 a 3.09,3.09 0 0 1 3.09,0 L 140.74,175 a 2.19,2.19 0 0 1 0,3.8 l -28.61,16.52 a 3.09,3.09 0 0 1 -3.09,0 L 80.41,178.75 a 2.19,2.19 0 0 1 0,-3.75 z"
           style="opacity:0.803922;fill:#6c6c87"
           id="path106" />
        <path
           d="M 80.58,175 109,158.54 a 3.08,3.08 0 0 1 3.08,0 L 140.57,175 a 2.18,2.18 0 0 1 0,3.78 l -28.45,16.43 a 3.08,3.08 0 0 1 -3.08,0 L 80.58,178.74 a 2.18,2.18 0 0 1 0,-3.74 z"
           style="opacity:0.823529;fill:#686884"
           id="path107" />
        <path
           d="M 80.75,175 109,158.64 a 3.06,3.06 0 0 1 3.06,0 L 140.4,175 a 2.17,2.17 0 0 1 0,3.76 l -28.3,16.31 a 3.06,3.06 0 0 1 -3.06,0 L 80.75,178.73 a 2.17,2.17 0 0 1 0,-3.73 z"
           style="opacity:0.843137;fill:#656581"
           id="path108" />
        <path
           d="m 80.92,175 28.13,-16.24 a 3,3 0 0 1 3,0 L 140.23,175 a 2.16,2.16 0 0 1 0,3.74 L 112.1,195 a 3,3 0 0 1 -3,0 L 80.92,178.72 a 2.16,2.16 0 0 1 0,-3.72 z"
           style="opacity:0.862745;fill:#61617e"
           id="path109" />
        <path
           d="m 81.09,175 28,-16.15 a 3,3 0 0 1 3,0 l 28,16.15 a 2.14,2.14 0 0 1 0,3.71 l -28,16.15 a 3,3 0 0 1 -3,0 l -28,-16.15 a 2.14,2.14 0 0 1 0,-3.71 z"
           style="opacity:0.882353;fill:#5e5e7c"
           id="path110" />
        <path
           d="m 81.26,175 27.82,-16.06 a 3,3 0 0 1 3,0 L 139.89,175 a 2.13,2.13 0 0 1 0,3.69 l -27.82,16.06 a 3,3 0 0 1 -3,0 L 81.26,178.7 a 2.13,2.13 0 0 1 0,-3.7 z"
           style="opacity:0.901961;fill:#5a5a79"
           id="path111" />
        <path
           d="m 81.42,175 27.66,-16 a 3,3 0 0 1 3,0 l 27.66,16 a 2.12,2.12 0 0 1 0,3.67 l -27.66,16 a 3,3 0 0 1 -3,0 l -27.66,-16 a 2.12,2.12 0 0 1 0,-3.67 z"
           style="opacity:0.921569;fill:#565676"
           id="path112" />
        <path
           d="m 81.59,175 27.5,-15.87 a 3,3 0 0 1 3,0 L 139.56,175 a 2.11,2.11 0 0 1 0,3.65 l -27.5,15.87 a 3,3 0 0 1 -3,0 L 81.56,178.65 A 2.11,2.11 0 0 1 81.59,175 Z"
           style="opacity:0.941176;fill:#535373"
           id="path113" />
        <path
           d="m 81.76,175 27.34,-15.78 a 3,3 0 0 1 3,0 L 139.39,175 a 2.1,2.1 0 0 1 0,3.63 l -27.34,15.78 a 3,3 0 0 1 -3,0 L 81.76,178.67 a 2.1,2.1 0 0 1 0,-3.67 z"
           style="opacity:0.960784;fill:#4f4f70"
           id="path114" />
        <path
           d="m 81.93,175 27.18,-15.69 a 2.94,2.94 0 0 1 2.94,0 L 139.22,175 a 2.08,2.08 0 0 1 0,3.61 L 112,194.35 a 2.94,2.94 0 0 1 -2.94,0 L 81.93,178.66 a 2.08,2.08 0 0 1 0,-3.66 z"
           style="opacity:0.980392;fill:#4c4c6d"
           id="path115" />
        <path
           id="99ef9537-6ed2-4e26-8483-53cb219e2624"
           d="m 82.1,175.06 27,-15.6 a 2.92,2.92 0 0 1 2.92,0 l 27,15.6 a 2.07,2.07 0 0 1 0,3.59 l -27,15.6 a 2.92,2.92 0 0 1 -2.92,0 l -27,-15.6 a 2.07,2.07 0 0 1 0,-3.59 z"
           style="fill:#48486a" />
      </g>
      <polygon
         id="848487dc-651d-43e9-8930-fb791785db96"
         points="67.77,71.07 31.68,50.23 67.77,29.4 103.85,50.23 "
         style="fill:#adb9e0" />
      <polygon
         id="d3b203b1-5f08-4668-ae8b-0e4a98338aeb"
         points="67.77,71.07 31.68,50.23 31.68,154.88 67.77,175.71 "
         style="fill:#a3b0dc" />
      <polygon
         id="1b1a8cda-d45d-4645-a64c-2fd98bb75751"
         points="67.77,71.07 67.77,175.71 103.85,154.88 103.85,50.23 "
         style="fill:#99a7d8" />
      <g
         id="cb84b8cb-37a0-43f9-b96e-e6165cc1e6ea">
        <polygon
           points="67.77,113.91 67.46,113.73 31.68,93.08 31.68,91.64 67.77,112.5 103.85,91.64 103.85,93.08 "
           style="fill:#f6b6da;fill-opacity:1"
           id="polygon115" />
      </g>
      <g
         id="160e43e0-6e1f-46e6-96b1-634d8e4c6972">
        <polygon
           points="31.68,113.91 31.68,112.45 67.77,133.2 103.85,112.32 103.85,113.77 67.77,134.61 "
           style="fill:#f6b6da;fill-opacity:1"
           id="polygon116" />
      </g>
      <g
         id="b77cacb1-5384-4548-88dc-e41c3a7b90d7">
        <polygon
           points="31.68,134.61 31.68,133.15 67.77,153.9 103.85,133.15 103.85,134.61 67.77,155.3 "
           style="fill:#f6b6da;fill-opacity:1"
           id="polygon117" />
      </g>
      <polygon
         id="f5ff65ba-64cb-4503-88e4-f564fb810c48"
         points="70.04,97.13 70.04,94.56 76.79,90.72 76.79,93.3 "
         style="fill:#f6b6da;fill-opacity:1" />
      <polygon
         id="4673960a-58ee-47dc-b27d-e962f376c4c1"
         points="78.13,92.57 78.13,90 84.88,86.17 84.88,88.74 "
         style="fill:#f6b6da;fill-opacity:1" />
      <polygon
         id="6bc8052e-fd79-4e34-9e57-4941ee7ba72c"
         points="70.04,118.12 70.04,115.55 76.79,111.72 76.79,114.29 "
         style="fill:#f6b6da;fill-opacity:1" />
      <polygon
         id="61721816-1269-4b58-89c5-95ae68aeb231"
         points="78.13,113.56 78.13,110.99 84.88,107.16 84.88,109.73 "
         style="fill:#f6b6da;fill-opacity:1" />
      <polygon
         id="bcf3d06a-5426-40b3-9bae-d8fe905215c7"
         points="70.04,139.11 70.04,136.54 76.79,132.71 76.79,135.28 "
         style="fill:#f6b6da;fill-opacity:1" />
      <polygon
         id="7aba9a1e-d969-4161-a55d-55cad9698583"
         points="78.13,134.56 78.13,131.98 84.88,128.15 84.88,130.72 "
         style="fill:#f6b6da;fill-opacity:1" />
      <polygon
         id="a23d85af-0ba3-4023-bb13-71a0a132eb42"
         points="70.04,160.11 70.04,157.53 76.79,153.7 76.79,156.27 "
         style="fill:#f6b6da;fill-opacity:1" />
      <polygon
         id="9d3edd53-af33-47e4-8a67-9e9ccda24988"
         points="78.13,155.55 78.13,152.97 84.88,149.14 84.88,151.72 "
         style="fill:#f6b6da;fill-opacity:1" />
      <path
         id="3903d82c-9159-480d-aea2-b50d9974d3d7"
         d="m 82.08,58.48 c 7.9,-4.54 7.9,-12 0,-16.5 -7.9,-4.5 -20.8,-4.54 -28.65,0 -7.85,4.54 -7.86,12 0,16.5 7.86,4.5 20.74,4.52 28.65,0 z"
         style="fill:#99a7d8" />
      <path
         d="m 53.42,44.42 c 7.86,-4.54 20.75,-4.54 28.65,0 3.41,2 5.35,4.46 5.81,7 0.61,-3.38 -1.33,-6.89 -5.81,-9.47 -7.9,-4.54 -20.8,-4.54 -28.65,0 C 49,44.56 47,48.07 47.64,51.45 48.1,48.88 50,46.38 53.42,44.42 Z"
         style="fill:#f6b6da;fill-opacity:1"
         id="path117" />
      <path
         id="576df1a8-2498-44ff-a61f-713af71439bf"
         d="m 38.18,85.45 c -0.58,-0.33 -1,-0.06 -1,0.61 a 2.33,2.33 0 0 0 1,1.82 c 0.58,0.33 1,0.06 1,-0.61 a 2.33,2.33 0 0 0 -1,-1.82 z"
         style="fill:#f6b6da;fill-opacity:1" />
      <path
         id="e297c77b-f080-4ec8-8573-570520d2ef2e"
         d="m 42.33,88.16 c -0.58,-0.33 -1,-0.06 -1,0.61 a 2.33,2.33 0 0 0 1,1.82 c 0.58,0.33 1,0.06 1,-0.61 a 2.33,2.33 0 0 0 -1,-1.82 z"
         style="fill:#f6b6da;fill-opacity:1" />
      <g
         id="4e7c0cb5-2c43-482f-a79a-bccda2b4cee9">
        <polygon
           points="67.77,92.61 67.46,92.43 31.68,71.77 31.68,70.34 67.77,91.2 103.85,70.34 103.85,71.77 "
           style="fill:#f6b6da;fill-opacity:1"
           id="polygon118" />
      </g>
      <polygon
         id="0e6e8d89-0ba6-430e-8b81-4cc61134c2c8"
         points="70.04,75.83 70.04,73.25 76.79,69.42 76.79,71.99 "
         style="fill:#f6b6da;fill-opacity:1" />
      <polygon
         id="d38e3925-f8a8-458f-95e1-af120b32d7a0"
         points="78.13,71.27 78.13,68.69 84.88,64.86 84.88,67.44 "
         style="fill:#f6b6da;fill-opacity:1" />
      <path
         id="a7d3e528-c9b5-4f47-9e2c-502ed54f8f6d"
         d="m 38.18,64.14 c -0.58,-0.33 -1,-0.06 -1,0.61 a 2.33,2.33 0 0 0 1,1.82 c 0.58,0.33 1,0.06 1,-0.61 a 2.33,2.33 0 0 0 -1,-1.82 z"
         style="fill:#f6b6da;fill-opacity:1" />
      <path
         id="808ce297-39b5-4702-adae-73aaf1d277f8"
         d="m 42.33,66.85 c -0.58,-0.33 -1,-0.06 -1,0.61 a 2.33,2.33 0 0 0 1,1.82 c 0.58,0.33 1,0.06 1,-0.61 a 2.33,2.33 0 0 0 -1,-1.82 z"
         style="fill:#f6b6da;fill-opacity:1" />
      <path
         id="5de42684-debc-4611-bb94-e774020a8868"
         d="m 38.18,106.65 c -0.58,-0.33 -1,-0.06 -1,0.61 a 2.33,2.33 0 0 0 1,1.82 c 0.58,0.33 1,0.06 1,-0.61 a 2.33,2.33 0 0 0 -1,-1.82 z"
         style="fill:#f6b6da;fill-opacity:1" />
      <path
         id="9b52de8f-bcf5-4071-9689-8c165b304683"
         d="m 42.33,109.36 c -0.58,-0.33 -1,-0.06 -1,0.61 a 2.33,2.33 0 0 0 1,1.82 c 0.58,0.33 1,0.06 1,-0.61 a 2.33,2.33 0 0 0 -1,-1.82 z"
         style="fill:#f6b6da;fill-opacity:1" />
      <path
         id="c11000ed-a44b-40da-8ada-5dee9a2778cb"
         d="m 38.18,127.56 c -0.58,-0.33 -1,-0.06 -1,0.61 a 2.33,2.33 0 0 0 1,1.82 c 0.58,0.33 1,0.06 1,-0.61 a 2.33,2.33 0 0 0 -1,-1.82 z"
         style="fill:#f6b6da;fill-opacity:1" />
      <path
         id="4be2bb9a-7004-49fe-9ae8-60afe2202e55"
         d="m 42.33,130.27 c -0.58,-0.33 -1,-0.06 -1,0.61 a 2.33,2.33 0 0 0 1,1.82 c 0.58,0.33 1,0.06 1,-0.61 a 2.33,2.33 0 0 0 -1,-1.82 z"
         style="fill:#f6b6da;fill-opacity:1" />
      <path
         id="4b1d737e-525f-433a-95ab-ed62a7640062"
         d="m 38.18,148.46 c -0.58,-0.33 -1,-0.06 -1,0.61 a 2.33,2.33 0 0 0 1,1.82 c 0.58,0.33 1,0.06 1,-0.61 a 2.33,2.33 0 0 0 -1,-1.82 z"
         style="fill:#f6b6da;fill-opacity:1" />
      <path
         id="db9576d1-26fc-4fb7-b576-d8a6cd246a6f"
         d="m 42.33,151.17 c -0.58,-0.33 -1,-0.06 -1,0.61 a 2.33,2.33 0 0 0 1,1.82 c 0.58,0.33 1,0.06 1,-0.61 a 2.33,2.33 0 0 0 -1,-1.82 z"
         style="fill:#f6b6da;fill-opacity:1" />
      <g
         style="opacity:0.5"
         id="g167">
        <path
           id="8ac5dc17-fabd-48bb-9d68-49a6f1a378bf"
           d="m 81.88,58.48 c 7.9,-4.54 7.9,-12 0,-16.5 -7.9,-4.5 -20.8,-4.54 -28.65,0 -7.85,4.54 -7.86,12 0,16.5 7.86,4.5 20.77,4.52 28.65,0 z"
           style="fill:#99a7d8" />
        <path
           d="m 81.88,57.78 c 7.9,-4.54 7.9,-12 0,-16.5 -7.9,-4.5 -20.8,-4.54 -28.65,0 -7.85,4.54 -7.86,12 0,16.5 7.86,4.5 20.77,4.53 28.65,0 z"
           style="opacity:0.980392;fill:#99a7d8"
           id="path118" />
        <path
           d="m 81.88,57.07 c 7.9,-4.54 7.9,-12 0,-16.5 -7.9,-4.5 -20.8,-4.54 -28.65,0 -7.85,4.54 -7.86,12 0,16.5 7.86,4.5 20.77,4.54 28.65,0 z"
           style="opacity:0.960784;fill:#99a7d8"
           id="path119" />
        <path
           d="m 81.88,56.37 c 7.9,-4.54 7.9,-12 0,-16.5 -7.9,-4.5 -20.8,-4.54 -28.65,0 -7.85,4.54 -7.86,12 0,16.5 7.86,4.5 20.77,4.54 28.65,0 z"
           style="opacity:0.941176;fill:#99a7d8"
           id="path120" />
        <path
           d="m 81.88,55.66 c 7.9,-4.54 7.9,-12 0,-16.5 -7.9,-4.5 -20.8,-4.54 -28.65,0 -7.85,4.54 -7.86,12 0,16.5 7.86,4.5 20.77,4.54 28.65,0 z"
           style="opacity:0.921569;fill:#99a7d8"
           id="path121" />
        <path
           d="m 81.88,55 c 7.9,-4.54 7.9,-12 0,-16.5 -7.9,-4.5 -20.8,-4.54 -28.65,0 -7.85,4.54 -7.86,12 0,16.5 7.86,4.5 20.77,4.5 28.65,0 z"
           style="opacity:0.901961;fill:#99a7d8"
           id="path122" />
        <path
           d="m 81.88,54.26 c 7.9,-4.54 7.9,-12 0,-16.5 -7.9,-4.5 -20.8,-4.54 -28.65,0 -7.85,4.54 -7.86,12 0,16.5 7.86,4.5 20.77,4.53 28.65,0 z"
           style="opacity:0.882353;fill:#99a7d8"
           id="path123" />
        <path
           d="m 81.88,53.55 c 7.9,-4.54 7.9,-12 0,-16.5 -7.9,-4.5 -20.8,-4.54 -28.65,0 -7.85,4.54 -7.86,12 0,16.5 7.86,4.5 20.77,4.54 28.65,0 z"
           style="opacity:0.862745;fill:#99a7d8"
           id="path124" />
        <path
           d="m 81.88,52.85 c 7.9,-4.54 7.9,-12 0,-16.5 -7.9,-4.5 -20.8,-4.54 -28.65,0 -7.85,4.54 -7.86,12 0,16.5 7.86,4.5 20.77,4.53 28.65,0 z"
           style="opacity:0.843137;fill:#99a7d8"
           id="path125" />
        <path
           d="m 81.88,52.14 c 7.9,-4.54 7.9,-12 0,-16.5 -7.9,-4.5 -20.8,-4.54 -28.65,0 -7.85,4.54 -7.86,12 0,16.5 7.86,4.5 20.77,4.54 28.65,0 z"
           style="opacity:0.823529;fill:#99a7d8"
           id="path126" />
        <path
           d="m 81.88,51.44 c 7.9,-4.54 7.9,-12 0,-16.5 -7.9,-4.5 -20.8,-4.54 -28.65,0 -7.85,4.54 -7.86,12 0,16.5 7.86,4.5 20.77,4.56 28.65,0 z"
           style="opacity:0.803922;fill:#99a7d8"
           id="path127" />
        <path
           d="m 81.88,50.74 c 7.9,-4.54 7.9,-12 0,-16.5 -7.9,-4.5 -20.8,-4.54 -28.65,0 -7.85,4.54 -7.86,12 0,16.5 7.86,4.5 20.77,4.53 28.65,0 z"
           style="opacity:0.784314;fill:#99a7d8"
           id="path128" />
        <path
           d="m 81.88,50 c 7.9,-4.54 7.9,-12 0,-16.5 -7.9,-4.5 -20.8,-4.54 -28.65,0 -7.85,4.54 -7.86,12 0,16.5 7.86,4.5 20.77,4.57 28.65,0 z"
           style="opacity:0.764706;fill:#99a7d8"
           id="path129" />
        <path
           d="m 81.88,49.33 c 7.9,-4.54 7.9,-12 0,-16.5 -7.9,-4.5 -20.8,-4.54 -28.65,0 -7.85,4.54 -7.86,12 0,16.5 7.86,4.5 20.77,4.53 28.65,0 z"
           style="opacity:0.745098;fill:#99a7d8"
           id="path130" />
        <path
           d="m 81.88,48.62 c 7.9,-4.54 7.9,-12 0,-16.5 -7.9,-4.5 -20.8,-4.54 -28.65,0 -7.85,4.54 -7.86,12 0,16.5 7.86,4.5 20.77,4.54 28.65,0 z"
           style="opacity:0.72549;fill:#99a7d8"
           id="path131" />
        <path
           d="m 81.88,47.92 c 7.9,-4.54 7.9,-12 0,-16.5 -7.9,-4.5 -20.8,-4.54 -28.65,0 -7.85,4.54 -7.86,12 0,16.5 7.86,4.5 20.77,4.53 28.65,0 z"
           style="opacity:0.705882;fill:#99a7d8"
           id="path132" />
        <path
           d="m 81.88,47.21 c 7.9,-4.54 7.9,-12 0,-16.5 -7.9,-4.5 -20.8,-4.54 -28.65,0 -7.85,4.54 -7.86,12 0,16.5 7.86,4.5 20.77,4.54 28.65,0 z"
           style="opacity:0.686275;fill:#99a7d8"
           id="path133" />
        <path
           d="m 81.88,46.51 c 7.9,-4.54 7.9,-12 0,-16.5 -7.9,-4.5 -20.8,-4.54 -28.65,0 -7.85,4.54 -7.86,12 0,16.5 7.86,4.5 20.77,4.49 28.65,0 z"
           style="opacity:0.666667;fill:#99a7d8"
           id="path134" />
        <path
           d="m 81.88,45.81 c 7.9,-4.54 7.9,-12 0,-16.5 -7.9,-4.5 -20.8,-4.54 -28.65,0 -7.85,4.54 -7.86,12 0,16.5 7.86,4.5 20.77,4.53 28.65,0 z"
           style="opacity:0.647059;fill:#99a7d8"
           id="path135" />
        <path
           d="m 81.88,45.1 c 7.9,-4.54 7.9,-12 0,-16.5 -7.9,-4.5 -20.8,-4.54 -28.65,0 -7.85,4.54 -7.86,12 0,16.5 7.86,4.5 20.77,4.54 28.65,0 z"
           style="opacity:0.627451;fill:#99a7d8"
           id="path136" />
        <path
           d="m 81.88,44.4 c 7.9,-4.54 7.9,-12 0,-16.5 -7.9,-4.5 -20.8,-4.54 -28.65,0 -7.85,4.54 -7.86,12 0,16.5 7.86,4.5 20.77,4.53 28.65,0 z"
           style="opacity:0.607843;fill:#99a7d8"
           id="path137" />
        <path
           d="m 81.88,43.69 c 7.9,-4.54 7.9,-12 0,-16.5 -7.9,-4.5 -20.8,-4.54 -28.65,0 -7.85,4.54 -7.86,12 0,16.5 7.86,4.5 20.77,4.54 28.65,0 z"
           style="opacity:0.588235;fill:#99a7d8"
           id="path138" />
        <path
           d="m 81.88,43 c 7.9,-4.54 7.9,-12 0,-16.5 -7.9,-4.5 -20.8,-4.54 -28.65,0 -7.85,4.54 -7.86,12 0,16.5 7.86,4.5 20.77,4.53 28.65,0 z"
           style="opacity:0.568627;fill:#99a7d8"
           id="path139" />
        <path
           d="m 81.88,42.28 c 7.9,-4.54 7.9,-12 0,-16.5 -7.9,-4.5 -20.8,-4.54 -28.65,0 -7.85,4.54 -7.86,12 0,16.5 7.86,4.5 20.77,4.54 28.65,0 z"
           style="opacity:0.54902;fill:#99a7d8"
           id="path140" />
        <path
           d="m 81.88,41.58 c 7.9,-4.54 7.9,-12 0,-16.5 -7.9,-4.5 -20.8,-4.54 -28.65,0 -7.85,4.54 -7.86,12 0,16.5 7.86,4.5 20.77,4.54 28.65,0 z"
           style="opacity:0.529412;fill:#99a7d8"
           id="path141" />
        <path
           d="m 81.88,40.88 c 7.9,-4.54 7.9,-12 0,-16.5 -7.9,-4.5 -20.8,-4.54 -28.65,0 -7.85,4.54 -7.86,12 0,16.5 7.86,4.5 20.77,4.53 28.65,0 z"
           style="opacity:0.509804;fill:#99a7d8"
           id="path142" />
        <path
           d="m 81.88,40.17 c 7.9,-4.54 7.9,-12 0,-16.5 -7.9,-4.5 -20.8,-4.54 -28.65,0 -7.85,4.54 -7.86,12 0,16.5 7.86,4.5 20.77,4.54 28.65,0 z"
           style="opacity:0.490196;fill:#99a7d8"
           id="path143" />
        <path
           d="m 81.88,39.47 c 7.9,-4.54 7.9,-12 0,-16.5 -7.9,-4.5 -20.8,-4.54 -28.65,0 -7.85,4.54 -7.86,12 0,16.5 7.86,4.5 20.77,4.53 28.65,0 z"
           style="opacity:0.470588;fill:#99a7d8"
           id="path144" />
        <path
           d="m 81.88,38.76 c 7.9,-4.54 7.9,-12 0,-16.5 -7.9,-4.5 -20.8,-4.54 -28.65,0 -7.85,4.54 -7.86,12 0,16.5 7.86,4.5 20.77,4.54 28.65,0 z"
           style="opacity:0.45098;fill:#99a7d8"
           id="path145" />
        <path
           d="m 81.88,38.06 c 7.9,-4.54 7.9,-12 0,-16.5 -7.9,-4.5 -20.8,-4.54 -28.65,0 -7.85,4.54 -7.86,12 0,16.5 7.86,4.5 20.77,4.54 28.65,0 z"
           style="opacity:0.431373;fill:#99a7d8"
           id="path146" />
        <path
           d="m 81.88,37.35 c 7.9,-4.54 7.9,-12 0,-16.5 -7.9,-4.5 -20.8,-4.54 -28.65,0 -7.85,4.54 -7.86,12 0,16.5 7.86,4.5 20.77,4.54 28.65,0 z"
           style="opacity:0.411765;fill:#99a7d8"
           id="path147" />
        <path
           d="m 81.88,36.65 c 7.9,-4.54 7.9,-12 0,-16.5 -7.9,-4.5 -20.8,-4.54 -28.65,0 -7.85,4.54 -7.86,12 0,16.5 7.86,4.5 20.77,4.54 28.65,0 z"
           style="opacity:0.392157;fill:#99a7d8"
           id="path148" />
        <path
           d="m 81.88,35.95 c 7.9,-4.54 7.9,-12 0,-16.5 -7.9,-4.5 -20.8,-4.54 -28.65,0 -7.85,4.54 -7.86,12 0,16.5 7.86,4.5 20.77,4.53 28.65,0 z"
           style="opacity:0.372549;fill:#99a7d8"
           id="path149" />
        <path
           d="m 81.88,35.24 c 7.9,-4.54 7.9,-12 0,-16.5 -7.9,-4.5 -20.8,-4.54 -28.65,0 -7.85,4.54 -7.86,12 0,16.5 7.86,4.5 20.77,4.54 28.65,0 z"
           style="opacity:0.352941;fill:#99a7d8"
           id="path150" />
        <path
           d="m 81.88,34.54 c 7.9,-4.54 7.9,-12 0,-16.5 -7.9,-4.5 -20.8,-4.54 -28.65,0 -7.85,4.54 -7.86,12 0,16.5 7.86,4.5 20.77,4.53 28.65,0 z"
           style="opacity:0.333333;fill:#99a7d8"
           id="path151" />
        <path
           d="m 81.88,33.83 c 7.9,-4.54 7.9,-12 0,-16.5 -7.9,-4.5 -20.8,-4.54 -28.65,0 -7.85,4.54 -7.86,12 0,16.5 7.86,4.5 20.77,4.54 28.65,0 z"
           style="opacity:0.313725;fill:#99a7d8"
           id="path152" />
        <path
           d="m 81.88,33.13 c 7.9,-4.54 7.9,-12 0,-16.5 -7.9,-4.5 -20.8,-4.54 -28.65,0 -7.85,4.54 -7.86,12 0,16.5 7.86,4.5 20.77,4.54 28.65,0 z"
           style="opacity:0.294118;fill:#99a7d8"
           id="path153" />
        <path
           d="m 81.88,32.43 c 7.9,-4.54 7.9,-12 0,-16.5 -7.9,-4.5 -20.8,-4.54 -28.65,0 -7.85,4.54 -7.86,12 0,16.5 7.86,4.5 20.77,4.57 28.65,0 z"
           style="opacity:0.27451;fill:#99a7d8"
           id="path154" />
        <path
           d="m 81.88,31.72 c 7.9,-4.54 7.9,-12 0,-16.5 -7.9,-4.5 -20.8,-4.54 -28.65,0 -7.85,4.54 -7.86,12 0,16.5 7.86,4.5 20.77,4.54 28.65,0 z"
           style="opacity:0.254902;fill:#99a7d8"
           id="path155" />
        <path
           d="m 81.88,31 c 7.9,-4.54 7.9,-12 0,-16.5 -7.9,-4.5 -20.8,-4.54 -28.65,0 -7.85,4.54 -7.86,12 0,16.5 7.86,4.5 20.77,4.55 28.65,0 z"
           style="opacity:0.235294;fill:#99a7d8"
           id="path156" />
        <path
           d="m 81.88,30.31 c 7.9,-4.54 7.9,-12 0,-16.5 -7.9,-4.5 -20.8,-4.54 -28.65,0 -7.85,4.54 -7.86,12 0,16.5 7.86,4.5 20.77,4.54 28.65,0 z"
           style="opacity:0.215686;fill:#99a7d8"
           id="path157" />
        <path
           d="m 81.88,29.61 c 7.9,-4.54 7.9,-12 0,-16.5 -7.9,-4.5 -20.8,-4.54 -28.65,0 -7.85,4.54 -7.86,12 0,16.5 7.86,4.5 20.77,4.54 28.65,0 z"
           style="opacity:0.196078;fill:#99a7d8"
           id="path158" />
        <path
           d="m 81.88,28.9 c 7.9,-4.54 7.9,-12 0,-16.5 -7.9,-4.5 -20.8,-4.54 -28.65,0 -7.85,4.54 -7.86,12 0,16.5 7.86,4.5 20.77,4.54 28.65,0 z"
           style="opacity:0.176471;fill:#99a7d8"
           id="path159" />
        <path
           d="m 81.88,28.2 c 7.9,-4.54 7.9,-12 0,-16.5 -7.9,-4.5 -20.8,-4.54 -28.65,0 -7.85,4.54 -7.86,12 0,16.5 7.86,4.5 20.77,4.54 28.65,0 z"
           style="opacity:0.156863;fill:#99a7d8"
           id="path160" />
        <path
           d="m 81.88,27.5 c 7.9,-4.54 7.9,-12 0,-16.5 -7.9,-4.5 -20.8,-4.54 -28.65,0 -7.85,4.54 -7.86,12 0,16.5 7.86,4.5 20.77,4.5 28.65,0 z"
           style="opacity:0.137255;fill:#99a7d8"
           id="path161" />
        <path
           d="m 81.88,26.79 c 7.9,-4.54 7.9,-12 0,-16.5 -7.9,-4.5 -20.8,-4.54 -28.65,0 -7.85,4.54 -7.86,12 0,16.5 7.86,4.5 20.77,4.54 28.65,0 z"
           style="opacity:0.117647;fill:#99a7d8"
           id="path162" />
        <path
           d="m 81.88,26.09 c 7.9,-4.54 7.9,-12 0,-16.5 -7.9,-4.5 -20.8,-4.54 -28.65,0 -7.85,4.54 -7.86,12 0,16.5 7.86,4.5 20.77,4.53 28.65,0 z"
           style="opacity:0.0980392;fill:#99a7d8"
           id="path163" />
        <path
           d="m 81.88,25.38 c 7.9,-4.54 7.9,-12 0,-16.5 -7.9,-4.5 -20.8,-4.54 -28.65,0 -7.85,4.54 -7.86,12 0,16.5 7.86,4.5 20.77,4.54 28.65,0 z"
           style="opacity:0.0784314;fill:#99a7d8"
           id="path164" />
        <path
           d="m 81.88,24.68 c 7.9,-4.54 7.9,-12 0,-16.5 -7.9,-4.5 -20.8,-4.54 -28.65,0 -7.85,4.54 -7.86,12 0,16.5 7.86,4.5 20.77,4.54 28.65,0 z"
           style="opacity:0.0588235;fill:#99a7d8"
           id="path165" />
        <path
           d="m 81.88,24 c 7.9,-4.54 7.9,-12 0,-16.5 -7.9,-4.5 -20.8,-4.54 -28.65,0 -7.85,4.54 -7.86,12 0,16.5 7.86,4.5 20.77,4.51 28.65,0 z"
           style="opacity:0.0392157;fill:#99a7d8"
           id="path166" />
        <path
           d="m 81.88,23.27 c 7.9,-4.54 7.9,-12 0,-16.5 -7.9,-4.5 -20.8,-4.54 -28.65,0 -7.85,4.54 -7.86,12 0,16.5 7.86,4.5 20.77,4.54 28.65,0 z"
           style="opacity:0.0196078;fill:#99a7d8"
           id="path167" />
        <path
           id="39161bc3-8a81-4e70-b723-59093a56abff"
           d="m 81.88,22.57 c 7.9,-4.54 7.9,-12 0,-16.5 -7.9,-4.5 -20.8,-4.54 -28.65,0 -7.85,4.54 -7.86,12 0,16.5 7.86,4.5 20.77,4.53 28.65,0 z"
           style="opacity:0;fill:#99a7d8" />
      </g>
    </g>
    <g
       id="g169">
      <path
         id="5450afda-724f-41d3-987a-9aaedc2fb977"
         d="m 58,12.6 v 0 a 6,6 0 0 1 7.35,-1.21 l 10.35,5.86 a 5.3,5.3 0 0 1 2.43,4.17 v 13.7 a 4.28,4.28 0 0 1 -4.55,4.27 h -0.46 a 2.41,2.41 0 0 1 -1,-0.31 L 59.93,32.2 A 5.3,5.3 0 0 1 57.5,28 V 13.81 A 1.81,1.81 0 0 1 58,12.6 Z"
         style="fill:url(#2c49d36d-e862-4de1-8c9b-e999db50597e)" />
      <path
         id="d8e96f04-d57e-451b-9f74-1dba7003cbf5"
         d="m 58,12.6 v 0 a 6,6 0 0 1 7.35,-1.21 l 10.35,5.86 a 5.3,5.3 0 0 1 2.43,4.17 v 13.7 a 4.28,4.28 0 0 1 -4.55,4.27 h -0.46 a 2.41,2.41 0 0 1 -1,-0.31 L 59.93,32.2 A 5.3,5.3 0 0 1 57.5,28 V 13.81 A 1.81,1.81 0 0 1 58,12.6 Z"
         style="fill:url(#eb7289b0-2807-43a1-9ef3-43fc374d230e)" />
      <path
         id="ba737558-405e-4dfe-84ac-e562284d2a8f"
         d="m 57.5,14.47 c 0,-1.54 1.09,-2.17 2.43,-1.42 l 11.86,6.71 a 5.3,5.3 0 0 1 2.43,4.17 v 13.52 c 0,1.54 -1.09,2.17 -2.43,1.42 L 59.93,32.16 A 5.3,5.3 0 0 1 57.5,28 Z"
         style="fill:url(#956aad47-7050-4dd7-b297-4d7cd9b41c6a)" />
      <path
         id="43fd7a13-2284-4fa8-b32d-efd272bf3053"
         d="m 65.89,22.43 c -1,-0.56 -1.77,-0.12 -1.77,1 a 4.11,4.11 0 0 0 1.77,3.11 c 1,0.6 1.77,0.16 1.77,-1 a 4,4 0 0 0 -1.77,-3.11 z"
         style="fill:#48486a" />
      <path
         d="m 73.36,18 v -6.18 c 0,-5.94 -1.31,-9.72 -3.9,-11.21 a 4,4 0 0 0 -4,-0.11 c -1,0.57 -2.66,2.16 -2.66,6.37 v 6 0 a 0.55,0.55 0 0 0 0.31,0.42 1.71,1.71 0 0 0 1.54,0 0.55,0.55 0 0 0 0.31,-0.42 v 0 -6 c 0,-2.22 0.58,-3.88 1.54,-4.44 a 1.76,1.76 0 0 1 1.8,0.11 c 1.79,1 2.78,4.33 2.78,9.28 V 18 a 0.54,0.54 0 0 0 0.32,0.48 1.76,1.76 0 0 0 1.58,0 0.55,0.55 0 0 0 0.38,-0.48 z"
         style="fill:#48486a"
         id="path168" />
      <polygon
         id="5192ea18-78eb-4de6-ae00-4b9f2bf3cbd4"
         points="66.95,24.75 64.82,23.52 64.82,28.44 66.95,29.68 "
         style="fill:#48486a" />
    </g>
  </g>
  <g
     id="a9725db3-ee4f-4171-affe-937b4ef40c5e"
     data-name="Layer 10"
     transform="translate(2.7820826,9.800118)">
    <g
       id="4bae9a21-e4db-44ab-838c-206f043301fa">
      <path
         id="03eba63e-fdbf-48ae-addb-b009ba7b0a0e"
         d="m 47,113.27 -17.12,-9.94 a 0.32,0.32 0 0 0 -0.48,0.28 v 20.87 a 1,1 0 0 0 0.47,0.82 L 47,135.24 a 0.32,0.32 0 0 0 0.48,-0.28 V 114.09 A 1,1 0 0 0 47,113.27 Z"
         style="opacity:0.35;fill:#d3daed" />
      <path
         id="732308c9-1a1d-4512-abbf-df42b9bb185e"
         d="M 43.1,115.9 17.65,101.12 a 0.48,0.48 0 0 0 -0.72,0.41 v 31 a 1.41,1.41 0 0 0 0.7,1.22 l 25.45,14.78 a 0.48,0.48 0 0 0 0.72,-0.41 v -31 a 1.41,1.41 0 0 0 -0.7,-1.22 z"
         style="opacity:0.35;fill:#d3daed" />
      <path
         id="a3126537-ab91-49dc-ba57-c282bbe3bfe9"
         d="M 39.74,117.29 4.89,97.05 a 0.65,0.65 0 0 0 -1,0.57 v 42.5 a 1.93,1.93 0 0 0 1,1.67 L 39.72,162 a 0.65,0.65 0 0 0 1,-0.57 V 119 a 1.93,1.93 0 0 0 -0.98,-1.71 z"
         style="opacity:0.35;fill:#d3daed" />
      <polygon
         id="8e44044e-a495-4dba-83f0-91779f70eeb0"
         points="31.67,157.35 31.83,157.45 31.83,130.39 31.67,130.39 "
         style="fill:#6d6d88" />
      <polygon
         id="8af2704d-0c7d-4e25-84e6-c97ebc6670d7"
         points="9.94,121.35 9.78,121.35 9.78,144.64 9.94,144.74 "
         style="fill:#6d6d88" />
      <polygon
         id="63879ada-138f-4e21-adf3-80e0fba655ae"
         points="16.56,124.54 16.4,124.54 16.4,148.48 16.56,148.58 "
         style="fill:#6d6d88" />
      <polygon
         id="6f276ec2-5daa-48cc-addf-ad1059ac8a6d"
         points="24.37,121.35 24.21,121.35 24.21,153.02 24.37,153.12 "
         style="fill:#6d6d88" />
      <ellipse
         id="ab520b8d-125e-4045-bcdb-ac62dd6f678c"
         cx="9.8599997"
         cy="121.35"
         rx="0.25"
         ry="0.33000001"
         style="fill:#6d6d88" />
      <ellipse
         id="ae5428e5-d065-4d94-8c0e-f5393950e918"
         cx="16.48"
         cy="124.54"
         rx="0.25"
         ry="0.33000001"
         style="fill:#6d6d88" />
      <ellipse
         id="8c741f0f-c987-4880-b8bc-80aadd040461"
         cx="24.290001"
         cy="121.35"
         rx="0.25"
         ry="0.33000001"
         style="fill:#6d6d88" />
      <ellipse
         id="befe33b6-d1df-4496-8413-cdd74b940dea"
         cx="31.75"
         cy="130.39"
         rx="0.25"
         ry="0.33000001"
         style="fill:#6d6d88" />
      <path
         id="9499af46-5e53-4108-b291-3aa7c31b1d44"
         d="m 3.9,123 v -1.52 a 22.2,22.2 0 0 1 3.92,4 l 0.75,0.89 c 1.56,1.84 4,1.71 6.66,1.39 2.41,-0.29 5.15,-0.46 7,1.26 a 8.65,8.65 0 0 1 1.93,3.11 c 0.16,0.35 0.31,0.71 0.48,1.05 0.28,0.57 1.35,2.43 2.88,2.37 a 4.35,4.35 0 0 0 0.88,-0.17 c 0.21,-0.05 0.42,-0.11 0.63,-0.14 2,-0.38 4.32,0.63 6.11,2.69 a 19.09,19.09 0 0 1 1.86,2.7 c 1,1.67 2,3.25 3.68,4 l -0.46,1.1 c -2.07,-0.87 -3.17,-2.69 -4.24,-4.45 a 18.24,18.24 0 0 0 -1.72,-2.51 c -1.51,-1.74 -3.37,-2.59 -5,-2.3 l -0.54,0.13 a 5.33,5.33 0 0 1 -1.12,0.2 c -1.54,0.07 -3,-1.07 -4,-3 -0.18,-0.36 -0.34,-0.73 -0.5,-1.1 a 7.65,7.65 0 0 0 -1.64,-2.71 c -1.52,-1.38 -3.95,-1.22 -6.1,-1 -2.15,0.22 -5.6,0.68 -7.71,-1.81 l -0.76,-0.9 A 25.7,25.7 0 0 0 3.9,123 Z"
         style="opacity:0.3;fill:#48486a" />
      <path
         id="8126bb8f-c02d-429d-b768-af955b83961a"
         d="m 39.81,162.06 v -42.5 a 1.93,1.93 0 0 0 -1,-1.67 L 4,97.65 H 3.91 a 0.65,0.65 0 0 1 1,-0.56 l 34.85,20.24 a 1.93,1.93 0 0 1 1,1.67 v 42.5 a 0.65,0.65 0 0 1 -0.89,0.6 z"
         style="fill:#d3daed" />
      <g
         id="459c4a01-6ea1-4852-a1e8-ae1e14fe9b84">
        <path
           id="1c7d13ad-0de7-4b1f-8c7c-c2e3dcef1932"
           d="m 41.42,143.61 0.46,0.11 v -1.21 c -1.71,-0.72 -2.67,-2.3 -3.68,-4 a 19.1,19.1 0 0 0 -1.83,-2.67 c -1.78,-2.06 -4.07,-3.06 -6.11,-2.69 -0.21,0 -0.42,0.09 -0.62,0.14 a 4.35,4.35 0 0 1 -0.88,0.17 c -1.53,0.06 -2.6,-1.8 -2.88,-2.37 -0.17,-0.34 -0.32,-0.7 -0.48,-1.05 A 8.66,8.66 0 0 0 23.47,127 c -1.89,-1.72 -4.63,-1.55 -7,-1.26 -2.62,0.32 -5.09,0.45 -6.66,-1.39 L 9,123.41 a 17.82,17.82 0 0 0 -5.31,-4.85 l -0.56,-0.14 v 1.19 a 16.9,16.9 0 0 1 5,4.56 l 0.76,0.9 c 2.11,2.48 5.48,2.08 7.71,1.81 2.23,-0.27 4.58,-0.42 6.1,1 a 7.65,7.65 0 0 1 1.64,2.71 c 0.16,0.37 0.33,0.74 0.5,1.1 1,2 2.46,3.09 4,3 a 5.32,5.32 0 0 0 1.12,-0.2 l 0.54,-0.13 c 1.62,-0.29 3.49,0.56 5,2.3 a 18.24,18.24 0 0 1 1.72,2.51 c 1.03,1.75 2.14,3.57 4.2,4.44 z"
           style="fill:#fd86c9;fill-opacity:1" />
      </g>
    </g>
    <g
       id="499d5e3a-86eb-4a44-a30b-6117ff5dcecd">
      <g
         id="58137722-adf4-4384-a317-bccd03e488af">
        <path
           id="4c47a136-dee9-4cb2-8030-e1bc98af7688"
           d="m 5.18,158.5 a 1.13,1.13 0 0 0 1,-1.67 l -3.7,-6.79 A 1.66,1.66 0 0 1 3,147.87 l 4.84,-3.31 A 1.13,1.13 0 0 0 6.57,142.7 L 1.71,146 a 3.91,3.91 0 0 0 -1.23,5.12 l 3.7,6.79 a 1.13,1.13 0 0 0 1,0.59 z"
           style="fill:#ef9ea3" />
      </g>
      <path
         id="04c87674-d276-4c5f-8a10-fe97b543c2b7"
         d="m 18.86,134.73 v 0 a 0.31,0.31 0 0 0 0.4,-0.18 l 0.86,-2.24 a 0.31,0.31 0 0 0 -0.18,-0.4 v 0 a 0.31,0.31 0 0 0 -0.4,0.18 l -0.86,2.24 a 0.31,0.31 0 0 0 0.18,0.4 z"
         style="fill:#f2b1b5" />
      <path
         id="eed5ff9b-3710-4e65-867b-aabd18f908a1"
         d="m 1.61,183.36 1,-0.61 1.09,-0.63 2.46,-1.43 a 0.84,0.84 0 0 0 -0.13,-1.51 v 0 a 1.85,1.85 0 0 0 -1.44,0.07 l -1.9,0.92 -2.25,0.83 a 0.47,0.47 0 0 0 -0.3,0.46 v 0.61 a 1.34,1.34 0 0 0 1.34,1.26 z"
         style="fill:#48486a" />
      <path
         id="6d3cdc46-b398-4ab2-89e8-417db219a13d"
         d="m 1.24,180.55 1.5,-0.37 1.12,-0.54 a 0.83,0.83 0 0 1 0,1.45 l -1.66,1 H 2.12 A 1.18,1.18 0 0 1 0.7,181.91 C 0.42,181.63 0.18,181.34 0.27,181.23 L 0.93,181 a 0.47,0.47 0 0 1 0.31,-0.45 z"
         style="fill:#f2b1b5" />
      <path
         id="ff9b9397-6085-4184-b6a9-f0626d4107f2"
         d="m 9.74,187.76 1.14,-0.67 1.18,-0.68 2.67,-1.55 a 0.91,0.91 0 0 0 -0.14,-1.64 v 0 a 2,2 0 0 0 -1.57,0.08 l -2.06,1 -2.5,0.92 a 0.51,0.51 0 0 0 -0.33,0.5 v 0.67 a 1.45,1.45 0 0 0 1.45,1.37 z"
         style="fill:#48486a" />
      <path
         id="835417a4-5bfc-4613-9900-4d3c598f796b"
         d="m 9.34,184.71 1.63,-0.4 1.21,-0.59 a 0.9,0.9 0 0 1 0,1.57 l -1.81,1 -0.09,0.05 a 1.28,1.28 0 0 1 -1.54,-0.19 c -0.31,-0.3 -0.56,-0.61 -0.47,-0.74 l 0.71,-0.22 a 0.51,0.51 0 0 1 0.36,-0.48 z"
         style="fill:#f2b1b5" />
      <g
         id="28d15894-8c58-47a0-a484-0bd6f367728a">
        <path
           id="b8568188-826d-47b9-9b36-88d4b4e77a18"
           d="m 1.27,182.39 a 1.41,1.41 0 0 0 1.27,-0.8 L 7.4,171.46 6,160.15 a 1.41,1.41 0 0 0 -1.57,-1.23 c -0.77,0.09 -2.16,0.8 -2.07,1.57 L 4.5,171 0.57,180.37 c -0.34,0.7 -0.6,1.54 0.1,1.88 a 1.4,1.4 0 0 0 0.6,0.14 z"
           style="fill:#f2b1b5" />
      </g>
      <g
         id="8d515c41-ac52-46d8-8ed0-df31b562a8b3">
        <path
           id="1a80d680-1827-4e61-9da3-79c9887b2fa5"
           d="m 9.68,186.55 c 0.78,0 1.13,-0.63 1.13,-1.41 V 159.25 A 1.41,1.41 0 0 0 9.4,157.84 c -0.78,0 -2.61,1.06 -2.61,1.84 L 8,172.86 8.27,185.14 a 1.41,1.41 0 0 0 1.41,1.41 z"
           style="fill:#f2b1b5" />
      </g>
      <path
         id="4bdb48eb-4b25-47f0-bb6d-f7b1db2ff59f"
         d="m 2.48,140.46 a 2.15,2.15 0 0 1 3.18,-1.89 v 0 a 2,2 0 0 1 0.64,0.62 c 2.12,3.49 4.84,4.29 4.84,7.86 l -0.83,6.42 1,6.26 0.34,10.91 A 3.92,3.92 0 0 1 9.3,171.2 c -0.08,0 -1,-0.06 -1.25,-0.1 -2.41,-0.42 -4.66,-0.58 -5.57,-2.38 l -0.35,-4.57 a 27.05,27.05 0 0 1 1,-9.26 v 0 z"
         style="fill:#48486a" />
      <g
         id="5069d7aa-fe17-45ad-8ee9-357c9d8c69f4">
        <path
           id="8efb20ac-360b-4077-8a98-191699abc45f"
           d="m 7.38,145.87 h 0.19 l 1.14,-0.19 a 15.05,15.05 0 0 0 11.22,-8.6 l 0.94,-2.05 a 1.13,1.13 0 1 0 -2,-0.94 l -0.94,2.05 a 12.8,12.8 0 0 1 -9.54,7.32 l -1.14,0.19 a 1.13,1.13 0 0 0 0.19,2.24 z"
           style="fill:#f2b1b5" />
      </g>
      <g
         id="abcdbb49-2fbf-4a8a-91c6-c0656ed18030">
        <path
           id="33720e3f-fa6b-482f-83b0-302d34446c9e"
           d="m 7.38,146.15 h 0.23 l 1.14,-0.19 a 15.39,15.39 0 0 0 2.57,-0.66 1.41,1.41 0 0 0 -0.94,-2.65 12.6,12.6 0 0 1 -2.1,0.54 l -1.14,0.19 a 1.41,1.41 0 0 0 0.23,2.8 z"
           style="fill:#48486a" />
      </g>
      <path
         id="7f197c4a-4eb3-4db3-9e9b-51867e92c678"
         d="m 5.95,140.81 v 0 a 0.83,0.83 0 0 0 0.83,-0.83 v -3.85 H 5.12 V 140 a 0.83,0.83 0 0 0 0.83,0.81 z"
         style="fill:#f2b1b5" />
      <path
         id="a4a1dad5-cc6c-41dc-a398-838b1ce03e30"
         d="m 4.26,138.74 1.67,0.22 a 2,2 0 0 0 2.23,-2.08 2,2 0 0 0 0,-0.2 l -0.86,-3.93 -4.12,0.89 z"
         style="fill:#f2b1b5" />
      <path
         d="m 1,143.21 a 2.42,2.42 0 0 0 0.35,-0.88 c 0.06,-0.66 -0.48,-1.23 -0.61,-1.89 -0.2,-1 0.48,-1.86 0.44,-2.82 a 8.53,8.53 0 0 1 0,-3 4.67,4.67 0 0 1 0.17,-0.48 4.12,4.12 0 0 1 3.34,-2.31 6.28,6.28 0 0 1 1.83,-0.05 2.88,2.88 0 0 1 1,0.27 0.92,0.92 0 0 1 0.36,0.3 A 1.19,1.19 0 0 1 8,133 c -0.05,0.54 -0.74,0.73 -0.8,1.24 0,0.26 0.14,0.54 0.16,0.8 a 2,2 0 0 1 -0.17,1 c -0.27,0.59 -0.83,1.09 -0.8,1.73 0,0.29 0.15,0.55 0.19,0.84 0.15,1 -0.91,1.78 -0.63,2.79 0.18,0.66 0.92,1.13 0.85,1.81 0,0.27 -0.19,0.52 -0.24,0.79 -0.09,0.55 0.31,1.15 0.07,1.66 -0.84,1.74 -3.76,1.44 -5.11,0.68 A 2.24,2.24 0 0 1 0.66,145.58 2.49,2.49 0 0 1 1,143.21 Z"
         style="fill:url(#4103d0fc-7a65-4428-b37b-5e18c0990d8d)"
         id="path169" />
      <path
         id="be72a61b-4416-4080-b053-ec4fbccf03ae"
         d="m 6.79,157.38 a 13.49,13.49 0 0 1 -4.1,-0.62 c 0.13,-0.62 0.28,-1.23 0.46,-1.84 v -0.38 a 11.68,11.68 0 0 0 7.35,0 l 0.36,2.26 a 13.45,13.45 0 0 1 -4.07,0.58 z"
         style="fill:url(#9953bf47-d813-42c5-a3af-4e1b1d910883)" />
    </g>
  </g>
  <g
     id="29bdef19-4ba3-49c7-b484-cecf8baccd2c"
     data-name="Layer 13"
     transform="translate(2.7820826,9.800118)">
    <g
       id="c1742f9c-9eec-459a-abd5-2a29e3c24a80">
      <polygon
         id="e9d7e57f-20c1-4c52-88ee-ef896e9ee570"
         points="75.98,144.32 110.19,164.57 145.27,144.32 110.19,124.07 "
         style="fill:#edeef2" />
      <polygon
         id="0a462e76-ff6a-4ef2-ae05-0412e7296ccf"
         points="110.19,197.13 110.19,164.57 145.27,144.32 145.27,177.98 "
         style="fill:#d3daed" />
      <polygon
         id="4a4d98ec-689c-4313-8073-1cf97b0d6de3"
         points="110.19,197.13 110.19,164.57 75.98,144.32 75.98,176.88 "
         style="fill:#d7deef" />
      <polygon
         id="70879c44-6be3-4b62-bb4d-9f014a27b39b"
         points="106.81,168.85 106.81,166.51 100.3,162.71 100.3,165.05 "
         style="fill:#99a7d8" />
      <polygon
         id="1e92f80b-4cb2-4541-ad8a-459520881a06"
         points="98.3,163.92 98.3,161.58 91.79,157.78 91.79,160.13 "
         style="fill:url(#be3d29e2-dc2d-4ab9-886b-a360843be45b)" />
    </g>
  </g>
  <g
     id="g170"
     transform="translate(2.7820826,9.800118)">
    <path
       d="m 118.66,139.76 10.45,6 a 0.34,0.34 0 0 1 0,0.59 l -16.27,9.48 a 1.34,1.34 0 0 1 -1.34,0 l -10.45,-6 a 0.34,0.34 0 0 1 0,-0.59 l 16.27,-9.48 a 1.34,1.34 0 0 1 1.34,0 z"
       style="opacity:0.15;fill:#8f8fa4"
       id="path170" />
    <path
       id="0017a787-a017-4795-a04e-b242c26b25f5"
       d="m 101.08,134.93 16.35,-9.44 a 0.33,0.33 0 0 1 0.5,0.29 v 12.32 a 0.72,0.72 0 0 1 -0.36,0.62 l -16.35,9.44 a 0.33,0.33 0 0 1 -0.5,-0.29 v -12.31 a 0.72,0.72 0 0 1 0.36,-0.63 z"
       style="fill:url(#7c5dddf6-48b2-4642-8e08-48004580db2c)" />
    <path
       id="f897ac8c-0a50-4727-a175-73b53cbc8625"
       d="m 101.29,135.07 16.35,-9.44 a 0.33,0.33 0 0 1 0.5,0.29 v 12.32 a 0.72,0.72 0 0 1 -0.36,0.62 l -16.35,9.44 a 0.33,0.33 0 0 1 -0.5,-0.29 V 135.7 a 0.72,0.72 0 0 1 0.36,-0.63 z"
       style="fill:#48486a" />
    <polygon
       id="29605043-3b62-4cbe-9ab2-e896487a70e2"
       points="101.9,135.85 117.29,126.92 117.29,138.19 101.9,147.12 "
       style="fill:#d6dcef" />
    <path
       id="f8bf8e29-8257-424f-a975-f3d16af930d9"
       d="m 118.8,139.46 10.47,5.54 c 0,0 0.06,0.82 -0.17,0.95 l -16,9.26 a 1.33,1.33 0 0 1 -1.32,0 l -10.3,-5.89 c -0.43,-0.26 -0.17,-0.95 -0.17,-0.95 l 16.21,-8.89 a 1.33,1.33 0 0 1 1.28,-0.02 z"
       style="fill:url(#8d6bb539-3ed2-451e-a5fc-e0a8dc5f5bb3)" />
    <path
       id="fcca87d8-4bca-4865-93df-0d4f9a0141e0"
       d="m 118.8,138.82 10.3,5.89 a 0.33,0.33 0 0 1 0,0.58 l -16,9.26 a 1.33,1.33 0 0 1 -1.32,0 l -10.3,-5.89 a 0.33,0.33 0 0 1 0,-0.58 l 16,-9.26 a 1.33,1.33 0 0 1 1.32,0 z"
       style="fill:#f7f7f7" />
    <path
       id="8e22273e-3eab-4d86-9545-90190b5a47ec"
       d="m 119.72,146.45 2.72,1.55 a 0.09,0.09 0 0 1 0,0.15 l -4.23,2.44 a 0.35,0.35 0 0 1 -0.35,0 L 115.14,149 a 0.09,0.09 0 0 1 0,-0.15 l 4.23,-2.44 a 0.35,0.35 0 0 1 0.35,0.04 z"
       style="fill:#e5e9f4" />
    <path
       id="c4a49530-6289-4f32-a024-118dc945f9a1"
       d="m 117.67,139.72 -0.89,0.51 a 0.05,0.05 0 0 0 0,0.09 l 0.44,0.25 a 0.11,0.11 0 0 0 0.11,0 l 0.89,-0.51 a 0.05,0.05 0 0 0 0,-0.09 l -0.44,-0.25 a 0.11,0.11 0 0 0 -0.11,0 z"
       style="fill:#d3daed" />
    <path
       id="b0013f4f-b582-4fd7-aa0f-c66875b15c27"
       d="m 116.37,140.5 -0.89,0.51 a 0.05,0.05 0 0 0 0,0.09 l 0.44,0.25 a 0.12,0.12 0 0 0 0.11,0 l 0.89,-0.51 a 0.05,0.05 0 0 0 0,-0.09 l -0.44,-0.25 a 0.11,0.11 0 0 0 -0.11,0 z"
       style="fill:#d3daed" />
    <path
       id="dac4c738-1c7d-49dc-8fd2-c5adb112174f"
       d="m 115.06,141.23 -0.89,0.51 a 0.05,0.05 0 0 0 0,0.09 l 0.44,0.25 a 0.11,0.11 0 0 0 0.11,0 l 0.89,-0.51 a 0.05,0.05 0 0 0 0,-0.09 l -0.44,-0.25 a 0.11,0.11 0 0 0 -0.11,0 z"
       style="fill:#d3daed" />
    <path
       id="de88ea77-0451-426a-8f9f-2d4f31703944"
       d="m 113.72,142 -0.89,0.51 a 0.05,0.05 0 0 0 0,0.09 l 0.44,0.25 a 0.11,0.11 0 0 0 0.11,0 l 0.89,-0.51 a 0.05,0.05 0 0 0 0,-0.09 L 113.83,142 a 0.11,0.11 0 0 0 -0.11,0 z"
       style="fill:#d3daed" />
    <path
       id="7fe82e13-4d87-4aa5-bd1c-c7886338b367"
       d="m 112.42,142.71 -0.89,0.51 a 0.05,0.05 0 0 0 0,0.09 l 0.44,0.25 a 0.11,0.11 0 0 0 0.11,0 l 0.89,-0.51 a 0.05,0.05 0 0 0 0,-0.09 l -0.44,-0.25 a 0.11,0.11 0 0 0 -0.11,0 z"
       style="fill:#d3daed" />
    <path
       id="c05a896a-85cd-4677-a208-3bd1b8b75de7"
       d="m 111.17,143.49 -0.89,0.51 a 0.05,0.05 0 0 0 0,0.09 l 0.44,0.25 a 0.11,0.11 0 0 0 0.11,0 l 0.89,-0.51 a 0.05,0.05 0 0 0 0,-0.09 l -0.44,-0.25 a 0.11,0.11 0 0 0 -0.11,0 z"
       style="fill:#d3daed" />
    <path
       id="afed6601-bc97-4ef9-9a26-e8e6a6d0b49e"
       d="m 109.85,144.21 -0.89,0.51 a 0.05,0.05 0 0 0 0,0.09 l 0.44,0.25 a 0.11,0.11 0 0 0 0.11,0 l 0.89,-0.51 a 0.05,0.05 0 0 0 0,-0.09 l -0.44,-0.25 a 0.11,0.11 0 0 0 -0.11,0 z"
       style="fill:#d3daed" />
    <path
       id="8fb30444-5d21-4ff1-8e37-5917de232c27"
       d="m 108.56,145 -0.89,0.51 a 0.05,0.05 0 0 0 0,0.09 l 0.44,0.25 a 0.11,0.11 0 0 0 0.11,0 l 0.89,-0.51 a 0.05,0.05 0 0 0 0,-0.09 L 108.67,145 a 0.11,0.11 0 0 0 -0.11,0 z"
       style="fill:#d3daed" />
    <path
       id="a67e4dd1-3f15-48da-a662-89d0c9829db4"
       d="m 107.28,145.73 -0.89,0.51 a 0.05,0.05 0 0 0 0,0.09 l 0.44,0.25 a 0.12,0.12 0 0 0 0.11,0 l 0.89,-0.51 a 0.05,0.05 0 0 0 0,-0.09 l -0.44,-0.25 a 0.11,0.11 0 0 0 -0.11,0 z"
       style="fill:#d3daed" />
    <path
       id="f53642da-663c-4e0d-af4f-6d7ee9821d4f"
       d="m 105.94,146.51 -0.89,0.51 a 0.05,0.05 0 0 0 0,0.09 l 0.44,0.25 a 0.11,0.11 0 0 0 0.11,0 l 0.89,-0.51 a 0.05,0.05 0 0 0 0,-0.09 l -0.44,-0.25 a 0.11,0.11 0 0 0 -0.11,0 z"
       style="fill:#d3daed" />
    <path
       id="daf436aa-7baf-46b5-8e25-6fbd34dce986"
       d="m 104.64,147.24 -0.89,0.51 a 0.05,0.05 0 0 0 0,0.09 l 0.44,0.25 a 0.12,0.12 0 0 0 0.11,0 l 0.89,-0.51 a 0.05,0.05 0 0 0 0,-0.09 l -0.44,-0.25 a 0.11,0.11 0 0 0 -0.11,0 z"
       style="fill:#d3daed" />
    <g
       id="c94b32eb-6b68-4b20-99af-720f15ab1b36">
      <path
         id="2379f48e-d455-46f4-bf04-7ba92f462acf"
         d="m 119.47,140.69 -0.6,-0.35 a 0.25,0.25 0 0 0 -0.25,0 l -0.59,0.34 a 0.13,0.13 0 0 0 0,0.21 l 0.58,0.36 a 0.25,0.25 0 0 0 0.26,0 l 0.6,-0.35 a 0.13,0.13 0 0 0 0,-0.21 z"
         style="fill:#d3daed" />
      <path
         id="3f13d25e-e7b9-4128-bb6a-2fb615c36ceb"
         d="m 118.13,141.46 -0.6,-0.35 a 0.25,0.25 0 0 0 -0.25,0 l -0.59,0.34 a 0.13,0.13 0 0 0 0,0.21 l 0.58,0.36 a 0.25,0.25 0 0 0 0.26,0 l 0.6,-0.35 a 0.13,0.13 0 0 0 0,-0.21 z"
         style="fill:#d3daed" />
      <path
         id="7cf4606a-69b9-4e94-b519-553bb13b8550"
         d="m 116.82,142.2 -0.6,-0.35 a 0.25,0.25 0 0 0 -0.25,0 l -0.59,0.34 a 0.13,0.13 0 0 0 0,0.22 l 0.58,0.36 a 0.25,0.25 0 0 0 0.26,0 l 0.6,-0.35 a 0.12,0.12 0 0 0 0,-0.22 z"
         style="fill:#d3daed" />
      <path
         id="da930b18-4fae-45c4-9cd0-b758f6cac94e"
         d="m 115.43,143 -0.6,-0.35 a 0.25,0.25 0 0 0 -0.25,0 l -0.59,0.34 a 0.13,0.13 0 0 0 0,0.21 l 0.58,0.36 a 0.25,0.25 0 0 0 0.26,0 l 0.6,-0.35 a 0.13,0.13 0 0 0 0,-0.21 z"
         style="fill:#d3daed" />
      <path
         id="bcee400e-07c4-437b-a0cf-11c0aa9f4d94"
         d="m 114.2,143.68 -0.6,-0.35 a 0.25,0.25 0 0 0 -0.25,0 l -0.59,0.34 a 0.13,0.13 0 0 0 0,0.21 l 0.58,0.36 a 0.25,0.25 0 0 0 0.26,0 l 0.6,-0.35 a 0.13,0.13 0 0 0 0,-0.21 z"
         style="fill:#d3daed" />
      <path
         id="ea605045-9ed3-4e49-aba3-e740a00262b2"
         d="m 113,144.45 -0.6,-0.35 a 0.25,0.25 0 0 0 -0.25,0 l -0.59,0.34 a 0.13,0.13 0 0 0 0,0.21 l 0.58,0.36 a 0.25,0.25 0 0 0 0.26,0 l 0.6,-0.35 a 0.13,0.13 0 0 0 0,-0.21 z"
         style="fill:#d3daed" />
      <path
         id="ef404752-82b5-4ea3-ad90-be25974b723a"
         d="m 111.63,145.18 -0.6,-0.35 a 0.25,0.25 0 0 0 -0.25,0 l -0.59,0.34 a 0.13,0.13 0 0 0 0,0.21 l 0.58,0.36 a 0.25,0.25 0 0 0 0.26,0 l 0.6,-0.35 a 0.13,0.13 0 0 0 0,-0.21 z"
         style="fill:#d3daed" />
      <path
         id="d742087f-0e46-409f-9867-c8ebfa3dfea0"
         d="m 110.33,145.91 -0.6,-0.35 a 0.25,0.25 0 0 0 -0.25,0 l -0.59,0.34 a 0.13,0.13 0 0 0 0,0.21 l 0.58,0.36 a 0.25,0.25 0 0 0 0.26,0 l 0.6,-0.35 a 0.13,0.13 0 0 0 0,-0.21 z"
         style="fill:#d3daed" />
      <path
         id="fe983283-4a11-47f2-bb1d-ad2f9ec39229"
         d="m 109,146.7 -0.6,-0.35 a 0.25,0.25 0 0 0 -0.25,0 l -0.59,0.34 a 0.12,0.12 0 0 0 0,0.21 l 0.58,0.36 a 0.25,0.25 0 0 0 0.26,0 l 0.6,-0.35 a 0.13,0.13 0 0 0 0,-0.21 z"
         style="fill:#d3daed" />
      <path
         id="88d389a2-85d5-439f-835e-6fe9bf18e940"
         d="m 107.65,147.52 -0.6,-0.35 a 0.25,0.25 0 0 0 -0.25,0 l -0.59,0.34 a 0.13,0.13 0 0 0 0,0.21 l 0.58,0.36 a 0.25,0.25 0 0 0 0.26,0 l 0.6,-0.35 a 0.12,0.12 0 0 0 0,-0.21 z"
         style="fill:#d3daed" />
      <path
         id="2a1c6f3f-c7e1-4954-bbad-89d87b87981f"
         d="m 106.39,148.2 -0.6,-0.35 a 0.25,0.25 0 0 0 -0.25,0 l -0.59,0.34 a 0.13,0.13 0 0 0 0,0.21 l 0.58,0.36 a 0.25,0.25 0 0 0 0.26,0 l 0.6,-0.35 a 0.13,0.13 0 0 0 0,-0.21 z"
         style="fill:#d3daed" />
    </g>
    <g
       id="5f2382f5-d22c-49fb-ab42-6fbacf45e6cb">
      <path
         id="60cf64f5-4352-4b77-b0da-85489df6f764"
         d="m 120.81,141.42 -0.6,-0.35 a 0.25,0.25 0 0 0 -0.25,0 l -0.59,0.34 a 0.13,0.13 0 0 0 0,0.21 l 0.58,0.36 a 0.25,0.25 0 0 0 0.26,0 l 0.6,-0.35 a 0.13,0.13 0 0 0 0,-0.21 z"
         style="fill:#d3daed" />
      <path
         id="0e627d42-93d0-43ed-a4e7-402cfca1058a"
         d="m 119.47,142.19 -0.6,-0.35 a 0.25,0.25 0 0 0 -0.25,0 l -0.59,0.34 a 0.13,0.13 0 0 0 0,0.21 l 0.58,0.36 a 0.25,0.25 0 0 0 0.26,0 l 0.6,-0.35 a 0.12,0.12 0 0 0 0,-0.21 z"
         style="fill:#d3daed" />
      <path
         id="7e122c9f-c7d0-431f-b377-586c45f5d575"
         d="m 118.16,142.93 -0.6,-0.35 a 0.25,0.25 0 0 0 -0.25,0 l -0.59,0.34 a 0.13,0.13 0 0 0 0,0.21 l 0.58,0.36 a 0.25,0.25 0 0 0 0.26,0 l 0.6,-0.35 a 0.13,0.13 0 0 0 0,-0.21 z"
         style="fill:#d3daed" />
      <path
         id="fe8555b0-2ebd-4f8a-9697-6fe98011ad68"
         d="m 116.77,143.68 -0.6,-0.35 a 0.25,0.25 0 0 0 -0.25,0 l -0.59,0.34 a 0.13,0.13 0 0 0 0,0.21 l 0.58,0.36 a 0.25,0.25 0 0 0 0.26,0 l 0.6,-0.35 a 0.13,0.13 0 0 0 0,-0.21 z"
         style="fill:#d3daed" />
      <path
         id="1dc7cbd6-2777-43ae-864b-4031645e1ef1"
         d="m 115.54,144.4 -0.6,-0.35 a 0.25,0.25 0 0 0 -0.25,0 l -0.59,0.34 a 0.13,0.13 0 0 0 0,0.21 l 0.58,0.36 a 0.25,0.25 0 0 0 0.26,0 l 0.6,-0.35 a 0.13,0.13 0 0 0 0,-0.21 z"
         style="fill:#d3daed" />
      <path
         id="35458aa2-f97a-4531-ae6c-4f2e98b4b059"
         d="m 114.3,145.17 -0.6,-0.35 a 0.25,0.25 0 0 0 -0.25,0 l -0.59,0.34 a 0.13,0.13 0 0 0 0,0.21 l 0.58,0.36 a 0.25,0.25 0 0 0 0.26,0 l 0.6,-0.35 a 0.13,0.13 0 0 0 0,-0.21 z"
         style="fill:#d3daed" />
      <path
         id="76b63068-2a84-4576-bc55-526a675ed096"
         d="m 113,145.9 -0.6,-0.35 a 0.25,0.25 0 0 0 -0.25,0 l -0.59,0.34 a 0.13,0.13 0 0 0 0,0.21 l 0.58,0.36 a 0.25,0.25 0 0 0 0.26,0 l 0.6,-0.35 a 0.13,0.13 0 0 0 0,-0.21 z"
         style="fill:#d3daed" />
      <path
         id="5134c527-03f6-4c86-81e9-0bf685a4edb0"
         d="m 111.67,146.64 -0.6,-0.35 a 0.25,0.25 0 0 0 -0.25,0 l -0.59,0.34 a 0.13,0.13 0 0 0 0,0.21 l 0.58,0.36 a 0.25,0.25 0 0 0 0.26,0 l 0.6,-0.35 a 0.12,0.12 0 0 0 0,-0.21 z"
         style="fill:#d3daed" />
      <path
         id="a29e4718-2397-4d2d-abf5-0aa8176bb360"
         d="m 110.39,147.43 -0.6,-0.35 a 0.25,0.25 0 0 0 -0.25,0 l -0.59,0.34 a 0.13,0.13 0 0 0 0,0.21 l 0.58,0.36 a 0.25,0.25 0 0 0 0.26,0 l 0.6,-0.35 a 0.12,0.12 0 0 0 0,-0.21 z"
         style="fill:#d3daed" />
      <path
         id="804f6eba-39aa-4eee-a2c6-d60dfe84061b"
         d="m 109,148.25 -0.6,-0.35 a 0.25,0.25 0 0 0 -0.25,0 l -0.59,0.34 a 0.13,0.13 0 0 0 0,0.21 l 0.58,0.36 a 0.25,0.25 0 0 0 0.26,0 l 0.6,-0.35 a 0.13,0.13 0 0 0 0,-0.21 z"
         style="fill:#d3daed" />
      <path
         id="3c5faa58-bf5e-4fdd-94f7-5090be5f2cd6"
         d="m 107.73,148.93 -0.6,-0.35 a 0.25,0.25 0 0 0 -0.25,0 l -0.59,0.34 a 0.13,0.13 0 0 0 0,0.21 l 0.58,0.36 a 0.25,0.25 0 0 0 0.26,0 l 0.6,-0.35 a 0.13,0.13 0 0 0 0,-0.21 z"
         style="fill:#d3daed" />
    </g>
    <g
       id="f07b7080-21df-4307-98c4-cf27969be144">
      <path
         id="61bd1c58-2aeb-44f0-8099-94c0e9f838c3"
         d="m 122.15,142.15 -0.6,-0.35 a 0.25,0.25 0 0 0 -0.25,0 l -0.59,0.34 a 0.13,0.13 0 0 0 0,0.21 l 0.58,0.36 a 0.25,0.25 0 0 0 0.26,0 l 0.6,-0.35 a 0.13,0.13 0 0 0 0,-0.21 z"
         style="fill:#d3daed" />
      <path
         id="0b0033b7-d74d-439a-b7f0-9d7c4d099d38"
         d="m 120.81,142.92 -0.6,-0.35 a 0.25,0.25 0 0 0 -0.25,0 l -0.59,0.34 a 0.13,0.13 0 0 0 0,0.21 l 0.58,0.36 a 0.25,0.25 0 0 0 0.26,0 l 0.6,-0.35 a 0.13,0.13 0 0 0 0,-0.21 z"
         style="fill:#d3daed" />
      <path
         id="c46dae2e-e2b1-4bdc-8e06-53ab00d6656a"
         d="m 119.5,143.66 -0.6,-0.35 a 0.25,0.25 0 0 0 -0.25,0 l -0.59,0.34 a 0.13,0.13 0 0 0 0,0.21 l 0.58,0.36 a 0.25,0.25 0 0 0 0.26,0 l 0.6,-0.35 a 0.13,0.13 0 0 0 0,-0.21 z"
         style="fill:#d3daed" />
      <path
         id="ff3d4a5b-6cec-4630-803e-95539d7a7334"
         d="m 118.11,144.41 -0.6,-0.35 a 0.25,0.25 0 0 0 -0.25,0 l -0.59,0.34 a 0.13,0.13 0 0 0 0,0.22 l 0.58,0.36 a 0.25,0.25 0 0 0 0.26,0 l 0.6,-0.35 a 0.13,0.13 0 0 0 0,-0.22 z"
         style="fill:#d3daed" />
      <path
         id="ba50323a-982f-4a76-8d93-88cb47025b91"
         d="m 116.88,145.13 -0.6,-0.35 a 0.25,0.25 0 0 0 -0.25,0 l -0.59,0.34 a 0.13,0.13 0 0 0 0,0.21 l 0.58,0.36 a 0.25,0.25 0 0 0 0.26,0 l 0.6,-0.35 a 0.13,0.13 0 0 0 0,-0.21 z"
         style="fill:#d3daed" />
      <path
         id="fcd537d5-2066-4243-9668-caa4e8ecc61a"
         d="m 115.64,145.9 -0.6,-0.35 a 0.25,0.25 0 0 0 -0.25,0 l -0.59,0.34 a 0.13,0.13 0 0 0 0,0.21 l 0.58,0.36 a 0.25,0.25 0 0 0 0.26,0 l 0.6,-0.35 a 0.12,0.12 0 0 0 0,-0.21 z"
         style="fill:#d3daed" />
      <path
         id="f584ad61-8826-4c7c-9abe-61cbcb73ed4a"
         d="m 114.31,146.63 -0.6,-0.35 a 0.25,0.25 0 0 0 -0.25,0 l -0.59,0.34 a 0.12,0.12 0 0 0 0,0.21 l 0.58,0.36 a 0.25,0.25 0 0 0 0.26,0 l 0.6,-0.35 a 0.13,0.13 0 0 0 0,-0.21 z"
         style="fill:#d3daed" />
      <path
         id="98834e55-0024-493b-a0a5-3e6b33ce05ca"
         d="m 113,147.37 -0.6,-0.35 a 0.25,0.25 0 0 0 -0.25,0 l -0.59,0.34 a 0.13,0.13 0 0 0 0,0.21 l 0.58,0.36 a 0.25,0.25 0 0 0 0.26,0 l 0.6,-0.35 a 0.13,0.13 0 0 0 0,-0.21 z"
         style="fill:#d3daed" />
      <path
         id="b1768106-e629-4f75-998a-932ef2849fd5"
         d="m 111.73,148.16 -0.6,-0.35 a 0.25,0.25 0 0 0 -0.25,0 l -0.59,0.34 a 0.13,0.13 0 0 0 0,0.21 l 0.58,0.36 a 0.25,0.25 0 0 0 0.26,0 l 0.6,-0.35 a 0.13,0.13 0 0 0 0,-0.21 z"
         style="fill:#d3daed" />
      <path
         id="9564dac1-964a-47ed-ad25-217ab9b03ed1"
         d="m 110.33,149 -0.6,-0.35 a 0.25,0.25 0 0 0 -0.25,0 l -0.59,0.34 a 0.13,0.13 0 0 0 0,0.21 l 0.58,0.36 a 0.25,0.25 0 0 0 0.26,0 l 0.6,-0.35 a 0.12,0.12 0 0 0 0,-0.21 z"
         style="fill:#d3daed" />
      <path
         id="3261f5be-0d9e-4591-82b0-a63bbe941fb0"
         d="m 109.07,149.66 -0.6,-0.35 a 0.25,0.25 0 0 0 -0.25,0 l -0.59,0.34 a 0.12,0.12 0 0 0 0,0.21 l 0.58,0.36 a 0.25,0.25 0 0 0 0.26,0 l 0.6,-0.35 a 0.13,0.13 0 0 0 0,-0.21 z"
         style="fill:#d3daed" />
    </g>
    <g
       id="fc92d862-c665-484a-bcf9-31741e2eb705">
      <path
         id="72169e06-26da-438a-88d3-7d6e36741d16"
         d="m 123.49,142.88 -0.6,-0.35 a 0.25,0.25 0 0 0 -0.25,0 l -0.59,0.34 a 0.13,0.13 0 0 0 0,0.21 l 0.58,0.36 a 0.25,0.25 0 0 0 0.26,0 l 0.6,-0.35 a 0.13,0.13 0 0 0 0,-0.21 z"
         style="fill:#d3daed" />
      <path
         id="f2efa75e-6d14-4a06-a50c-5934d9937c0a"
         d="m 122.15,143.65 -0.6,-0.35 a 0.25,0.25 0 0 0 -0.25,0 l -0.59,0.34 a 0.13,0.13 0 0 0 0,0.21 l 0.58,0.36 a 0.25,0.25 0 0 0 0.26,0 l 0.6,-0.35 a 0.13,0.13 0 0 0 0,-0.21 z"
         style="fill:#d3daed" />
      <path
         id="f981eba7-6924-4b0e-8d32-914ae63d2a66"
         d="m 120.84,144.38 -0.6,-0.35 a 0.25,0.25 0 0 0 -0.25,0 l -0.59,0.34 a 0.13,0.13 0 0 0 0,0.21 l 0.58,0.36 a 0.25,0.25 0 0 0 0.26,0 l 0.6,-0.35 a 0.13,0.13 0 0 0 0,-0.21 z"
         style="fill:#d3daed" />
      <path
         id="71f30192-a4d2-42a1-827e-672a6b88910a"
         d="m 119.45,145.14 -0.6,-0.35 a 0.25,0.25 0 0 0 -0.25,0 l -0.59,0.34 a 0.13,0.13 0 0 0 0,0.21 l 0.58,0.36 a 0.25,0.25 0 0 0 0.26,0 l 0.6,-0.35 a 0.13,0.13 0 0 0 0,-0.21 z"
         style="fill:#d3daed" />
      <path
         id="79602d75-32dd-4cd5-8de1-c04209d84ce9"
         d="m 118.11,145.94 -0.6,-0.35 a 0.25,0.25 0 0 0 -0.25,0 l -3.06,1.77 a 0.13,0.13 0 0 0 0,0.21 l 0.58,0.36 a 0.25,0.25 0 0 0 0.26,0 l 3.07,-1.77 a 0.12,0.12 0 0 0 0,-0.22 z"
         style="fill:#d3daed" />
      <path
         id="ed843e2f-40f2-4a90-af32-c698e15344a1"
         d="m 114.35,148.1 -0.6,-0.35 a 0.25,0.25 0 0 0 -0.25,0 l -0.59,0.34 a 0.12,0.12 0 0 0 0,0.21 l 0.58,0.36 a 0.25,0.25 0 0 0 0.26,0 l 0.6,-0.35 a 0.13,0.13 0 0 0 0,-0.21 z"
         style="fill:#d3daed" />
      <path
         id="ba4d6d08-2e07-4257-90e0-54787f94ebd3"
         d="m 113.07,148.88 -0.6,-0.35 a 0.25,0.25 0 0 0 -0.25,0 l -0.59,0.34 a 0.13,0.13 0 0 0 0,0.21 l 0.58,0.36 a 0.25,0.25 0 0 0 0.26,0 l 0.6,-0.35 a 0.13,0.13 0 0 0 0,-0.21 z"
         style="fill:#d3daed" />
      <path
         id="054791f1-6e7d-4576-acbc-1f4d6ffb0969"
         d="m 111.67,149.71 -0.6,-0.35 a 0.25,0.25 0 0 0 -0.25,0 l -0.59,0.34 a 0.13,0.13 0 0 0 0,0.21 l 0.58,0.36 a 0.25,0.25 0 0 0 0.26,0 l 0.6,-0.35 a 0.13,0.13 0 0 0 0,-0.21 z"
         style="fill:#d3daed" />
      <path
         id="54946c33-dd64-4364-a76e-ada61c286bc5"
         d="m 110.41,150.39 -0.6,-0.35 a 0.25,0.25 0 0 0 -0.25,0 l -0.59,0.34 a 0.13,0.13 0 0 0 0,0.21 l 0.58,0.36 a 0.25,0.25 0 0 0 0.26,0 l 0.6,-0.35 a 0.13,0.13 0 0 0 0,-0.21 z"
         style="fill:#d3daed" />
    </g>
  </g>
  <g
     id="g171"
     transform="translate(2.7820826,9.800118)">
    <path
       id="4e5127f8-48cb-447d-812b-662a61d4b3b9"
       d="m 117.28,127.27 c 0,-0.14 -0.1,-0.2 -0.23,-0.13 l -15,8.68 a 0.5,0.5 0 0 0 -0.23,0.39 v 11 c 0,0.14 0.1,0.2 0.23,0.13 l 15,-8.68 a 0.5,0.5 0 0 0 0.23,-0.39 z"
       style="fill:#ffffff" />
    <polygon
       id="964de05c-6ce6-40b0-8f5d-1b987331e3ad"
       points="105.77,134.58 103.06,136.14 103.06,137.07 105.77,135.5 "
       style="fill:#edf0f8" />
    <polygon
       id="141d0a63-1898-45b7-9de8-9a01cbb7a4d7"
       points="112.56,132.1 103.06,137.66 103.06,138.21 112.56,132.65 "
       style="fill:#edf0f8" />
    <polygon
       points="111.08,136.92 112.92,136.92 114.08,135.22 115.41,135.82 116.81,135.76 116.81,137.97 102.78,145.99 102.78,143.83 104.45,141.45 105.33,142.09 107.1,138.58 107.74,139.71 108.68,139.71 110.2,137.47 "
       style="fill:url(#49e6d43e-57df-4ade-a8f9-f1133f4752b6)"
       id="polygon170" />
  </g>
  <metadata
     id="metadata178">
    <rdf:RDF>
      <cc:Work
         rdf:about="">
        <dc:title>protection</dc:title>
      </cc:Work>
    </rdf:RDF>
  </metadata>
</svg>
