<?xml version="1.0" encoding="UTF-8" standalone="no"?>
<svg
   class="animated"
   id="freepik_stories-visual-data"
   viewBox="0 0 500 500"
   version="1.1"
   sodipodi:docname="RAG.svg"
   inkscape:version="1.3.2 (091e20ef0f, 2023-11-25)"
   xmlns:inkscape="http://www.inkscape.org/namespaces/inkscape"
   xmlns:sodipodi="http://sodipodi.sourceforge.net/DTD/sodipodi-0.dtd"
   xmlns="http://www.w3.org/2000/svg"
   xmlns:svg="http://www.w3.org/2000/svg">
  <sodipodi:namedview
     id="namedview17"
     pagecolor="#ffffff"
     bordercolor="#000000"
     borderopacity="0.25"
     inkscape:showpageshadow="2"
     inkscape:pageopacity="0.0"
     inkscape:pagecheckerboard="0"
     inkscape:deskcolor="#d1d1d1"
     inkscape:zoom="1.5612918"
     inkscape:cx="194.07006"
     inkscape:cy="237.94399"
     inkscape:window-width="1876"
     inkscape:window-height="1138"
     inkscape:window-x="0"
     inkscape:window-y="0"
     inkscape:window-maximized="1"
     inkscape:current-layer="freepik_stories-visual-data" />
  <g
     id="freepik--screen-1--inject-2"
     class="animable"
     transform="matrix(-1,0,0,1,551.36929,24.063765)">
    <g
       id="g3"
       class="animable">
      <g
         id="freepik--screen-2--inject-2"
         class="animable">
        <g
           id="eldl7ewmb4m79">
          <path
             d="m 315.5,56.19 a 2.79,2.79 0 0 0 -1.22,-2.62 v 0 l -3.15,-1.8 v 0 a 2.76,2.76 0 0 0 -2.88,0.25 L 123.72,158.54 a 8.88,8.88 0 0 0 -4,7 v 183.32 a 2.81,2.81 0 0 0 1.2,2.61 v 0 l 3.22,1.84 v 0 A 2.84,2.84 0 0 0 127,353 L 311.49,246.51 a 8.88,8.88 0 0 0 4,-7 z"
             style="opacity:0.4;fill:#a1adc3;fill-opacity:1"
             class="animable"
             id="el2q7p2i7icg7" />
        </g>
        <g
           id="el3ojnlrbdbv8">
          <path
             d="m 315.5,56.19 v 183.36 a 8.87,8.87 0 0 1 -4,7 L 127,353 c -2,1.15 -3.61,0.45 -3.94,-1.52 a 3.65,3.65 0 0 0 0.7,-0.33 L 308.25,244.66 a 8.88,8.88 0 0 0 4,-7 V 54.34 a 4,4 0 0 0 -0.07,-0.8 c 1.89,-0.7 3.32,0.37 3.32,2.65 z"
             style="opacity:0.4;fill:#6e7f9c;fill-opacity:1"
             class="animable"
             id="elxtteijeycih" />
        </g>
        <path
           d="m 311.48,53.87 -43.61,25.65 -43.7,25.48 -43.77,25.4 -21.9,12.67 -21.93,12.62 -5.48,3.15 -2.74,1.58 c -0.43,0.26 -1,0.53 -1.32,0.78 a 6.67,6.67 0 0 0 -1.08,0.92 8.28,8.28 0 0 0 -2.3,5.19 v 6.31 25.3 l -0.14,50.6 c -0.08,33.73 -0.31,67.46 -0.52,101.19 -0.21,-33.73 -0.44,-67.46 -0.52,-101.19 l -0.15,-50.6 v -25.3 -6.33 a 9.64,9.64 0 0 1 2.67,-6.15 8.53,8.53 0 0 1 1.32,-1.13 c 0.52,-0.34 0.93,-0.55 1.4,-0.83 l 2.73,-1.58 5.47,-3.18 21.89,-12.68 21.93,-12.62 43.86,-25.22 43.94,-25.09 z"
           style="fill:#ffffff"
           id="elz8xfq9aq76"
           class="animable" />
      </g>
      <g
         id="freepik--Chart--inject-2"
         class="animable">
        <g
           id="elysvxss50sel">
          <path
             d="m 141.51,264.38 70.84,-40.9 c 1.42,-0.81 2.56,-0.15 2.56,1.48 v 50.32 a 5.64,5.64 0 0 1 -2.56,4.43 l -70.83,40.9 c -1.42,0.81 -2.56,0.15 -2.56,-1.48 v -50.32 a 5.66,5.66 0 0 1 2.55,-4.43 z"
             style="opacity:0.15;fill:#2d79fb;fill-opacity:1"
             class="animable"
             id="el4rmptv4pesd" />
        </g>
        <path
           d="m 143,274.36 a 0.27,0.27 0 0 1 -0.22,-0.13 0.25,0.25 0 0 1 0.1,-0.35 l 67.67,-39.07 a 0.26,0.26 0 0 1 0.35,0.09 0.25,0.25 0 0 1 -0.1,0.35 l -67.67,39.07 a 0.2,0.2 0 0 1 -0.13,0.04 z"
           style="fill:#fafafa"
           id="elviptu1pmhm"
           class="animable" />
        <path
           d="m 143,283.42 a 0.27,0.27 0 0 1 -0.22,-0.13 0.25,0.25 0 0 1 0.1,-0.35 l 67.67,-39.07 a 0.26,0.26 0 0 1 0.35,0.09 0.25,0.25 0 0 1 -0.1,0.35 l -67.67,39.07 a 0.28,0.28 0 0 1 -0.13,0.04 z"
           style="fill:#fafafa"
           id="eltfb0dendf9"
           class="animable" />
        <path
           d="m 143,292.48 a 0.27,0.27 0 0 1 -0.22,-0.13 0.25,0.25 0 0 1 0.1,-0.35 l 67.67,-39.07 a 0.26,0.26 0 0 1 0.35,0.09 0.25,0.25 0 0 1 -0.1,0.35 l -67.67,39.07 a 0.2,0.2 0 0 1 -0.13,0.04 z"
           style="fill:#fafafa"
           id="elm3wuxxvb0l"
           class="animable" />
        <path
           d="m 143,301.54 a 0.27,0.27 0 0 1 -0.22,-0.13 0.25,0.25 0 0 1 0.1,-0.35 L 210.55,262 a 0.26,0.26 0 0 1 0.35,0.09 0.25,0.25 0 0 1 -0.1,0.35 l -67.67,39.06 a 0.28,0.28 0 0 1 -0.13,0.04 z"
           style="fill:#fafafa"
           id="elr7mmntbeco"
           class="animable" />
        <path
           d="m 143,310.61 a 0.27,0.27 0 0 1 -0.23,-0.14 0.28,0.28 0 0 1 0.1,-0.37 L 210.54,271 a 0.2710166,0.2710166 0 1 1 0.27,0.47 l -67.67,39.07 a 0.23,0.23 0 0 1 -0.14,0.07 z"
           style="fill:#fafafa"
           id="elc0xrufcipu"
           class="animable" />
        <g
           id="ela09h66wx8de">
          <path
             d="m 210.67,256.84 -3.94,-3.8 c -1.44,-1.4 -3.65,-0.69 -5.5,1.76 l -0.12,0.16 c -2,2.61 -4.32,3.22 -5.74,1.49 l -1.68,-2 c -1.72,-2.09 -4.74,-0.71 -6.75,3.09 l -1.45,2.73 c -1.46,2.76 -3.52,4.34 -5.23,4 v 0 c -2,-0.36 -4.42,1.83 -5.84,5.31 l -2.26,5.55 c -1.27,3.12 -3.38,5.25 -5.28,5.34 l -2,0.09 a 5.14,5.14 0 0 0 -3.47,2.19 l -2.15,2.68 c -2.11,2.61 -4.56,2.94 -5.86,0.78 l -0.09,-0.16 c -1.9,-3.17 -6,-0.84 -7.89,4.5 l -2.4,6.66 v 13.07 l 67.67,-39.07 z"
             style="opacity:1;fill:#505cd6;fill-opacity:1"
             class="animable"
             id="el3lim2q60f2w" />
        </g>
        <path
           d="m 143,297.44 h -0.08 a 0.26,0.26 0 0 1 -0.16,-0.33 l 2.4,-6.66 c 1.23,-3.44 3.48,-5.88 5.58,-6.09 a 2.84,2.84 0 0 1 2.77,1.54 l 0.09,0.16 a 2.4,2.4 0 0 0 1.9,1.3 c 1.13,0.07 2.4,-0.69 3.54,-2.1 l 2.15,-2.68 a 5.37,5.37 0 0 1 3.66,-2.29 l 2,-0.09 c 1.79,-0.08 3.82,-2.16 5,-5.18 l 2.26,-5.55 c 1.47,-3.61 4,-5.86 6.12,-5.46 1.6,0.3 3.56,-1.23 5,-3.89 l 1.44,-2.73 c 1.3,-2.45 3.07,-4 4.74,-4.18 a 2.69,2.69 0 0 1 2.44,1.05 l 1.68,2 a 2.22,2.22 0 0 0 1.75,0.88 h 0.05 c 1.14,0 2.42,-0.89 3.54,-2.36 l 0.12,-0.17 a 5.67,5.67 0 0 1 3.77,-2.56 2.68,2.68 0 0 1 2.11,0.78 l 3.94,3.8 a 0.25465663,0.25465663 0 1 1 -0.35,0.37 l -3.95,-3.8 a 2.12,2.12 0 0 0 -1.71,-0.63 5.16,5.16 0 0 0 -3.4,2.35 l -0.12,0.16 c -1.23,1.63 -2.63,2.54 -3.94,2.57 a 2.76,2.76 0 0 1 -2.21,-1.06 l -1.68,-2 a 2.17,2.17 0 0 0 -2,-0.87 c -1.5,0.15 -3.11,1.61 -4.33,3.91 l -1.45,2.73 c -1.52,2.86 -3.67,4.5 -5.51,4.16 -1.84,-0.34 -4.2,1.82 -5.55,5.14 l -2.26,5.55 c -1.33,3.25 -3.49,5.41 -5.5,5.5 l -2,0.09 a 4.91,4.91 0 0 0 -3.28,2.11 l -2.15,2.67 c -1.27,1.57 -2.69,2.39 -4,2.29 a 2.9,2.9 0 0 1 -2.3,-1.54 l -0.09,-0.16 a 2.34,2.34 0 0 0 -2.28,-1.3 c -1.91,0.19 -4,2.5 -5.15,5.76 l -2.39,6.65 a 0.26,0.26 0 0 1 -0.21,0.16 z"
           style="fill:#455a64"
           id="eld8866a3l8hh"
           class="animable" />
        <path
           d="m 204.31,275.2 a 0.26,0.26 0 0 1 -0.25,-0.26 v -1.54 a 0.26,0.26 0 0 1 0.25,-0.26 0.26,0.26 0 0 1 0.26,0.26 v 1.54 a 0.26,0.26 0 0 1 -0.26,0.26 z m 0,-3.08 a 0.26,0.26 0 0 1 -0.25,-0.26 v -1.54 a 0.26,0.26 0 0 1 0.25,-0.26 0.26,0.26 0 0 1 0.26,0.26 v 1.54 a 0.26,0.26 0 0 1 -0.26,0.26 z m 0,-3.08 a 0.26,0.26 0 0 1 -0.25,-0.26 v -1.54 a 0.26,0.26 0 0 1 0.25,-0.26 0.26,0.26 0 0 1 0.26,0.26 v 1.54 a 0.26,0.26 0 0 1 -0.26,0.22 z m 0,-3.08 a 0.26,0.26 0 0 1 -0.25,-0.26 v -1.54 a 0.26,0.26 0 0 1 0.25,-0.26 0.26,0.26 0 0 1 0.26,0.26 v 1.54 a 0.26,0.26 0 0 1 -0.26,0.3 z m 0,-3.08 a 0.26,0.26 0 0 1 -0.25,-0.26 v -1.54 a 0.26,0.26 0 0 1 0.25,-0.26 0.26,0.26 0 0 1 0.26,0.26 v 1.54 a 0.26,0.26 0 0 1 -0.26,0.26 z m 0,-3.08 a 0.26,0.26 0 0 1 -0.25,-0.26 V 258 a 0.26,0.26 0 0 1 0.25,-0.26 0.26,0.26 0 0 1 0.26,0.26 v 1.54 a 0.26,0.26 0 0 1 -0.26,0.26 z m 0,-3.08 a 0.26,0.26 0 0 1 -0.25,-0.26 v -1.54 a 0.26,0.26 0 0 1 0.25,-0.26 0.26,0.26 0 0 1 0.26,0.26 v 1.54 a 0.26,0.26 0 0 1 -0.26,0.26 z m 0,-3.08 a 0.26,0.26 0 0 1 -0.25,-0.26 v -0.95 a 0.26,0.26 0 0 1 0.25,-0.26 0.26,0.26 0 0 1 0.26,0.26 v 0.95 a 0.26,0.26 0 0 1 -0.26,0.26 z"
           style="fill:#6e7f9c;fill-opacity:1"
           id="elyqmxvlzdedl"
           class="animable" />
        <path
           d="m 176.84,291.06 a 0.26,0.26 0 0 1 -0.26,-0.26 v -1.54 a 0.26,0.26 0 0 1 0.52,0 v 1.54 a 0.26,0.26 0 0 1 -0.26,0.26 z m 0,-3.08 a 0.26,0.26 0 0 1 -0.26,-0.26 v -1.54 a 0.26,0.26 0 0 1 0.52,0 v 1.54 a 0.26,0.26 0 0 1 -0.26,0.28 z m 0,-3.08 a 0.26,0.26 0 0 1 -0.26,-0.26 v -1.54 a 0.26,0.26 0 0 1 0.52,0 v 1.54 a 0.26,0.26 0 0 1 -0.26,0.26 z m 0,-3.08 a 0.26,0.26 0 0 1 -0.26,-0.26 V 280 a 0.26,0.26 0 0 1 0.52,0 v 1.54 a 0.26,0.26 0 0 1 -0.26,0.28 z m 0,-3.08 a 0.26,0.26 0 0 1 -0.26,-0.26 v -1.54 a 0.26,0.26 0 0 1 0.52,0 v 1.54 a 0.26,0.26 0 0 1 -0.26,0.26 z m 0,-3.08 a 0.26,0.26 0 0 1 -0.26,-0.26 v -1.54 a 0.26,0.26 0 0 1 0.52,0 v 1.54 a 0.26,0.26 0 0 1 -0.26,0.26 z m 0,-3.08 a 0.26,0.26 0 0 1 -0.26,-0.26 v -1.54 a 0.26,0.26 0 0 1 0.52,0 v 1.54 a 0.26,0.26 0 0 1 -0.26,0.26 z m 0,-3.08 a 0.26,0.26 0 0 1 -0.26,-0.26 v -1.54 a 0.26,0.26 0 0 1 0.52,0 v 1.54 a 0.26,0.26 0 0 1 -0.26,0.26 z m 0,-3.08 a 0.26,0.26 0 0 1 -0.26,-0.26 v -0.42 a 0.26,0.26 0 0 1 0.52,0 v 0.42 a 0.26,0.26 0 0 1 -0.26,0.26 z"
           style="fill:#6e7f9c;fill-opacity:1"
           id="elcqtfz6qzd9g"
           class="animable" />
        <path
           d="m 163.1,299 a 0.25,0.25 0 0 1 -0.25,-0.26 v -1.54 a 0.25,0.25 0 0 1 0.25,-0.25 0.26,0.26 0 0 1 0.26,0.25 v 1.54 A 0.26,0.26 0 0 1 163.1,299 Z m 0,-3.08 a 0.25,0.25 0 0 1 -0.25,-0.26 v -1.54 a 0.25,0.25 0 0 1 0.25,-0.25 0.26,0.26 0 0 1 0.26,0.25 v 1.54 a 0.26,0.26 0 0 1 -0.26,0.25 z m 0,-3.08 a 0.25,0.25 0 0 1 -0.25,-0.26 V 291 a 0.25,0.25 0 0 1 0.25,-0.25 0.26,0.26 0 0 1 0.26,0.25 v 1.54 a 0.26,0.26 0 0 1 -0.26,0.29 z m 0,-3.08 a 0.25,0.25 0 0 1 -0.25,-0.26 V 288 a 0.25,0.25 0 0 1 0.25,-0.25 0.26,0.26 0 0 1 0.26,0.25 v 1.54 a 0.26,0.26 0 0 1 -0.26,0.21 z m 0,-3.08 a 0.25,0.25 0 0 1 -0.25,-0.26 v -1.54 a 0.25,0.25 0 0 1 0.25,-0.25 0.26,0.26 0 0 1 0.26,0.25 v 1.54 a 0.26,0.26 0 0 1 -0.26,0.25 z m 0,-3.08 a 0.25,0.25 0 0 1 -0.25,-0.26 v -1.54 a 0.25,0.25 0 0 1 0.25,-0.25 0.26,0.26 0 0 1 0.26,0.25 v 1.54 a 0.26,0.26 0 0 1 -0.26,0.25 z"
           style="fill:#6e7f9c;fill-opacity:1"
           id="elpbr7d0cdzsb"
           class="animable" />
        <path
           d="m 149.37,306.92 a 0.25,0.25 0 0 1 -0.26,-0.25 v -1.54 a 0.26,0.26 0 1 1 0.51,0 v 1.54 a 0.25,0.25 0 0 1 -0.25,0.25 z m 0,-3.08 a 0.25,0.25 0 0 1 -0.26,-0.25 v -1.54 a 0.26,0.26 0 1 1 0.51,0 v 1.54 a 0.25,0.25 0 0 1 -0.25,0.25 z m 0,-3.08 a 0.25,0.25 0 0 1 -0.26,-0.25 V 299 a 0.26,0.26 0 1 1 0.51,0 v 1.54 a 0.25,0.25 0 0 1 -0.25,0.22 z m 0,-3.08 a 0.25,0.25 0 0 1 -0.26,-0.25 v -1.54 a 0.26,0.26 0 1 1 0.51,0 v 1.54 a 0.25,0.25 0 0 1 -0.25,0.25 z m 0,-3.08 a 0.25,0.25 0 0 1 -0.26,-0.25 v -1.54 a 0.26,0.26 0 1 1 0.51,0 v 1.54 a 0.25,0.25 0 0 1 -0.25,0.25 z m 0,-3.08 a 0.25,0.25 0 0 1 -0.26,-0.25 v -1.54 a 0.26,0.26 0 1 1 0.51,0 v 1.54 a 0.25,0.25 0 0 1 -0.25,0.25 z m 0,-3.08 a 0.25,0.25 0 0 1 -0.26,-0.25 v -1.54 a 0.26,0.26 0 1 1 0.51,0 v 1.54 a 0.25,0.25 0 0 1 -0.25,0.25 z m 0,-3.09 a 0.24,0.24 0 0 1 -0.26,-0.25 v 0 a 0.26,0.26 0 1 1 0.51,0 0.27,0.27 0 0 1 -0.25,0.25 z"
           style="fill:#6e7f9c;fill-opacity:1"
           id="elx0yaxgrqgn"
           class="animable" />
        <path
           d="m 190.58,283.13 a 0.26,0.26 0 0 1 -0.26,-0.26 v -1.54 a 0.26,0.26 0 0 1 0.51,0 v 1.54 a 0.26,0.26 0 0 1 -0.25,0.26 z m 0,-3.08 a 0.26,0.26 0 0 1 -0.26,-0.26 v -1.54 a 0.26,0.26 0 0 1 0.51,0 v 1.54 a 0.26,0.26 0 0 1 -0.25,0.26 z m 0,-3.08 a 0.26,0.26 0 0 1 -0.26,-0.26 v -1.54 a 0.26,0.26 0 0 1 0.51,0 v 1.54 a 0.26,0.26 0 0 1 -0.25,0.29 z m 0,-3.08 a 0.26,0.26 0 0 1 -0.26,-0.26 v -1.54 a 0.26,0.26 0 0 1 0.51,0 v 1.54 a 0.26,0.26 0 0 1 -0.25,0.26 z m 0,-3.08 a 0.26,0.26 0 0 1 -0.26,-0.26 V 269 a 0.26,0.26 0 0 1 0.51,0 v 1.54 a 0.26,0.26 0 0 1 -0.25,0.27 z m 0,-3.08 a 0.26,0.26 0 0 1 -0.26,-0.26 v -1.54 a 0.26,0.26 0 0 1 0.51,0 v 1.54 a 0.26,0.26 0 0 1 -0.25,0.26 z m 0,-3.08 a 0.26,0.26 0 0 1 -0.26,-0.26 v -1.54 a 0.26,0.26 0 0 1 0.51,0 v 1.54 a 0.26,0.26 0 0 1 -0.25,0.26 z m 0,-3.08 a 0.26,0.26 0 0 1 -0.26,-0.26 v -1.54 a 0.26,0.26 0 0 1 0.51,0 v 1.54 a 0.26,0.26 0 0 1 -0.25,0.26 z m 0,-3.08 a 0.26,0.26 0 0 1 -0.26,-0.26 v -1.54 a 0.26,0.26 0 0 1 0.51,0 v 1.54 a 0.26,0.26 0 0 1 -0.25,0.26 z m 0,-3.08 a 0.26,0.26 0 0 1 -0.26,-0.26 v -1.51 a 0.26,0.26 0 1 1 0.51,0 v 1.51 a 0.26,0.26 0 0 1 -0.25,0.26 z"
           style="fill:#6e7f9c;fill-opacity:1"
           id="el7alvcgk9lj"
           class="animable" />
        <path
           d="m 204.93,252.07 c 0,-0.53 -0.27,-0.8 -0.62,-0.6 a 1.66,1.66 0 0 0 -0.62,1.32 c 0,0.53 0.28,0.8 0.62,0.6 a 1.63,1.63 0 0 0 0.62,-1.32 z"
           style="fill:#e0e0e0"
           id="elqpg08zps0nb"
           class="animable" />
        <path
           d="m 191.2,253.28 c 0,-0.53 -0.28,-0.8 -0.62,-0.6 A 1.63,1.63 0 0 0 190,254 c 0,0.53 0.28,0.79 0.63,0.6 a 1.66,1.66 0 0 0 0.57,-1.32 z"
           style="fill:#e0e0e0"
           id="elk6x55tqi6l9"
           class="animable" />
        <path
           d="m 177.46,265.38 c 0,-0.53 -0.28,-0.8 -0.62,-0.6 a 1.66,1.66 0 0 0 -0.62,1.32 c 0,0.52 0.28,0.79 0.62,0.59 a 1.62,1.62 0 0 0 0.62,-1.31 z"
           style="fill:#e0e0e0"
           id="el98sfje4uasi"
           class="animable" />
        <path
           d="m 163.72,280.8 c 0,-0.53 -0.27,-0.8 -0.62,-0.6 a 1.64,1.64 0 0 0 -0.62,1.31 c 0,0.53 0.28,0.8 0.62,0.6 a 1.62,1.62 0 0 0 0.62,-1.31 z"
           style="fill:#e0e0e0"
           id="elmxiwz97euek"
           class="animable" />
        <path
           d="m 150,284.72 c 0,-0.53 -0.28,-0.8 -0.62,-0.6 a 1.63,1.63 0 0 0 -0.63,1.32 c 0,0.53 0.28,0.8 0.63,0.6 a 1.66,1.66 0 0 0 0.62,-1.32 z"
           style="fill:#e0e0e0"
           id="eld1lgdc7m5b"
           class="animable" />
      </g>
      <g
         id="freepik--check-list--inject-2"
         class="animable">
        <path
           d="m 287.84,106.92 a 0.54,0.54 0 0 1 -0.27,-0.07 0.52,0.52 0 0 1 -0.26,-0.45 v -9.24 a 0.5,0.5 0 0 1 0.27,-0.45 l 8,-4.62 a 0.51,0.51 0 0 1 0.53,0 0.53,0.53 0 0 1 0.26,0.46 v 9.23 a 0.54,0.54 0 0 1 -0.26,0.46 l -8,4.61 a 0.48,0.48 0 0 1 -0.27,0.07 z m 0.53,-9.45 v 8 l 6.94,-4 v -8 z"
           style="fill:#6e7f9c;fill-opacity:1"
           id="elw4742gqpe2"
           class="animable" />
        <path
           id="freepik--Check--inject-2"
           d="m 286.92,95.77 c 0.38,-0.37 0.71,-0.33 0.92,-0.08 l 3.67,4.49 1.49,-3.05 c 0.24,-0.53 0.53,-0.66 0.88,-0.52 0.35,0.14 0.34,0.54 0.21,0.83 l -1.89,4 c -0.18,0.39 -0.26,0.52 -0.52,0.57 -0.26,0.05 -0.61,-0.25 -0.74,-0.4 l -4,-4.93 a 0.62,0.62 0 0 1 -0.02,-0.91 z"
           style="fill:#ec416c;fill-opacity:1"
           class="animable" />
        <path
           d="m 281.05,104.31 -38,21.94 a 2.74,2.74 0 0 0 -1.28,2.13 c 0,0.77 0.57,1.06 1.28,0.65 l 38,-21.94 a 2.74,2.74 0 0 0 1.27,-2.13 c 0,-0.76 -0.57,-1.06 -1.27,-0.65 z"
           style="fill:#9cb0ba;fill-opacity:1"
           id="elkruosgxv8lh"
           class="animable" />
        <path
           d="m 287.84,120.77 a 0.48,0.48 0 0 1 -0.26,-0.07 0.52,0.52 0 0 1 -0.27,-0.46 V 111 a 0.53,0.53 0 0 1 0.27,-0.46 l 8,-4.61 a 0.51,0.51 0 0 1 0.53,0 0.52,0.52 0 0 1 0.26,0.45 v 9.24 a 0.51,0.51 0 0 1 -0.26,0.45 l -8,4.62 a 0.48,0.48 0 0 1 -0.27,0.08 z m 0.53,-9.45 v 8 l 6.94,-4 v -8 z"
           style="fill:#6e7f9c;fill-opacity:1"
           id="elffa5hpu2vxq"
           class="animable" />
        <path
           id="freepik--check--inject-2"
           d="m 286.92,109.67 c 0.38,-0.36 0.71,-0.33 0.92,-0.08 l 3.67,4.49 1.46,-3 c 0.24,-0.53 0.53,-0.67 0.88,-0.52 0.35,0.15 0.34,0.53 0.21,0.83 l -1.89,4 c -0.18,0.39 -0.26,0.52 -0.52,0.58 -0.26,0.06 -0.61,-0.26 -0.74,-0.41 l -4,-4.93 a 0.62,0.62 0 0 1 0.01,-0.96 z"
           style="fill:#ec416c;fill-opacity:1"
           class="animable" />
        <path
           d="m 281.05,118.12 -38,21.93 a 2.76,2.76 0 0 0 -1.28,2.14 c 0,0.76 0.57,1.06 1.28,0.65 l 38,-21.94 a 2.76,2.76 0 0 0 1.27,-2.13 c 0,-0.77 -0.57,-1.06 -1.27,-0.65 z"
           style="fill:#9cafb8;fill-opacity:1"
           id="el9i3lel1l5u"
           class="animable" />
      </g>
      <g
         id="freepik--chart--inject-2"
         class="animable">
        <g
           id="eloy0nkzu1log">
          <g
             style="opacity:0.15"
             class="animable"
             id="elyzndeykgns">
            <path
               d="m 216.17,125.19 -51.9,30 a 8.11,8.11 0 0 0 -3.67,6.37 v 47.29 c 0,2.34 1.64,3.29 3.67,2.12 l 51.9,-30 a 8.13,8.13 0 0 0 3.67,-6.37 v -47.29 c 0,-2.31 -1.64,-3.31 -3.67,-2.12 z"
               id="elp5zcckn927"
               class="animable"
               style="fill:#2d79fb;fill-opacity:1" />
          </g>
        </g>
        <path
           d="m 196.84,161.66 c 0,0 0.09,0 0.13,0 a 0.18,0.18 0 0 1 0.06,0.15 v 0.65 a 0.42,0.42 0 0 1 -0.06,0.21 0.28,0.28 0 0 1 -0.13,0.15 l -2.19,1.26 1.62,4 a 0.22,0.22 0 0 1 0,0.1 0.42,0.42 0 0 1 -0.06,0.21 0.39,0.39 0 0 1 -0.13,0.15 l -0.58,0.33 c -0.06,0 -0.1,0 -0.13,0 a 0.41,0.41 0 0 1 -0.07,-0.11 l -1.62,-4 c 0,-0.09 -0.06,-0.16 -0.08,-0.21 a 0.52,0.52 0 0 1 0,-0.18 v -0.61 a 0.39,0.39 0 0 1 0.06,-0.2 0.28,0.28 0 0 1 0.13,-0.15 z"
           style="fill:#455a64"
           id="elwgl1j5u40k8"
           class="animable" />
        <path
           d="m 189.4,167.37 a 3.75,3.75 0 0 1 0.32,-1 3.38,3.38 0 0 1 0.57,-0.86 3.27,3.27 0 0 1 0.86,-0.68 1.81,1.81 0 0 1 0.86,-0.3 0.8,0.8 0 0 1 0.57,0.21 1.44,1.44 0 0 1 0.32,0.63 6,6 0 0 1 0.12,0.94 c 0,0.23 0,0.49 0,0.79 0,0.3 0,0.57 0,0.81 a 9.21,9.21 0 0 1 -0.12,1.07 4.68,4.68 0 0 1 -0.32,1 3.78,3.78 0 0 1 -0.57,0.86 3.52,3.52 0 0 1 -0.86,0.69 2.06,2.06 0 0 1 -0.86,0.3 0.69,0.69 0 0 1 -0.57,-0.2 1.15,1.15 0 0 1 -0.32,-0.61 4.2,4.2 0 0 1 -0.12,-0.93 c 0,-0.11 0,-0.24 0,-0.38 v -0.87 c 0,-0.15 0,-0.28 0,-0.4 a 6.26,6.26 0 0 1 0.12,-1.07 z m 2.69,0.27 c 0,-0.28 0,-0.54 0,-0.77 a 1.57,1.57 0 0 0 -0.24,-0.9 c -0.14,-0.16 -0.37,-0.15 -0.69,0 a 1.56,1.56 0 0 0 -0.7,0.76 3.91,3.91 0 0 0 -0.24,1.18 c 0,0.24 0,0.5 0,0.78 0,0.28 0,0.54 0,0.78 a 1.7,1.7 0 0 0 0.24,0.89 c 0.14,0.17 0.37,0.15 0.7,0 a 1.65,1.65 0 0 0 0.69,-0.77 3.28,3.28 0 0 0 0.24,-1.17 c 0,-0.23 0,-0.49 0,-0.78 z"
           style="fill:#455a64"
           id="elaeifuwlyl5e"
           class="animable" />
        <path
           d="m 188,166.82 a 0.47,0.47 0 0 1 0.32,0.08 0.56,0.56 0 0 1 0.2,0.25 1.51,1.51 0 0 1 0.08,0.38 c 0,0.16 0,0.33 0,0.51 0,0.18 0,0.36 0,0.52 a 2.89,2.89 0 0 1 -0.08,0.47 2.22,2.22 0 0 1 -0.2,0.48 2,2 0 0 1 -0.76,0.8 1.07,1.07 0 0 1 -0.45,0.16 0.45,0.45 0 0 1 -0.31,-0.08 0.54,0.54 0 0 1 -0.2,-0.26 1.34,1.34 0 0 1 -0.08,-0.37 c 0,-0.16 0,-0.33 0,-0.51 0,-0.18 0,-0.35 0,-0.52 a 2.89,2.89 0 0 1 0.08,-0.47 2.22,2.22 0 0 1 0.2,-0.48 2.26,2.26 0 0 1 0.31,-0.45 2,2 0 0 1 0.45,-0.36 0.92,0.92 0 0 1 0.44,-0.15 z m 0.21,6 v 0 c 0,0 0,0 0,0 a 0.34,0.34 0 0 1 0,0.17 0.34,0.34 0 0 1 -0.12,0.12 l -0.42,0.24 a 0.21,0.21 0 0 1 -0.15,0 0.3,0.3 0 0 1 -0.1,-0.07 l -3.42,-3.9 c 0,0 0,0 0,0 v -0.05 a 0.31,0.31 0 0 1 0.16,-0.28 l 0.42,-0.24 a 0.24,0.24 0 0 1 0.15,0 0.3,0.3 0 0 1 0.1,0.07 z m -0.93,-3.31 c 0,0.06 0.15,0.05 0.28,0 a 0.65,0.65 0 0 0 0.28,-0.29 1.12,1.12 0 0 0 0.09,-0.36 c 0,0 0,-0.11 0,-0.19 v -0.5 c 0,-0.08 0,-0.13 0,-0.17 a 0.44,0.44 0 0 0 -0.09,-0.26 c -0.05,-0.06 -0.15,-0.05 -0.28,0 a 0.65,0.65 0 0 0 -0.28,0.29 1.12,1.12 0 0 0 -0.09,0.37 c 0,0 0,0.1 0,0.18 v 0.5 c 0,0.08 0,0.14 0,0.17 a 0.44,0.44 0 0 0 0.08,0.29 z m -2.28,2.3 a 0.48,0.48 0 0 1 0.32,0.08 0.51,0.51 0 0 1 0.19,0.26 1,1 0 0 1 0.08,0.38 c 0,0.15 0,0.32 0,0.5 0,0.18 0,0.36 0,0.53 a 1.71,1.71 0 0 1 -0.08,0.47 1.92,1.92 0 0 1 -0.19,0.48 2.24,2.24 0 0 1 -0.32,0.44 1.51,1.51 0 0 1 -0.44,0.35 1.1,1.1 0 0 1 -0.45,0.17 0.51,0.51 0 0 1 -0.31,-0.08 0.59,0.59 0 0 1 -0.2,-0.26 1.42,1.42 0 0 1 -0.08,-0.38 c 0,-0.15 0,-0.32 0,-0.5 0,-0.18 0,-0.36 0,-0.52 a 3,3 0 0 1 0.08,-0.48 2.45,2.45 0 0 1 0.2,-0.48 2.26,2.26 0 0 1 0.31,-0.45 2,2 0 0 1 0.45,-0.36 1,1 0 0 1 0.44,-0.15 z m -0.72,2.73 c 0.05,0.05 0.14,0.05 0.28,0 a 0.7,0.7 0 0 0 0.28,-0.29 1.18,1.18 0 0 0 0.09,-0.37 1.36,1.36 0 0 1 0,-0.18 v -0.5 a 1.31,1.31 0 0 1 0,-0.17 0.48,0.48 0 0 0 -0.09,-0.27 c 0,-0.06 -0.15,0 -0.28,0 a 0.65,0.65 0 0 0 -0.28,0.29 1.18,1.18 0 0 0 -0.09,0.37 0.87,0.87 0 0 0 0,0.18 v 0.5 a 0.72,0.72 0 0 0 0,0.17 0.48,0.48 0 0 0 0.07,0.27 z"
           style="fill:#455a64"
           id="elpoadh7zi8dh"
           class="animable" />
        <path
           d="m 196.7,152.42 2.3,-5.54 c 2.52,1 4.45,3.35 5.43,6.82 l -3.71,3.75 c -0.72,-2.56 -2.15,-4.3 -4.02,-5.03 z"
           style="fill:#ec416c;fill-opacity:1"
           id="eli07d75ff4r"
           class="animable" />
        <path
           d="m 190.22,153.34 v -5.2 c 3.28,-1.9 6.31,-2.23 8.78,-1.26 l -2.3,5.54 c -1.82,-0.72 -4.05,-0.48 -6.48,0.92 z"
           style="fill:#ec416c;fill-opacity:1"
           id="elusv8nd9hwgb"
           class="animable" />
        <path
           d="m 201.26,161.68 a 15.51,15.51 0 0 0 -0.54,-4.23 l 3.71,-3.75 a 21.09,21.09 0 0 1 0.73,5.73 31.81,31.81 0 0 1 -0.73,6.58 l -3.71,0.53 a 23.27,23.27 0 0 0 0.54,-4.86 z"
           style="fill:#ec416c;fill-opacity:1"
           id="el3aosy896q51"
           class="animable" />
        <g
           id="elnvskv4gvdki">
          <g
             style="opacity:0.3"
             class="animable"
             id="eldgps9tgbv8o">
            <path
               d="m 176,170.11 a 40,40 0 0 1 5.43,-13.1 27.16,27.16 0 0 1 8.78,-8.87 v 5.2 a 20,20 0 0 0 -6.48,6.56 29.52,29.52 0 0 0 -4,9.67 23.27,23.27 0 0 0 -0.54,4.86 15.46,15.46 0 0 0 0.54,4.23 7.16,7.16 0 0 0 4,5 c 1.82,0.71 4,0.48 6.48,-0.92 a 20.05,20.05 0 0 0 6.48,-6.57 29.34,29.34 0 0 0 4,-9.67 l 3.71,-0.53 a 39.82,39.82 0 0 1 -5.4,13.13 27.29,27.29 0 0 1 -8.78,8.88 c -3.28,1.89 -6.32,2.23 -8.78,1.26 -2.46,-0.97 -4.45,-3.35 -5.43,-6.82 a 21.22,21.22 0 0 1 -0.73,-5.74 31.71,31.71 0 0 1 0.72,-6.57 z"
               id="el0oo17b3qgqhj"
               class="animable"
               style="fill:#2d79fb;fill-opacity:1" />
          </g>
        </g>
      </g>
      <g
         id="g1"
         class="animable">
        <g
           id="elk45c4uh3v7r">
          <path
             d="m 145.64,166 -25.94,15 v 8 c 3.28,-1.89 6.31,-2.23 8.78,-1.26 2.47,0.97 4.44,3.35 5.42,6.82 a 20.83,20.83 0 0 1 0.73,5.74 31,31 0 0 1 -0.73,6.57 39.94,39.94 0 0 1 -5.42,13.1 27.35,27.35 0 0 1 -8.78,8.87 v 8 l 25.94,-15 a 8.12,8.12 0 0 0 3.68,-6.37 v -47.4 c 0,-2.34 -1.65,-3.29 -3.68,-2.07 z"
             style="opacity:0.15;fill:#2d79fb;fill-opacity:1"
             class="animable"
             id="elxxvnitrbg2e" />
        </g>
        <g
           id="elv56eq469dr">
          <path
             d="m 120.32,211.3 a 1.54,1.54 0 0 0 0.69,-0.76 3.28,3.28 0 0 0 0.24,-1.17 c 0,-0.25 0,-0.5 0,-0.79 0,-0.29 0,-0.54 0,-0.77 a 1.57,1.57 0 0 0 -0.24,-0.9 c -0.13,-0.16 -0.37,-0.15 -0.69,0 a 1.68,1.68 0 0 0 -0.62,0.65 v 3.81 c 0.14,0.12 0.35,0.09 0.62,-0.07 z"
             style="opacity:0.15;fill:#2d79fb;fill-opacity:1"
             class="animable"
             id="elzf5je7y0cwn" />
        </g>
        <g
           id="elt6yeqgyrloi">
          <path
             d="m 120.32,205.79 a 1.81,1.81 0 0 1 0.86,-0.3 0.8,0.8 0 0 1 0.57,0.21 1.34,1.34 0 0 1 0.32,0.63 4.3,4.3 0 0 1 0.12,0.94 c 0,0.22 0,0.49 0,0.79 0,0.3 0,0.57 0,0.81 a 6.26,6.26 0 0 1 -0.12,1.07 4.17,4.17 0 0 1 -0.32,1 3.78,3.78 0 0 1 -0.57,0.86 3.27,3.27 0 0 1 -0.86,0.68 2.23,2.23 0 0 1 -0.62,0.26 v 10.82 a 20.21,20.21 0 0 0 6.48,-6.56 29.71,29.71 0 0 0 4,-9.67 23.34,23.34 0 0 0 0.54,-4.86 15.59,15.59 0 0 0 -0.54,-4.24 7.17,7.17 0 0 0 -4,-5 c -1.82,-0.71 -4.05,-0.48 -6.48,0.92 v 12.14 a 4.1,4.1 0 0 1 0.62,-0.5 z m 2.68,2.37 a 2.76,2.76 0 0 1 0.28,-0.72 3.41,3.41 0 0 1 0.43,-0.64 4.11,4.11 0 0 1 0.57,-0.53 l -1,-0.84 -0.1,-0.09 a 0.28,0.28 0 0 1 0,-0.16 v -0.66 a 0.54,0.54 0 0 1 0,-0.21 0.41,0.41 0 0 1 0.14,-0.15 l 3,-1.76 a 0.12,0.12 0 0 1 0.14,0 0.2,0.2 0 0 1 0,0.14 v 0.66 a 0.54,0.54 0 0 1 0,0.21 0.34,0.34 0 0 1 -0.14,0.15 l -1.92,1.11 1,0.8 0.1,0.09 a 0.29,0.29 0 0 1 0,0.17 v 0.65 a 0.42,0.42 0 0 1 -0.06,0.21 0.32,0.32 0 0 1 -0.13,0.15 l -0.57,0.34 a 2.19,2.19 0 0 0 -0.69,0.57 1.2,1.2 0 0 0 -0.26,0.75 c 0,0.28 0.09,0.45 0.26,0.49 a 0.9,0.9 0 0 0 0.69,-0.16 3.82,3.82 0 0 0 0.42,-0.3 1.59,1.59 0 0 0 0.29,-0.29 1.1,1.1 0 0 0 0.18,-0.28 1,1 0 0 0 0.11,-0.27 l 0.1,-0.23 a 0.36,0.36 0 0 1 0.11,-0.13 l 0.55,-0.31 a 0.14,0.14 0 0 1 0.14,0 c 0,0 0.06,0.07 0,0.15 a 2.39,2.39 0 0 1 -0.15,0.69 3.47,3.47 0 0 1 -0.36,0.76 4.43,4.43 0 0 1 -0.6,0.74 4.64,4.64 0 0 1 -0.84,0.64 2.45,2.45 0 0 1 -0.75,0.29 1.07,1.07 0 0 1 -0.6,-0.05 0.88,0.88 0 0 1 -0.4,-0.41 1.91,1.91 0 0 1 -0.14,-0.78 3,3 0 0 1 0.2,-0.79 z"
             style="opacity:0.15;fill:#2d79fb;fill-opacity:1"
             class="animable"
             id="el9g8lslppo34" />
        </g>
        <path
           d="m 123.44,210.13 a 1.07,1.07 0 0 0 0.6,0.05 2.45,2.45 0 0 0 0.75,-0.29 4.64,4.64 0 0 0 0.84,-0.64 4.43,4.43 0 0 0 0.6,-0.74 3.47,3.47 0 0 0 0.36,-0.76 2.39,2.39 0 0 0 0.15,-0.69 c 0,-0.08 0,-0.13 0,-0.15 a 0.14,0.14 0 0 0 -0.14,0 l -0.55,0.31 a 0.36,0.36 0 0 0 -0.11,0.13 l -0.1,0.23 a 1,1 0 0 1 -0.11,0.27 1.1,1.1 0 0 1 -0.18,0.28 1.59,1.59 0 0 1 -0.29,0.29 3.82,3.82 0 0 1 -0.42,0.3 0.9,0.9 0 0 1 -0.69,0.16 c -0.17,0 -0.26,-0.21 -0.26,-0.49 a 1.2,1.2 0 0 1 0.26,-0.75 2.19,2.19 0 0 1 0.69,-0.57 l 0.57,-0.34 a 0.32,0.32 0 0 0 0.13,-0.15 0.42,0.42 0 0 0 0.06,-0.21 v -0.65 a 0.29,0.29 0 0 0 0,-0.17 l -0.1,-0.09 -1,-0.8 1.92,-1.11 a 0.34,0.34 0 0 0 0.14,-0.15 0.54,0.54 0 0 0 0,-0.21 v -0.66 a 0.2,0.2 0 0 0 0,-0.14 0.12,0.12 0 0 0 -0.14,0 l -3,1.76 a 0.41,0.41 0 0 0 -0.14,0.15 0.54,0.54 0 0 0 0,0.21 v 0.66 a 0.28,0.28 0 0 0 0,0.16 l 0.1,0.09 1,0.84 a 4.11,4.11 0 0 0 -0.57,0.53 3.41,3.41 0 0 0 -0.43,0.64 2.76,2.76 0 0 0 -0.28,0.72 3,3 0 0 0 -0.1,0.78 1.91,1.91 0 0 0 0.14,0.78 0.88,0.88 0 0 0 0.3,0.42 z"
           style="fill:#505cd6;fill-opacity:1"
           id="elfz5n7848ndn"
           class="animable" />
        <path
           d="m 121.18,211.78 a 3.78,3.78 0 0 0 0.57,-0.86 4.17,4.17 0 0 0 0.32,-1 6.26,6.26 0 0 0 0.12,-1.07 c 0,-0.24 0,-0.51 0,-0.81 0,-0.3 0,-0.57 0,-0.79 a 4.3,4.3 0 0 0 -0.12,-0.94 1.34,1.34 0 0 0 -0.32,-0.63 0.8,0.8 0 0 0 -0.57,-0.21 1.81,1.81 0 0 0 -0.86,0.3 4.1,4.1 0 0 0 -0.62,0.45 v 1.35 a 1.68,1.68 0 0 1 0.62,-0.65 c 0.32,-0.18 0.56,-0.19 0.69,0 a 1.57,1.57 0 0 1 0.24,0.9 c 0,0.23 0,0.49 0,0.77 0,0.28 0,0.54 0,0.79 a 3.28,3.28 0 0 1 -0.24,1.17 1.54,1.54 0 0 1 -0.69,0.76 c -0.27,0.16 -0.48,0.19 -0.62,0.1 v 1.32 a 2.23,2.23 0 0 0 0.62,-0.26 3.27,3.27 0 0 0 0.86,-0.69 z"
           style="fill:#505cd6;fill-opacity:1"
           id="el9rqzyjdt1rh"
           class="animable" />
        <path
           d="m 130.19,198.21 3.71,-3.75 c -1,-3.47 -2.9,-5.83 -5.42,-6.82 l -2.3,5.54 a 7.17,7.17 0 0 1 4.01,5.03 z"
           style="fill:#505cd6;fill-opacity:1"
           id="elchxcr6cp8uq"
           class="animable" />
        <path
           d="m 126.18,193.18 2.3,-5.54 c -2.47,-1 -5.5,-0.63 -8.78,1.26 v 5.2 c 2.43,-1.4 4.66,-1.63 6.48,-0.92 z"
           style="fill:#505cd6;fill-opacity:1"
           id="elkv3i7hs6xmm"
           class="animable" />
        <path
           d="m 130.73,202.45 a 23.34,23.34 0 0 1 -0.54,4.86 l 3.71,-0.54 a 31,31 0 0 0 0.73,-6.57 20.83,20.83 0 0 0 -0.73,-5.74 l -3.71,3.75 a 15.59,15.59 0 0 1 0.54,4.24 z"
           style="fill:#505cd6;fill-opacity:1"
           id="elx9b35wolnwh"
           class="animable" />
        <path
           d="m 119.7,223.54 v 5.2 a 27.35,27.35 0 0 0 8.78,-8.87 l -2.3,-2.89 a 20.21,20.21 0 0 1 -6.48,6.56 z"
           style="fill:#505cd6;fill-opacity:1"
           id="el21ppucc40qqh"
           class="animable" />
        <path
           d="m 126.18,217 2.3,2.89 a 39.94,39.94 0 0 0 5.42,-13.1 l -3.71,0.54 a 29.71,29.71 0 0 1 -4.01,9.67 z"
           style="fill:#505cd6;fill-opacity:1"
           id="elfzjd71dun2s"
           class="animable" />
        <path
           d="m 119.69,228.74 c -3.28,1.9 -6.31,2.23 -8.78,1.26 -2.47,-0.97 -4.44,-3.35 -5.42,-6.82 a 20.76,20.76 0 0 1 -0.73,-5.73 31.14,31.14 0 0 1 0.73,-6.58 39.8,39.8 0 0 1 5.42,-13.09 27.29,27.29 0 0 1 8.78,-8.88 v 0 -8 l -25.95,15 a 8.14,8.14 0 0 0 -3.68,6.37 v 47.29 c 0,2.35 1.65,3.3 3.68,2.12 l 26,-15 v -8 z"
           style="fill:#fafafa"
           id="elxagyjypxny"
           class="animable" />
        <path
           d="m 92.1,252.7 a 2.37,2.37 0 0 1 -1.2,-0.32 3,3 0 0 1 -1.33,-2.81 v -47.29 a 8.57,8.57 0 0 1 3.93,-6.8 l 26.2,-15.15 v 1.17 L 94,196.34 a 7.6,7.6 0 0 0 -3.43,5.94 v 47.29 a 1.76,1.76 0 0 0 2.93,1.69 l 26.19,-15.15 v 1.18 L 94,252.13 a 3.83,3.83 0 0 1 -1.9,0.57 z"
           style="fill:#e0e0e0"
           id="elu7z1zc07f7h"
           class="animable" />
        <path
           d="m 119.39,208.88 c 0,0.25 0,0.51 0,0.79 0,0.28 0,0.54 0,0.77 a 1.57,1.57 0 0 0 0.24,0.9 c 0,0 0.05,0 0.07,0.06 v -3.81 l -0.07,0.12 a 3.32,3.32 0 0 0 -0.24,1.17 z"
           style="fill:#fafafa"
           id="elvzgk3adyhsi"
           class="animable" />
        <path
           d="m 114.08,213.93 a 0.47,0.47 0 0 0 -0.09,-0.26 c 0,-0.06 -0.15,0 -0.28,0 a 0.65,0.65 0 0 0 -0.28,0.29 1.18,1.18 0 0 0 -0.09,0.37 c 0,0 0,0.1 0,0.18 v 0.5 c 0,0.08 0,0.14 0,0.17 a 0.48,0.48 0 0 0 0.09,0.27 c 0,0.05 0.14,0.05 0.28,0 a 0.67,0.67 0 0 0 0.28,-0.3 1.06,1.06 0 0 0 0.09,-0.36 c 0,0 0,-0.1 0,-0.19 v -0.5 c 0.01,-0.1 0,-0.1 0,-0.17 z"
           style="fill:#fafafa"
           id="elthhadgt3anc"
           class="animable" />
        <path
           d="m 113.21,200.67 a 29.57,29.57 0 0 0 -4,9.66 23.44,23.44 0 0 0 -0.54,4.87 15.51,15.51 0 0 0 0.54,4.23 c 0.73,2.56 2.15,4.3 4,5 1.85,0.7 4.06,0.48 6.48,-0.92 v 0 -10.79 a 1.14,1.14 0 0 1 -0.24,0.05 0.74,0.74 0 0 1 -0.57,-0.2 1.22,1.22 0 0 1 -0.32,-0.61 4.2,4.2 0 0 1 -0.12,-0.93 c 0,-0.11 0,-0.24 0,-0.38 v -0.87 c 0,-0.15 0,-0.28 0,-0.4 a 6.26,6.26 0 0 1 0.12,-1.07 4.17,4.17 0 0 1 0.32,-1 3.48,3.48 0 0 1 0.57,-0.86 c 0.07,-0.08 0.16,-0.15 0.24,-0.23 v -12.12 0 a 20.15,20.15 0 0 0 -6.48,6.57 z m 1.54,13.82 a 2.72,2.72 0 0 1 -0.08,0.47 2.3,2.3 0 0 1 -0.2,0.49 2.19,2.19 0 0 1 -0.31,0.44 1.7,1.7 0 0 1 -0.45,0.35 0.94,0.94 0 0 1 -0.45,0.16 0.45,0.45 0 0 1 -0.31,-0.07 0.59,0.59 0 0 1 -0.2,-0.26 1.51,1.51 0 0 1 -0.08,-0.38 c 0,-0.15 0,-0.32 0,-0.51 0,-0.19 0,-0.35 0,-0.52 a 2.89,2.89 0 0 1 0.08,-0.47 2.45,2.45 0 0 1 0.2,-0.48 2.26,2.26 0 0 1 0.31,-0.45 2,2 0 0 1 0.45,-0.36 1,1 0 0 1 0.45,-0.15 0.45,0.45 0 0 1 0.31,0.08 0.59,0.59 0 0 1 0.2,0.26 1.42,1.42 0 0 1 0.08,0.38 c 0,0.15 0,0.32 0,0.5 0,0.18 0.01,0.36 0,0.52 z m 2.6,-0.45 a 0.34,0.34 0 0 1 -0.12,0.12 l -0.42,0.24 a 0.24,0.24 0 0 1 -0.15,0 l -0.1,-0.08 -3.43,-4 v 0 a 0.09,0.09 0 0 1 0,-0.05 0.32,0.32 0 0 1 0,-0.16 0.34,0.34 0 0 1 0.12,-0.12 l 0.42,-0.24 c 0.07,0 0.12,-0.05 0.15,0 a 0.23,0.23 0 0 1 0.1,0.07 l 3.44,4 c 0,0 0,0 0,0 a 0.37,0.37 0 0 1 -0.01,0.18 z m -0.63,-6.13 a 1.07,1.07 0 0 1 0.45,-0.16 0.52,0.52 0 0 1 0.31,0.09 0.56,0.56 0 0 1 0.2,0.25 1.51,1.51 0 0 1 0.08,0.38 c 0,0.16 0,0.33 0,0.51 0,0.18 0,0.35 0,0.52 a 2.89,2.89 0 0 1 -0.08,0.47 2.22,2.22 0 0 1 -0.2,0.48 1.94,1.94 0 0 1 -0.31,0.44 2,2 0 0 1 -0.45,0.36 1.08,1.08 0 0 1 -0.44,0.16 0.48,0.48 0 0 1 -0.32,-0.08 0.47,0.47 0 0 1 -0.19,-0.26 1.11,1.11 0 0 1 -0.08,-0.37 c 0,-0.16 0,-0.33 0,-0.51 0,-0.18 0,-0.36 0,-0.52 a 2,2 0 0 1 0.08,-0.47 1.66,1.66 0 0 1 0.19,-0.48 2.31,2.31 0 0 1 0.32,-0.45 1.73,1.73 0 0 1 0.44,-0.36 z"
           style="fill:#fafafa"
           id="el7ril6jceghl"
           class="animable" />
        <path
           d="m 116.45,210.48 c 0,0.06 0.14,0.05 0.27,0 a 0.6,0.6 0 0 0 0.28,-0.29 1.12,1.12 0 0 0 0.09,-0.37 0.87,0.87 0 0 0 0,-0.18 c 0,-0.08 0,-0.17 0,-0.25 0,-0.08 0,-0.17 0,-0.25 a 0.72,0.72 0 0 0 0,-0.17 0.42,0.42 0 0 0 -0.09,-0.26 c 0,-0.06 -0.14,-0.05 -0.28,0 a 0.54,0.54 0 0 0 -0.27,0.29 0.93,0.93 0 0 0 -0.1,0.37 v 0.85 a 0.39,0.39 0 0 0 0.1,0.26 z"
           style="fill:#fafafa"
           id="elp1l4xwarxda"
           class="animable" />
        <path
           d="m 119.63,211.34 a 1.57,1.57 0 0 1 -0.24,-0.9 c 0,-0.23 0,-0.48 0,-0.77 0,-0.29 0,-0.54 0,-0.79 a 3.32,3.32 0 0 1 0.24,-1.17 l 0.07,-0.12 v -1.35 c -0.08,0.08 -0.17,0.15 -0.24,0.23 a 3.48,3.48 0 0 0 -0.57,0.86 4.17,4.17 0 0 0 -0.32,1 6.26,6.26 0 0 0 -0.12,1.07 c 0,0.12 0,0.25 0,0.4 v 0.87 c 0,0.14 0,0.27 0,0.38 a 4.2,4.2 0 0 0 0.12,0.93 1.22,1.22 0 0 0 0.32,0.61 0.74,0.74 0 0 0 0.57,0.2 1.14,1.14 0 0 0 0.24,-0.05 v -1.34 c 0,0 -0.05,-0.03 -0.07,-0.06 z"
           style="fill:#858dd6;fill-opacity:1"
           id="el6sztnoo0487"
           class="animable" />
        <path
           d="m 115.77,209.2 a 2,2 0 0 0 -0.08,0.47 c 0,0.16 0,0.34 0,0.52 0,0.18 0,0.35 0,0.51 a 1.11,1.11 0 0 0 0.08,0.37 0.47,0.47 0 0 0 0.19,0.26 0.48,0.48 0 0 0 0.32,0.08 1.08,1.08 0 0 0 0.44,-0.16 2,2 0 0 0 0.45,-0.36 1.94,1.94 0 0 0 0.31,-0.44 2.22,2.22 0 0 0 0.2,-0.48 2.89,2.89 0 0 0 0.08,-0.47 c 0,-0.17 0,-0.34 0,-0.52 0,-0.18 0,-0.35 0,-0.51 a 1.51,1.51 0 0 0 -0.08,-0.38 0.56,0.56 0 0 0 -0.2,-0.25 0.52,0.52 0 0 0 -0.31,-0.09 1.07,1.07 0 0 0 -0.45,0.16 1.73,1.73 0 0 0 -0.44,0.36 2.31,2.31 0 0 0 -0.32,0.45 1.66,1.66 0 0 0 -0.19,0.48 z m 0.58,0.6 v -0.43 a 0.93,0.93 0 0 1 0.1,-0.37 0.54,0.54 0 0 1 0.27,-0.29 c 0.14,-0.08 0.23,-0.09 0.28,0 a 0.42,0.42 0 0 1 0.09,0.26 0.72,0.72 0 0 1 0,0.17 c 0,0.08 0,0.16 0,0.25 0,0.09 0,0.17 0,0.25 a 0.87,0.87 0 0 1 0,0.18 1.12,1.12 0 0 1 -0.09,0.37 0.6,0.6 0 0 1 -0.28,0.29 c -0.13,0.08 -0.23,0.09 -0.27,0 a 0.39,0.39 0 0 1 -0.1,-0.26 z"
           style="fill:#949ad6;fill-opacity:1"
           id="elohtr0wrlf6"
           class="animable" />
        <path
           d="m 114.67,213.09 a 0.59,0.59 0 0 0 -0.2,-0.26 0.45,0.45 0 0 0 -0.31,-0.08 1,1 0 0 0 -0.45,0.15 2,2 0 0 0 -0.45,0.36 2.26,2.26 0 0 0 -0.31,0.45 2.45,2.45 0 0 0 -0.2,0.48 2.89,2.89 0 0 0 -0.08,0.47 c 0,0.17 0,0.34 0,0.52 0,0.18 0,0.36 0,0.51 a 1.51,1.51 0 0 0 0.08,0.38 0.59,0.59 0 0 0 0.2,0.26 0.45,0.45 0 0 0 0.31,0.07 0.94,0.94 0 0 0 0.45,-0.16 1.7,1.7 0 0 0 0.45,-0.35 2.19,2.19 0 0 0 0.31,-0.44 2.3,2.3 0 0 0 0.2,-0.49 2.72,2.72 0 0 0 0.08,-0.47 c 0,-0.16 0,-0.34 0,-0.52 0,-0.18 0,-0.35 0,-0.5 a 1.42,1.42 0 0 0 -0.08,-0.38 z m -0.58,1.51 c 0,0.09 0,0.15 0,0.19 a 1.06,1.06 0 0 1 -0.09,0.36 0.67,0.67 0 0 1 -0.28,0.3 c -0.14,0.08 -0.23,0.08 -0.28,0 a 0.48,0.48 0 0 1 -0.09,-0.27 c 0,0 0,-0.09 0,-0.17 v -0.5 c 0,-0.08 0,-0.14 0,-0.18 a 1.18,1.18 0 0 1 0.09,-0.37 0.65,0.65 0 0 1 0.28,-0.29 c 0.13,-0.07 0.23,-0.09 0.28,0 a 0.47,0.47 0 0 1 0.09,0.26 c 0,0 0,0.1 0,0.17 z"
           style="fill:#8f95d7;fill-opacity:1"
           id="eltvc23swwv0o"
           class="animable" />
        <path
           d="m 117.37,213.79 -3.44,-4 a 0.23,0.23 0 0 0 -0.1,-0.07 c 0,0 -0.08,0 -0.15,0 l -0.42,0.24 a 0.34,0.34 0 0 0 -0.12,0.12 0.32,0.32 0 0 0 0,0.16 0.09,0.09 0 0 0 0,0.05 v 0 l 3.43,4 0.1,0.08 a 0.24,0.24 0 0 0 0.15,0 l 0.42,-0.24 a 0.34,0.34 0 0 0 0.12,-0.12 0.37,0.37 0 0 0 0.05,-0.17 c 0,0 0,0 0,0 a 0.08,0.08 0 0 0 -0.04,-0.05 z"
           style="fill:#8a91d5;fill-opacity:1"
           id="eltz8gvw4e85e"
           class="animable" />
        <polygon
           points="119.7,188.9 119.69,188.9 119.69,194.1 119.7,194.1 "
           style="fill:#6e7f9c;fill-opacity:1"
           id="elo2yazdt5tin"
           class="animable" />
        <path
           d="m 108.66,215.2 a 23.44,23.44 0 0 1 0.54,-4.87 29.57,29.57 0 0 1 4,-9.66 20.15,20.15 0 0 1 6.48,-6.57 v -5.2 a 27.29,27.29 0 0 0 -8.78,8.88 39.8,39.8 0 0 0 -5.42,13.09 31.14,31.14 0 0 0 -0.73,6.58 20.76,20.76 0 0 0 0.73,5.73 l 3.71,-3.75 a 15.51,15.51 0 0 1 -0.53,-4.23 z"
           style="fill:#cfd7e5;fill-opacity:1"
           id="elg36d7iuzcri"
           class="animable" />
        <path
           d="m 109.2,219.43 -3.71,3.75 c 1,3.47 2.9,5.83 5.42,6.82 l 2.3,-5.54 c -1.86,-0.73 -3.28,-2.46 -4.01,-5.03 z"
           style="fill:#e0e0e0"
           id="el242xksz6k29"
           class="animable" />
        <polygon
           points="119.7,228.74 119.7,223.53 119.69,223.54 119.69,228.74 "
           style="fill:#6e7f9c;fill-opacity:1"
           id="elsybp4ti9ztp"
           class="animable" />
        <path
           d="m 113.21,224.46 -2.3,5.54 c 2.47,1 5.5,0.64 8.78,-1.26 v -5.2 c -2.42,1.4 -4.69,1.64 -6.48,0.92 z"
           style="fill:#e0e0e0"
           id="el072thz4vlhhq"
           class="animable" />
      </g>
      <g
         id="freepik--text-box--inject-2"
         class="animable">
        <g
           id="eli5zpmaogpp">
          <g
             style="opacity:0.3"
             class="animable"
             id="elr0yhw849pr">
            <path
               d="m 183.63,231.87 a 1.13,1.13 0 0 1 -0.57,-0.15 1.38,1.38 0 0 1 -0.62,-1.26 v -20.12 a 3.35,3.35 0 0 1 1.52,-2.65 l 29.43,-17 a 1.26,1.26 0 0 1 2,1.16 V 212 a 3.32,3.32 0 0 1 -1.52,2.64 l -29.43,17 a 1.61,1.61 0 0 1 -0.81,0.23 z m 30.57,-40.42 a 0.7,0.7 0 0 0 -0.32,0.11 l -29.43,17 a 2.34,2.34 0 0 0 -1,1.79 v 20.12 c 0,0.25 0.07,0.37 0.13,0.41 0.06,0.04 0.2,0 0.41,-0.09 l 29.43,-17 a 2.37,2.37 0 0 0 1,-1.79 v -20.13 c 0,-0.24 -0.07,-0.37 -0.13,-0.4 z"
               id="el7ll6gcmpbho"
               class="animable"
               style="fill:#2d79fb;fill-opacity:1" />
          </g>
        </g>
        <g
           id="el4z9wkfcsiig">
          <g
             style="opacity:0.3"
             class="animable"
             id="eljs9eqtgd8ce">
            <path
               d="m 186.93,213.94 a 0.49,0.49 0 0 1 -0.25,-0.92 l 24,-13.85 a 0.49489898,0.49489898 0 0 1 0.49,0.86 l -24,13.84 a 0.42,0.42 0 0 1 -0.24,0.07 z"
               id="elb2r756fwtk"
               class="animable"
               style="fill:#2d79fb;fill-opacity:1" />
            <path
               d="m 186.93,218.58 a 0.49,0.49 0 0 1 -0.25,-0.91 l 24,-13.85 a 0.48,0.48 0 0 1 0.67,0.18 0.49,0.49 0 0 1 -0.18,0.67 l -24,13.85 a 0.5,0.5 0 0 1 -0.24,0.06 z"
               id="elqeaynk27ajk"
               class="animable"
               style="fill:#2d79fb;fill-opacity:1" />
            <path
               d="m 186.93,223.23 a 0.49,0.49 0 0 1 -0.25,-0.92 l 24,-13.85 a 0.5,0.5 0 0 1 0.67,0.18 0.49,0.49 0 0 1 -0.18,0.67 l -24,13.85 a 0.42,0.42 0 0 1 -0.24,0.07 z"
               id="elk5aq30w1r2o"
               class="animable"
               style="fill:#2d79fb;fill-opacity:1" />
          </g>
        </g>
      </g>
      <g
         id="g2"
         class="animable">
        <g
           id="elk8sond7wyu">
          <g
             style="opacity:0.3"
             class="animable"
             id="el3hkb7frz6ih">
            <path
               d="m 139.66,257.26 a 1.13,1.13 0 0 1 -0.57,-0.15 1.38,1.38 0 0 1 -0.62,-1.26 v -20.13 a 3.35,3.35 0 0 1 1.52,-2.64 l 29.42,-17 a 1.39,1.39 0 0 1 1.4,-0.08 1.37,1.37 0 0 1 0.62,1.25 v 20.13 A 3.34,3.34 0 0 1 169.9,240 l -29.42,17 a 1.61,1.61 0 0 1 -0.82,0.26 z m 30.57,-40.42 a 0.7,0.7 0 0 0 -0.33,0.11 l -29.42,17 a 2.37,2.37 0 0 0 -1,1.79 v 20.13 c 0,0.24 0.07,0.37 0.13,0.4 0.06,0.03 0.2,0 0.41,-0.09 l 29.42,-17 a 2.33,2.33 0 0 0 1,-1.78 v -20.14 c 0,-0.24 -0.06,-0.37 -0.12,-0.4 z"
               id="elsd31i6sjmy"
               class="animable"
               style="fill:#2d79fb;fill-opacity:1" />
          </g>
        </g>
        <g
           id="elmcuz21co13">
          <g
             style="opacity:0.3"
             class="animable"
             id="elki7egkuclig">
            <path
               d="m 143,239.33 a 0.49,0.49 0 0 1 -0.24,-0.92 l 24,-13.85 a 0.51,0.51 0 0 1 0.68,0.18 0.5,0.5 0 0 1 -0.18,0.67 l -24,13.85 a 0.45,0.45 0 0 1 -0.26,0.07 z"
               id="elfwwzvmfhxso"
               class="animable"
               style="fill:#2d79fb;fill-opacity:1" />
            <path
               d="m 143,244 a 0.49,0.49 0 0 1 -0.24,-0.92 l 24,-13.84 a 0.49,0.49 0 0 1 0.68,0.18 0.5,0.5 0 0 1 -0.18,0.67 l -24,13.84 A 0.45,0.45 0 0 1 143,244 Z"
               id="elfv3vxg0vd3t"
               class="animable"
               style="fill:#2d79fb;fill-opacity:1" />
            <path
               d="m 143,248.62 a 0.49,0.49 0 0 1 -0.24,-0.92 l 24,-13.85 a 0.49307707,0.49307707 0 1 1 0.5,0.85 l -24,13.85 a 0.55,0.55 0 0 1 -0.26,0.07 z"
               id="eli1egy7xycv"
               class="animable"
               style="fill:#2d79fb;fill-opacity:1" />
          </g>
        </g>
      </g>
    </g>
  </g>
  <g
     id="g11"
     class="animable"
     transform="translate(-189.26029,7.4745952)">
    <g
       id="g10"
       class="animable">
      <g
         id="g4"
         class="animable">
        <g
           id="elejh0ak1inin">
          <path
             d="M 410.81,72.64 A 2.8,2.8 0 0 0 409.59,70 v 0 l -3.15,-1.79 v 0 a 2.79,2.79 0 0 0 -2.88,0.25 L 239.65,163.1 a 8.88,8.88 0 0 0 -4,7 V 362 a 2.81,2.81 0 0 0 1.2,2.61 v 0 l 3.22,1.84 v 0 a 2.84,2.84 0 0 0 2.85,-0.28 l 163.9,-94.63 a 8.86,8.86 0 0 0 4,-7 z"
             style="opacity:0.1;fill:#6e7f9c;fill-opacity:1"
             class="animable"
             id="elt44gbrpo7er" />
        </g>
        <g
           id="el41ztsvnk07a">
          <path
             d="M 406.79,70.32 242.9,165 a 8.88,8.88 0 0 0 -4,7 v 192 c 0,2.56 1.8,3.6 4,2.32 l 163.9,-94.63 a 8.86,8.86 0 0 0 4,-7 v -192 C 410.81,70.08 409,69 406.79,70.32 Z"
             style="opacity:0.1;fill:#6e7f9c;fill-opacity:1"
             class="animable"
             id="el04zvdkk7pa94" />
        </g>
        <g
           id="el75tebcg8c23">
          <path
             d="m 410.81,72.64 v 192 a 8.89,8.89 0 0 1 -4,7 L 242.9,366.2 c -2,1.13 -3.61,0.45 -4,-1.51 a 4.15,4.15 0 0 0 0.71,-0.34 l 163.91,-94.62 a 8.92,8.92 0 0 0 4,-7 v -192 a 4.14,4.14 0 0 0 -0.07,-0.81 c 1.93,-0.63 3.36,0.44 3.36,2.72 z"
             style="opacity:0.15;fill:#6e7f9c;fill-opacity:1"
             class="animable"
             id="el0093bxudk9fye" />
        </g>
        <path
           d="M 406.79,70.32 364.83,95 322.77,119.56 280.64,144 l -21.06,12.21 -10.58,6.07 -5.27,3 a 7.81,7.81 0 0 0 -3.6,4.13 6.57,6.57 0 0 0 -0.54,2.69 v 9.13 12.17 24.35 l -0.14,48.7 -0.2,48.69 -0.33,48.7 -0.33,-48.7 -0.21,-48.69 -0.14,-48.7 V 193.4 172.1 a 8.14,8.14 0 0 1 0.63,-3.24 10.45,10.45 0 0 1 1.67,-2.8 10,10 0 0 1 1.18,-1.17 A 10.68,10.68 0 0 1 243,164 l 5.27,-3.05 10.53,-6.1 21.11,-12.14 42.21,-24.28 42.3,-24.14 z"
           style="fill:#ffffff"
           id="ellteoleg7obr"
           class="animable" />
      </g>
      <g
         id="g5"
         class="animable">
        <path
           d="m 257,178 75.69,-43.7 c 1.18,-0.67 2.13,-0.12 2.13,1.24 v 64.31 a 4.7,4.7 0 0 1 -2.13,3.69 L 257,247.26 c -1.18,0.68 -2.13,0.13 -2.13,-1.23 V 181.71 A 4.71,4.71 0 0 1 257,178 Z"
           style="fill:#fafafa"
           id="elmboxycrgzwq"
           class="animable" />
        <path
           d="m 264,231.71 v 1 a 4.48,4.48 0 0 1 -0.07,0.64 2.17,2.17 0 0 1 -0.17,0.58 1.71,1.71 0 0 1 -0.3,0.5 1.65,1.65 0 0 1 -0.45,0.37 0.79,0.79 0 0 1 -0.45,0.15 0.42,0.42 0 0 1 -0.3,-0.15 0.88,0.88 0 0 1 -0.17,-0.39 2.37,2.37 0 0 1 -0.06,-0.57 c 0,-0.14 0,-0.3 0,-0.48 0,-0.18 0,-0.35 0,-0.49 a 3.49,3.49 0 0 1 0.06,-0.65 2.7,2.7 0 0 1 0.17,-0.59 1.8,1.8 0 0 1 0.3,-0.5 1.55,1.55 0 0 1 0.45,-0.39 0.85,0.85 0 0 1 0.45,-0.14 0.34,0.34 0 0 1 0.3,0.15 0.79,0.79 0 0 1 0.17,0.38 3.17,3.17 0 0 1 0.07,0.58 z m -1.48,1.83 a 1.07,1.07 0 0 0 0.13,0.56 c 0.07,0.1 0.19,0.11 0.36,0 a 0.91,0.91 0 0 0 0.37,-0.43 2.39,2.39 0 0 0 0.12,-0.71 c 0,-0.14 0,-0.3 0,-0.48 0,-0.18 0,-0.32 0,-0.46 a 1.16,1.16 0 0 0 -0.12,-0.56 c -0.08,-0.11 -0.2,-0.11 -0.37,0 a 0.8,0.8 0 0 0 -0.36,0.43 2,2 0 0 0 -0.13,0.7 c 0,0.15 0,0.31 0,0.48 0,0.17 0,0.33 0,0.47 z"
           style="fill:#455a64"
           id="eli019ldef7s8"
           class="animable" />
        <path
           d="m 269.51,230 a 0.51,0.51 0 0 1 -0.43,-0.24 0.5,0.5 0 0 1 0.18,-0.68 l 57.21,-33 a 0.5,0.5 0 0 1 0.5,0.86 l -57.22,33 a 0.5,0.5 0 0 1 -0.24,0.06 z"
           style="fill:#e0e0e0"
           id="el89z9e5o7uib"
           class="animable" />
        <path
           d="m 261.07,217.39 a 0.3,0.3 0 0 1 0,-0.1 0.5,0.5 0 0 1 0,-0.13 l 0.8,-1.42 0.06,-0.1 a 0.22,0.22 0 0 1 0.06,-0.07 l 0.29,-0.17 a 0.06,0.06 0 0 1 0.07,0 0.12,0.12 0 0 1 0,0.09 v 3.64 a 0.35,0.35 0 0 1 0,0.13 c 0,0 0,0.07 -0.07,0.08 l -0.3,0.17 a 0.035,0 0 0 0 -0.07,0 0.12,0.12 0 0 1 0,-0.09 v -2.79 l -0.52,0.93 a 0.12,0.12 0 0 1 -0.07,0.07 0.07,0.07 0 0 1 -0.07,0 z"
           style="fill:#455a64"
           id="elrgym362s4lf"
           class="animable" />
        <path
           d="m 264.83,215.41 c 0,0.07 0,0.15 0,0.24 v 0.53 c 0,0.08 0,0.16 0,0.24 0,0.08 0,0.43 -0.06,0.64 a 3.28,3.28 0 0 1 -0.17,0.58 2.29,2.29 0 0 1 -0.3,0.5 1.62,1.62 0 0 1 -0.45,0.37 0.84,0.84 0 0 1 -0.46,0.15 0.44,0.44 0 0 1 -0.3,-0.15 1,1 0 0 1 -0.17,-0.39 4.18,4.18 0 0 1 -0.06,-0.56 c 0,-0.15 0,-0.31 0,-0.49 0,-0.18 0,-0.35 0,-0.49 0,-0.14 0,-0.44 0.06,-0.65 a 3.39,3.39 0 0 1 0.17,-0.59 2.29,2.29 0 0 1 0.3,-0.5 1.61,1.61 0 0 1 0.46,-0.39 0.82,0.82 0 0 1 0.45,-0.14 0.4,0.4 0 0 1 0.3,0.15 1,1 0 0 1 0.17,0.39 4.18,4.18 0 0 1 0.06,0.56 z m -1.47,1.83 a 1.19,1.19 0 0 0 0.12,0.56 c 0.07,0.1 0.19,0.11 0.37,0 a 0.8,0.8 0 0 0 0.36,-0.43 2.65,2.65 0 0 0 0.13,-0.71 v -0.94 a 1.27,1.27 0 0 0 -0.13,-0.56 c -0.07,-0.11 -0.19,-0.11 -0.36,0 a 0.78,0.78 0 0 0 -0.37,0.43 2.32,2.32 0 0 0 -0.12,0.7 c 0,0.15 0,0.31 0,0.48 0,0.17 -0.01,0.33 0,0.47 z"
           style="fill:#455a64"
           id="el0ymw87b7ez"
           class="animable" />
        <path
           d="m 269.51,214.19 a 0.49,0.49 0 0 1 -0.25,-0.92 l 57.21,-33 a 0.49,0.49 0 0 1 0.68,0.18 0.5,0.5 0 0 1 -0.18,0.67 l -57.22,33 a 0.42,0.42 0 0 1 -0.24,0.07 z"
           style="fill:#e0e0e0"
           id="elpok8qynpks"
           class="animable" />
        <path
           d="m 262.05,201.47 a 1.34,1.34 0 0 0 0.14,-0.35 1.58,1.58 0 0 0 0,-0.28 0.51,0.51 0 0 0 -0.09,-0.34 c -0.06,-0.07 -0.17,-0.07 -0.31,0 a 0.72,0.72 0 0 0 -0.29,0.33 1.91,1.91 0 0 0 -0.14,0.46 0.29,0.29 0 0 1 0,0.14 0.14,0.14 0 0 1 -0.06,0.07 l -0.29,0.17 a 0.06,0.06 0 0 1 -0.08,0 c 0,0 0,-0.05 0,-0.1 a 1.93,1.93 0 0 1 0.08,-0.52 2.25,2.25 0 0 1 0.2,-0.51 2.28,2.28 0 0 1 0.28,-0.43 1.29,1.29 0 0 1 0.36,-0.31 0.61,0.61 0 0 1 0.4,-0.11 0.4,0.4 0 0 1 0.28,0.14 0.75,0.75 0 0 1 0.16,0.31 1.36,1.36 0 0 1 0,0.41 2.44,2.44 0 0 1 0,0.27 1,1 0 0 1 -0.05,0.29 1.92,1.92 0 0 1 -0.12,0.33 c 0,0.12 -0.12,0.26 -0.2,0.41 l -0.68,1.35 1,-0.59 a 0.035,0 -180 0 0 0.07,0 c 0,0 0,0 0,0.08 v 0.41 a 0.27,0.27 0 0 1 0,0.12 c 0,0 0,0.07 -0.07,0.08 l -1.71,1 c 0,0 0,0 -0.07,0 a 0.12,0.12 0 0 1 0,-0.09 v -0.35 a 0.39,0.39 0 0 1 0,-0.18 0.48,0.48 0 0 1 0.06,-0.14 z"
           style="fill:#455a64"
           id="elhqcig9stp5e"
           class="animable" />
        <path
           d="m 265.12,199.44 v 1 a 4.32,4.32 0 0 1 -0.07,0.64 2.36,2.36 0 0 1 -0.17,0.59 1.66,1.66 0 0 1 -0.3,0.49 1.68,1.68 0 0 1 -0.45,0.38 0.85,0.85 0 0 1 -0.45,0.14 0.37,0.37 0 0 1 -0.3,-0.15 0.79,0.79 0 0 1 -0.17,-0.38 2.49,2.49 0 0 1 -0.06,-0.57 c 0,-0.14 0,-0.3 0,-0.49 0,-0.19 0,-0.34 0,-0.49 a 3.49,3.49 0 0 1 0.06,-0.65 2.36,2.36 0 0 1 0.17,-0.59 2.29,2.29 0 0 1 0.3,-0.5 1.52,1.52 0 0 1 0.45,-0.38 0.88,0.88 0 0 1 0.45,-0.15 0.4,0.4 0 0 1 0.3,0.15 0.78,0.78 0 0 1 0.17,0.39 3,3 0 0 1 0.07,0.57 z m -1.48,1.82 a 1,1 0 0 0 0.13,0.56 c 0.07,0.11 0.19,0.11 0.36,0 a 0.87,0.87 0 0 0 0.37,-0.43 2.26,2.26 0 0 0 0.12,-0.7 c 0,-0.15 0,-0.31 0,-0.48 0,-0.17 0,-0.33 0,-0.47 a 1.19,1.19 0 0 0 -0.12,-0.56 c -0.08,-0.1 -0.2,-0.11 -0.37,0 a 0.84,0.84 0 0 0 -0.36,0.43 2.09,2.09 0 0 0 -0.13,0.71 c 0,0.14 0,0.3 0,0.47 0,0.17 0,0.33 0,0.47 z"
           style="fill:#455a64"
           id="el3fkpzwboq3i"
           class="animable" />
        <path
           d="m 269.51,198.37 a 0.49,0.49 0 0 1 -0.25,-0.91 l 57.21,-33 a 0.5,0.5 0 0 1 0.5,0.86 l -57.22,33 a 0.5,0.5 0 0 1 -0.24,0.05 z"
           style="fill:#e0e0e0"
           id="el5dgu8wust8j"
           class="animable" />
        <path
           d="m 262.6,183.6 a 0.06,0.06 0 0 1 0.07,0 0.12,0.12 0 0 1 0,0.09 v 0.4 a 0.68,0.68 0 0 1 0,0.14 l -0.06,0.12 -0.53,1.18 a 0.68,0.68 0 0 1 0.3,-0.05 0.4,0.4 0 0 1 0.23,0.1 0.54,0.54 0 0 1 0.14,0.26 1.24,1.24 0 0 1 0.05,0.41 2.1,2.1 0 0 1 -0.07,0.56 2.28,2.28 0 0 1 -0.21,0.51 1.9,1.9 0 0 1 -0.31,0.42 1.66,1.66 0 0 1 -0.4,0.31 1.12,1.12 0 0 1 -0.44,0.17 0.54,0.54 0 0 1 -0.32,-0.06 0.46,0.46 0 0 1 -0.19,-0.22 1.16,1.16 0 0 1 -0.08,-0.32 0.28,0.28 0 0 1 0,-0.13 0.19,0.19 0 0 1 0.07,-0.08 l 0.29,-0.17 c 0,0 0.05,0 0.06,0 a 0.28,0.28 0 0 1 0.05,0.08 c 0,0 0,0.07 0.06,0.09 a 0.16,0.16 0 0 0 0.1,0.05 0.27,0.27 0 0 0 0.15,0 l 0.22,-0.1 a 1,1 0 0 0 0.36,-0.35 0.86,0.86 0 0 0 0.14,-0.47 c 0,-0.17 -0.05,-0.26 -0.14,-0.28 a 0.52,0.52 0 0 0 -0.36,0.1 l -0.3,0.17 c 0,0 0,0 -0.07,0 a 0.12,0.12 0 0 1 0,-0.09 V 186 a 0.35,0.35 0 0 1 0,-0.14 0.61,0.61 0 0 1 0.05,-0.12 l 0.51,-1.12 -1,0.58 a 0.06,0.06 0 0 1 -0.07,0 c 0,0 0,0 0,-0.09 v -0.4 a 0.27,0.27 0 0 1 0,-0.12 0.22,0.22 0 0 1 0.07,-0.09 z"
           style="fill:#455a64"
           id="elgoauc12ji5"
           class="animable" />
        <path
           d="m 265.16,183.6 v 1 a 4.32,4.32 0 0 1 -0.07,0.64 2.85,2.85 0 0 1 -0.16,0.59 1.93,1.93 0 0 1 -0.31,0.49 1.68,1.68 0 0 1 -0.45,0.38 0.85,0.85 0 0 1 -0.45,0.14 0.37,0.37 0 0 1 -0.3,-0.15 0.89,0.89 0 0 1 -0.17,-0.38 3.22,3.22 0 0 1 -0.06,-0.57 c 0,-0.14 0,-0.3 0,-0.49 0,-0.19 0,-0.34 0,-0.49 a 4.62,4.62 0 0 1 0.06,-0.65 2.87,2.87 0 0 1 0.17,-0.59 2.29,2.29 0 0 1 0.3,-0.5 1.52,1.52 0 0 1 0.45,-0.38 0.88,0.88 0 0 1 0.45,-0.15 0.44,0.44 0 0 1 0.31,0.15 0.88,0.88 0 0 1 0.16,0.39 3,3 0 0 1 0.07,0.57 z m -1.48,1.82 a 1.14,1.14 0 0 0 0.13,0.56 c 0.07,0.11 0.19,0.11 0.36,0 a 0.82,0.82 0 0 0 0.37,-0.43 2.26,2.26 0 0 0 0.12,-0.7 c 0,-0.15 0,-0.31 0,-0.48 0,-0.17 0,-0.33 0,-0.47 a 1.19,1.19 0 0 0 -0.12,-0.56 c -0.07,-0.1 -0.2,-0.11 -0.37,0 a 0.84,0.84 0 0 0 -0.36,0.43 2.37,2.37 0 0 0 -0.13,0.71 c 0,0.14 0,0.3 0,0.47 0,0.17 0,0.33 0,0.47 z"
           style="fill:#455a64"
           id="elmye7jz76ea"
           class="animable" />
        <path
           d="m 269.51,182.56 a 0.49,0.49 0 0 1 -0.25,-0.92 l 57.21,-33 a 0.49307707,0.49307707 0 1 1 0.5,0.85 l -57.22,33 a 0.42,0.42 0 0 1 -0.24,0.07 z"
           style="fill:#e0e0e0"
           id="el4726rlb6xer"
           class="animable" />
        <path
           d="m 269.51,229.51 v -45 c 0,0 5.7,-4 9.85,9.22 4.15,13.22 12.7,7.92 18.37,-1.64 5.67,-9.56 8.22,-19.19 14.32,-22.71 6.1,-3.52 10.53,8.84 14.67,6.45 v 20.69 z"
           style="fill:#6e7f9c;fill-opacity:1"
           id="elhfc9r7lc434"
           class="animable" />
        <g
           id="el0g3v0ucp9w1t">
          <path
             d="m 269.51,229.51 v -45 c 0,0 5.7,-4 9.85,9.22 4.15,13.22 12.7,7.92 18.37,-1.64 5.67,-9.56 8.22,-19.19 14.32,-22.71 6.1,-3.52 10.53,8.84 14.67,6.45 v 20.69 z"
             style="opacity:1;stroke:none;stroke-opacity:1;fill:#505cd6;fill-opacity:1"
             class="animable"
             id="el46tcvguruk6" />
        </g>
        <path
           d="m 269.51,222.68 c 0,0 3,-14.65 5.86,-16.29 3.67,-2.12 4.15,11.13 10.5,7.47 6.35,-3.66 8,-36.3 14.48,-40.06 6.48,-3.76 7.53,14.61 12.33,11.84 4.8,-2.77 5.91,-13.1 14,-17.79 v 28.63 l -57.21,33 z"
           style="fill:#7585a2;fill-opacity:1"
           id="el5nk4esud68"
           class="animable" />
        <g
           id="elpnf6pqlqxua">
          <path
             d="m 321.11,173.12 c -3.48,4.85 -5,10.56 -8.43,12.52 -3,1.74 -4.55,-4.92 -6.9,-9.13 -2.49,4.38 -4.73,9.94 -8,15.54 a 27.78,27.78 0 0 1 -5.91,7.25 c -1.64,7 -3.42,13.09 -5.95,14.56 -6.35,3.66 -6.83,-9.59 -10.49,-7.47 -2.85,1.64 -5.87,16.29 -5.87,16.29 v 6.83 l 57.21,-33 v -20.72 c -1.83,1.03 -3.67,-0.68 -5.66,-2.67 z"
             style="opacity:1;stroke:none;stroke-opacity:1;fill:#9ea3d9;fill-opacity:1"
             class="animable"
             id="elt9a1kgvdfyp" />
        </g>
      </g>
      <g
         id="g6"
         class="animable">
        <path
           d="m 257,270.37 75.69,-43.7 c 1.18,-0.68 2.13,-0.13 2.13,1.23 v 64.32 a 4.7,4.7 0 0 1 -2.13,3.69 L 257,339.61 c -1.18,0.68 -2.13,0.13 -2.13,-1.23 v -64.32 a 4.7,4.7 0 0 1 2.13,-3.69 z"
           style="fill:#fafafa"
           id="elm10fdbv8pq"
           class="animable" />
        <polygon
           points="263.12,277.99 267.32,275.57 267.32,322.52 263.12,324.94 "
           style="fill:#e0e0e0"
           id="el4roik5db9pr"
           class="animable" />
        <polygon
           points="270.53,273.71 274.73,271.29 274.73,318.24 270.53,320.66 "
           style="fill:#e0e0e0"
           id="ely1ocv99uzlb"
           class="animable" />
        <polygon
           points="277.94,269.44 282.14,267.01 282.14,313.96 277.94,316.38 "
           style="fill:#e0e0e0"
           id="elpin2vtjdx5n"
           class="animable" />
        <polygon
           points="285.35,265.16 289.55,262.73 289.55,309.68 285.35,312.11 "
           style="fill:#e0e0e0"
           id="el95gidtsahl"
           class="animable" />
        <polygon
           points="292.76,260.88 296.96,258.45 296.96,305.4 292.76,307.83 "
           style="fill:#e0e0e0"
           id="el1gg6v67mdzy"
           class="animable" />
        <polygon
           points="300.18,256.6 304.37,254.18 304.37,301.12 300.18,303.55 "
           style="fill:#e0e0e0"
           id="ell3l0h7e4hkp"
           class="animable" />
        <polygon
           points="304.37,275.6 300.18,278.03 300.18,256.6 304.37,254.18 "
           style="fill:#6e7f9c;fill-opacity:1"
           id="el41uypi09ckk"
           class="animable" />
        <polygon
           points="307.59,252.32 311.79,249.9 311.79,296.85 307.59,299.27 "
           style="fill:#e0e0e0"
           id="eliwl5uefoy9"
           class="animable" />
        <polygon
           points="315,248.04 319.2,245.62 319.2,292.57 315,294.99 "
           style="fill:#e0e0e0"
           id="eloug0gutkqh"
           class="animable" />
        <polygon
           points="322.41,243.76 326.61,241.34 326.61,288.29 322.41,290.71 "
           style="fill:#e0e0e0"
           id="eldbbwj6jf0s"
           class="animable" />
        <polygon
           points="267.32,312.03 263.12,314.46 263.12,288.24 267.32,285.82 "
           style="fill:#6e7f9c;fill-opacity:1"
           id="eld9a0senhwjw"
           class="animable" />
        <g
           id="elg3svehl6na9">
          <polygon
             points="267.32,322.52 263.12,324.94 263.12,314.46 267.32,312.03 "
             style="opacity:0.15;fill:#2d79fb;fill-opacity:1"
             class="animable"
             id="elxp6tkw6eqoi" />
        </g>
        <polygon
           points="274.73,296.94 270.53,299.36 270.53,289.92 274.73,287.5 "
           style="fill:#6e7f9c;fill-opacity:1"
           id="eluk0cwo9pxrg"
           class="animable" />
        <g
           id="eller62oo5vk">
          <polygon
             points="274.73,318.24 270.53,320.66 270.53,299.36 274.73,296.94 "
             style="opacity:0.15;fill:#2d79fb;fill-opacity:1"
             class="animable"
             id="els3t0za8v5m" />
        </g>
        <polygon
           points="282.14,279.18 277.94,281.6 277.94,273.37 282.14,270.94 "
           style="fill:#6e7f9c;fill-opacity:1"
           id="elihltoqj8ir"
           class="animable" />
        <g
           id="ely1d8jbyy24">
          <polygon
             points="282.14,313.96 277.94,316.38 277.94,281.6 282.14,279.18 "
             style="opacity:0.15;fill:#2d79fb;fill-opacity:1"
             class="animable"
             id="el05lh0gn2tgmr" />
        </g>
        <polygon
           points="289.55,293.73 285.35,296.15 285.35,275.41 289.55,272.98 "
           style="fill:#6e7f9c;fill-opacity:1"
           id="elyjv3p0pzb5h"
           class="animable" />
        <g
           id="elxei8pyozqb">
          <polygon
             points="289.55,309.68 285.35,312.11 285.35,296.15 289.55,293.73 "
             style="opacity:0.15;fill:#2d79fb;fill-opacity:1"
             class="animable"
             id="elig8oley90dm" />
        </g>
        <polygon
           points="296.96,285.9 292.76,288.33 292.76,279.56 296.96,277.13 "
           style="fill:#6e7f9c;fill-opacity:1"
           id="ela8wzx34c6o"
           class="animable" />
        <g
           id="ely7zvpmge2t">
          <polygon
             points="296.96,305.4 292.76,307.83 292.76,288.33 296.96,285.9 "
             style="opacity:0.15;fill:#2d79fb;fill-opacity:1"
             class="animable"
             id="elxr6gy9ox1sa" />
        </g>
        <g
           id="elg1kker66ele">
          <polygon
             points="304.37,301.12 300.18,303.55 300.18,278.03 304.37,275.6 "
             style="opacity:0.15;fill:#2d79fb;fill-opacity:1"
             class="animable"
             id="elwp2nvtuhe9r" />
        </g>
        <polygon
           points="311.79,285.05 307.59,287.47 307.59,277.15 311.79,274.73 "
           style="fill:#6e7f9c;fill-opacity:1"
           id="elgqnkpkc9mmm"
           class="animable" />
        <g
           id="el4wbeyim9qrj">
          <polygon
             points="311.79,296.85 307.59,299.27 307.59,287.47 311.79,285.05 "
             style="opacity:0.15;fill:#2d79fb;fill-opacity:1"
             class="animable"
             id="el7fthihf7j4u" />
        </g>
        <polygon
           points="319.2,277.01 315,279.43 315,256.09 319.2,253.66 "
           style="fill:#6e7f9c;fill-opacity:1"
           id="elozlpcq72s78"
           class="animable" />
        <g
           id="ellvnnjpt1j4">
          <polygon
             points="319.2,292.57 315,294.99 315,279.43 319.2,277.01 "
             style="opacity:0.15;fill:#2d79fb;fill-opacity:1"
             class="animable"
             id="el6zu9pihf5zt" />
        </g>
        <polygon
           points="326.61,270.23 322.41,272.65 322.41,264.53 326.61,262.11 "
           style="fill:#6e7f9c;fill-opacity:1"
           id="el39fub9wckws"
           class="animable" />
        <polygon
           points="326.61,288.29 322.41,290.71 322.41,272.65 326.61,270.23 "
           style="fill:#6e7f9c;fill-opacity:1"
           id="elgvdsfbcnmoa"
           class="animable" />
        <polygon
           points="267.32,322.52 263.12,324.94 263.12,314.46 267.32,312.03 "
           style="fill:#6e7f9c;fill-opacity:1"
           id="elt4e276sky1r"
           class="animable" />
        <g
           id="elh575q7d8j97">
          <polygon
             points="267.32,322.52 263.12,324.94 263.12,314.46 267.32,312.03 "
             style="opacity:0.2;fill:#2d79fb;fill-opacity:1"
             class="animable"
             id="elpqbcrfdjqil" />
        </g>
        <polygon
           points="274.73,318.24 270.53,320.66 270.53,299.36 274.73,296.94 "
           style="fill:#6e7f9c;fill-opacity:1"
           id="el11kbg46slyha"
           class="animable" />
        <g
           id="eln01gqrbtcia">
          <polygon
             points="274.73,318.24 270.53,320.66 270.53,299.36 274.73,296.94 "
             style="opacity:0.2;fill:#2d79fb;fill-opacity:1"
             class="animable"
             id="el2494yvniqb6" />
        </g>
        <polygon
           points="282.14,313.96 277.94,316.38 277.94,281.6 282.14,279.18 "
           style="fill:#6e7f9c;fill-opacity:1"
           id="elhycw666bnei"
           class="animable" />
        <g
           id="elfsq21yk30z">
          <polygon
             points="282.14,313.96 277.94,316.38 277.94,281.6 282.14,279.18 "
             style="opacity:0.2;fill:#2d79fb;fill-opacity:1"
             class="animable"
             id="elukdh4glv3fm" />
        </g>
        <polygon
           points="289.55,309.68 285.35,312.11 285.35,296.15 289.55,293.73 "
           style="fill:#6e7f9c;fill-opacity:1"
           id="elz9t6pk2pfjp"
           class="animable" />
        <g
           id="elvncewa4kgfp">
          <polygon
             points="289.55,309.68 285.35,312.11 285.35,296.15 289.55,293.73 "
             style="opacity:0.2;fill:#2d79fb;fill-opacity:1"
             class="animable"
             id="elulzyfoadwab" />
        </g>
        <polygon
           points="296.96,305.4 292.76,307.83 292.76,288.33 296.96,285.9 "
           style="fill:#6e7f9c;fill-opacity:1"
           id="elik6zmxus5uj"
           class="animable" />
        <g
           id="elb5rv4bquqap">
          <polygon
             points="296.96,305.4 292.76,307.83 292.76,288.33 296.96,285.9 "
             style="opacity:0.2;fill:#2d79fb;fill-opacity:1"
             class="animable"
             id="el8bwgmdjr1nd" />
        </g>
        <polygon
           points="304.37,301.12 300.18,303.55 300.18,278.03 304.37,275.6 "
           style="fill:#6e7f9c;fill-opacity:1"
           id="el4s7xbpwb2o4"
           class="animable" />
        <g
           id="elcjaiwolqtm5">
          <polygon
             points="304.37,301.12 300.18,303.55 300.18,278.03 304.37,275.6 "
             style="opacity:0.2;fill:#2d79fb;fill-opacity:1"
             class="animable"
             id="eltiltvr8vux" />
        </g>
        <polygon
           points="311.79,296.85 307.59,299.27 307.59,287.47 311.79,285.05 "
           style="fill:#6e7f9c;fill-opacity:1"
           id="el9q8fsnp6vh"
           class="animable" />
        <g
           id="elf2lrmtafq9h">
          <polygon
             points="311.79,296.85 307.59,299.27 307.59,287.47 311.79,285.05 "
             style="opacity:0.2;fill:#2d79fb;fill-opacity:1"
             class="animable"
             id="eltshtxw26dy" />
        </g>
        <polygon
           points="319.2,292.57 315,294.99 315,279.43 319.2,277.01 "
           style="fill:#6e7f9c;fill-opacity:1"
           id="elnsxmidlmj7f"
           class="animable" />
        <g
           id="elvbc0a07dpxb">
          <polygon
             points="319.2,292.57 315,294.99 315,279.43 319.2,277.01 "
             style="opacity:0.2;fill:#2d79fb;fill-opacity:1"
             class="animable"
             id="el078is3shp9vc" />
        </g>
        <g
           id="elri5nhc6js6q">
          <polygon
             points="326.61,288.29 322.41,290.71 322.41,272.65 326.61,270.23 "
             style="opacity:0.2;fill:#2d79fb;fill-opacity:1"
             class="animable"
             id="elqz8hd95qfd" />
        </g>
      </g>
      <g
         id="g7"
         class="animable">
        <path
           d="m 357.7,156.36 60,-34.62 c 1.17,-0.68 2.13,-0.13 2.13,1.23 v 64.32 a 4.73,4.73 0 0 1 -2.13,3.69 l -60,34.62 c -1.17,0.68 -2.13,0.13 -2.13,-1.23 v -64.32 a 4.73,4.73 0 0 1 2.13,-3.69 z"
           style="fill:#fafafa"
           id="elee1ljbgxcv"
           class="animable" />
        <path
           d="m 356.75,226.39 a 1.57,1.57 0 0 1 -0.8,-0.21 2,2 0 0 1 -0.88,-1.81 v -64.32 a 5.22,5.22 0 0 1 2.38,-4.13 l 60,-34.61 a 1.93,1.93 0 0 1 2,-0.15 2,2 0 0 1 0.88,1.81 v 64.32 a 5.2,5.2 0 0 1 -2.38,4.12 L 358,226 a 2.4,2.4 0 0 1 -1.25,0.39 z M 418.62,122 a 1.41,1.41 0 0 0 -0.7,0.22 l -60,34.62 a 4.23,4.23 0 0 0 -1.88,3.26 v 64.32 a 0.82,0.82 0 0 0 1.38,0.8 l 60,-34.62 a 4.23,4.23 0 0 0 1.88,-3.26 V 123 a 1.05,1.05 0 0 0 -0.38,-1 0.56,0.56 0 0 0 -0.3,0 z"
           style="fill:#e0e0e0"
           id="el594e58kms0a"
           class="animable" />
        <path
           d="m 387.69,152.55 c 3.47,-2 6.68,-2.34 9.29,-1.32 l -9.29,22.44 z"
           style="fill:#e85076;fill-opacity:1"
           id="ely5c7wdhorb"
           class="animable" />
        <path
           d="m 378.39,162 a 28.88,28.88 0 0 1 9.3,-9.42 v 21.12 z"
           style="fill:#6e7f9c;fill-opacity:1"
           id="el4zbj183oe2i"
           class="animable" />
        <path
           d="M 372.63,175.84 A 42.14,42.14 0 0 1 378.39,162 l 9.3,11.7 z"
           style="fill:#6e7f9c;fill-opacity:1"
           id="elvvcl8nmq08j"
           class="animable" />
        <path
           d="m 397,151.23 c 2.68,1.06 4.72,3.54 5.76,7.22 l -15.05,15.22 z"
           style="fill:#ec416c;fill-opacity:1"
           id="elm0w0nts6jn"
           class="animable" />
        <path
           d="m 372.63,188.89 a 22.37,22.37 0 0 1 -0.78,-6.08 33.53,33.53 0 0 1 0.78,-7 l 15.06,-2.17 z"
           style="fill:#6e7f9c;fill-opacity:1"
           id="elf7ge8tx889i"
           class="animable" />
        <path
           d="M 402.74,171.5 A 42.14,42.14 0 0 1 397,185.37 l -9.29,-11.7 z"
           style="fill:#6e7f9c;fill-opacity:1"
           id="ela7b9ged97g"
           class="animable" />
        <path
           d="m 387.69,194.78 c -3.48,2 -6.69,2.35 -9.3,1.32 l 9.3,-22.43 z"
           style="fill:#6e7f9c;fill-opacity:1"
           id="els89kaea9yd"
           class="animable" />
        <path
           d="m 372.63,188.89 15.06,-15.22 -9.3,22.43 c -2.68,-1.05 -4.72,-3.54 -5.76,-7.21 z"
           style="fill:#6e7f9c;fill-opacity:1"
           id="eli9ggfb4am3c"
           class="animable" />
        <g
           id="el4bpcv6afc2y">
          <path
             d="m 378.39,162 a 42.14,42.14 0 0 0 -5.76,13.87 33.53,33.53 0 0 0 -0.78,7 22.37,22.37 0 0 0 0.78,6.08 c 1,3.67 3.08,6.16 5.76,7.21 l 9.3,-22.43 z"
             style="opacity:0.1;fill:#2d79fb;fill-opacity:1"
             class="animable"
             id="elqvehhb4ej7o" />
        </g>
        <path
           d="m 402.74,158.45 a 22.37,22.37 0 0 1 0.78,6.08 33.68,33.68 0 0 1 -0.78,7 l -15.05,2.17 z"
           style="fill:#6e7f9c;fill-opacity:1"
           id="elffw4r4poct"
           class="animable" />
        <path
           d="m 397,185.37 a 28.91,28.91 0 0 1 -9.29,9.41 v -21.11 z"
           style="fill:#6e7f9c;fill-opacity:1"
           id="elcnvbe1gqq27"
           class="animable" />
        <g
           id="el33xon991u8w">
          <path
             d="m 402.74,158.45 -15.05,15.22 -9.3,22.43 c 2.61,1 5.82,0.69 9.3,-1.32 a 28.91,28.91 0 0 0 9.29,-9.41 42.14,42.14 0 0 0 5.76,-13.87 33.68,33.68 0 0 0 0.78,-7 22.37,22.37 0 0 0 -0.78,-6.05 z"
             style="opacity:0.2;fill:#505cd6;fill-opacity:1"
             class="animable"
             id="eldqp6sjdk1w" />
        </g>
        <path
           d="m 380.15,201.72 a 10,10 0 0 1 -5.12,-1.34 c -4.32,-2.49 -6.8,-8.24 -6.8,-15.76 0,-14.1 8.62,-30.55 19.21,-36.67 4.72,-2.72 9.3,-3.08 12.9,-1 4.32,2.5 6.8,8.25 6.8,15.77 0,14.1 -8.62,30.55 -19.21,36.66 a 15.68,15.68 0 0 1 -7.78,2.34 z m 15.07,-55.12 a 14.75,14.75 0 0 0 -7.29,2.21 c -10.32,6 -18.72,22 -18.72,35.81 0,7.16 2.3,12.6 6.31,14.91 3.29,1.9 7.52,1.54 11.92,-1 10.32,-6 18.72,-22 18.72,-35.81 0,-7.16 -2.3,-12.6 -6.31,-14.91 a 9.07,9.07 0 0 0 -4.63,-1.21 z"
           style="fill:#e0e0e0"
           id="el50ubfgff9an"
           class="animable" />
      </g>
      <g
         id="freepik--speech-bubble--inject-2"
         class="animable">
        <path
           d="m 353.47,140.92 a 1.77,1.77 0 0 1 -0.87,-0.23 2.13,2.13 0 0 1 -0.94,-2 v -20.32 a 5.74,5.74 0 0 1 2.63,-4.56 L 386.85,95 a 1.93,1.93 0 0 1 3.15,1.82 v 20.35 a 5.75,5.75 0 0 1 -2.63,4.56 l -4.82,2.78 -3.26,11.07 a 1.12,1.12 0 0 1 -1,0.82 1.14,1.14 0 0 1 -1.12,-0.69 l -2.8,-6.46 -19.54,11.27 a 2.67,2.67 0 0 1 -1.36,0.4 z m 33.87,-45.06 -32.56,18.8 a 4.82,4.82 0 0 0 -2.14,3.71 v 20.35 a 1,1 0 0 0 1.65,0.95 l 20.49,-11.83 3.24,7.48 a 0.16,0.16 0 0 0 0.16,0.1 0.16,0.16 0 0 0 0.14,-0.12 l 3.36,-11.44 5.17,-3 a 4.81,4.81 0 0 0 2.14,-3.7 V 96.82 a 1,1 0 0 0 -1.65,-1 z"
           style="fill:#6e7f9c;fill-opacity:1"
           id="elbr16u7nz7p9"
           class="animable" />
        <path
           d="m 359.62,120.39 a 0.49,0.49 0 0 1 -0.25,-0.92 l 22.4,-12.93 a 0.4905609,0.4905609 0 1 1 0.49,0.85 l -22.4,12.93 a 0.42,0.42 0 0 1 -0.24,0.07 z"
           style="fill:#6e7f9c;fill-opacity:1"
           id="ellwqe3ix0vz7"
           class="animable" />
        <path
           d="m 359.62,124.72 a 0.49,0.49 0 0 1 -0.25,-0.91 l 22.4,-12.94 a 0.5,0.5 0 0 1 0.67,0.18 0.49,0.49 0 0 1 -0.18,0.68 l -22.4,12.93 a 0.5,0.5 0 0 1 -0.24,0.06 z"
           style="fill:#6e7f9c;fill-opacity:1"
           id="el94ya58thzue"
           class="animable" />
        <path
           d="m 359.62,129.06 a 0.51,0.51 0 0 1 -0.43,-0.24 0.5,0.5 0 0 1 0.18,-0.68 l 22.4,-12.93 a 0.5,0.5 0 0 1 0.67,0.18 0.48,0.48 0 0 1 -0.18,0.67 L 359.86,129 a 0.5,0.5 0 0 1 -0.24,0.06 z"
           style="fill:#6e7f9c;fill-opacity:1"
           id="elxz3b9f5bkuf"
           class="animable" />
      </g>
      <g
         id="g9"
         class="animable">
        <path
           d="m 346.83,255.91 a 0.5,0.5 0 0 1 -0.24,-0.06 0.48,0.48 0 0 1 -0.25,-0.43 v -9.23 a 0.48,0.48 0 0 1 0.25,-0.43 l 8,-4.61 a 0.5,0.5 0 0 1 0.74,0.42 v 9.24 a 0.48,0.48 0 0 1 -0.25,0.42 l -8,4.62 a 0.54,0.54 0 0 1 -0.25,0.06 z m 0.49,-9.44 v 8.1 l 7,-4 v -8.09 z"
           style="fill:#6e7f9c;fill-opacity:1"
           id="elrgt5uztwfeh"
           class="animable" />
        <path
           id="path7"
           d="m 355.76,239.26 a 1,1 0 0 0 -1.27,0.52 l -3.66,8.72 -0.87,-0.85 A 1,1 0 0 0 348.6,249 l 1.9,1.84 a 0.94,0.94 0 0 0 0.67,0.27 0.68,0.68 0 0 0 0.2,0 1,1 0 0 0 0.7,-0.57 l 4.21,-10 a 1,1 0 0 0 -0.52,-1.28 z"
           style="fill:#ec416c;fill-opacity:1"
           class="animable" />
        <path
           d="m 361.62,240.88 29.42,-17 c 0.71,-0.41 1.28,-0.12 1.28,0.65 a 2.74,2.74 0 0 1 -1.28,2.13 l -29.42,17 c -0.7,0.41 -1.28,0.11 -1.28,-0.65 a 2.75,2.75 0 0 1 1.28,-2.13 z"
           style="fill:#a1b6c1;fill-opacity:1"
           id="ellv1sl32b1qf"
           class="animable" />
        <path
           d="m 346.83,269.76 a 0.57,0.57 0 0 1 -0.25,-0.06 0.5,0.5 0 0 1 -0.24,-0.43 V 260 a 0.5,0.5 0 0 1 0.24,-0.43 l 8,-4.61 a 0.48,0.48 0 0 1 0.49,0 0.47,0.47 0 0 1 0.25,0.42 v 9.23 a 0.48,0.48 0 0 1 -0.25,0.43 l -8,4.62 a 0.54,0.54 0 0 1 -0.24,0.1 z m 0.49,-9.44 v 8.1 l 7,-4.05 v -8.1 z"
           style="fill:#6e7f9c;fill-opacity:1"
           id="elf84hg7fgevg"
           class="animable" />
        <path
           id="path8"
           d="m 355.76,253.11 a 1,1 0 0 0 -1.27,0.52 l -3.66,8.72 -0.87,-0.85 a 1,1 0 0 0 -1.36,1.39 l 1.9,1.84 a 1,1 0 0 0 0.67,0.27 0.68,0.68 0 0 0 0.2,0 1,1 0 0 0 0.7,-0.57 l 4.21,-10 a 1,1 0 0 0 -0.52,-1.32 z"
           style="fill:#ec416c;fill-opacity:1"
           class="animable" />
        <path
           d="m 361.62,254.68 29.42,-17 c 0.71,-0.4 1.28,-0.11 1.28,0.66 a 2.74,2.74 0 0 1 -1.28,2.13 l -29.42,17 c -0.7,0.41 -1.28,0.12 -1.28,-0.65 a 2.77,2.77 0 0 1 1.28,-2.14 z"
           style="fill:#9fb5bf;fill-opacity:1"
           id="el4c5c890zbfn"
           class="animable" />
        <path
           d="m 346.83,283.61 a 0.49,0.49 0 0 1 -0.49,-0.49 v -9.23 a 0.5,0.5 0 0 1 0.24,-0.43 l 8,-4.61 a 0.48,0.48 0 0 1 0.49,0 0.47,0.47 0 0 1 0.25,0.42 v 9.23 a 0.48,0.48 0 0 1 -0.25,0.43 l -8,4.61 a 0.45,0.45 0 0 1 -0.24,0.07 z m 0.49,-9.44 v 8.1 l 7,-4 v -8.1 z"
           style="fill:#6e7f9c;fill-opacity:1"
           id="elgzkdr26rh9"
           class="animable" />
        <path
           id="path9"
           d="m 355.76,267 a 1,1 0 0 0 -1.27,0.51 l -3.66,8.72 -0.87,-0.84 a 1,1 0 0 0 -1.36,1.39 l 1.9,1.84 a 1,1 0 0 0 0.67,0.27 h 0.2 a 1,1 0 0 0 0.7,-0.57 l 4.21,-10 A 1,1 0 0 0 355.76,267 Z"
           style="fill:#ec416c;fill-opacity:1"
           class="animable" />
        <path
           d="m 361.62,268.49 29.42,-17 c 0.71,-0.41 1.28,-0.12 1.28,0.65 a 2.74,2.74 0 0 1 -1.28,2.13 l -29.42,17 c -0.7,0.41 -1.28,0.11 -1.28,-0.65 a 2.75,2.75 0 0 1 1.28,-2.13 z"
           style="fill:#9cb1bb;fill-opacity:1"
           id="elcvi2rg0m34w"
           class="animable" />
      </g>
    </g>
  </g>
  <g
     id="g14"
     class="animable"
     transform="translate(5.3954391,-1.9661247)">
    <g
       id="freepik--speech-bubbles--inject-2"
       class="animable">
      <path
         d="m 177.58,105.55 a 1.92,1.92 0 0 1 -0.91,-0.23 2.27,2.27 0 0 1 -1,-2.09 V 81.44 a 6.12,6.12 0 0 1 2.8,-4.85 l 34.86,-20.13 a 2,2 0 0 1 3.3,1.9 v 21.79 a 6.12,6.12 0 0 1 -2.8,4.86 l -5.18,3 -3.49,11.86 a 1.19,1.19 0 0 1 -2.23,0.14 l -3,-7 -20.93,12.13 a 2.86,2.86 0 0 1 -1.42,0.41 z M 213.84,57.31 179,77.44 a 5.2,5.2 0 0 0 -2.31,4 v 21.79 a 1.36,1.36 0 0 0 0.51,1.23 1.33,1.33 0 0 0 1.31,-0.18 l 21.91,-12.64 3.45,8 a 0.19,0.19 0 0 0 0.2,0.12 0.19,0.19 0 0 0 0.19,-0.14 l 3.59,-12.25 5.52,-3.18 a 5.19,5.19 0 0 0 2.31,-4 V 58.36 a 1.08,1.08 0 0 0 -1.81,-1 z"
         style="fill:#6e7f9c;fill-opacity:1"
         id="elqjec22pvlzp"
         class="animable" />
      <path
         d="m 184.17,83.57 a 0.51,0.51 0 0 1 -0.43,-0.24 0.49,0.49 0 0 1 0.18,-0.68 l 24,-13.85 a 0.5,0.5 0 0 1 0.5,0.86 l -24,13.85 a 0.53,0.53 0 0 1 -0.25,0.06 z"
         style="fill:#6e7f9c;fill-opacity:1"
         id="el2pws3y19q0c"
         class="animable" />
      <path
         d="m 184.17,88.21 a 0.49,0.49 0 0 1 -0.43,-0.24 0.48,0.48 0 0 1 0.18,-0.67 l 24,-13.85 a 0.49,0.49 0 0 1 0.68,0.18 0.5,0.5 0 0 1 -0.18,0.67 l -24,13.85 a 0.53,0.53 0 0 1 -0.25,0.06 z"
         style="fill:#6e7f9c;fill-opacity:1"
         id="elba5golq82as"
         class="animable" />
      <path
         d="m 184.17,92.86 a 0.5,0.5 0 0 1 -0.43,-0.25 0.48,0.48 0 0 1 0.18,-0.67 l 24,-13.85 a 0.5,0.5 0 1 1 0.5,0.86 l -24,13.84 a 0.44,0.44 0 0 1 -0.25,0.07 z"
         style="fill:#6e7f9c;fill-opacity:1"
         id="el3ggbsephksc"
         class="animable" />
      <path
         d="m 144.16,104.38 a 1.82,1.82 0 0 1 -0.91,-0.24 2.26,2.26 0 0 1 -1,-2.08 V 80.27 a 6.1,6.1 0 0 1 2.8,-4.85 l 34.86,-20.13 a 2,2 0 0 1 3.3,1.9 V 71 a 0.5,0.5 0 0 1 -0.5,0.49 v 0 A 0.49,0.49 0 0 1 182.22,71 V 57.19 a 1.36,1.36 0 0 0 -0.5,-1.23 1.38,1.38 0 0 0 -1.32,0.18 l -34.85,20.13 a 5.18,5.18 0 0 0 -2.31,4 v 21.79 a 1.08,1.08 0 0 0 1.82,1 L 172.45,87.3 a 0.49,0.49 0 0 1 0.68,0.18 0.5,0.5 0 0 1 -0.18,0.67 L 145.55,104 a 2.78,2.78 0 0 1 -1.39,0.38 z"
         style="fill:#6e7f9c;fill-opacity:1"
         id="elpvw1k3jb33"
         class="animable" />
      <path
         d="m 150.74,82.4 a 0.49,0.49 0 0 1 -0.24,-0.92 l 24,-13.85 a 0.51,0.51 0 0 1 0.68,0.18 0.5,0.5 0 0 1 -0.18,0.67 l -24,13.85 a 0.45,0.45 0 0 1 -0.26,0.07 z"
         style="fill:#6e7f9c;fill-opacity:1"
         id="el55j2aoywxgx"
         class="animable" />
      <path
         d="m 150.74,87 a 0.49,0.49 0 0 1 -0.24,-0.92 l 24,-13.84 a 0.49,0.49 0 0 1 0.68,0.18 0.5,0.5 0 0 1 -0.18,0.67 L 151,87 a 0.54,0.54 0 0 1 -0.26,0 z"
         style="fill:#6e7f9c;fill-opacity:1"
         id="elpfv66fli6j"
         class="animable" />
      <path
         d="m 150.74,91.69 a 0.49,0.49 0 0 1 -0.24,-0.92 l 21.43,-12.4 a 0.48,0.48 0 0 1 0.67,0.18 0.5,0.5 0 0 1 -0.18,0.67 L 151,91.62 a 0.45,0.45 0 0 1 -0.26,0.07 z"
         style="fill:#6e7f9c;fill-opacity:1"
         id="elj2ijptrduo"
         class="animable" />
    </g>
    <g
       id="g13"
       class="animable">
      <g
         id="g12"
         class="animable">
        <path
           d="m 64.33,130.09 -2.43,-4.57 2,-5.64 v -3.46 l -6,3.46 v 3.45 l 2.57,4.45 a 0.39,0.39 0 0 0 0.18,0.16 v 0 z"
           style="fill:#6e7f9c;fill-opacity:1"
           id="elupahf1chywd"
           class="animable" />
        <g
           id="elvj9y0hnbjto">
          <path
             d="m 64.33,130.09 -2.43,-4.57 2,-5.64 v -3.46 l -6,3.46 v 3.45 l 2.57,4.45 a 0.39,0.39 0 0 0 0.18,0.16 v 0 z"
             style="opacity:0.2;fill:#2d79fb;fill-opacity:1"
             class="animable"
             id="el2is4nqxjnjg" />
        </g>
        <path
           d="M 79.8,95.5 A 4,4 0 0 0 78,92.39 l -1.46,-0.84 a 4,4 0 0 0 -3.59,0 L 44.43,108 a 4,4 0 0 0 -1.79,3.11 v 17.49 a 4,4 0 0 0 1.79,3.11 l 1.46,0.84 a 4,4 0 0 0 3.59,0 l 12.15,-7.07 2.56,4.52 a 0.39,0.39 0 0 0 0.7,-0.07 l 2.71,-7.83 10.41,-6 A 4,4 0 0 0 79.8,113 Z"
           style="fill:#505cd6;fill-opacity:1"
           id="el7ccntklocqg"
           class="animable" />
        <g
           id="elsj020rlo8k">
          <path
             d="m 42.64,128.62 a 4,4 0 0 0 1.79,3.11 l 1.46,0.84 a 4,4 0 0 0 3.28,0.15 c -0.84,0.32 -1.49,-0.16 -1.49,-1.18 V 114 a 3.59,3.59 0 0 1 0.53,-1.76 l -5.05,-2.92 a 3.75,3.75 0 0 0 -0.52,1.77 z"
             style="opacity:0.2;fill:#2d79fb;fill-opacity:1"
             class="animable"
             id="elj1zjbjd86n9" />
        </g>
        <g
           id="elwf5doa7fcp">
          <path
             d="m 79.74,95 c -0.21,-0.76 -0.9,-1 -1.73,-0.53 l -28.53,16.47 a 3.5,3.5 0 0 0 -1.27,1.34 l -5,-2.91 A 3.55,3.55 0 0 1 44.43,108 L 73,91.55 a 4,4 0 0 1 3.59,0 L 78,92.4 a 3.9,3.9 0 0 1 1.74,2.6 z"
             style="opacity:0.4;fill:#ffffff"
             class="animable"
             id="el9zfrkb9u6b" />
        </g>
      </g>
      <path
         d="M 55,115.82 A 5.3,5.3 0 0 0 52.58,120 c 0,1.53 1.07,2.14 2.39,1.38 a 5.29,5.29 0 0 0 2.39,-4.14 c 0,-1.56 -1.07,-2.18 -2.36,-1.42 z"
         style="fill:#ffffff"
         id="elf57pesophl"
         class="animable" />
      <path
         d="m 63.8,110.72 a 5.27,5.27 0 0 0 -2.4,4.14 c 0,1.53 1.07,2.15 2.4,1.39 a 5.3,5.3 0 0 0 2.39,-4.15 c 0,-1.53 -1.07,-2.1 -2.39,-1.38 z"
         style="fill:#ffffff"
         id="eldxq76bsdqii"
         class="animable" />
      <path
         d="m 72.62,105.61 a 5.3,5.3 0 0 0 -2.39,4.15 c 0,1.53 1.07,2.14 2.39,1.38 A 5.29,5.29 0 0 0 75,107 c 0,-1.53 -1.06,-2.15 -2.38,-1.39 z"
         style="fill:#ffffff"
         id="elujebl1ry5mo"
         class="animable" />
    </g>
  </g>
  <g
     id="freepik--character-1--inject-2"
     class="animable"
     transform="translate(-148.87934,18.371798)">
    <g
       id="freepik--character--inject-2"
       class="animable"
       style="display:inline">
      <polygon
         points="432.66,189.56 421.18,191.62 422.38,204.11 433.55,203.42 "
         style="fill:#ffa8a7"
         id="elc417y41y86"
         class="animable" />
      <path
         d="m 435.38,197.15 c 6.08,-1.29 8.76,2.35 11.43,8.86 2.67,6.51 9.51,20.86 10.62,25.21 0.5,1.95 -15.79,21.43 -15.26,21.17 0.16,-0.08 -4.82,-8.41 -4.82,-8.41 L 446.42,231.22 440,221 Z"
         style="fill:#ffa8a7"
         id="el3rpmagkyghg"
         class="animable" />
      <path
         d="m 464,343.53 c -1.25,-3.85 -5.95,-18.55 -7.58,-22.74 -2.58,-6.64 -4.24,-10.16 -9.66,-13.56 0,0 0.29,-33.18 0,-45 -0.37,-15.12 -3.71,-20.19 -3.71,-20.19 l -35,2 c 0,0 -3,25.77 -3.56,37.64 -0.67,13.37 -0.67,17.57 -0.34,24.86 0.21,4.58 0.86,8.76 1.21,15.72 0.35,6.96 2.44,41.74 2.44,41.74 l 0.05,-0.08 A 9,9 0 0 0 408,365 c 0.32,1.25 1.67,2.67 4.14,2.72 3.51,0.07 4.62,-1.68 4.81,-2.81 0,-0.19 0.07,-0.41 0.1,-0.64 h 0.06 c 0,0 2.6,-14.83 4.32,-26.14 a 106.61,106.61 0 0 0 1.45,-15.78 58.75,58.75 0 0 0 -1.53,-9.66 l 5,-32.51 c 0,0 4.29,27.68 5,30.33 0.48,1.85 11.9,19.51 18.77,30 v 0 c 3,4.57 9.75,14.56 10.18,15.12 1.49,2 6.48,-5.17 6.48,-5.17 z"
         style="fill:#ffa8a7"
         id="el0sr5ad3oocf"
         class="animable" />
      <path
         d="m 457.71,351.85 c 3.61,4.92 5.56,17.95 4.51,19.88 -1.05,1.93 4.18,0 4.9,-2.92 0.72,-2.92 0.85,-17.19 0.85,-17.19 z"
         style="fill:#ffa8a7"
         id="elzhfo1gx9grr"
         class="animable" />
      <path
         d="m 407.74,363.41 c -0.08,3.81 -2.65,13.7 -6.37,14.87 -3.72,1.17 1.67,3.89 4.49,2.83 2.82,-1.06 7.09,-9.5 9.28,-11.59 2.19,-2.09 2.32,-7.4 2.32,-7.4 z"
         style="fill:#ffa8a7"
         id="elexcvsbnai7n"
         class="animable" />
      <path
         d="m 407.76,239.9 c 0,0 -1.22,3.85 -2.39,18 -1.17,14.15 -3.49,34.18 -3.65,42.19 0,0 6.18,-1.55 8.8,-7.2 0,0 4.36,9.43 14.55,11.5 10.19,2.07 20.42,-0.69 22.44,-6.76 -0.06,-0.66 0.26,-32.59 0,-40 -0.26,-7.41 -3.1,-13.67 -5.91,-19.93 z"
         style="fill:#37474f"
         id="elc61l9328zj"
         class="animable" />
      <path
         d="m 405.86,384.81 c 0,0 0.84,1.48 5.39,-0.43 4.55,-1.91 5.84,-4.19 5.84,-4.19 0,0 -1.18,-9.15 -4,-6.85 -2.82,2.3 -7.23,11.47 -7.23,11.47 z"
         style="fill:#6e7f9c;fill-opacity:1"
         id="elx9bkpz2foc"
         class="animable" />
      <g
         id="el7qrusv2lbr">
        <path
           d="m 405.86,384.81 c 0,0 0.84,1.48 5.39,-0.43 4.55,-1.91 5.84,-4.19 5.84,-4.19 0,0 -1.18,-9.15 -4,-6.85 -2.82,2.3 -7.23,11.47 -7.23,11.47 z"
           style="opacity:0.3;fill:#2d79fb;fill-opacity:1"
           class="animable"
           id="el5g1sr25fzq6" />
      </g>
      <path
         d="m 418.15,362.24 c -0.93,-0.49 -3.41,0.53 -4.86,1.79 -1.92,1.65 -2.38,3.88 -3.36,6.5 -1.05,2.8 -2.95,6.64 -4.48,7.5 -1.53,0.86 -4.34,0.06 -6.66,0.05 -2.32,-0.01 -4.11,1.05 -4.24,2.74 -0.06,1.33 6,4.38 9.76,4.54 3.16,0.13 4.23,0.67 6,-3.95 1.77,-4.62 2.41,-7.22 3.79,-4.08 1.38,3.14 1.9,9.67 1.9,9.67 a 2,2 0 0 0 2.79,0.07 61.27,61.27 0 0 1 0.4,-6.89 c 0.4,-2.84 1.91,-7.3 1.72,-10.72 -0.19,-3.42 -1.84,-6.76 -2.76,-7.22 z"
         style="fill:#263238"
         id="el36pcfcpsczq"
         class="animable" />
      <path
         d="m 468.75,374.21 c 0,0 1.45,0.71 4.24,-3.37 a 8,8 0 0 0 1.45,-2.7 21.36,21.36 0 0 1 -0.62,-5.62 c 0.23,-2.88 -4.85,-3.86 -5.46,-1.87 -1.06,3.48 0.39,13.56 0.39,13.56 z"
         style="fill:#6e7f9c;fill-opacity:1"
         id="el6e7kwy8jr2n"
         class="animable" />
      <g
         id="el47944cozz2a">
        <path
           d="m 468.75,374.21 c 0,0 1.45,0.71 4.24,-3.37 a 8,8 0 0 0 1.45,-2.7 21.36,21.36 0 0 1 -0.62,-5.62 c 0.23,-2.88 -4.85,-3.86 -5.46,-1.87 -1.06,3.48 0.39,13.56 0.39,13.56 z"
           style="opacity:0.3;fill:#2d79fb;fill-opacity:1"
           class="animable"
           id="elkuu6wwykml" />
      </g>
      <path
         d="m 466.39,348.61 c -1.05,0.11 -2.53,2.34 -3.05,4.19 -0.67,2.44 0.19,4.55 0.83,7.27 0.69,2.91 1.26,7.16 0.46,8.73 -0.8,1.57 -3.57,2.47 -5.5,3.75 -1.93,1.28 -2.83,3.16 -2,4.63 0.69,1.14 7.39,0.33 10.63,-1.66 2.7,-1.65 3.89,-1.8 2.77,-6.61 -1.12,-4.81 -2,-7.34 0.88,-5.5 2.88,1.84 7,7 7,7 a 2,2 0 0 0 2.35,-1.51 60.19,60.19 0 0 1 -3.5,-5.94 c -1.25,-2.58 -2.48,-7.13 -4.55,-9.86 -2.07,-2.73 -5.3,-4.62 -6.32,-4.49 z"
         style="fill:#263238"
         id="el4zebn9y1zvf"
         class="animable" />
      <path
         d="m 442.29,202.58 a 8.2,8.2 0 0 0 -7.63,-5.91 c 0,0 -6.72,-0.22 -11.14,0.17 a 35.56,35.56 0 0 0 -9.38,1.84 l -3.84,3.7 c -1.77,2.22 -4.93,12.19 -4.86,29.33 0,3.29 -0.41,7.32 2.32,8.19 6.41,3.56 22.26,5.15 34.22,-1.65 1.74,-1.3 1.47,-11.41 1.41,-16 -0.09,-6.14 -0.31,-17.32 -1.1,-19.67 z"
         style="fill:#505cd6;fill-opacity:1"
         id="elcvi5soc8ooc"
         class="animable" />
      <g
         id="elifw30wu6sjf"
         style="display:none">
        <path
           d="m 411.31,216 0.3,-3.73 -0.53,-0.05 -0.3,3.74 c -1,12.86 -1.66,21.58 -0.87,25 l 0.59,0.23 C 409.55,238 410.41,227.27 411.31,216 Z"
           style="opacity:0.15;fill:#2d79fb;fill-opacity:1"
           class="animable"
           id="eluxykzsx2k27" />
      </g>
      <path
         d="m 414.14,198.68 c 0,0 -2.61,0 -10.7,4.41 -5.35,2.93 -16.11,8.45 -20.58,10.54 -3.36,-2.81 -16.69,-14 -17.22,-15.06 -0.6,-1.25 0.41,-3.22 0.93,-4.32 0.52,-1.1 1.56,-3.56 2,-4.21 0.76,-1.15 -1.18,-1.27 -2.57,-0.37 -1.39,0.9 -2.45,3.07 -3.1,3.33 -0.65,0.26 -3.6,-5.56 -5,-8.37 -1.4,-2.81 -2,-4.66 -3.57,-4 -1.15,0.45 -0.86,2 0.09,4.31 a 25.87,25.87 0 0 1 1.21,3.08 c 0.09,0.4 -0.52,0.55 -0.77,0.69 -0.48,0.25 -1.32,0.65 -1.51,1.19 a 4.51,4.51 0 0 1 -0.28,0.88 c -0.35,0.61 -1.24,0.71 -1.63,1.3 -0.28,0.42 -0.23,1 -0.45,1.46 -0.13,0.29 -0.38,0.53 -0.51,0.83 a 2.24,2.24 0 0 0 0.22,1.86 c 1,2 2.77,3.17 4.37,4.66 1.34,1.24 2.84,2 4.42,3.25 1.58,1.25 18.4,21.55 22.18,22.28 a 6.51,6.51 0 0 0 3.52,-0.34 c 3.36,-1 17.44,-6.7 24.41,-9.15 5.35,-2.75 7,-3.79 8.14,-11.72 0.5,-3.89 -3.6,-6.53 -3.6,-6.53 z"
         style="fill:#ffa8a7"
         id="el3ojavth641x"
         class="animable" />
      <path
         d="m 411.34,168.3 a 2.7,2.7 0 0 1 0.33,-1.37 1.56,1.56 0 0 1 1.87,-0.75 6.14,6.14 0 0 1 -0.82,-2.11 2,2 0 0 1 0.83,-2 3.2,3.2 0 0 1 1.77,-0.25 c 3.73,0.12 7.4,-0.86 11.11,-1.31 3.71,-0.45 7.72,-0.3 10.81,1.81 a 8.67,8.67 0 0 1 3.47,4.36 5.38,5.38 0 0 1 0.35,2.54 7.1,7.1 0 0 0 -0.39,2.54 31.75,31.75 0 0 1 0.42,4.46 c 0.24,6.17 -14.08,10.18 -13.8,14.41 l -7.63,-9.29 c 0,-0.39 -1.08,-1.35 -1.32,-1.68 -0.46,-0.61 -0.87,-1.26 -1.29,-1.9 -1.88,-2.87 -5.1,-5.11 -5.64,-8.69 a 5,5 0 0 1 -0.07,-0.77 z"
         style="fill:#263238"
         id="eld2lqg6kp43f"
         class="animable" />
      <path
         d="m 412.9,177.9 c 0,0 -2.48,3.68 -2.15,4.07 a 5.88,5.88 0 0 0 1.89,0.8 z"
         style="fill:#f28f8f"
         id="elp5tt2clg56"
         class="animable" />
      <path
         d="m 420.46,166.26 c -2.41,1.22 -6.56,3.48 -7.63,12.18 -1.1,8.94 0.92,12 2.16,13.21 0.84,0.79 5.16,1.08 7.41,0.39 2.82,-0.86 8.92,-3.82 11.78,-8.43 3.37,-5.43 4.07,-12.66 0.18,-15.5 -5.47,-3.99 -11.87,-2.88 -13.9,-1.85 z"
         style="fill:#ffa8a7"
         id="elsfcwi0gu0rc"
         class="animable" />
      <path
         d="m 415.23,191.81 c 1,0.56 3.88,0.79 6,0.48 l -0.07,-1.61 a 15.11,15.11 0 0 1 -2.85,0.93 9.94,9.94 0 0 1 -3.08,0.2 z"
         style="fill:#f28f8f"
         id="elxvj6by5pz7o"
         class="animable" />
      <path
         d="m 448.71,164.38 a 6.74,6.74 0 0 0 -9.07,-2.94 c -2,1 -2.2,2.4 -1.64,4.07 a 11.1,11.1 0 0 0 -2,-1.07 9.49,9.49 0 0 0 -1,-0.3 20.83,20.83 0 0 0 -9.74,-0.21 21.2,21.2 0 0 0 -4.65,1.56 l -1.14,0.51 a 9.3,9.3 0 0 0 -2.8,1.61 3.83,3.83 0 0 0 -1,1.27 3.06,3.06 0 0 0 -0.2,1.44 3.85,3.85 0 0 0 2.25,3.1 3.75,3.75 0 0 0 -0.61,3.11 7.49,7.49 0 0 0 2.21,3.18 0.46,0.46 0 0 0 0.18,0.13 0.5,0.5 0 0 0 0.4,-0.12 c 1.51,-1 2.44,-2.75 4.57,-2.05 2.8,0.92 2.77,5.51 0.35,7.14 a 2.19,2.19 0 0 1 -2.38,0.08 c 0,0 0.75,6.94 -1,8.82 -1.9,2.07 -5.26,1.34 -5.26,1.34 0,0 1.57,7.63 13,6.48 9.66,-1 10.17,-7 10.17,-7 a 6.78,6.78 0 0 1 -2.32,6.05 c 0,0 7.22,0.68 9.42,-4.81 1.65,-4.11 -2.06,-6.87 -3,-12.08 -0.38,-2.12 0.51,-6.32 0.35,-9.73 a 3.71,3.71 0 0 0 2,-0.5 6.73,6.73 0 0 0 2.91,-9.08 z"
         style="fill:#263238"
         id="el4gyv4cyensv"
         class="animable" />
      <path
         d="m 419.08,182.86 a 2.06,2.06 0 0 1 -1.27,-2.66 2.13,2.13 0 0 1 2.71,-1.25 z"
         style="fill:#263238"
         id="elw3egai57czq"
         class="animable" />
    </g>
  </g>
  <defs
     id="defs17">
    <filter
       id="active"
       height="200%">
      <feMorphology
         in="SourceAlpha"
         result="DILATED"
         operator="dilate"
         radius="2"
         id="feMorphology14" />
      <feFlood
         flood-color="#32DFEC"
         flood-opacity="1"
         result="PINK"
         id="feFlood14" />
      <feComposite
         in="PINK"
         in2="DILATED"
         operator="in"
         result="OUTLINE"
         id="feComposite14" />
      <feMerge
         id="feMerge15">
        <feMergeNode
           in="OUTLINE"
           id="feMergeNode14" />
        <feMergeNode
           in="SourceGraphic"
           id="feMergeNode15" />
      </feMerge>
    </filter>
    <filter
       id="hover"
       height="200%">
      <feMorphology
         in="SourceAlpha"
         result="DILATED"
         operator="dilate"
         radius="2"
         id="feMorphology15" />
      <feFlood
         flood-color="#ff0000"
         flood-opacity="0.5"
         result="PINK"
         id="feFlood15" />
      <feComposite
         in="PINK"
         in2="DILATED"
         operator="in"
         result="OUTLINE"
         id="feComposite15" />
      <feMerge
         id="feMerge17">
        <feMergeNode
           in="OUTLINE"
           id="feMergeNode16" />
        <feMergeNode
           in="SourceGraphic"
           id="feMergeNode17" />
      </feMerge>
      <feColorMatrix
         type="matrix"
         values="0   0   0   0   0                0   1   0   0   0                0   0   0   0   0                0   0   0   1   0 "
         id="feColorMatrix17" />
    </filter>
  </defs>
</svg>
