<svg width="192" height="178" viewBox="0 0 192 178" fill="none" xmlns="http://www.w3.org/2000/svg">
<path d="M137.67 85.5C139.594 82.1667 144.406 82.1667 146.33 85.5L180.971 145.5C182.896 148.833 180.49 153 176.641 153H107.359C103.51 153 101.104 148.833 103.029 145.5L137.67 85.5Z" fill="#77ABFF"/>
<path d="M137.67 85.5C139.594 82.1667 144.406 82.1667 146.33 85.5L180.971 145.5C182.896 148.833 180.49 153 176.641 153H107.359C103.51 153 101.104 148.833 103.029 145.5L137.67 85.5Z" fill="#77ABFF"/>
<path d="M100.367 138.165C98.4605 141.586 93.5395 141.586 91.6327 138.165L63.7712 88.1845C61.9134 84.8517 64.3229 80.75 68.1385 80.75H123.861C127.677 80.75 130.087 84.8517 128.229 88.1845L100.367 138.165Z" fill="#EDF4FF"/>
<path d="M100.367 138.165C98.4605 141.586 93.5395 141.586 91.6327 138.165L63.7712 88.1845C61.9134 84.8517 64.3229 80.75 68.1385 80.75H123.861C127.677 80.75 130.087 84.8517 128.229 88.1845L100.367 138.165Z" fill="#C8DAF7"/>
<path d="M45.6699 85.5C47.5944 82.1667 52.4056 82.1667 54.3301 85.5L88.9711 145.5C90.8956 148.833 88.49 153 84.641 153H15.359C11.51 153 9.10436 148.833 11.0289 145.5L45.6699 85.5Z" fill="#77ABFF"/>
<path d="M45.6699 85.5C47.5944 82.1667 52.4056 82.1667 54.3301 85.5L88.9711 145.5C90.8956 148.833 88.49 153 84.641 153H15.359C11.51 153 9.10436 148.833 11.0289 145.5L45.6699 85.5Z" fill="#0054C9"/>
<path d="M91.6699 7.5C93.5944 4.16667 98.4056 4.16667 100.33 7.5L134.971 67.5C136.896 70.8333 134.49 75 130.641 75H61.359C57.51 75 55.1044 70.8333 57.0289 67.5L91.6699 7.5Z" fill="#F23665"/>
<path d="M91.6699 7.5C93.5944 4.16667 98.4056 4.16667 100.33 7.5L134.971 67.5C136.896 70.8333 134.49 75 130.641 75H61.359C57.51 75 55.1044 70.8333 57.0289 67.5L91.6699 7.5Z" fill="#F23665"/>
<path d="M87.875 58.5C86.6667 58.5 85.6354 58.0729 84.7812 57.2188C83.9271 56.3646 83.5 55.3333 83.5 54.125C83.5 52.9167 83.9271 51.8854 84.7812 51.0312C85.6354 50.1771 86.6667 49.75 87.875 49.75C88.25 49.75 88.6146 49.7969 88.9688 49.8906C89.3229 49.9844 89.6562 50.1146 89.9688 50.2812L94.75 45.5V42.0625C93.8333 41.7917 93.0833 41.276 92.5 40.5156C91.9167 39.7552 91.625 38.875 91.625 37.875C91.625 36.6667 92.0521 35.6354 92.9062 34.7812C93.7604 33.9271 94.7917 33.5 96 33.5C97.2083 33.5 98.2396 33.9271 99.0938 34.7812C99.9479 35.6354 100.375 36.6667 100.375 37.875C100.375 38.875 100.083 39.7552 99.5 40.5156C98.9167 41.276 98.1667 41.7917 97.25 42.0625V45.5L102.062 50.2812C102.375 50.1146 102.703 49.9844 103.047 49.8906C103.391 49.7969 103.75 49.75 104.125 49.75C105.333 49.75 106.365 50.1771 107.219 51.0312C108.073 51.8854 108.5 52.9167 108.5 54.125C108.5 55.3333 108.073 56.3646 107.219 57.2188C106.365 58.0729 105.333 58.5 104.125 58.5C102.917 58.5 101.885 58.0729 101.031 57.2188C100.177 56.3646 99.75 55.3333 99.75 54.125C99.75 53.75 99.7969 53.3854 99.8906 53.0312C99.9844 52.6771 100.115 52.3438 100.281 52.0312L96 47.75L91.7188 52.0312C91.8854 52.3438 92.0156 52.6771 92.1094 53.0312C92.2031 53.3854 92.25 53.75 92.25 54.125C92.25 55.3333 91.8229 56.3646 90.9688 57.2188C90.1146 58.0729 89.0833 58.5 87.875 58.5ZM104.125 56C104.646 56 105.089 55.8177 105.453 55.4531C105.818 55.0885 106 54.6458 106 54.125C106 53.6042 105.818 53.1615 105.453 52.7969C105.089 52.4323 104.646 52.25 104.125 52.25C103.604 52.25 103.161 52.4323 102.797 52.7969C102.432 53.1615 102.25 53.6042 102.25 54.125C102.25 54.6458 102.432 55.0885 102.797 55.4531C103.161 55.8177 103.604 56 104.125 56ZM96 39.75C96.5208 39.75 96.9635 39.5677 97.3281 39.2031C97.6927 38.8385 97.875 38.3958 97.875 37.875C97.875 37.3542 97.6927 36.9115 97.3281 36.5469C96.9635 36.1823 96.5208 36 96 36C95.4792 36 95.0365 36.1823 94.6719 36.5469C94.3073 36.9115 94.125 37.3542 94.125 37.875C94.125 38.3958 94.3073 38.8385 94.6719 39.2031C95.0365 39.5677 95.4792 39.75 96 39.75ZM87.875 56C88.3958 56 88.8385 55.8177 89.2031 55.4531C89.5677 55.0885 89.75 54.6458 89.75 54.125C89.75 53.6042 89.5677 53.1615 89.2031 52.7969C88.8385 52.4323 88.3958 52.25 87.875 52.25C87.3542 52.25 86.9115 52.4323 86.5469 52.7969C86.1823 53.1615 86 53.6042 86 54.125C86 54.6458 86.1823 55.0885 86.5469 55.4531C86.9115 55.8177 87.3542 56 87.875 56Z" fill="white"/>
<path d="M47.1875 135.25C46.125 135.25 45.2083 134.88 44.4375 134.141C43.6667 133.401 43.2292 132.51 43.125 131.469C41.875 131.302 40.8333 130.75 40 129.812C39.1667 128.875 38.75 127.771 38.75 126.5C38.75 126.062 38.8073 125.63 38.9219 125.203C39.0365 124.776 39.2083 124.375 39.4375 124C39.2083 123.625 39.0365 123.229 38.9219 122.812C38.8073 122.396 38.75 121.958 38.75 121.5C38.75 120.229 39.1667 119.13 40 118.203C40.8333 117.276 41.8646 116.729 43.0938 116.562C43.1562 115.5 43.5833 114.599 44.375 113.859C45.1667 113.12 46.1042 112.75 47.1875 112.75C47.7292 112.75 48.2344 112.854 48.7031 113.062C49.1719 113.271 49.6042 113.552 50 113.906C50.375 113.552 50.8021 113.271 51.2812 113.062C51.7604 112.854 52.2708 112.75 52.8125 112.75C53.8958 112.75 54.8281 113.115 55.6094 113.844C56.3906 114.573 56.8125 115.469 56.875 116.531C58.1042 116.698 59.1406 117.25 59.9844 118.188C60.8281 119.125 61.25 120.229 61.25 121.5C61.25 121.958 61.1927 122.396 61.0781 122.812C60.9635 123.229 60.7917 123.625 60.5625 124C60.7917 124.375 60.9635 124.776 61.0781 125.203C61.1927 125.63 61.25 126.062 61.25 126.5C61.25 127.792 60.8281 128.901 59.9844 129.828C59.1406 130.755 58.0938 131.302 56.8438 131.469C56.7396 132.51 56.3073 133.401 55.5469 134.141C54.7865 134.88 53.875 135.25 52.8125 135.25C52.2917 135.25 51.7865 135.151 51.2969 134.953C50.8073 134.755 50.375 134.479 50 134.125C49.6042 134.479 49.1667 134.755 48.6875 134.953C48.2083 135.151 47.7083 135.25 47.1875 135.25ZM51.25 116.812V131.188C51.25 131.625 51.401 131.995 51.7031 132.297C52.0052 132.599 52.375 132.75 52.8125 132.75C53.2292 132.75 53.5885 132.583 53.8906 132.25C54.1927 131.917 54.3542 131.542 54.375 131.125C53.9375 130.958 53.5365 130.734 53.1719 130.453C52.8073 130.172 52.4792 129.833 52.1875 129.438C51.9792 129.146 51.901 128.833 51.9531 128.5C52.0052 128.167 52.1771 127.896 52.4688 127.688C52.7604 127.479 53.0729 127.401 53.4062 127.453C53.7396 127.505 54.0104 127.677 54.2188 127.969C54.4479 128.302 54.7396 128.557 55.0938 128.734C55.4479 128.911 55.8333 129 56.25 129C56.9375 129 57.526 128.755 58.0156 128.266C58.5052 127.776 58.75 127.188 58.75 126.5C58.75 126.396 58.7448 126.292 58.7344 126.188C58.724 126.083 58.6979 125.979 58.6562 125.875C58.3021 126.083 57.9219 126.24 57.5156 126.344C57.1094 126.448 56.6875 126.5 56.25 126.5C55.8958 126.5 55.599 126.38 55.3594 126.141C55.1198 125.901 55 125.604 55 125.25C55 124.896 55.1198 124.599 55.3594 124.359C55.599 124.12 55.8958 124 56.25 124C56.9375 124 57.526 123.755 58.0156 123.266C58.5052 122.776 58.75 122.188 58.75 121.5C58.75 120.812 58.5052 120.229 58.0156 119.75C57.526 119.271 56.9375 119.021 56.25 119C56.0208 119.375 55.724 119.703 55.3594 119.984C54.9948 120.266 54.5938 120.49 54.1562 120.656C53.8229 120.781 53.5 120.771 53.1875 120.625C52.875 120.479 52.6667 120.24 52.5625 119.906C52.4583 119.573 52.474 119.25 52.6094 118.938C52.7448 118.625 52.9792 118.417 53.3125 118.312C53.625 118.208 53.8802 118.021 54.0781 117.75C54.276 117.479 54.375 117.167 54.375 116.812C54.375 116.375 54.224 116.005 53.9219 115.703C53.6198 115.401 53.25 115.25 52.8125 115.25C52.375 115.25 52.0052 115.401 51.7031 115.703C51.401 116.005 51.25 116.375 51.25 116.812ZM48.75 131.188V116.812C48.75 116.375 48.599 116.005 48.2969 115.703C47.9948 115.401 47.625 115.25 47.1875 115.25C46.75 115.25 46.3802 115.401 46.0781 115.703C45.776 116.005 45.625 116.375 45.625 116.812C45.625 117.146 45.7188 117.453 45.9062 117.734C46.0938 118.016 46.3438 118.208 46.6562 118.312C46.9896 118.417 47.2292 118.625 47.375 118.938C47.5208 119.25 47.5417 119.573 47.4375 119.906C47.3125 120.24 47.0938 120.479 46.7812 120.625C46.4688 120.771 46.1458 120.781 45.8125 120.656C45.375 120.49 44.974 120.266 44.6094 119.984C44.2448 119.703 43.9479 119.375 43.7188 119C43.0521 119.021 42.474 119.276 41.9844 119.766C41.4948 120.255 41.25 120.833 41.25 121.5C41.25 122.188 41.4948 122.776 41.9844 123.266C42.474 123.755 43.0625 124 43.75 124C44.1042 124 44.401 124.12 44.6406 124.359C44.8802 124.599 45 124.896 45 125.25C45 125.604 44.8802 125.901 44.6406 126.141C44.401 126.38 44.1042 126.5 43.75 126.5C43.3125 126.5 42.8906 126.448 42.4844 126.344C42.0781 126.24 41.6979 126.083 41.3438 125.875C41.3021 125.979 41.276 126.083 41.2656 126.188C41.2552 126.292 41.25 126.396 41.25 126.5C41.25 127.188 41.4948 127.776 41.9844 128.266C42.474 128.755 43.0625 129 43.75 129C44.1667 129 44.5521 128.911 44.9062 128.734C45.2604 128.557 45.5521 128.302 45.7812 127.969C45.9896 127.677 46.2604 127.505 46.5938 127.453C46.9271 127.401 47.2396 127.479 47.5312 127.688C47.8229 127.896 47.9948 128.167 48.0469 128.5C48.099 128.833 48.0208 129.146 47.8125 129.438C47.5208 129.833 47.1875 130.177 46.8125 130.469C46.4375 130.76 46.0312 130.99 45.5938 131.156C45.6146 131.573 45.7812 131.943 46.0938 132.266C46.4062 132.589 46.7708 132.75 47.1875 132.75C47.625 132.75 47.9948 132.599 48.2969 132.297C48.599 131.995 48.75 131.625 48.75 131.188Z" fill="white"/>
<path d="M153.5 135.25L145.625 127.375C145 127.875 144.281 128.271 143.469 128.562C142.656 128.854 141.792 129 140.875 129C138.604 129 136.682 128.214 135.109 126.641C133.536 125.068 132.75 123.146 132.75 120.875C132.75 118.604 133.536 116.682 135.109 115.109C136.682 113.536 138.604 112.75 140.875 112.75C143.146 112.75 145.068 113.536 146.641 115.109C148.214 116.682 149 118.604 149 120.875C149 121.792 148.854 122.656 148.562 123.469C148.271 124.281 147.875 125 147.375 125.625L155.25 133.5L153.5 135.25ZM140.875 126.5C142.438 126.5 143.766 125.953 144.859 124.859C145.953 123.766 146.5 122.438 146.5 120.875C146.5 119.312 145.953 117.984 144.859 116.891C143.766 115.797 142.438 115.25 140.875 115.25C139.312 115.25 137.984 115.797 136.891 116.891C135.797 117.984 135.25 119.312 135.25 120.875C135.25 122.438 135.797 123.766 136.891 124.859C137.984 125.953 139.312 126.5 140.875 126.5Z" fill="white"/>
<path d="M94.7883 94.7094L101.603 92.3113C102.003 92.2821 102.391 92.3995 102.745 92.956L105.166 100.841C105.187 101.026 104.995 101.271 104.698 101.214L94.7717 95.3521C94.4337 95.0821 94.5755 94.8473 94.7883 94.7094Z" fill="#F23665" stroke="url(#paint0_linear_5_47)" stroke-width="0.999999"/>
<path d="M103.378 92.9511L106.541 101.03C106.737 101.304 106.939 101.573 107.343 101.691C107.48 101.718 107.645 101.704 107.733 101.667C108.001 101.524 107.971 101.399 107.94 101.261L103.51 92.8775C103.485 92.822 103.36 92.7909 103.378 92.9511Z" fill="#F23665" stroke="url(#paint1_linear_5_47)" stroke-width="0.999999"/>
<path d="M93.1994 96.5132C93.2879 96.065 93.6549 96.0147 93.8616 96.0425L103.958 101.902C104.4 102.311 104.249 102.609 104.03 102.832L93.9675 108.548C93.6454 108.61 93.3011 108.427 93.2259 108.169L93.1994 96.5132Z" fill="#F23665" stroke="url(#paint2_linear_5_47)" stroke-width="0.999999"/>
<path d="M94.8042 109.026L104.452 103.497C104.847 103.378 105.057 103.47 104.999 103.871L102.706 112.48C102.42 112.892 102.08 112.863 101.741 112.798L94.8499 109.645C94.5076 109.468 94.598 109.202 94.8042 109.026Z" fill="#F23665" stroke="url(#paint3_linear_5_47)" stroke-width="0.999999"/>
<path d="M103.233 112.681L106 104.667C106.188 104.196 106.317 104.033 106.462 103.842C106.855 103.47 107.108 103.377 107.351 103.305C107.557 103.259 107.746 103.276 107.896 103.431C107.974 103.544 108.064 103.624 107.934 104.009L103.386 112.758C103.259 112.825 103.236 112.757 103.233 112.681Z" fill="#F23665" stroke="url(#paint4_linear_5_47)" stroke-width="0.999999"/>
<path d="M91.4478 92.2999L99.8434 92C100.077 92.0221 100.084 92.1362 99.8728 92.2189L93.3663 94.0121C92.9967 94.0958 92.8138 94.1142 92.3236 93.9561L91.1941 92.9465C91.101 92.7484 91.1484 92.5929 91.1983 92.4919C91.2435 92.4145 91.3248 92.3498 91.4478 92.2999Z" fill="#F23665" stroke="url(#paint5_linear_5_47)" stroke-width="0.999999"/>
<path d="M91.0293 112.562L92.3231 110.791C92.5655 110.585 92.7397 110.514 92.9346 110.487C93.1083 110.459 93.2917 110.448 93.7087 110.529L100.625 113.048C100.695 113.094 100.813 113.256 100.572 113.349L91.4733 113.089C91.1938 113.058 90.9381 112.878 91.0293 112.562Z" fill="#F23665" stroke="url(#paint6_linear_5_47)" stroke-width="0.999999"/>
<path d="M84.1007 103.025L91.3473 108.142C91.9438 108.366 92.1085 108.033 92.1947 107.746L92.0957 97.0432C92.0848 96.3912 91.6427 96.3799 91.4013 96.4788L84.3187 102.11C83.91 102.475 83.9631 102.768 84.1007 103.025Z" fill="#F23665" stroke="url(#paint7_linear_5_47)" stroke-width="0.999999"/>
<path d="M84.1721 101.056L89.005 93.0851C89.3153 92.8155 89.6698 92.8087 89.9736 92.9658L91.027 94.0981C91.1027 94.2907 91.2442 94.7576 90.9428 95.1682L84.358 101.2C84.2494 101.284 84.0628 101.32 84.1721 101.056Z" fill="#F23665" stroke="url(#paint8_linear_5_47)" stroke-width="0.999999"/>
<path d="M84.2845 104.338L88.9839 112.173C89.3474 112.61 89.7 112.521 89.9147 112.326L91.2432 110.582C91.4169 110.272 91.4208 109.843 91.1702 109.42L84.5392 104.166C84.4363 104.114 84.2194 104.048 84.2845 104.338Z" fill="#F23665" stroke="url(#paint9_linear_5_47)" stroke-width="0.999999"/>
<defs>
<linearGradient id="paint0_linear_5_47" x1="94.5073" y1="96.765" x2="105.23" y2="96.765" gradientUnits="userSpaceOnUse">
<stop stop-opacity="0"/>
<stop offset="1" stop-color="#575454"/>
</linearGradient>
<linearGradient id="paint1_linear_5_47" x1="103.314" y1="97.2692" x2="108.022" y2="97.2692" gradientUnits="userSpaceOnUse">
<stop stop-opacity="0"/>
<stop offset="1" stop-color="#555151"/>
</linearGradient>
<linearGradient id="paint2_linear_5_47" x1="93.1371" y1="102.298" x2="104.305" y2="102.298" gradientUnits="userSpaceOnUse">
<stop stop-opacity="0"/>
<stop offset="1" stop-color="#565555"/>
</linearGradient>
<linearGradient id="paint3_linear_5_47" x1="94.5588" y1="108.142" x2="105.071" y2="108.142" gradientUnits="userSpaceOnUse">
<stop stop-opacity="0"/>
<stop offset="1" stop-color="#544F4F"/>
</linearGradient>
<linearGradient id="paint4_linear_5_47" x1="103.17" y1="108.034" x2="108.062" y2="108.034" gradientUnits="userSpaceOnUse">
<stop stop-opacity="0"/>
<stop offset="1" stop-color="#5D5757"/>
</linearGradient>
<linearGradient id="paint5_linear_5_47" x1="91.0798" y1="93.0369" x2="100.087" y2="93.0369" gradientUnits="userSpaceOnUse">
<stop stop-opacity="0"/>
<stop offset="1" stop-color="#5E5454"/>
</linearGradient>
<linearGradient id="paint6_linear_5_47" x1="90.9516" y1="111.908" x2="100.778" y2="111.908" gradientUnits="userSpaceOnUse">
<stop stop-opacity="0"/>
<stop offset="1" stop-color="#5D5D5D"/>
</linearGradient>
<linearGradient id="paint7_linear_5_47" x1="83.9378" y1="102.323" x2="92.257" y2="102.323" gradientUnits="userSpaceOnUse">
<stop stop-opacity="0"/>
<stop offset="1" stop-color="#565656"/>
</linearGradient>
<linearGradient id="paint8_linear_5_47" x1="84.0767" y1="97.0627" x2="91.1893" y2="97.0627" gradientUnits="userSpaceOnUse">
<stop stop-opacity="0"/>
<stop offset="1" stop-color="#545252"/>
</linearGradient>
<linearGradient id="paint9_linear_5_47" x1="84.21" y1="108.303" x2="91.4288" y2="108.303" gradientUnits="userSpaceOnUse">
<stop stop-opacity="0"/>
<stop offset="1" stop-color="#545252"/>
</linearGradient>
</defs>
</svg>
