<?xml version="1.0" encoding="UTF-8" standalone="no"?>
<svg
   id="Layer_1"
   data-name="Layer 1"
   viewBox="0 0 501 456"
   version="1.1"
   sodipodi:docname="version-control.svg"
   inkscape:version="1.3.2 (091e20ef0f, 2023-11-25)"
   xmlns:inkscape="http://www.inkscape.org/namespaces/inkscape"
   xmlns:sodipodi="http://sodipodi.sourceforge.net/DTD/sodipodi-0.dtd"
   xmlns:xlink="http://www.w3.org/1999/xlink"
   xmlns="http://www.w3.org/2000/svg"
   xmlns:svg="http://www.w3.org/2000/svg">
  <sodipodi:namedview
     id="namedview138"
     pagecolor="#ffffff"
     bordercolor="#000000"
     borderopacity="0.25"
     inkscape:showpageshadow="2"
     inkscape:pageopacity="0.0"
     inkscape:pagecheckerboard="0"
     inkscape:deskcolor="#d1d1d1"
     inkscape:zoom="2.2035928"
     inkscape:cx="217.37228"
     inkscape:cy="234.38995"
     inkscape:window-width="1876"
     inkscape:window-height="1138"
     inkscape:window-x="0"
     inkscape:window-y="0"
     inkscape:window-maximized="1"
     inkscape:current-layer="g167" />
  <defs
     id="defs21">
    <linearGradient
       id="linearGradient166"
       inkscape:collect="always">
      <stop
         style="stop-color:#ff97d1;stop-opacity:1;"
         offset="0"
         id="stop166" />
      <stop
         style="stop-color:#f88cc8;stop-opacity:0;"
         offset="1"
         id="stop167" />
    </linearGradient>
    <linearGradient
       id="linearGradient165"
       x1="73.3889"
       y1="205.26401"
       x2="132.98399"
       y2="205.26401"
       gradientTransform="matrix(1, 0, 0, -1, 0, 456)"
       gradientUnits="userSpaceOnUse">
      <stop
         offset="0"
         stop-color="#d3daed"
         id="stop163"
         style="stop-color:#f3b1d9;stop-opacity:1;" />
      <stop
         offset="0.46000001"
         stop-color="#c2cae8"
         id="stop164"
         style="stop-color:#f5a6d7;stop-opacity:1;" />
      <stop
         offset="0.5"
         stop-color="#b8c1e4"
         id="stop165"
         style="stop-color:#f886d1;stop-opacity:1;" />
    </linearGradient>
    <linearGradient
       id="linearGradient162"
       x1="73.3889"
       y1="205.26401"
       x2="132.98399"
       y2="205.26401"
       gradientTransform="matrix(1, 0, 0, -1, 0, 456)"
       gradientUnits="userSpaceOnUse">
      <stop
         offset="0"
         stop-color="#d3daed"
         id="stop160"
         style="stop-color:#a3b0dc;stop-opacity:1;" />
      <stop
         offset="0.46000001"
         stop-color="#c2cae8"
         id="stop161"
         style="stop-color:#a3b0dc;stop-opacity:1;" />
      <stop
         offset="0.5"
         stop-color="#b8c1e4"
         id="stop162" />
    </linearGradient>
    <linearGradient
       id="linearGradient159"
       x1="411.45499"
       y1="331.42027"
       x2="253.81247"
       y2="331.42027"
       gradientTransform="matrix(1, 0, 0, -1, 0, 456)"
       gradientUnits="userSpaceOnUse">
      <stop
         offset="0"
         stop-color="#48486a"
         id="stop158"
         style="stop-color:#f6b6da;stop-opacity:1;" />
      <stop
         offset="1"
         stop-color="#5c629e"
         id="stop159" />
    </linearGradient>
    <linearGradient
       id="linear-gradient"
       x1="73.3889"
       y1="205.26401"
       x2="132.98399"
       y2="205.26401"
       gradientTransform="matrix(1, 0, 0, -1, 0, 456)"
       gradientUnits="userSpaceOnUse">
      <stop
         offset="0"
         stop-color="#d3daed"
         id="stop1" />
      <stop
         offset="0.46"
         stop-color="#c2cae8"
         id="stop2" />
      <stop
         offset="0.5"
         stop-color="#b8c1e4"
         id="stop3" />
    </linearGradient>
    <linearGradient
       id="linear-gradient-2"
       x1="431.189"
       y1="208.53074"
       x2="233.867"
       y2="208.53074"
       xlink:href="#linearGradient162" />
    <linearGradient
       id="linear-gradient-3"
       x1="411.45499"
       y1="331.42027"
       x2="253.81247"
       y2="331.42027"
       gradientTransform="matrix(1, 0, 0, -1, 0, 456)"
       gradientUnits="userSpaceOnUse">
      <stop
         offset="0"
         stop-color="#48486a"
         id="stop4" />
      <stop
         offset="1"
         stop-color="#5c629e"
         id="stop5" />
    </linearGradient>
    <linearGradient
       id="linear-gradient-4"
       x1="-17863.69922"
       y1="200.38343"
       x2="-15415.09961"
       y2="200.38343"
       xlink:href="#linear-gradient-3" />
    <linearGradient
       id="linear-gradient-5"
       x1="241.52785"
       y1="193.0597"
       x2="301.44185"
       y2="203.59269"
       gradientTransform="matrix(1,0,0,-1,0,456)"
       gradientUnits="userSpaceOnUse">
      <stop
         offset="0"
         stop-color="#d3daed"
         id="stop6" />
      <stop
         offset="0.1"
         stop-color="#cfd6ec"
         id="stop7" />
      <stop
         offset="0.17"
         stop-color="#c3cce7"
         id="stop8" />
      <stop
         offset="0.18"
         stop-color="#c3cce7"
         id="stop9" />
      <stop
         offset="0.24"
         stop-color="#c3cce7"
         id="stop10" />
      <stop
         offset="0.28"
         stop-color="#b8c2e3"
         id="stop11" />
      <stop
         offset="0.33"
         stop-color="#b1bce1"
         id="stop12" />
      <stop
         offset="0.48"
         stop-color="#aeb9df"
         id="stop13" />
      <stop
         offset="0.57"
         stop-color="#a2afdb"
         id="stop14" />
      <stop
         offset="0.68"
         stop-color="#9ba9d9"
         id="stop15" />
      <stop
         offset="1"
         stop-color="#99a7d8"
         id="stop16" />
    </linearGradient>
    <linearGradient
       id="linear-gradient-6"
       x1="204.66701"
       y1="385.87448"
       x2="70.125"
       y2="385.87448"
       gradientTransform="matrix(1, 0, 0, -1, 0, 456)"
       gradientUnits="userSpaceOnUse">
      <stop
         offset="0"
         stop-color="#d3daed"
         id="stop17" />
      <stop
         offset="1"
         stop-color="#b8c1e4"
         id="stop18" />
    </linearGradient>
    <linearGradient
       id="linear-gradient-7"
       x1="89.3029"
       y1="368.05383"
       x2="34.5703"
       y2="368.05383"
       xlink:href="#linear-gradient-6" />
    <radialGradient
       id="radial-gradient"
       cx="169.18057"
       cy="270.50559"
       r="1"
       gradientTransform="matrix(8.2631,4.77035,-8.2631,4.77035,992.78807,-1856.5074)"
       gradientUnits="userSpaceOnUse">
      <stop
         offset="0"
         stop-color="#ffd900"
         id="stop19"
         style="stop-color:#ca177c;stop-opacity:1;" />
      <stop
         offset="0.53125"
         stop-color="#ffd900"
         id="stop20"
         style="stop-color:#d443a7;stop-opacity:1;" />
      <stop
         offset="0.92188001"
         stop-color="#49486b"
         id="stop21"
         style="stop-color:#e16eb2;stop-opacity:1;" />
    </radialGradient>
    <linearGradient
       id="linear-gradient-8"
       x1="23.36299"
       y1="121.1133"
       x2="121.027"
       y2="121.1133"
       xlink:href="#linear-gradient" />
    <linearGradient
       id="linear-gradient-9"
       x1="26.0585"
       y1="61.313"
       x2="185.44116"
       y2="61.313"
       xlink:href="#linear-gradient" />
    <linearGradient
       inkscape:collect="always"
       xlink:href="#linearGradient165"
       id="linearGradient163"
       gradientUnits="userSpaceOnUse"
       gradientTransform="matrix(1,0,0,-1,0,456)"
       x1="73.3889"
       y1="205.26401"
       x2="132.98399"
       y2="205.26401" />
    <linearGradient
       inkscape:collect="always"
       xlink:href="#linearGradient166"
       id="linearGradient167"
       x1="253.8123"
       y1="124.57972"
       x2="409.878"
       y2="124.57972"
       gradientUnits="userSpaceOnUse" />
  </defs>
  <g
     id="g167">
    <path
       d="M 227.57053,35.341804 C 205.2831,34.79047 184.05632,29.671617 163.78344,24.070044 143.51056,18.468471 123.43741,12.261654 101.68376,9.2942407 87.692136,7.3853926 71.692852,7.1158525 60.418283,12.452784 49.570722,17.598586 46.065068,26.456716 44.177937,34.682651 c -1.415344,6.192115 -2.252159,12.705231 1.635742,18.500385 2.696392,4.02353 7.486539,7.405057 10.79935,11.259509 11.522513,13.408493 3.378233,29.943663 -9.111952,43.036055 -5.854236,6.14066 -12.652037,12.00687 -17.173576,18.53959 -4.521532,6.53271 -6.611841,14.02843 -2.65851,20.69837 3.922339,6.61603 13.26501,11.57561 23.382512,15.0674 20.555255,7.09141 44.767694,9.12278 68.398147,10.272 52.28178,2.54595 104.84594,1.44328 157.26547,0.34061 19.40163,-0.40922 38.88591,-0.82333 57.97072,-2.95761 10.59963,-1.18599 21.54361,-3.06788 29.23677,-7.59619 9.76624,-5.76575 12.18713,-15.53052 5.64417,-22.75915 -10.97842,-12.12694 -41.32405,-15.1409 -49.00687,-28.15487 -4.22539,-7.16248 0.11365,-15.143372 6.25026,-21.786355 13.16859,-14.25387 35.23907,-26.755728 36.40304,-43.048314 0.79893,-11.188444 -9.81101,-22.394045 -26.21667,-27.68932 -17.19768,-5.550112 -41.04164,-4.851756 -53.72123,4.334728 -13.07217,9.448675 -36.02766,13.08749 -55.70478,12.602315 z"
       fill="#6c63ff"
       opacity="0.1"
       id="path3"
       style="stroke-width:0.290488" />
    <g
       clip-path="none"
       id="g25"
       transform="translate(52.259641,11.569521)"
       style="display:inline">
      <path
         d="m 73.4621,230.771 h 59.5219 v 22.71 a 0.82956,0.82956 0 0 1 -0.484,0.686 l -28.124,16.252 a 2.64777,2.64777 0 0 1 -2.378,0 L 73.8736,254.167 a 0.83116,0.83116 0 0 1 -0.4847,-0.686 z"
         style="fill:url(#linearGradient163)"
         id="path23" />
      <path
         d="m 73.8685,242.241 28.1245,16.271 a 2.65382,2.65382 0 0 0 2.377,0 l 28.106,-16.271 a 0.85032,0.85032 0 0 0 0.485,-0.677 v 4.647 a 0.85133,0.85133 0 0 1 -0.485,0.686 l -28.133,16.252 a 2.637,2.637 0 0 1 -2.369,0 L 73.8502,246.897 a 0.83644,0.83644 0 0 1 -0.3352,-0.278 0.82808,0.82808 0 0 1 -0.1495,-0.408 v -4.647 a 0.81309,0.81309 0 0 0 0.503,0.677 z"
         style="fill:#b2b1e4;fill-opacity:1;stroke:#b2b1e4;stroke-opacity:1"
         id="path24" />
      <path
         d="m 102.1,213.833 a 2.6371,2.6371 0 0 1 2.369,0 l 28.115,16.307 a 0.71393,0.71393 0 0 1 0.363,1.105 0.71083,0.71083 0 0 1 -0.363,0.258 l -28.115,16.216 a 2.63693,2.63693 0 0 1 -2.369,0 L 73.9761,231.457 a 0.68312,0.68312 0 0 1 -0.258,-0.129 0.70381,0.70381 0 0 1 -0.2267,-0.785 0.73105,0.73105 0 0 1 0.4847,-0.485 z"
         style="fill:#ebedf7"
         id="path25" />
    </g>
    <rect
       x="116.57745"
       y="225.11952"
       width="77.741203"
       height="62.833199"
       style="fill:none"
       id="rect1" />
    <path
       d="m 297.84164,335.21252 -27.617,-15.946 -27.617,-15.946 -27.617,-15.946 -27.617,-15.946 m 13.671,7.977 -27.618,-15.946"
       style="fill:none;stroke:#b2b1e4;stroke-width:10.0606px;stroke-linecap:round;stroke-opacity:1"
       id="path26" />
    <path
       d="m 152.40764,370.01952 -27.6167,-15.946 -27.616999,-15.945 -27.6171,-15.946 m 13.6709,7.977 -27.61716,-15.946"
       style="fill:none;stroke:#b2b1e4;stroke-width:6.40221px;stroke-linecap:round;stroke-opacity:1"
       id="path27" />
    <ellipse
       cx="-141.62357"
       cy="280.55362"
       rx="9.5672503"
       ry="5.5232501"
       transform="rotate(-59.99997)"
       style="fill:#b2b1e4;stroke:#b2b1e4;stroke-opacity:1;fill-opacity:1"
       id="ellipse27" />
    <ellipse
       cx="-10.967068"
       cy="296.99713"
       rx="5.8018599"
       ry="10.04986"
       transform="rotate(-30.00003)"
       style="fill:#b2b1e4;stroke:#b2b1e4;stroke-opacity:1;fill-opacity:1"
       id="ellipse28" />
    <g
       id="g168"
       style="display:inline">
      <path
         d="m 336.597,72.2272 94.592,52.5238 v 242.314 a 2.13832,2.13832 0 0 1 -1.047,1.84 l -93.545,53.914 a 7.9737,7.9737 0 0 1 -7.945,0 l -93.61,-54.107 a 2.35277,2.35277 0 0 1 -1.175,-2.032 V 124.622 l 94.699,-52.5446 a 7.934,7.934 0 0 1 8.031,0.1498 z"
         style="fill:url(#linear-gradient-2)"
         id="path28"
         clip-path="none"
         transform="translate(52.259641,11.569521)" />
      <g
         id="g158"
         transform="translate(52.259641,11.569521)">
        <rect
           x="223.922"
           y="66.556602"
           width="217.675"
           height="364.92599"
           style="fill:none"
           id="rect157" />
      </g>
      <path
         d="m 336.598,67.6268 92.692,53.4862 a 3.962,3.962 0 0 1 1.11,5.477 4.14406,4.14406 0 0 1 -1.11,1.091 l -92.628,53.487 a 7.98018,7.98018 0 0 1 -7.945,0 l -92.691,-53.187 a 3.96347,3.96347 0 0 1 -1.111,-5.477 4.14807,4.14807 0 0 1 1.111,-1.091 l 92.542,-53.7862 a 7.86876,7.86876 0 0 1 8.03,0 z"
         style="fill:#ebedf7"
         id="path29"
         clip-path="none"
         transform="translate(52.259641,11.569521)" />
      <g
         id="g157"
         transform="translate(52.259641,11.569521)">
        <rect
           x="223.922"
           y="66.556602"
           width="217.675"
           height="364.92599"
           style="fill:none"
           id="rect156" />
      </g>
      <path
         d="m 335.81,79.0525 74.068,42.7895 a 3.14745,3.14745 0 0 1 0,5.455 l -74.068,42.789 a 6.528,6.528 0 0 1 -6.557,0 l -73.875,-42.789 a 3.14722,3.14722 0 0 1 -1.153,-4.279 3.09758,3.09758 0 0 1 1.153,-1.134 l 73.875,-42.7887 a 6.52614,6.52614 0 0 1 6.557,-0.0428 z"
         style="fill:url(#linearGradient167);fill-opacity:1"
         id="path30"
         clip-path="none"
         transform="translate(52.259641,11.569521)" />
      <g
         id="g156"
         transform="translate(52.259641,11.569521)">
        <rect
           x="223.922"
           y="66.556602"
           width="217.675"
           height="364.92599"
           style="fill:none"
           id="rect155" />
      </g>
      <path
         d="m 255.377,125.477 73.876,42.789 a 6.5261,6.5261 0 0 0 6.556,0 l 74.068,-42.789 a 3.01267,3.01267 0 0 0 1.388,-1.776 3.08115,3.08115 0 0 1 -1.388,3.616 l -74.068,42.789 a 6.526,6.526 0 0 1 -6.556,0 l -73.876,-42.789 a 3.08436,3.08436 0 0 1 -1.388,-3.616 3.01641,3.01641 0 0 0 1.388,1.776 z"
         style="fill:#9595b3;fill-opacity:1"
         id="path31"
         clip-path="none"
         transform="translate(52.259641,11.569521)" />
      <g
         id="g155"
         transform="translate(52.259641,11.569521)">
        <rect
           x="223.922"
           y="66.556602"
           width="217.675"
           height="364.92599"
           style="fill:none"
           id="rect154" />
      </g>
      <path
         d="m 335.081,88.8294 56.896,32.8406 a 2.42094,2.42094 0 0 1 0.897,3.316 2.52846,2.52846 0 0 1 -0.897,0.877 l -56.896,32.841 a 4.802,4.802 0 0 1 -4.849,0 l -56.896,-32.841 a 2.4216,2.4216 0 0 1 -1.139,-1.47 2.42787,2.42787 0 0 1 0.242,-1.846 2.5287,2.5287 0 0 1 0.897,-0.877 l 56.896,-32.8406 a 4.90634,4.90634 0 0 1 4.849,0 z"
         style="fill:#a3a39d;fill-opacity:1"
         id="path32"
         clip-path="none"
         transform="translate(52.259641,11.569521)" />
      <g
         id="g154"
         transform="translate(52.259641,11.569521)">
        <rect
           x="223.922"
           y="66.556602"
           width="217.675"
           height="364.92599"
           style="fill:none"
           id="rect153" />
      </g>
      <path
         d="M 391.918,123.766 334.979,90.9258 a 4.90443,4.90443 0 0 0 -4.848,0 l -56.854,32.8402 a 2.27834,2.27834 0 0 0 -0.918,0.984 2.39988,2.39988 0 0 1 0.918,-3.145 l 56.897,-32.8401 a 4.90443,4.90443 0 0 1 4.848,0 l 56.896,32.8401 a 2.399,2.399 0 0 1 0.919,3.145 2.27511,2.27511 0 0 0 -0.919,-0.984 z"
         style="fill:#8686b7;fill-opacity:1"
         id="path33"
         clip-path="none"
         transform="translate(52.259641,11.569521)" />
      <g
         id="g153"
         transform="translate(52.259641,11.569521)">
        <rect
           x="223.922"
           y="66.556602"
           width="217.675"
           height="364.92599"
           style="fill:none"
           id="rect152" />
      </g>
      <path
         d="m 246.979,162.255 a 4.03452,4.03452 0 0 1 5.532,-1.562 l 61.936,35.665 a 8.38924,8.38924 0 0 1 4.272,7.21 v 143.343 a 4.0835,4.0835 0 0 1 -2.004,3.589 4.06975,4.06975 0 0 1 -4.105,0.027 l -61.936,-35.472 a 8.3286,8.3286 0 0 1 -4.272,-7.21 V 164.288 a 3.96194,3.96194 0 0 1 0.577,-2.033 z"
         style="fill:#f6b6da;fill-opacity:1"
         id="path34"
         clip-path="none"
         transform="translate(52.259641,11.569521)" />
      <g
         id="g152"
         transform="translate(52.259641,11.569521)">
        <rect
           x="223.922"
           y="66.556602"
           width="217.675"
           height="364.92599"
           style="fill:none"
           id="rect151" />
      </g>
      <path
         d="m 318.166,349.329 a 4.0766,4.0766 0 0 1 -5.511,1.455 l -62.086,-35.6 a 8.325,8.325 0 0 1 -4.271,-7.21 V 164.288 a 4.03766,4.03766 0 0 1 3.994,-4.129 v 0 a 3.96287,3.96287 0 0 0 -0.577,2.14 v 143.878 a 8.32511,8.32511 0 0 0 4.271,7.21 l 62.151,35.536 a 3.97711,3.97711 0 0 0 2.029,0.406 z"
         style="fill:url(#linear-gradient-5)"
         id="path35"
         clip-path="none"
         transform="translate(52.259641,11.569521)" />
      <g
         id="g151"
         transform="translate(52.259641,11.569521)">
        <rect
           x="223.922"
           y="66.556602"
           width="217.675"
           height="364.92599"
           style="fill:none"
           id="rect150" />
      </g>
      <path
         d="m 257.531,168.418 v 143.685 l -2.093,-1.241 V 167.177 Z"
         style="fill:#48486a"
         id="path36"
         clip-path="none"
         transform="translate(52.259641,11.569521)" />
      <g
         id="g150"
         transform="translate(52.259641,11.569521)">
        <rect
           x="223.922"
           y="66.556602"
           width="217.675"
           height="364.92599"
           style="fill:none"
           id="rect149" />
      </g>
      <path
         d="M 270.579,176.099 V 319.72 l -2.114,-1.24 V 174.794 Z"
         style="fill:#48486a"
         id="path37"
         clip-path="none"
         transform="translate(52.259641,11.569521)" />
      <g
         id="g149"
         transform="translate(52.259641,11.569521)">
        <rect
           x="223.922"
           y="66.556602"
           width="217.675"
           height="364.92599"
           style="fill:none"
           id="rect148" />
      </g>
      <path
         d="M 283.605,183.715 V 327.4 l -2.093,-1.241 V 182.474 Z"
         style="fill:#48486a"
         id="path38"
         clip-path="none"
         transform="translate(52.259641,11.569521)" />
      <g
         id="g148"
         transform="translate(52.259641,11.569521)">
        <rect
           x="223.922"
           y="66.556602"
           width="217.675"
           height="364.92599"
           style="fill:none"
           id="rect147" />
      </g>
      <path
         d="m 281.064,262.254 2.35,1.326 a 1.57767,1.57767 0 0 0 2.135,-0.578 1.76879,1.76879 0 0 0 0.214,-0.748 v -24.946 a 2.13825,2.13825 0 0 0 -1.047,-1.84 l -2.37,-1.37 a 1.5362,1.5362 0 0 0 -2.136,0.578 1.26377,1.26377 0 0 0 -0.214,0.727 v 25.011 a 2.14527,2.14527 0 0 0 1.068,1.84 z"
         style="fill:#f37ab4;fill-opacity:1"
         id="path39"
         clip-path="none"
         transform="translate(52.259641,11.569521)" />
      <g
         id="g147"
         transform="translate(52.259641,11.569521)">
        <rect
           x="223.922"
           y="66.556602"
           width="217.675"
           height="364.92599"
           style="fill:none"
           id="rect146" />
      </g>
      <path
         d="m 268.02,228.835 2.349,1.391 a 1.582,1.582 0 0 0 2.371,-1.326 v -25.203 a 2.144,2.144 0 0 0 -1.047,-1.84 l -2.371,-1.391 a 1.56269,1.56269 0 0 0 -0.578,-0.197 1.54418,1.54418 0 0 0 -0.609,0.041 1.55231,1.55231 0 0 0 -0.948,0.734 1.52179,1.52179 0 0 0 -0.214,0.749 v 25.01 a 2.13663,2.13663 0 0 0 1.047,2.032 z"
         style="fill:#cbd3eb"
         id="path40"
         clip-path="none"
         transform="translate(52.259641,11.569521)" />
      <g
         id="g146"
         transform="translate(52.259641,11.569521)">
        <rect
           x="223.922"
           y="66.556602"
           width="217.675"
           height="364.92599"
           style="fill:none"
           id="rect145" />
      </g>
      <path
         d="m 255.102,274.812 2.136,1.369 a 1.5785,1.5785 0 0 0 2.135,-0.577 1.44244,1.44244 0 0 0 0.214,-0.728 v -24.818 a 2.14526,2.14526 0 0 0 -1.047,-1.519 l -2.37,-1.39 a 1.56026,1.56026 0 0 0 -2.136,0.577 1.58444,1.58444 0 0 0 -0.214,0.685 v 24.946 a 2.14182,2.14182 0 0 0 1.282,1.455 z"
         style="fill:#c8d0ea"
         id="path41"
         clip-path="none"
         transform="translate(52.259641,11.569521)" />
      <g
         id="g145"
         transform="translate(52.259641,11.569521)">
        <rect
           x="223.922"
           y="66.556602"
           width="217.675"
           height="364.92599"
           style="fill:none"
           id="rect144" />
      </g>
      <path
         d="m 296.659,191.417 v 143.6 l -2.093,-1.241 V 190.091 Z"
         style="fill:#48486a"
         id="path42"
         clip-path="none"
         transform="translate(52.259641,11.569521)" />
      <g
         id="g144"
         transform="translate(52.259641,11.569521)">
        <rect
           x="223.922"
           y="66.556602"
           width="217.675"
           height="364.92599"
           style="fill:none"
           id="rect143" />
      </g>
      <path
         d="m 309.71,198.947 v 143.685 l -2.093,-1.24 V 197.706 Z"
         style="fill:#48486a"
         id="path43"
         clip-path="none"
         transform="translate(52.259641,11.569521)" />
      <g
         id="g143"
         transform="translate(52.259641,11.569521)">
        <rect
           x="223.922"
           y="66.556602"
           width="217.675"
           height="364.92599"
           style="fill:none"
           id="rect142" />
      </g>
      <path
         d="m 293.771,298.518 2.371,1.369 a 1.5381,1.5381 0 0 0 2.136,-0.578 1.25836,1.25836 0 0 0 0.213,-0.727 V 273.55 a 2.14025,2.14025 0 0 0 -1.046,-1.839 l -2.35,-1.37 a 1.57765,1.57765 0 0 0 -2.135,0.578 1.6789,1.6789 0 0 0 -0.214,0.727 v 25.032 a 2.14265,2.14265 0 0 0 1.025,1.84 z"
         style="fill:#cbd3eb"
         id="path44"
         clip-path="none"
         transform="translate(52.259641,11.569521)" />
      <g
         id="g142"
         transform="translate(52.259641,11.569521)">
        <rect
           x="223.922"
           y="66.556602"
           width="217.675"
           height="364.92599"
           style="fill:none"
           id="rect141" />
      </g>
      <path
         d="m 306.826,243.812 2.371,1.369 a 1.53559,1.53559 0 0 0 2.135,-0.578 1.4359,1.4359 0 0 0 0.214,-0.727 v -25.01 a 2.13832,2.13832 0 0 0 -1.047,-1.84 l -2.349,-1.391 a 1.57916,1.57916 0 0 0 -2.136,0.578 1.52078,1.52078 0 0 0 -0.213,0.749 v 25.031 a 2.14236,2.14236 0 0 0 1.025,1.819 z"
         style="fill:#cbd3eb"
         id="path45"
         clip-path="none"
         transform="translate(52.259641,11.569521)" />
      <g
         id="g141"
         transform="translate(52.259641,11.569521)">
        <rect
           x="223.922"
           y="66.556602"
           width="217.675"
           height="364.92599"
           style="fill:none"
           id="rect140" />
      </g>
      <path
         d="m 346.488,192.122 14.63,-8.408 v -4.193 l -14.63,8.408 z"
         style="fill:#b8c1e4"
         id="path46"
         clip-path="none"
         transform="translate(52.259641,11.569521)" />
      <g
         id="g140"
         transform="translate(52.259641,11.569521)">
        <rect
           x="223.922"
           y="66.556602"
           width="217.675"
           height="364.92599"
           style="fill:none"
           id="rect139" />
      </g>
      <path
         d="m 346.488,199.546 14.63,-8.408 v -4.194 l -14.63,8.408 z"
         style="fill:#b8c1e4"
         id="path47"
         clip-path="none"
         transform="translate(52.259641,11.569521)" />
      <g
         id="g139"
         transform="translate(52.259641,11.569521)">
        <rect
           x="223.922"
           y="66.556602"
           width="217.675"
           height="364.92599"
           style="fill:none"
           id="rect138" />
      </g>
    </g>
    <path
       d="m 55.611201,311.10952 27.61714,-15.946 27.617199,-15.946"
       style="fill:none;stroke:#b2b1e4;stroke-width:6.40221px;stroke-linecap:round;stroke-opacity:1"
       id="path49" />
    <path
       d="m 81.935441,295.95852 27.617099,-15.946 27.6172,-15.946"
       style="fill:none;stroke:#b2b1e4;stroke-width:6.40221px;stroke-linecap:round;stroke-opacity:1"
       id="path50" />
    <ellipse
       cx="155.52963"
       cy="240.94852"
       rx="11.68578"
       ry="6.7462902"
       style="fill:url(#radial-gradient)"
       id="ellipse57" />
    <g
       clip-path="none"
       id="g137"
       transform="translate(52.259641,11.569521)"
       style="display:inline">
      <path
         d="M 25.4085,324.079 118.21,270.316 a 1.93141,1.93141 0 0 1 2.817,1.685 v 70.128 a 4.14609,4.14609 0 0 1 -2.045,3.563 l -92.8016,53.763 a 1.93119,1.93119 0 0 1 -2.8174,-1.569 v -70.244 a 4.10815,4.10815 0 0 1 2.0455,-3.563 z"
         style="fill:url(#linear-gradient-8)"
         id="path59" />
      <path
         d="m 26.6039,324.892 92.8011,-53.763 a 1.93278,1.93278 0 0 1 2.818,1.627 v 70.186 a 4.07069,4.07069 0 0 1 -2.046,3.544 l -92.8012,53.782 a 1.93133,1.93133 0 0 1 -2.8175,-1.646 v -70.186 a 4.12656,4.12656 0 0 1 2.0456,-3.544 z"
         style="fill:#49496c"
         id="path60" />
      <path
         d="m 30.058,329.327 87.321,-50.896 v 64.201 l -87.321,50.897 z"
         style="fill:#d2d2f0;fill-opacity:1"
         id="path61" />
      <path
         d="m 125.987,349.876 59.416,31.452 c 0,0 0.329,4.667 -0.945,5.403 l -91.0068,52.736 a 7.52143,7.52143 0 0 1 -7.526,0 L 27.454,405.924 c -2.4122,-1.511 -0.9649,-5.404 -0.9649,-5.404 l 92.0489,-50.625 a 7.51759,7.51759 0 0 1 7.449,-0.019 z"
         style="fill:url(#linear-gradient-9)"
         id="path62" />
      <path
         d="m 125.987,346.273 58.471,33.544 a 1.94023,1.94023 0 0 1 0,3.292 l -91.0068,52.756 a 7.52143,7.52143 0 0 1 -7.526,0 L 27.4347,402.34 a 1.93873,1.93873 0 0 1 0,-3.311 l 91.1033,-52.756 a 7.5208,7.5208 0 0 1 7.449,0 z"
         style="fill:#d3daed"
         id="path63" />
      <path
         d="m 131.179,389.694 15.438,8.85 a 0.50723,0.50723 0 0 1 0.183,0.185 0.50409,0.50409 0 0 1 -0.183,0.687 l -24.025,13.964 a 1.92717,1.92717 0 0 1 -1.93,0 l -15.438,-8.832 a 0.50472,0.50472 0 0 1 -0.183,-0.687 0.49717,0.49717 0 0 1 0.183,-0.184 l 23.967,-13.964 a 1.925,1.925 0 0 1 1.988,-0.019 z"
         style="fill:#ebedf7"
         id="path64" />
      <path
         d="m 119.54,351.405 -5.037,2.925 a 0.2908,0.2908 0 0 0 -0.119,0.415 0.2792,0.2792 0 0 0 0.119,0.107 l 2.489,1.434 a 0.6554,0.6554 0 0 0 0.656,0 l 5.037,-2.944 a 0.31012,0.31012 0 0 0 0,-0.523 l -2.509,-1.453 a 0.63534,0.63534 0 0 0 -0.636,0.039 z"
         style="fill:#ebedf7"
         id="path65" />
      <path
         d="m 112.151,355.802 -5.037,2.924 a 0.3091,0.3091 0 0 0 -0.104,0.411 0.31054,0.31054 0 0 0 0.104,0.112 l 2.509,1.434 a 0.62044,0.62044 0 0 0 0.637,0 l 5.056,-2.925 a 0.28379,0.28379 0 0 0 0.106,-0.106 0.28779,0.28779 0 0 0 0.039,-0.146 0.29032,0.29032 0 0 0 -0.145,-0.251 l -2.509,-1.453 a 0.65521,0.65521 0 0 0 -0.656,0 z"
         style="fill:#ebedf7"
         id="path66" />
      <path
         d="m 104.739,359.985 -5.0366,2.924 a 0.28983,0.28983 0 0 0 -0.145,0.252 0.293,0.293 0 0 0 0.145,0.252 l 2.5086,1.452 a 0.65521,0.65521 0 0 0 0.656,0 l 5.037,-2.924 a 0.3119,0.3119 0 0 0 0.143,-0.262 0.3114,0.3114 0 0 0 -0.038,-0.149 0.30524,0.30524 0 0 0 -0.105,-0.112 l -2.509,-1.433 a 0.649,0.649 0 0 0 -0.656,0 z"
         style="fill:#ebedf7"
         id="path67" />
      <path
         d="m 97.1177,364.304 -5.0366,2.905 a 0.28582,0.28582 0 0 0 -0.1191,0.107 0.29205,0.29205 0 0 0 0.1191,0.416 l 2.4894,1.452 a 0.65539,0.65539 0 0 0 0.6561,0 l 5.0364,-2.924 a 0.3119,0.3119 0 0 0 0.143,-0.262 0.3114,0.3114 0 0 0 -0.038,-0.149 0.30524,0.30524 0 0 0 -0.105,-0.112 l -2.5085,-1.433 a 0.6141,0.6141 0 0 0 -0.6368,0 z"
         style="fill:#ebedf7"
         id="path68" />
      <path
         d="m 89.7857,368.39 -5.0366,2.925 a 0.2901,0.2901 0 0 0 -0.1633,0.261 0.29306,0.29306 0 0 0 0.1633,0.262 l 2.4893,1.452 a 0.65559,0.65559 0 0 0 0.6561,0 l 5.0367,-2.924 a 0.31026,0.31026 0 0 0 0,-0.523 l -2.5087,-1.453 a 0.63871,0.63871 0 0 0 -0.6368,0 z"
         style="fill:#ebedf7"
         id="path69" />
      <path
         d="m 82.6444,372.806 -5.0367,2.924 a 0.31113,0.31113 0 0 0 -0.1049,0.411 0.30616,0.30616 0 0 0 0.1049,0.112 l 2.5087,1.433 a 0.64915,0.64915 0 0 0 0.6561,0 l 4.9595,-2.905 a 0.30671,0.30671 0 0 0 0.1049,-0.112 0.31174,0.31174 0 0 0 -0.1049,-0.411 l -2.5087,-1.452 a 0.65012,0.65012 0 0 0 -0.5789,0 z"
         style="fill:#ebedf7"
         id="path70" />
      <path
         d="m 75.1959,376.932 -5.0367,2.924 a 0.29085,0.29085 0 0 0 0,0.523 l 2.4894,1.452 a 0.649,0.649 0 0 0 0.6561,0 l 5.0366,-2.924 a 0.31012,0.31012 0 0 0 0,-0.523 l -2.5086,-1.452 a 0.61392,0.61392 0 0 0 -0.6368,0 z"
         style="fill:#ebedf7"
         id="path71" />
      <path
         d="m 67.8443,381.328 -5.0366,3.001 a 0.29306,0.29306 0 0 0 -0.1633,0.262 0.291,0.291 0 0 0 0.0442,0.154 0.2854,0.2854 0 0 0 0.1191,0.107 l 2.4893,1.414 a 0.65539,0.65539 0 0 0 0.6561,0 l 5.0367,-2.924 a 0.31117,0.31117 0 0 0 0.1049,-0.411 0.3064,0.3064 0 0 0 -0.1049,-0.112 l -2.5087,-1.453 a 0.61768,0.61768 0 0 0 -0.313,-0.108 0.608,0.608 0 0 0 -0.3238,0.07 z"
         style="fill:#ebedf7"
         id="path72" />
      <path
         d="m 60.6444,385.608 -5.0367,2.924 a 0.31024,0.31024 0 0 0 0,0.523 l 2.5087,1.453 a 0.63891,0.63891 0 0 0 0.6368,0 l 5.0366,-2.925 a 0.29085,0.29085 0 0 0 0,-0.523 l -2.4893,-1.452 a 0.65539,0.65539 0 0 0 -0.6561,0 z"
         style="fill:#ebedf7"
         id="path73" />
      <path
         d="m 52.9264,390.023 -5.0366,2.924 a 0.31026,0.31026 0 0 0 0,0.523 l 2.5087,1.433 a 0.63247,0.63247 0 0 0 0.6368,0 l 5.0945,-2.827 a 0.3108,0.3108 0 0 0 0.1593,-0.271 0.3122,0.3122 0 0 0 -0.0428,-0.158 0.30617,0.30617 0 0 0 -0.1165,-0.113 L 53.6404,390.1 a 0.65527,0.65527 0 0 0 -0.714,-0.077 z"
         style="fill:#ebedf7"
         id="path74" />
      <path
         d="m 45.575,394.187 -5.0366,2.924 a 0.31012,0.31012 0 0 0 0,0.523 l 2.5086,1.433 a 0.649,0.649 0 0 0 0.6561,0 l 5.0367,-2.905 a 0.30624,0.30624 0 0 0 0.1049,-0.112 0.31172,0.31172 0 0 0 -0.1049,-0.411 l -2.5087,-1.452 a 0.65539,0.65539 0 0 0 -0.6561,0 z"
         style="fill:#ebedf7"
         id="path75" />
      <path
         d="m 129.787,356.887 -3.415,-1.937 a 1.40461,1.40461 0 0 0 -1.428,0 l -3.339,1.937 a 0.71767,0.71767 0 0 0 0,1.22 l 3.3,1.975 a 1.43962,1.43962 0 0 0 1.447,0 l 3.435,-1.937 a 0.71634,0.71634 0 0 0 0,-1.258 z"
         style="fill:#ebedf7"
         id="path76" />
      <path
         d="m 122.147,361.302 -3.415,-1.937 a 1.44317,1.44317 0 0 0 -1.428,0 l -3.339,1.937 a 0.71769,0.71769 0 0 0 0,1.22 l 3.319,2.053 a 1.448,1.448 0 0 0 1.448,0 l 3.435,-1.937 a 0.71665,0.71665 0 0 0 0.446,-0.675 0.71591,0.71591 0 0 0 -0.466,-0.661 z"
         style="fill:#ebedf7"
         id="path77" />
      <path
         d="m 114.677,365.485 -3.416,-1.937 a 1.44323,1.44323 0 0 0 -1.428,0 l -3.338,1.937 a 0.71693,0.71693 0 0 0 0,1.22 l 3.319,1.937 a 1.38432,1.38432 0 0 0 1.466,0 l 3.397,-1.937 a 0.69692,0.69692 0 0 0 0.358,-0.61 0.697,0.697 0 0 0 -0.358,-0.61 z"
         style="fill:#ebedf7"
         id="path78" />
      <path
         d="m 106.823,369.804 -3.415,-1.937 a 1.40467,1.40467 0 0 0 -1.428,0 l -3.3389,1.937 a 0.71781,0.71781 0 0 0 0,1.22 l 3.3189,1.936 a 1.42062,1.42062 0 0 0 1.467,0 l 3.415,-1.936 a 0.6992,0.6992 0 0 0 0.247,-0.969 0.68333,0.68333 0 0 0 -0.266,-0.251 z"
         style="fill:#ebedf7"
         id="path79" />
      <path
         d="m 99.8773,373.891 -3.4157,-1.937 a 1.34579,1.34579 0 0 0 -1.428,0 l -3.3384,1.937 a 0.71037,0.71037 0 0 0 -0.2489,0.26 0.71848,0.71848 0 0 0 0.2489,0.96 l 3.2998,1.975 a 1.38545,1.38545 0 0 0 1.4473,0 l 3.435,-1.937 a 0.71193,0.71193 0 0 0 0.2727,-0.263 0.71978,0.71978 0 0 0 0,-0.732 0.71237,0.71237 0 0 0 -0.2727,-0.263 z"
         style="fill:#ebedf7"
         id="path80" />
      <path
         d="m 92.8135,378.287 -3.4156,-1.937 a 1.44018,1.44018 0 0 0 -1.4473,0 l -3.3192,1.937 a 0.711,0.711 0 0 0 -0.2488,0.26 0.71863,0.71863 0 0 0 0.2488,0.96 l 3.3192,2.053 a 1.44666,1.44666 0 0 0 1.4473,0 l 3.4156,-1.937 a 0.714,0.714 0 0 0 0.3311,-0.263 0.71908,0.71908 0 0 0 0,-0.81 0.71422,0.71422 0 0 0 -0.3311,-0.263 z"
         style="fill:#ebedf7"
         id="path81" />
      <path
         d="m 85.249,382.393 -3.3771,-1.937 a 1.38562,1.38562 0 0 0 -1.4473,0 l -3.3384,1.937 a 0.71714,0.71714 0 0 0 0,1.239 l 3.2998,2.034 a 1.426,1.426 0 0 0 1.4666,0 l 3.4157,-1.937 a 0.717,0.717 0 0 0 -0.0193,-1.336 z"
         style="fill:#ebedf7"
         id="path82" />
      <path
         d="m 77.8774,386.654 -3.4157,-1.937 a 1.44018,1.44018 0 0 0 -1.4473,0 l -3.3191,1.937 a 0.68929,0.68929 0 0 0 -0.2622,0.256 0.69808,0.69808 0 0 0 0.2622,0.964 l 3.2998,2.033 a 1.42008,1.42008 0 0 0 1.4666,0 l 3.4157,-1.936 a 0.699,0.699 0 0 0 0.3379,-1.063 0.6908,0.6908 0 0 0 -0.3379,-0.254 z"
         style="fill:#ebedf7"
         id="path83" />
      <path
         d="m 70.6045,391.107 -3.4157,-1.936 a 1.346,1.346 0 0 0 -1.428,0 l -3.3385,1.936 a 0.718,0.718 0 0 0 0,1.24 l 3.3192,2.033 a 1.4199,1.4199 0 0 0 1.4666,0 l 3.4156,-1.936 a 0.71806,0.71806 0 0 0 -0.0192,-1.337 z"
         style="fill:#ebedf7"
         id="path84" />
      <path
         d="m 62.6904,395.795 -3.4156,-1.937 a 1.44342,1.44342 0 0 0 -1.4281,0 l -3.3384,1.937 a 0.718,0.718 0 0 0 0,1.22 l 3.3191,2.053 a 1.44685,1.44685 0 0 0 1.4474,0 l 3.4349,-1.937 a 0.71695,0.71695 0 0 0 -0.0193,-1.336 z"
         style="fill:#ebedf7"
         id="path85" />
      <path
         d="m 55.5302,399.687 -3.4156,-1.936 a 1.40461,1.40461 0 0 0 -1.428,0 l -3.3385,1.936 a 0.71863,0.71863 0 0 0 0,1.221 l 3.3192,2.052 a 1.4569,1.4569 0 0 0 1.4666,0 l 3.4156,-1.936 a 0.718,0.718 0 0 0 -0.0193,-1.337 z"
         style="fill:#ebedf7"
         id="path86" />
      <path
         d="m 137.392,361.089 -3.415,-1.937 a 1.34581,1.34581 0 0 0 -1.428,0 l -3.339,1.937 a 0.71039,0.71039 0 0 0 -0.26,0.262 0.72016,0.72016 0 0 0 0,0.715 0.71031,0.71031 0 0 0 0.26,0.262 l 3.319,1.937 a 1.38686,1.38686 0 0 0 1.448,0 l 3.435,-1.937 a 0.71807,0.71807 0 0 0 0.346,-0.625 0.71935,0.71935 0 0 0 -0.101,-0.356 0.70585,0.70585 0 0 0 -0.265,-0.258 z"
         style="fill:#ebedf7"
         id="path87" />
      <path
         d="m 129.748,365.446 -3.416,-1.936 a 1.34579,1.34579 0 0 0 -1.428,0 l -3.338,1.936 a 0.71711,0.71711 0 0 0 0,1.24 l 3.319,1.936 a 1.38509,1.38509 0 0 0 1.447,0 l 3.435,-1.936 a 0.7185,0.7185 0 0 0 0.245,-0.982 0.72534,0.72534 0 0 0 -0.264,-0.258 z"
         style="fill:#ebedf7"
         id="path88" />
      <path
         d="m 122.396,369.63 -3.416,-1.937 a 1.40467,1.40467 0 0 0 -1.428,0 l -3.339,1.937 a 0.719,0.719 0 0 0 0,1.22 l 3.3,2.053 a 1.4641,1.4641 0 0 0 1.467,0 l 3.416,-1.937 a 0.7171,0.7171 0 0 0 0,-1.336 z"
         style="fill:#ebedf7"
         id="path89" />
      <path
         d="m 114.429,373.949 -3.416,-1.937 a 1.44323,1.44323 0 0 0 -1.428,0 l -3.338,1.937 a 0.7177,0.7177 0 0 0 0,1.22 l 3.319,2.053 a 1.462,1.462 0 0 0 1.466,0 l 3.416,-1.937 a 0.7166,0.7166 0 0 0 0.446,-0.674 0.71924,0.71924 0 0 0 -0.13,-0.404 0.712,0.712 0 0 0 -0.335,-0.258 z"
         style="fill:#ebedf7"
         id="path90" />
      <path
         d="m 107.479,378.054 -3.416,-1.936 a 1.443,1.443 0 0 0 -1.428,0 l -3.3383,1.936 a 0.71863,0.71863 0 0 0 0,1.221 l 3.3193,1.936 a 1.42062,1.42062 0 0 0 1.467,0 l 3.415,-1.936 a 0.71846,0.71846 0 0 0 -0.019,-1.221 z"
         style="fill:#ebedf7"
         id="path91" />
      <path
         d="m 100.417,382.393 -3.4157,-1.937 a 1.346,1.346 0 0 0 -1.428,0 l -3.3385,1.937 a 0.71726,0.71726 0 0 0 0,1.239 l 3.3192,2.034 a 1.38545,1.38545 0 0 0 1.4473,0 l 3.4347,-1.937 a 0.7174,0.7174 0 0 0 0.328,-0.268 0.71867,0.71867 0 0 0 -0.012,-0.81 0.712,0.712 0 0 0 -0.335,-0.258 z"
         style="fill:#ebedf7"
         id="path92" />
      <path
         d="m 92.8735,386.595 -3.4157,-1.936 a 1.47987,1.47987 0 0 0 -1.4473,0 l -3.3191,1.936 a 0.69865,0.69865 0 0 0 -0.2622,0.964 0.68929,0.68929 0 0 0 0.2622,0.256 l 3.2998,2.034 a 1.38536,1.38536 0 0 0 1.4666,0 l 3.4157,-1.937 a 0.69062,0.69062 0 0 0 0.3379,-0.254 0.6987,0.6987 0 0 0 -0.3379,-1.063 z"
         style="fill:#ebedf7"
         id="path93" />
      <path
         d="m 85.4809,390.797 -3.4157,-1.936 a 1.47994,1.47994 0 0 0 -1.4473,0 l -3.3191,1.936 a 0.69982,0.69982 0 0 0 -0.2622,0.965 0.694,0.694 0 0 0 0.2622,0.255 l 3.3191,1.937 a 1.38562,1.38562 0 0 0 1.4473,0 l 3.4157,-1.937 a 0.71067,0.71067 0 0 0 0.2488,-0.26 0.71866,0.71866 0 0 0 -0.2488,-0.96 z"
         style="fill:#ebedf7"
         id="path94" />
      <path
         d="m 78.2073,395.271 -3.4156,-1.936 a 1.44323,1.44323 0 0 0 -1.428,0 l -3.3385,1.936 a 0.71721,0.71721 0 0 0 0,1.22 l 3.3192,2.034 a 1.38531,1.38531 0 0 0 1.4666,0 l 3.4156,-1.937 a 0.69807,0.69807 0 0 0 -0.0193,-1.317 z"
         style="fill:#ebedf7"
         id="path95" />
      <path
         d="m 70.2929,399.939 -3.4157,-1.936 a 1.346,1.346 0 0 0 -1.428,0 l -3.3384,1.936 a 0.71852,0.71852 0 0 0 0,1.221 l 3.3191,2.052 a 1.42008,1.42008 0 0 0 1.4666,0 l 3.3964,-2.033 a 0.71865,0.71865 0 0 0 0,-1.24 z"
         style="fill:#ebedf7"
         id="path96" />
      <path
         d="m 63.1362,403.851 -3.4157,-1.936 a 1.40461,1.40461 0 0 0 -1.428,0 l -3.4349,1.782 a 0.71728,0.71728 0 0 0 0,1.239 l 3.3192,1.937 a 1.426,1.426 0 0 0 1.4666,0 l 3.4156,-1.937 a 0.71816,0.71816 0 0 0 0.2868,-0.524 0.722,0.722 0 0 0 -0.2096,-0.561 z"
         style="fill:#ebedf7"
         id="path97" />
      <path
         d="m 144.994,365.195 -3.415,-1.937 a 1.44315,1.44315 0 0 0 -1.428,0 l -3.339,1.937 a 0.71828,0.71828 0 0 0 0,1.22 l 3.32,1.937 a 1.38417,1.38417 0 0 0 1.466,0 l 3.416,-1.937 a 0.71689,0.71689 0 0 0 -0.02,-1.22 z"
         style="fill:#ebedf7"
         id="path98" />
      <path
         d="m 137.354,369.61 -3.416,-1.937 a 1.44325,1.44325 0 0 0 -1.428,0 l -3.338,1.937 a 0.70863,0.70863 0 0 0 -0.249,0.261 0.71667,0.71667 0 0 0 0,0.699 0.71335,0.71335 0 0 0 0.249,0.26 l 3.319,1.937 a 1.38491,1.38491 0 0 0 1.447,0 l 3.435,-1.937 a 0.71778,0.71778 0 0 0 -0.019,-1.22 z"
         style="fill:#ebedf7"
         id="path99" />
      <path
         d="m 129.924,373.775 -3.396,-1.937 a 1.38669,1.38669 0 0 0 -1.448,0 l -3.338,1.937 a 0.71766,0.71766 0 0 0 0,1.239 l 3.3,1.956 a 1.42487,1.42487 0 0 0 1.466,0 l 3.416,-1.937 a 0.711,0.711 0 0 0 0.273,-0.263 0.71984,0.71984 0 0 0 0,-0.732 0.71117,0.71117 0 0 0 -0.273,-0.263 z"
         style="fill:#ebedf7"
         id="path100" />
      <path
         d="m 122.032,378.093 -3.396,-1.936 a 1.43968,1.43968 0 0 0 -1.447,0 l -3.339,1.936 a 0.71693,0.71693 0 0 0 0,1.22 l 3.3,2.053 a 1.4641,1.4641 0 0 0 1.467,0 l 3.415,-1.936 a 0.71771,0.71771 0 0 0 0,-1.337 z"
         style="fill:#ebedf7"
         id="path101" />
      <path
         d="m 115.085,382.199 -3.416,-1.937 a 1.44323,1.44323 0 0 0 -1.428,0 l -3.338,1.937 a 0.70848,0.70848 0 0 0 -0.249,0.261 0.71474,0.71474 0 0 0 0,0.698 0.70844,0.70844 0 0 0 0.249,0.261 l 3.319,2.053 a 1.46385,1.46385 0 0 0 1.467,0 l 3.415,-1.937 a 0.71117,0.71117 0 0 0 0.328,-0.268 0.71874,0.71874 0 0 0 -0.012,-0.81 0.712,0.712 0 0 0 -0.335,-0.258 z"
         style="fill:#ebedf7"
         id="path102" />
      <path
         d="m 108.022,386.595 -3.415,-1.936 a 1.44317,1.44317 0 0 0 -1.428,0 l -3.3387,1.936 a 0.71867,0.71867 0 0 0 0,1.221 l 3.2617,1.956 a 1.38491,1.38491 0 0 0 1.447,0 l 3.435,-1.937 a 0.72075,0.72075 0 0 0 0.269,-0.254 0.72811,0.72811 0 0 0 0.106,-0.355 0.71756,0.71756 0 0 0 -0.337,-0.631 z"
         style="fill:#ebedf7"
         id="path103" />
      <path
         d="m 100.475,390.74 -3.4153,-1.937 a 1.44018,1.44018 0 0 0 -1.4473,0 l -3.3192,1.937 a 0.68832,0.68832 0 0 0 -0.2621,0.256 0.69819,0.69819 0 0 0 0.2621,0.964 l 3.2999,2.053 a 1.44666,1.44666 0 0 0 1.4473,0 l 3.4156,-1.937 a 0.71212,0.71212 0 0 0 0.335,-0.258 0.71872,0.71872 0 0 0 0.012,-0.81 0.71119,0.71119 0 0 0 -0.328,-0.268 z"
         style="fill:#ebedf7"
         id="path104" />
      <path
         d="m 93.0849,394.943 -3.4156,-1.937 a 1.44666,1.44666 0 0 0 -1.4473,0 l -3.3192,1.937 a 0.71793,0.71793 0 0 0 0,1.22 l 3.3192,2.053 a 1.44666,1.44666 0 0 0 1.4473,0 l 3.4349,-1.937 a 0.7165,0.7165 0 0 0 0.4465,-0.675 0.71534,0.71534 0 0 0 -0.4658,-0.661 z"
         style="fill:#ebedf7"
         id="path105" />
      <path
         d="m 85.7334,399.416 -3.4157,-1.937 a 1.44323,1.44323 0 0 0 -1.428,0 l -3.3385,1.937 a 0.71794,0.71794 0 0 0 0,1.22 l 3.3192,2.053 a 1.46336,1.46336 0 0 0 1.4666,0 l 3.4157,-1.937 a 0.71661,0.71661 0 0 0 0.4464,-0.675 0.7155,0.7155 0 0 0 -0.4657,-0.661 z"
         style="fill:#ebedf7"
         id="path106" />
      <path
         d="m 77.8968,404.103 -3.4156,-1.936 a 1.44323,1.44323 0 0 0 -1.428,0 l -3.3385,1.936 a 0.71721,0.71721 0 0 0 0,1.22 l 3.3192,1.937 a 1.42008,1.42008 0 0 0 1.4666,0 l 3.4156,-1.937 a 0.70516,0.70516 0 0 0 0.2448,-0.264 0.71854,0.71854 0 0 0 -0.2641,-0.956 z"
         style="fill:#ebedf7"
         id="path107" />
      <path
         d="m 70.7373,407.996 -3.4157,-1.937 a 1.44323,1.44323 0 0 0 -1.428,0 l -3.3385,1.937 a 0.718,0.718 0 0 0 0,1.22 l 3.3192,1.937 a 1.42614,1.42614 0 0 0 1.4666,0 l 3.4157,-1.937 a 0.69835,0.69835 0 0 0 0.2469,-0.968 0.68773,0.68773 0 0 0 -0.2662,-0.252 z"
         style="fill:#ebedf7"
         id="path108" />
      <path
         d="m 152.597,369.34 -3.416,-1.937 a 1.44295,1.44295 0 0 0 -1.428,0 l -3.338,1.937 a 0.71769,0.71769 0 0 0 0,1.22 l 3.319,2.053 a 1.46226,1.46226 0 0 0 1.466,0 l 3.416,-1.937 a 0.71686,0.71686 0 0 0 -0.019,-1.336 z"
         style="fill:#ebedf7"
         id="path109" />
      <path
         d="m 144.956,373.755 -3.416,-1.937 a 1.44321,1.44321 0 0 0 -1.428,0 l -3.338,1.937 a 0.71347,0.71347 0 0 0 -0.249,0.26 0.71675,0.71675 0 0 0 0,0.699 0.70855,0.70855 0 0 0 0.249,0.261 l 3.319,2.053 a 1.4641,1.4641 0 0 0 1.467,0 l 3.415,-1.937 a 0.71687,0.71687 0 0 0 -0.019,-1.336 z"
         style="fill:#ebedf7"
         id="path110" />
      <path
         d="m 137.528,377.938 -3.397,-1.937 a 1.47927,1.47927 0 0 0 -1.447,0 l -3.319,1.937 a 0.69249,0.69249 0 0 0 -0.262,0.256 0.69448,0.69448 0 0 0 0,0.708 0.69241,0.69241 0 0 0 0.262,0.256 l 3.3,2.034 a 1.42489,1.42489 0 0 0 1.466,0 l 3.416,-1.937 a 0.69845,0.69845 0 0 0 -0.019,-1.317 z"
         style="fill:#ebedf7"
         id="path111" />
      <path
         d="m 129.654,382.238 -3.416,-1.937 a 1.43968,1.43968 0 0 0 -1.447,0 l -3.339,1.937 a 0.71762,0.71762 0 0 0 0,1.239 l 3.3,1.937 a 1.42668,1.42668 0 0 0 1.467,0 l 3.416,-1.937 a 0.71007,0.71007 0 0 0 0.264,-0.258 0.717,0.717 0 0 0 0.011,-0.715 0.7107,0.7107 0 0 0 -0.256,-0.266 z"
         style="fill:#ebedf7"
         id="path112" />
      <path
         d="m 122.03,386.808 -3.396,-1.937 a 1.48623,1.48623 0 0 0 -1.447,0 l -17.3681,10.052 a 0.71727,0.71727 0 0 0 0,1.239 l 3.2811,1.956 a 1.38509,1.38509 0 0 0 1.447,0 l 17.368,-10.109 a 0.699,0.699 0 0 0 0.115,-1.201 z"
         style="fill:#ebedf7"
         id="path113" />
      <path
         d="m 100.689,399.087 -3.4154,-1.937 a 1.346,1.346 0 0 0 -1.428,0 l -3.3384,1.937 a 0.71726,0.71726 0 0 0 0,1.239 l 3.3191,1.937 a 1.38545,1.38545 0 0 0 1.4473,0 l 3.4354,-1.937 a 0.71807,0.71807 0 0 0 0.346,-0.625 0.72206,0.72206 0 0 0 -0.101,-0.356 0.71293,0.71293 0 0 0 -0.265,-0.258 z"
         style="fill:#ebedf7"
         id="path114" />
      <path
         d="m 93.451,403.561 -3.4156,-1.937 a 1.346,1.346 0 0 0 -1.428,0 l -3.3385,1.937 a 0.73728,0.73728 0 0 0 0,1.239 l 3.3192,1.937 a 1.426,1.426 0 0 0 1.4666,0 l 3.4156,-1.937 a 0.71726,0.71726 0 0 0 -0.0193,-1.239 z"
         style="fill:#ebedf7"
         id="path115" />
      <path
         d="m 85.5023,408.248 -3.4157,-1.937 a 1.44323,1.44323 0 0 0 -1.428,0 l -3.3385,1.937 a 0.71794,0.71794 0 0 0 0,1.22 l 3.2999,1.975 a 1.4569,1.4569 0 0 0 1.4666,0 l 3.4157,-1.936 a 0.71873,0.71873 0 0 0 0.2725,-0.996 0.70892,0.70892 0 0 0 -0.2725,-0.263 z"
         style="fill:#ebedf7"
         id="path116" />
      <path
         d="m 78.3397,412.141 -3.4156,-1.937 a 1.40461,1.40461 0 0 0 -1.428,0 l -3.3385,1.937 a 0.71091,0.71091 0 0 0 -0.2488,0.26 0.71861,0.71861 0 0 0 0.2488,0.96 l 3.2999,1.956 a 1.46317,1.46317 0 0 0 1.4666,0 l 3.4156,-1.937 a 0.71719,0.71719 0 0 0 0,-1.239 z"
         style="fill:#ebedf7"
         id="path117" />
      <path
         d="m 74.7148,309.534 -38.9422,22.563 v 2.595 l 38.9422,-22.601 z"
         style="fill:#ebedf7"
         id="path118" />
      <path
         d="m 90.4609,300.451 -13.3924,7.805 v 2.557 l 13.3924,-7.786 z"
         style="fill:#ebedf7"
         id="path119" />
      <path
         d="m 83.7656,311.664 -11.1153,6.469 v 2.556 l 11.1153,-6.468 z"
         style="fill:#a3a39d;fill-opacity:1"
         id="path120" />
      <path
         d="m 70.7383,319.14 -15.1292,8.85 v 2.557 l 15.1292,-8.851 z"
         style="fill:#ebedf7"
         id="path121" />
      <path
         d="M 68.8867,327.816 35.7723,346.99 v 2.556 l 33.1144,-19.173 z"
         style="fill:#ebedf7"
         id="path122" />
      <path
         d="m 81.2148,320.67 -8.7803,5.093 v 2.576 l 8.7803,-5.093 z"
         style="fill:#a3a39d;fill-opacity:1"
         id="path123" />
      <path
         d="m 113.02,302.311 -27.8081,16.113 v 2.556 L 113.02,304.867 Z"
         style="fill:#ebedf7"
         id="path124" />
      <path
         d="m 96.6914,318.637 -22.578,13.247 v 2.556 l 22.578,-13.227 z"
         style="fill:#ebedf7"
         id="path125" />
      <path
         d="m 104.449,314.085 -6.0785,3.544 v 2.557 l 6.0785,-3.545 z"
         style="fill:#a3a39d;fill-opacity:1"
         id="path126" />
      <path
         d="m 89.2812,330.818 -47.626,27.54 v 2.557 l 47.626,-27.54 z"
         style="fill:#ebedf7"
         id="path127" />
      <path
         d="M 109.219,319.392 91.6195,329.54 v 2.556 l 17.5995,-10.148 z"
         style="fill:#ebedf7"
         id="path128" />
      <path
         d="m 79.8281,343.853 -44.056,25.39 v 2.556 l 44.056,-25.39 z"
         style="fill:#ebedf7"
         id="path129" />
      <path
         d="m 100.398,331.961 -18.2549,10.613 v 2.556 l 18.2549,-10.613 z"
         style="fill:#ebedf7"
         id="path130" />
      <path
         d="m 113.02,324.543 -10.865,6.275 v 2.556 l 10.865,-6.275 z"
         style="fill:#a3a39d;fill-opacity:1"
         id="path131" />
      <path
         d="m 49.8398,368.08 -6.2523,3.583 v 2.556 l 6.2523,-3.582 z"
         style="fill:#a3a39d;fill-opacity:1"
         id="path132" />
      <path
         d="m 57.7891,363.354 -6.0401,3.448 v 2.556 l 6.0401,-3.447 z"
         style="fill:#a3a39d;fill-opacity:1"
         id="path133" />
      <path
         d="M 77.8008,359.637 35.771,384.058 v 2.576 l 42.0298,-24.441 z"
         style="fill:#ebedf7"
         id="path134" />
      <path
         d="m 96.7109,348.771 -13.431,7.786 v 2.556 l 13.431,-7.785 z"
         style="fill:#ebedf7"
         id="path135" />
      <path
         d="m 113.02,339.379 -7.025,4.028 v 2.557 l 7.025,-4.029 z"
         style="fill:#a3a39d;fill-opacity:1"
         id="path136" />
      <path
         d="m 111.438,289.16 -10.865,6.294 v 2.557 l 10.865,-6.294 z"
         style="fill:#a3a39d;fill-opacity:1"
         id="path137" />
    </g>
    <rect
       x="75.197639"
       y="281.63351"
       width="167"
       height="175"
       style="fill:none"
       id="rect21" />
    <g
       opacity="0.8"
       id="g35"
       transform="matrix(0.36602241,0,0,0.36602241,-43.999888,-6.4700037)"
       style="display:inline">
      <line
         x1="330.04001"
         y1="290.48999"
         x2="955.09998"
         y2="290.48999"
         fill="none"
         stroke="#3f3d56"
         stroke-miterlimit="10"
         stroke-width="3"
         id="line22" />
      <path
         d="m 466.46,393.83 c 0,0 29.89,4.15 14.41,-27.92 -15.48,-32.07 42,-26 42,-26"
         transform="translate(-80.89,-103.35)"
         fill="none"
         stroke="#3f3d56"
         stroke-miterlimit="10"
         stroke-width="3"
         id="path23-3" />
      <path
         d="m 665.53,393.83 c 0,0 29.89,-4.14 14.41,27.93 -15.48,32.07 42,26 42,26"
         transform="translate(-80.89,-103.35)"
         fill="none"
         stroke="#3f3d56"
         stroke-miterlimit="10"
         stroke-width="3"
         id="path24-0" />
      <path
         d="m 952.16,393.83 c 0,0 -29.9,-4.14 -14.41,27.93 15.49,32.07 -42,26 -42,26"
         transform="translate(-80.89,-103.35)"
         fill="none"
         stroke="#3f3d56"
         stroke-miterlimit="10"
         stroke-width="3"
         id="path25-0" />
      <line
         x1="814.85999"
         y1="344.39999"
         x2="649.92999"
         y2="344.39999"
         fill="none"
         stroke="#3f3d56"
         stroke-miterlimit="10"
         stroke-width="3"
         id="line25" />
      <circle
         cx="330.04001"
         cy="290.48999"
         r="18.25"
         fill="#6c63ff"
         id="circle25" />
      <circle
         cx="442.29001"
         cy="236.3"
         r="18.25"
         fill="#3acc6c"
         id="circle26"
         style="fill:#f6b6da;fill-opacity:1" />
      <circle
         cx="442.29001"
         cy="290.48999"
         r="18.25"
         fill="#6c63ff"
         id="circle27" />
      <circle
         cx="514.72998"
         cy="290.48999"
         r="18.25"
         fill="#6c63ff"
         id="circle28" />
      <circle
         cx="641.34998"
         cy="344.13"
         r="18.25"
         fill="#ff6584"
         id="circle29"
         style="fill:#ff2c80;fill-opacity:1" />
      <circle
         cx="737.03003"
         cy="344.13"
         r="18.25"
         fill="#ff6584"
         id="circle30"
         style="fill:#ff2c80;fill-opacity:1" />
      <circle
         cx="732.03998"
         cy="290.48999"
         r="18.25"
         fill="#6c63ff"
         id="circle31" />
      <circle
         cx="950.47998"
         cy="290.48999"
         r="18.25"
         fill="#6c63ff"
         id="circle32" />
      <circle
         cx="861.12"
         cy="290.48999"
         r="18.25"
         fill="#6c63ff"
         id="circle33" />
      <rect
         x="299.38"
         y="122.66"
         width="61.23"
         height="42.200001"
         fill="#6c63ff"
         id="rect33" />
      <rect
         x="411.89999"
         y="122.66"
         width="61.23"
         height="42.200001"
         fill="#3acc6c"
         id="rect34"
         style="fill:#f6b6da;fill-opacity:1" />
      <rect
         x="610.47998"
         y="122.66"
         width="61.23"
         height="42.200001"
         fill="#ff6584"
         id="rect35"
         style="fill:#ff2c80;fill-opacity:1" />
    </g>
  </g>
</svg>
